<?xml version="1.0" encoding="UTF-8" standalone="no"?>
<!DOCTYPE svg PUBLIC "-//W3C//DTD SVG 1.1//EN"
 "http://www.w3.org/Graphics/SVG/1.1/DTD/svg11.dtd">
<!-- Generated by graphviz version 2.47.0 (20210316.0004)
 -->
<!-- Title: dependencies Pages: 1 -->
<svg width="504pt" height="211pt"
 viewBox="0.00 0.00 504.00 211.00" xmlns="http://www.w3.org/2000/svg" xmlns:xlink="http://www.w3.org/1999/xlink">
<g id="graph0" class="graph" transform="scale(1 1) rotate(0) translate(4 207)">
<title>dependencies</title>
<polygon fill="white" stroke="transparent" points="-4,4 -4,-207 500,-207 500,4 -4,4"/>
<text text-anchor="start" x="227.01" y="-42.4" font-family="Times-12" font-weight="bold" font-size="14.00">Legend</text>
<polygon fill="#ffffb3" stroke="transparent" points="14,-10 14,-30 34,-30 34,-10 14,-10"/>
<text text-anchor="start" x="37.63" y="-15.4" font-family="Times-12" font-size="14.00"> &#160;Declarations</text>
<polygon fill="#8dd3c7" stroke="transparent" points="127,-10 127,-30 147,-30 147,-10 127,-10"/>
<text text-anchor="start" x="150.73" y="-15.4" font-family="Times-12" font-size="14.00"> &#160;Module</text>
<polygon fill="#80b1d3" stroke="transparent" points="213,-10 213,-30 233,-30 233,-10 213,-10"/>
<text text-anchor="start" x="236.78" y="-15.4" font-family="Times-12" font-size="14.00"> &#160;Bootstrap</text>
<polygon fill="#fdb462" stroke="transparent" points="310,-10 310,-30 330,-30 330,-10 310,-10"/>
<text text-anchor="start" x="333.67" y="-15.4" font-family="Times-12" font-size="14.00"> &#160;Providers</text>
<polygon fill="#fb8072" stroke="transparent" points="406,-10 406,-30 426,-30 426,-10 406,-10"/>
<text text-anchor="start" x="429.73" y="-15.4" font-family="Times-12" font-size="14.00"> &#160;Exports</text>
<g id="clust1" class="cluster">
<title>cluster_PermissionModule</title>
<polygon fill="none" stroke="black" stroke-dasharray="1,5" points="97.5,-70 97.5,-195 398.5,-195 398.5,-70 97.5,-70"/>
</g>
<g id="clust4" class="cluster">
<title>cluster_PermissionModule_exports</title>
<polygon fill="none" stroke="black" points="105.5,-135 105.5,-187 390.5,-187 390.5,-135 105.5,-135"/>
</g>
<!-- PermissionRepository  -->
<g id="node1" class="node">
<title>PermissionRepository </title>
<polygon fill="#fb8072" stroke="black" points="382.16,-179 238.84,-179 238.84,-143 382.16,-143 382.16,-179"/>
<text text-anchor="middle" x="310.5" y="-156.8" font-family="Times,serif" font-size="14.00">PermissionRepository </text>
</g>
<!-- RoleRepository  -->
<g id="node2" class="node">
<title>RoleRepository </title>
<polygon fill="#fb8072" stroke="black" points="221.38,-179 113.62,-179 113.62,-143 221.38,-143 221.38,-179"/>
<text text-anchor="middle" x="167.5" y="-156.8" font-family="Times,serif" font-size="14.00">RoleRepository </text>
</g>
<!-- PermissionModule -->
<g id="node3" class="node">
<title>PermissionModule</title>
<polygon fill="#8dd3c7" stroke="black" points="299.27,-114 296.27,-118 275.27,-118 272.27,-114 177.73,-114 177.73,-78 299.27,-78 299.27,-114"/>
<text text-anchor="middle" x="238.5" y="-91.8" font-family="Times,serif" font-size="14.00">PermissionModule</text>
</g>
<!-- PermissionModule&#45;&gt;PermissionRepository  -->
<g id="edge1" class="edge">
<title>PermissionModule&#45;&gt;PermissionRepository </title>
<path fill="none" stroke="black" stroke-dasharray="5,2" d="M269.15,-114.11C269.15,-114.11 269.15,-132.99 269.15,-132.99"/>
<polygon fill="black" stroke="black" points="265.65,-132.99 269.15,-142.99 272.65,-132.99 265.65,-132.99"/>
</g>
<!-- PermissionModule&#45;&gt;RoleRepository  -->
<g id="edge2" class="edge">
<title>PermissionModule&#45;&gt;RoleRepository </title>
<path fill="none" stroke="black" stroke-dasharray="5,2" d="M199.4,-114.11C199.4,-114.11 199.4,-132.99 199.4,-132.99"/>
<polygon fill="black" stroke="black" points="195.9,-132.99 199.4,-142.99 202.9,-132.99 195.9,-132.99"/>
</g>
</g>
</svg>
