<?xml version="1.0" encoding="UTF-8" standalone="no"?>
<!DOCTYPE svg PUBLIC "-//W3C//DTD SVG 1.1//EN"
 "http://www.w3.org/Graphics/SVG/1.1/DTD/svg11.dtd">
<!-- Generated by graphviz version 2.47.0 (20210316.0004)
 -->
<!-- Title: dependencies Pages: 1 -->
<svg width="504pt" height="284pt"
 viewBox="0.00 0.00 504.00 284.00" xmlns="http://www.w3.org/2000/svg" xmlns:xlink="http://www.w3.org/1999/xlink">
<g id="graph0" class="graph" transform="scale(1 1) rotate(0) translate(4 280)">
<title>dependencies</title>
<polygon fill="white" stroke="transparent" points="-4,4 -4,-280 500,-280 500,4 -4,4"/>
<text text-anchor="start" x="227.01" y="-42.4" font-family="Times-12" font-weight="bold" font-size="14.00">Legend</text>
<polygon fill="#ffffb3" stroke="transparent" points="14,-10 14,-30 34,-30 34,-10 14,-10"/>
<text text-anchor="start" x="37.63" y="-15.4" font-family="Times-12" font-size="14.00"> &#160;Declarations</text>
<polygon fill="#8dd3c7" stroke="transparent" points="127,-10 127,-30 147,-30 147,-10 127,-10"/>
<text text-anchor="start" x="150.73" y="-15.4" font-family="Times-12" font-size="14.00"> &#160;Module</text>
<polygon fill="#80b1d3" stroke="transparent" points="213,-10 213,-30 233,-30 233,-10 213,-10"/>
<text text-anchor="start" x="236.78" y="-15.4" font-family="Times-12" font-size="14.00"> &#160;Bootstrap</text>
<polygon fill="#fdb462" stroke="transparent" points="310,-10 310,-30 330,-30 330,-10 310,-10"/>
<text text-anchor="start" x="333.67" y="-15.4" font-family="Times-12" font-size="14.00"> &#160;Providers</text>
<polygon fill="#fb8072" stroke="transparent" points="406,-10 406,-30 426,-30 426,-10 406,-10"/>
<text text-anchor="start" x="429.73" y="-15.4" font-family="Times-12" font-size="14.00"> &#160;Exports</text>
<g id="clust1" class="cluster">
<title>cluster_NotificationsModule</title>
<polygon fill="none" stroke="black" stroke-dasharray="1,5" points="33,-70 33,-268 463,-268 463,-70 33,-70"/>
</g>
<g id="clust6" class="cluster">
<title>cluster_NotificationsModule_providers</title>
<polygon fill="none" stroke="black" points="41,-78 41,-130 455,-130 455,-78 41,-78"/>
</g>
<g id="clust4" class="cluster">
<title>cluster_NotificationsModule_exports</title>
<polygon fill="none" stroke="black" points="168,-208 168,-260 318,-260 318,-208 168,-208"/>
</g>
<!-- NotificationsService  -->
<g id="node1" class="node">
<title>NotificationsService </title>
<polygon fill="#fb8072" stroke="black" points="310.07,-252 175.93,-252 175.93,-216 310.07,-216 310.07,-252"/>
<text text-anchor="middle" x="243" y="-229.8" font-family="Times,serif" font-size="14.00">NotificationsService </text>
</g>
<!-- NotificationsModule -->
<g id="node2" class="node">
<title>NotificationsModule</title>
<polygon fill="#8dd3c7" stroke="black" points="309.14,-187 306.14,-191 285.14,-191 282.14,-187 176.86,-187 176.86,-151 309.14,-151 309.14,-187"/>
<text text-anchor="middle" x="243" y="-164.8" font-family="Times,serif" font-size="14.00">NotificationsModule</text>
</g>
<!-- NotificationsModule&#45;&gt;NotificationsService  -->
<g id="edge1" class="edge">
<title>NotificationsModule&#45;&gt;NotificationsService </title>
<path fill="none" stroke="black" stroke-dasharray="5,2" d="M243,-187.11C243,-187.11 243,-205.99 243,-205.99"/>
<polygon fill="black" stroke="black" points="239.5,-205.99 243,-215.99 246.5,-205.99 239.5,-205.99"/>
</g>
<!-- NotificationRepository -->
<g id="node3" class="node">
<title>NotificationRepository</title>
<ellipse fill="#fdb462" stroke="black" cx="347" cy="-104" rx="100.16" ry="18"/>
<text text-anchor="middle" x="347" y="-99.8" font-family="Times,serif" font-size="14.00">NotificationRepository</text>
</g>
<!-- NotificationRepository&#45;&gt;NotificationsModule -->
<g id="edge2" class="edge">
<title>NotificationRepository&#45;&gt;NotificationsModule</title>
<path fill="none" stroke="black" d="M278.12,-117.15C278.12,-117.15 278.12,-140.69 278.12,-140.69"/>
<polygon fill="black" stroke="black" points="274.62,-140.69 278.12,-150.69 281.62,-140.69 274.62,-140.69"/>
</g>
<!-- NotificationsService -->
<g id="node4" class="node">
<title>NotificationsService</title>
<ellipse fill="#fdb462" stroke="black" cx="139" cy="-104" rx="90.32" ry="18"/>
<text text-anchor="middle" x="139" y="-99.8" font-family="Times,serif" font-size="14.00">NotificationsService</text>
</g>
<!-- NotificationsService&#45;&gt;NotificationsModule -->
<g id="edge3" class="edge">
<title>NotificationsService&#45;&gt;NotificationsModule</title>
<path fill="none" stroke="black" d="M203.04,-116.84C203.04,-116.84 203.04,-140.52 203.04,-140.52"/>
<polygon fill="black" stroke="black" points="199.54,-140.52 203.04,-150.52 206.54,-140.52 199.54,-140.52"/>
</g>
</g>
</svg>
