<?xml version="1.0" encoding="UTF-8" standalone="no"?>
<!DOCTYPE svg PUBLIC "-//W3C//DTD SVG 1.1//EN"
 "http://www.w3.org/Graphics/SVG/1.1/DTD/svg11.dtd">
<!-- Generated by graphviz version 2.47.0 (20210316.0004)
 -->
<!-- Title: dependencies Pages: 1 -->
<svg width="504pt" height="211pt"
 viewBox="0.00 0.00 504.00 211.00" xmlns="http://www.w3.org/2000/svg" xmlns:xlink="http://www.w3.org/1999/xlink">
<g id="graph0" class="graph" transform="scale(1 1) rotate(0) translate(4 207)">
<title>dependencies</title>
<polygon fill="white" stroke="transparent" points="-4,4 -4,-207 500,-207 500,4 -4,4"/>
<text text-anchor="start" x="227.01" y="-42.4" font-family="Times-12" font-weight="bold" font-size="14.00">Legend</text>
<polygon fill="#ffffb3" stroke="transparent" points="14,-10 14,-30 34,-30 34,-10 14,-10"/>
<text text-anchor="start" x="37.63" y="-15.4" font-family="Times-12" font-size="14.00"> &#160;Declarations</text>
<polygon fill="#8dd3c7" stroke="transparent" points="127,-10 127,-30 147,-30 147,-10 127,-10"/>
<text text-anchor="start" x="150.73" y="-15.4" font-family="Times-12" font-size="14.00"> &#160;Module</text>
<polygon fill="#80b1d3" stroke="transparent" points="213,-10 213,-30 233,-30 233,-10 213,-10"/>
<text text-anchor="start" x="236.78" y="-15.4" font-family="Times-12" font-size="14.00"> &#160;Bootstrap</text>
<polygon fill="#fdb462" stroke="transparent" points="310,-10 310,-30 330,-30 330,-10 310,-10"/>
<text text-anchor="start" x="333.67" y="-15.4" font-family="Times-12" font-size="14.00"> &#160;Providers</text>
<polygon fill="#fb8072" stroke="transparent" points="406,-10 406,-30 426,-30 426,-10 406,-10"/>
<text text-anchor="start" x="429.73" y="-15.4" font-family="Times-12" font-size="14.00"> &#160;Exports</text>
<g id="clust1" class="cluster">
<title>cluster_AgoraModule</title>
<polygon fill="none" stroke="black" stroke-dasharray="1,5" points="110,-70 110,-195 386,-195 386,-70 110,-70"/>
</g>
<g id="clust6" class="cluster">
<title>cluster_AgoraModule_providers</title>
<polygon fill="none" stroke="black" points="234,-78 234,-130 378,-130 378,-78 234,-78"/>
</g>
<g id="clust3" class="cluster">
<title>cluster_AgoraModule_imports</title>
<polygon fill="none" stroke="black" points="118,-78 118,-130 226,-130 226,-78 118,-78"/>
</g>
<!-- UsersModule -->
<g id="node1" class="node">
<title>UsersModule</title>
<polygon fill="#8dd3c7" stroke="black" points="217.92,-122 214.92,-126 193.92,-126 190.92,-122 126.08,-122 126.08,-86 217.92,-86 217.92,-122"/>
<text text-anchor="middle" x="172" y="-99.8" font-family="Times,serif" font-size="14.00">UsersModule</text>
</g>
<!-- AgoraModule -->
<g id="node2" class="node">
<title>AgoraModule</title>
<polygon fill="#8dd3c7" stroke="black" points="286.03,-187 283.03,-191 262.03,-191 259.03,-187 191.97,-187 191.97,-151 286.03,-151 286.03,-187"/>
<text text-anchor="middle" x="239" y="-164.8" font-family="Times,serif" font-size="14.00">AgoraModule</text>
</g>
<!-- UsersModule&#45;&gt;AgoraModule -->
<g id="edge1" class="edge">
<title>UsersModule&#45;&gt;AgoraModule</title>
<path fill="none" stroke="black" d="M204.72,-122.11C204.72,-122.11 204.72,-140.99 204.72,-140.99"/>
<polygon fill="black" stroke="black" points="201.22,-140.99 204.72,-150.99 208.22,-140.99 201.22,-140.99"/>
</g>
<!-- AgoraService -->
<g id="node3" class="node">
<title>AgoraService</title>
<ellipse fill="#fdb462" stroke="black" cx="306" cy="-104" rx="64.24" ry="18"/>
<text text-anchor="middle" x="306" y="-99.8" font-family="Times,serif" font-size="14.00">AgoraService</text>
</g>
<!-- AgoraService&#45;&gt;AgoraModule -->
<g id="edge2" class="edge">
<title>AgoraService&#45;&gt;AgoraModule</title>
<path fill="none" stroke="black" d="M264.07,-117.78C264.07,-117.78 264.07,-140.55 264.07,-140.55"/>
<polygon fill="black" stroke="black" points="260.57,-140.55 264.07,-150.55 267.57,-140.55 260.57,-140.55"/>
</g>
</g>
</svg>
