<?xml version="1.0" encoding="UTF-8" standalone="no"?>
<!DOCTYPE svg PUBLIC "-//W3C//DTD SVG 1.1//EN"
 "http://www.w3.org/Graphics/SVG/1.1/DTD/svg11.dtd">
<!-- Generated by graphviz version 2.47.0 (20210316.0004)
 -->
<!-- Title: dependencies Pages: 1 -->
<svg width="3770pt" height="284pt"
 viewBox="0.00 0.00 3770.00 284.00" xmlns="http://www.w3.org/2000/svg" xmlns:xlink="http://www.w3.org/1999/xlink">
<g id="graph0" class="graph" transform="scale(1 1) rotate(0) translate(4 280)">
<title>dependencies</title>
<polygon fill="white" stroke="transparent" points="-4,4 -4,-280 3766,-280 3766,4 -4,4"/>
<text text-anchor="start" x="1860.01" y="-42.4" font-family="Times-12" font-weight="bold" font-size="14.00">Legend</text>
<polygon fill="#ffffb3" stroke="transparent" points="1647,-10 1647,-30 1667,-30 1667,-10 1647,-10"/>
<text text-anchor="start" x="1670.63" y="-15.4" font-family="Times-12" font-size="14.00"> &#160;Declarations</text>
<polygon fill="#8dd3c7" stroke="transparent" points="1760,-10 1760,-30 1780,-30 1780,-10 1760,-10"/>
<text text-anchor="start" x="1783.73" y="-15.4" font-family="Times-12" font-size="14.00"> &#160;Module</text>
<polygon fill="#80b1d3" stroke="transparent" points="1846,-10 1846,-30 1866,-30 1866,-10 1846,-10"/>
<text text-anchor="start" x="1869.78" y="-15.4" font-family="Times-12" font-size="14.00"> &#160;Bootstrap</text>
<polygon fill="#fdb462" stroke="transparent" points="1943,-10 1943,-30 1963,-30 1963,-10 1943,-10"/>
<text text-anchor="start" x="1966.67" y="-15.4" font-family="Times-12" font-size="14.00"> &#160;Providers</text>
<polygon fill="#fb8072" stroke="transparent" points="2039,-10 2039,-30 2059,-30 2059,-10 2039,-10"/>
<text text-anchor="start" x="2062.73" y="-15.4" font-family="Times-12" font-size="14.00"> &#160;Exports</text>
<g id="clust1" class="cluster">
<title>cluster_StripePaymentModule</title>
<polygon fill="none" stroke="black" stroke-dasharray="1,5" points="8,-70 8,-268 3754,-268 3754,-70 8,-70"/>
</g>
<g id="clust6" class="cluster">
<title>cluster_StripePaymentModule_providers</title>
<polygon fill="none" stroke="black" points="292,-78 292,-130 3746,-130 3746,-78 292,-78"/>
</g>
<g id="clust4" class="cluster">
<title>cluster_StripePaymentModule_exports</title>
<polygon fill="none" stroke="black" points="1870,-208 1870,-260 2030,-260 2030,-208 1870,-208"/>
</g>
<g id="clust3" class="cluster">
<title>cluster_StripePaymentModule_imports</title>
<polygon fill="none" stroke="black" points="16,-78 16,-130 284,-130 284,-78 16,-78"/>
</g>
<!-- AuthenticationModule -->
<g id="node1" class="node">
<title>AuthenticationModule</title>
<polygon fill="#8dd3c7" stroke="black" points="276.25,-122 273.25,-126 252.25,-126 249.25,-122 133.75,-122 133.75,-86 276.25,-86 276.25,-122"/>
<text text-anchor="middle" x="205" y="-99.8" font-family="Times,serif" font-size="14.00">AuthenticationModule</text>
</g>
<!-- StripePaymentModule -->
<g id="node3" class="node">
<title>StripePaymentModule</title>
<polygon fill="#8dd3c7" stroke="black" points="2020.98,-187 2017.98,-191 1996.98,-191 1993.98,-187 1879.02,-187 1879.02,-151 2020.98,-151 2020.98,-187"/>
<text text-anchor="middle" x="1950" y="-164.8" font-family="Times,serif" font-size="14.00">StripePaymentModule</text>
</g>
<!-- AuthenticationModule&#45;&gt;StripePaymentModule -->
<g id="edge1" class="edge">
<title>AuthenticationModule&#45;&gt;StripePaymentModule</title>
<path fill="none" stroke="black" d="M205,-122.01C205,-144.49 205,-180 205,-180 205,-180 1868.89,-180 1868.89,-180"/>
<polygon fill="black" stroke="black" points="1868.89,-183.5 1878.89,-180 1868.89,-176.5 1868.89,-183.5"/>
</g>
<!-- UsersModule -->
<g id="node2" class="node">
<title>UsersModule</title>
<polygon fill="#8dd3c7" stroke="black" points="115.92,-122 112.92,-126 91.92,-126 88.92,-122 24.08,-122 24.08,-86 115.92,-86 115.92,-122"/>
<text text-anchor="middle" x="70" y="-99.8" font-family="Times,serif" font-size="14.00">UsersModule</text>
</g>
<!-- UsersModule&#45;&gt;StripePaymentModule -->
<g id="edge2" class="edge">
<title>UsersModule&#45;&gt;StripePaymentModule</title>
<path fill="none" stroke="black" d="M70,-122.15C70,-145.76 70,-184 70,-184 70,-184 1868.88,-184 1868.88,-184"/>
<polygon fill="black" stroke="black" points="1868.88,-187.5 1878.88,-184 1868.88,-180.5 1868.88,-187.5"/>
</g>
<!-- StripePaymentService  -->
<g id="node4" class="node">
<title>StripePaymentService </title>
<polygon fill="#fb8072" stroke="black" points="2021.91,-252 1878.09,-252 1878.09,-216 2021.91,-216 2021.91,-252"/>
<text text-anchor="middle" x="1950" y="-229.8" font-family="Times,serif" font-size="14.00">StripePaymentService </text>
</g>
<!-- StripePaymentModule&#45;&gt;StripePaymentService  -->
<g id="edge3" class="edge">
<title>StripePaymentModule&#45;&gt;StripePaymentService </title>
<path fill="none" stroke="black" stroke-dasharray="5,2" d="M1950,-187.11C1950,-187.11 1950,-205.99 1950,-205.99"/>
<polygon fill="black" stroke="black" points="1946.5,-205.99 1950,-215.99 1953.5,-205.99 1946.5,-205.99"/>
</g>
<!-- AgoraHelperService -->
<g id="node5" class="node">
<title>AgoraHelperService</title>
<ellipse fill="#fdb462" stroke="black" cx="3648" cy="-104" rx="90.29" ry="18"/>
<text text-anchor="middle" x="3648" y="-99.8" font-family="Times,serif" font-size="14.00">AgoraHelperService</text>
</g>
<!-- AgoraHelperService&#45;&gt;StripePaymentModule -->
<g id="edge4" class="edge">
<title>AgoraHelperService&#45;&gt;StripePaymentModule</title>
<path fill="none" stroke="black" d="M3648,-122.15C3648,-145.76 3648,-184 3648,-184 3648,-184 2031.07,-184 2031.07,-184"/>
<polygon fill="black" stroke="black" points="2031.07,-180.5 2021.07,-184 2031.07,-187.5 2031.07,-180.5"/>
</g>
<!-- AuthService -->
<g id="node6" class="node">
<title>AuthService</title>
<ellipse fill="#fdb462" stroke="black" cx="3480" cy="-104" rx="59.11" ry="18"/>
<text text-anchor="middle" x="3480" y="-99.8" font-family="Times,serif" font-size="14.00">AuthService</text>
</g>
<!-- AuthService&#45;&gt;StripePaymentModule -->
<g id="edge5" class="edge">
<title>AuthService&#45;&gt;StripePaymentModule</title>
<path fill="none" stroke="black" d="M3480,-122.01C3480,-144.49 3480,-180 3480,-180 3480,-180 2031.23,-180 2031.23,-180"/>
<polygon fill="black" stroke="black" points="2031.23,-176.5 2021.23,-180 2031.23,-183.5 2031.23,-176.5"/>
</g>
<!-- AwsSNSService -->
<g id="node7" class="node">
<title>AwsSNSService</title>
<ellipse fill="#fdb462" stroke="black" cx="3327" cy="-104" rx="75.3" ry="18"/>
<text text-anchor="middle" x="3327" y="-99.8" font-family="Times,serif" font-size="14.00">AwsSNSService</text>
</g>
<!-- AwsSNSService&#45;&gt;StripePaymentModule -->
<g id="edge6" class="edge">
<title>AwsSNSService&#45;&gt;StripePaymentModule</title>
<path fill="none" stroke="black" d="M3327,-122.04C3327,-143.66 3327,-177 3327,-177 3327,-177 2031.13,-177 2031.13,-177"/>
<polygon fill="black" stroke="black" points="2031.13,-173.5 2021.13,-177 2031.13,-180.5 2031.13,-173.5"/>
</g>
<!-- CometChatHelperService -->
<g id="node8" class="node">
<title>CometChatHelperService</title>
<ellipse fill="#fdb462" stroke="black" cx="3123" cy="-104" rx="110.01" ry="18"/>
<text text-anchor="middle" x="3123" y="-99.8" font-family="Times,serif" font-size="14.00">CometChatHelperService</text>
</g>
<!-- CometChatHelperService&#45;&gt;StripePaymentModule -->
<g id="edge7" class="edge">
<title>CometChatHelperService&#45;&gt;StripePaymentModule</title>
<path fill="none" stroke="black" d="M3123,-122.13C3123,-142.57 3123,-173 3123,-173 3123,-173 2031.17,-173 2031.17,-173"/>
<polygon fill="black" stroke="black" points="2031.17,-169.5 2021.17,-173 2031.17,-176.5 2031.17,-169.5"/>
</g>
<!-- DeviceInfoRepository -->
<g id="node9" class="node">
<title>DeviceInfoRepository</title>
<ellipse fill="#fdb462" stroke="black" cx="2898" cy="-104" rx="96.69" ry="18"/>
<text text-anchor="middle" x="2898" y="-99.8" font-family="Times,serif" font-size="14.00">DeviceInfoRepository</text>
</g>
<!-- DeviceInfoRepository&#45;&gt;StripePaymentModule -->
<g id="edge8" class="edge">
<title>DeviceInfoRepository&#45;&gt;StripePaymentModule</title>
<path fill="none" stroke="black" d="M2898,-122.11C2898,-141.34 2898,-169 2898,-169 2898,-169 2031.25,-169 2031.25,-169"/>
<polygon fill="black" stroke="black" points="2031.25,-165.5 2021.25,-169 2031.25,-172.5 2031.25,-165.5"/>
</g>
<!-- DisposableEmailRepository -->
<g id="node10" class="node">
<title>DisposableEmailRepository</title>
<ellipse fill="#fdb462" stroke="black" cx="2664" cy="-104" rx="119.28" ry="18"/>
<text text-anchor="middle" x="2664" y="-99.8" font-family="Times,serif" font-size="14.00">DisposableEmailRepository</text>
</g>
<!-- DisposableEmailRepository&#45;&gt;StripePaymentModule -->
<g id="edge9" class="edge">
<title>DisposableEmailRepository&#45;&gt;StripePaymentModule</title>
<path fill="none" stroke="black" d="M2664,-122.27C2664,-140.56 2664,-166 2664,-166 2664,-166 2031.07,-166 2031.07,-166"/>
<polygon fill="black" stroke="black" points="2031.07,-162.5 2021.07,-166 2031.07,-169.5 2031.07,-162.5"/>
</g>
<!-- EmailService -->
<g id="node11" class="node">
<title>EmailService</title>
<ellipse fill="#fdb462" stroke="black" cx="2464" cy="-104" rx="63.12" ry="18"/>
<text text-anchor="middle" x="2464" y="-99.8" font-family="Times,serif" font-size="14.00">EmailService</text>
</g>
<!-- EmailService&#45;&gt;StripePaymentModule -->
<g id="edge10" class="edge">
<title>EmailService&#45;&gt;StripePaymentModule</title>
<path fill="none" stroke="black" d="M2464,-122.03C2464,-139.06 2464,-162 2464,-162 2464,-162 2031.2,-162 2031.2,-162"/>
<polygon fill="black" stroke="black" points="2031.2,-158.5 2021.2,-162 2031.2,-165.5 2031.2,-158.5"/>
</g>
<!-- IsValidEmailConstraint -->
<g id="node12" class="node">
<title>IsValidEmailConstraint</title>
<ellipse fill="#fdb462" stroke="black" cx="2280" cy="-104" rx="102.52" ry="18"/>
<text text-anchor="middle" x="2280" y="-99.8" font-family="Times,serif" font-size="14.00">IsValidEmailConstraint</text>
</g>
<!-- IsValidEmailConstraint&#45;&gt;StripePaymentModule -->
<g id="edge11" class="edge">
<title>IsValidEmailConstraint&#45;&gt;StripePaymentModule</title>
<path fill="none" stroke="black" d="M2280,-122.01C2280,-138.05 2280,-159 2280,-159 2280,-159 2031.2,-159 2031.2,-159"/>
<polygon fill="black" stroke="black" points="2031.2,-155.5 2021.2,-159 2031.2,-162.5 2031.2,-155.5"/>
</g>
<!-- JwtStrategy -->
<g id="node13" class="node">
<title>JwtStrategy</title>
<ellipse fill="#fdb462" stroke="black" cx="2103" cy="-104" rx="56.76" ry="18"/>
<text text-anchor="middle" x="2103" y="-99.8" font-family="Times,serif" font-size="14.00">JwtStrategy</text>
</g>
<!-- JwtStrategy&#45;&gt;StripePaymentModule -->
<g id="edge12" class="edge">
<title>JwtStrategy&#45;&gt;StripePaymentModule</title>
<path fill="none" stroke="black" d="M2103,-122.12C2103,-136.78 2103,-155 2103,-155 2103,-155 2031.13,-155 2031.13,-155"/>
<polygon fill="black" stroke="black" points="2031.13,-151.5 2021.13,-155 2031.12,-158.5 2031.13,-151.5"/>
</g>
<!-- JwtTokenService -->
<g id="node14" class="node">
<title>JwtTokenService</title>
<ellipse fill="#fdb462" stroke="black" cx="1950" cy="-104" rx="78.15" ry="18"/>
<text text-anchor="middle" x="1950" y="-99.8" font-family="Times,serif" font-size="14.00">JwtTokenService</text>
</g>
<!-- JwtTokenService&#45;&gt;StripePaymentModule -->
<g id="edge13" class="edge">
<title>JwtTokenService&#45;&gt;StripePaymentModule</title>
<path fill="none" stroke="black" d="M1950,-122.11C1950,-122.11 1950,-140.99 1950,-140.99"/>
<polygon fill="black" stroke="black" points="1946.5,-140.99 1950,-150.99 1953.5,-140.99 1946.5,-140.99"/>
</g>
<!-- OTPRequestRepository -->
<g id="node15" class="node">
<title>OTPRequestRepository</title>
<ellipse fill="#fdb462" stroke="black" cx="1751" cy="-104" rx="102.53" ry="18"/>
<text text-anchor="middle" x="1751" y="-99.8" font-family="Times,serif" font-size="14.00">OTPRequestRepository</text>
</g>
<!-- OTPRequestRepository&#45;&gt;StripePaymentModule -->
<g id="edge14" class="edge">
<title>OTPRequestRepository&#45;&gt;StripePaymentModule</title>
<path fill="none" stroke="black" d="M1751,-122.12C1751,-136.78 1751,-155 1751,-155 1751,-155 1869,-155 1869,-155"/>
<polygon fill="black" stroke="black" points="1869,-158.5 1879,-155 1869,-151.5 1869,-158.5"/>
</g>
<!-- PhoneOtpAuthService -->
<g id="node16" class="node">
<title>PhoneOtpAuthService</title>
<ellipse fill="#fdb462" stroke="black" cx="1532" cy="-104" rx="97.86" ry="18"/>
<text text-anchor="middle" x="1532" y="-99.8" font-family="Times,serif" font-size="14.00">PhoneOtpAuthService</text>
</g>
<!-- PhoneOtpAuthService&#45;&gt;StripePaymentModule -->
<g id="edge15" class="edge">
<title>PhoneOtpAuthService&#45;&gt;StripePaymentModule</title>
<path fill="none" stroke="black" d="M1532,-122.01C1532,-138.05 1532,-159 1532,-159 1532,-159 1868.62,-159 1868.62,-159"/>
<polygon fill="black" stroke="black" points="1868.62,-162.5 1878.62,-159 1868.62,-155.5 1868.62,-162.5"/>
</g>
<!-- PushNotificationTokenRepository -->
<g id="node17" class="node">
<title>PushNotificationTokenRepository</title>
<ellipse fill="#fdb462" stroke="black" cx="1273" cy="-104" rx="143.56" ry="18"/>
<text text-anchor="middle" x="1273" y="-99.8" font-family="Times,serif" font-size="14.00">PushNotificationTokenRepository</text>
</g>
<!-- PushNotificationTokenRepository&#45;&gt;StripePaymentModule -->
<g id="edge16" class="edge">
<title>PushNotificationTokenRepository&#45;&gt;StripePaymentModule</title>
<path fill="none" stroke="black" d="M1273,-122.03C1273,-139.06 1273,-162 1273,-162 1273,-162 1868.83,-162 1868.83,-162"/>
<polygon fill="black" stroke="black" points="1868.83,-165.5 1878.83,-162 1868.83,-158.5 1868.83,-165.5"/>
</g>
<!-- S3Service -->
<g id="node18" class="node">
<title>S3Service</title>
<ellipse fill="#fdb462" stroke="black" cx="1061" cy="-104" rx="50.38" ry="18"/>
<text text-anchor="middle" x="1061" y="-99.8" font-family="Times,serif" font-size="14.00">S3Service</text>
</g>
<!-- S3Service&#45;&gt;StripePaymentModule -->
<g id="edge17" class="edge">
<title>S3Service&#45;&gt;StripePaymentModule</title>
<path fill="none" stroke="black" d="M1061,-122.27C1061,-140.56 1061,-166 1061,-166 1061,-166 1868.75,-166 1868.75,-166"/>
<polygon fill="black" stroke="black" points="1868.75,-169.5 1878.75,-166 1868.75,-162.5 1868.75,-169.5"/>
</g>
<!-- UpdatePhoneNumberRepository -->
<g id="node19" class="node">
<title>UpdatePhoneNumberRepository</title>
<ellipse fill="#fdb462" stroke="black" cx="856" cy="-104" rx="137.17" ry="18"/>
<text text-anchor="middle" x="856" y="-99.8" font-family="Times,serif" font-size="14.00">UpdatePhoneNumberRepository</text>
</g>
<!-- UpdatePhoneNumberRepository&#45;&gt;StripePaymentModule -->
<g id="edge18" class="edge">
<title>UpdatePhoneNumberRepository&#45;&gt;StripePaymentModule</title>
<path fill="none" stroke="black" d="M856,-122.11C856,-141.34 856,-169 856,-169 856,-169 1868.64,-169 1868.64,-169"/>
<polygon fill="black" stroke="black" points="1868.64,-172.5 1878.64,-169 1868.64,-165.5 1868.64,-172.5"/>
</g>
<!-- UserTokenMetaRepository -->
<g id="node20" class="node">
<title>UserTokenMetaRepository</title>
<ellipse fill="#fdb462" stroke="black" cx="585" cy="-104" rx="116.31" ry="18"/>
<text text-anchor="middle" x="585" y="-99.8" font-family="Times,serif" font-size="14.00">UserTokenMetaRepository</text>
</g>
<!-- UserTokenMetaRepository&#45;&gt;StripePaymentModule -->
<g id="edge19" class="edge">
<title>UserTokenMetaRepository&#45;&gt;StripePaymentModule</title>
<path fill="none" stroke="black" d="M585,-122.13C585,-142.57 585,-173 585,-173 585,-173 1869.01,-173 1869.01,-173"/>
<polygon fill="black" stroke="black" points="1869.01,-176.5 1879.01,-173 1869.01,-169.5 1869.01,-176.5"/>
</g>
<!-- UsersRepository -->
<g id="node21" class="node">
<title>UsersRepository</title>
<ellipse fill="#fdb462" stroke="black" cx="375" cy="-104" rx="75.3" ry="18"/>
<text text-anchor="middle" x="375" y="-99.8" font-family="Times,serif" font-size="14.00">UsersRepository</text>
</g>
<!-- UsersRepository&#45;&gt;StripePaymentModule -->
<g id="edge20" class="edge">
<title>UsersRepository&#45;&gt;StripePaymentModule</title>
<path fill="none" stroke="black" d="M375,-122.04C375,-143.66 375,-177 375,-177 375,-177 1869.01,-177 1869.01,-177"/>
<polygon fill="black" stroke="black" points="1869.01,-180.5 1879.01,-177 1869.01,-173.5 1869.01,-180.5"/>
</g>
</g>
</svg>
