<?xml version="1.0" encoding="UTF-8" standalone="no"?>
<!DOCTYPE svg PUBLIC "-//W3C//DTD SVG 1.1//EN"
 "http://www.w3.org/Graphics/SVG/1.1/DTD/svg11.dtd">
<!-- Generated by graphviz version 2.47.0 (20210316.0004)
 -->
<!-- Title: dependencies Pages: 1 -->
<svg width="504pt" height="211pt"
 viewBox="0.00 0.00 504.00 211.00" xmlns="http://www.w3.org/2000/svg" xmlns:xlink="http://www.w3.org/1999/xlink">
<g id="graph0" class="graph" transform="scale(1 1) rotate(0) translate(4 207)">
<title>dependencies</title>
<polygon fill="white" stroke="transparent" points="-4,4 -4,-207 500,-207 500,4 -4,4"/>
<text text-anchor="start" x="227.01" y="-42.4" font-family="Times-12" font-weight="bold" font-size="14.00">Legend</text>
<polygon fill="#ffffb3" stroke="transparent" points="14,-10 14,-30 34,-30 34,-10 14,-10"/>
<text text-anchor="start" x="37.63" y="-15.4" font-family="Times-12" font-size="14.00"> &#160;Declarations</text>
<polygon fill="#8dd3c7" stroke="transparent" points="127,-10 127,-30 147,-30 147,-10 127,-10"/>
<text text-anchor="start" x="150.73" y="-15.4" font-family="Times-12" font-size="14.00"> &#160;Module</text>
<polygon fill="#80b1d3" stroke="transparent" points="213,-10 213,-30 233,-30 233,-10 213,-10"/>
<text text-anchor="start" x="236.78" y="-15.4" font-family="Times-12" font-size="14.00"> &#160;Bootstrap</text>
<polygon fill="#fdb462" stroke="transparent" points="310,-10 310,-30 330,-30 330,-10 310,-10"/>
<text text-anchor="start" x="333.67" y="-15.4" font-family="Times-12" font-size="14.00"> &#160;Providers</text>
<polygon fill="#fb8072" stroke="transparent" points="406,-10 406,-30 426,-30 426,-10 406,-10"/>
<text text-anchor="start" x="429.73" y="-15.4" font-family="Times-12" font-size="14.00"> &#160;Exports</text>
<g id="clust1" class="cluster">
<title>cluster_FeedRepliesModule</title>
<polygon fill="none" stroke="black" stroke-dasharray="1,5" points="86,-70 86,-195 410,-195 410,-70 86,-70"/>
</g>
<g id="clust6" class="cluster">
<title>cluster_FeedRepliesModule_providers</title>
<polygon fill="none" stroke="black" points="210,-78 210,-130 402,-130 402,-78 210,-78"/>
</g>
<g id="clust3" class="cluster">
<title>cluster_FeedRepliesModule_imports</title>
<polygon fill="none" stroke="black" points="94,-78 94,-130 202,-130 202,-78 94,-78"/>
</g>
<!-- UsersModule -->
<g id="node1" class="node">
<title>UsersModule</title>
<polygon fill="#8dd3c7" stroke="black" points="193.92,-122 190.92,-126 169.92,-126 166.92,-122 102.08,-122 102.08,-86 193.92,-86 193.92,-122"/>
<text text-anchor="middle" x="148" y="-99.8" font-family="Times,serif" font-size="14.00">UsersModule</text>
</g>
<!-- FeedRepliesModule -->
<g id="node2" class="node">
<title>FeedRepliesModule</title>
<polygon fill="#8dd3c7" stroke="black" points="296.25,-187 293.25,-191 272.25,-191 269.25,-187 167.75,-187 167.75,-151 296.25,-151 296.25,-187"/>
<text text-anchor="middle" x="232" y="-164.8" font-family="Times,serif" font-size="14.00">FeedRepliesModule</text>
</g>
<!-- UsersModule&#45;&gt;FeedRepliesModule -->
<g id="edge1" class="edge">
<title>UsersModule&#45;&gt;FeedRepliesModule</title>
<path fill="none" stroke="black" d="M180.67,-122.11C180.67,-122.11 180.67,-140.99 180.67,-140.99"/>
<polygon fill="black" stroke="black" points="177.17,-140.99 180.67,-150.99 184.17,-140.99 177.17,-140.99"/>
</g>
<!-- FeedRepliesService -->
<g id="node3" class="node">
<title>FeedRepliesService</title>
<ellipse fill="#fdb462" stroke="black" cx="306" cy="-104" rx="87.95" ry="18"/>
<text text-anchor="middle" x="306" y="-99.8" font-family="Times,serif" font-size="14.00">FeedRepliesService</text>
</g>
<!-- FeedRepliesService&#45;&gt;FeedRepliesModule -->
<g id="edge2" class="edge">
<title>FeedRepliesService&#45;&gt;FeedRepliesModule</title>
<path fill="none" stroke="black" d="M257.32,-119.08C257.32,-119.08 257.32,-140.76 257.32,-140.76"/>
<polygon fill="black" stroke="black" points="253.82,-140.76 257.32,-150.76 260.82,-140.76 253.82,-140.76"/>
</g>
</g>
</svg>
