<?xml version="1.0" encoding="UTF-8" standalone="no"?>
<!DOCTYPE svg PUBLIC "-//W3C//DTD SVG 1.1//EN"
 "http://www.w3.org/Graphics/SVG/1.1/DTD/svg11.dtd">
<!-- Generated by graphviz version 2.47.0 (20210316.0004)
 -->
<!-- Title: dependencies Pages: 1 -->
<svg width="1026pt" height="211pt"
 viewBox="0.00 0.00 1026.00 211.00" xmlns="http://www.w3.org/2000/svg" xmlns:xlink="http://www.w3.org/1999/xlink">
<g id="graph0" class="graph" transform="scale(1 1) rotate(0) translate(4 207)">
<title>dependencies</title>
<polygon fill="white" stroke="transparent" points="-4,4 -4,-207 1022,-207 1022,4 -4,4"/>
<text text-anchor="start" x="488.01" y="-42.4" font-family="Times-12" font-weight="bold" font-size="14.00">Legend</text>
<polygon fill="#ffffb3" stroke="transparent" points="275,-10 275,-30 295,-30 295,-10 275,-10"/>
<text text-anchor="start" x="298.63" y="-15.4" font-family="Times-12" font-size="14.00"> &#160;Declarations</text>
<polygon fill="#8dd3c7" stroke="transparent" points="388,-10 388,-30 408,-30 408,-10 388,-10"/>
<text text-anchor="start" x="411.73" y="-15.4" font-family="Times-12" font-size="14.00"> &#160;Module</text>
<polygon fill="#80b1d3" stroke="transparent" points="474,-10 474,-30 494,-30 494,-10 474,-10"/>
<text text-anchor="start" x="497.78" y="-15.4" font-family="Times-12" font-size="14.00"> &#160;Bootstrap</text>
<polygon fill="#fdb462" stroke="transparent" points="571,-10 571,-30 591,-30 591,-10 571,-10"/>
<text text-anchor="start" x="594.67" y="-15.4" font-family="Times-12" font-size="14.00"> &#160;Providers</text>
<polygon fill="#fb8072" stroke="transparent" points="667,-10 667,-30 687,-30 687,-10 667,-10"/>
<text text-anchor="start" x="690.73" y="-15.4" font-family="Times-12" font-size="14.00"> &#160;Exports</text>
<g id="clust1" class="cluster">
<title>cluster_FeedCommentsModule</title>
<polygon fill="none" stroke="black" stroke-dasharray="1,5" points="8,-70 8,-195 1010,-195 1010,-70 8,-70"/>
</g>
<g id="clust6" class="cluster">
<title>cluster_FeedCommentsModule_providers</title>
<polygon fill="none" stroke="black" points="282,-78 282,-130 1002,-130 1002,-78 282,-78"/>
</g>
<g id="clust3" class="cluster">
<title>cluster_FeedCommentsModule_imports</title>
<polygon fill="none" stroke="black" points="16,-78 16,-130 274,-130 274,-78 16,-78"/>
</g>
<!-- NotificationsModule -->
<g id="node1" class="node">
<title>NotificationsModule</title>
<polygon fill="#8dd3c7" stroke="black" points="266.14,-122 263.14,-126 242.14,-126 239.14,-122 133.86,-122 133.86,-86 266.14,-86 266.14,-122"/>
<text text-anchor="middle" x="200" y="-99.8" font-family="Times,serif" font-size="14.00">NotificationsModule</text>
</g>
<!-- FeedCommentsModule -->
<g id="node3" class="node">
<title>FeedCommentsModule</title>
<polygon fill="#8dd3c7" stroke="black" points="451.93,-187 448.93,-191 427.93,-191 424.93,-187 304.07,-187 304.07,-151 451.93,-151 451.93,-187"/>
<text text-anchor="middle" x="378" y="-164.8" font-family="Times,serif" font-size="14.00">FeedCommentsModule</text>
</g>
<!-- NotificationsModule&#45;&gt;FeedCommentsModule -->
<g id="edge1" class="edge">
<title>NotificationsModule&#45;&gt;FeedCommentsModule</title>
<path fill="none" stroke="black" d="M200,-122.02C200,-139.37 200,-163 200,-163 200,-163 294.06,-163 294.06,-163"/>
<polygon fill="black" stroke="black" points="294.06,-166.5 304.06,-163 294.06,-159.5 294.06,-166.5"/>
</g>
<!-- UsersModule -->
<g id="node2" class="node">
<title>UsersModule</title>
<polygon fill="#8dd3c7" stroke="black" points="115.92,-122 112.92,-126 91.92,-126 88.92,-122 24.08,-122 24.08,-86 115.92,-86 115.92,-122"/>
<text text-anchor="middle" x="70" y="-99.8" font-family="Times,serif" font-size="14.00">UsersModule</text>
</g>
<!-- UsersModule&#45;&gt;FeedCommentsModule -->
<g id="edge2" class="edge">
<title>UsersModule&#45;&gt;FeedCommentsModule</title>
<path fill="none" stroke="black" d="M70,-122.28C70,-143.32 70,-175 70,-175 70,-175 294.23,-175 294.23,-175"/>
<polygon fill="black" stroke="black" points="294.23,-178.5 304.23,-175 294.23,-171.5 294.23,-178.5"/>
</g>
<!-- FeedCommentNotificationHandler -->
<g id="node4" class="node">
<title>FeedCommentNotificationHandler</title>
<ellipse fill="#fdb462" stroke="black" cx="848" cy="-104" rx="145.82" ry="18"/>
<text text-anchor="middle" x="848" y="-99.8" font-family="Times,serif" font-size="14.00">FeedCommentNotificationHandler</text>
</g>
<!-- FeedCommentNotificationHandler&#45;&gt;FeedCommentsModule -->
<g id="edge3" class="edge">
<title>FeedCommentNotificationHandler&#45;&gt;FeedCommentsModule</title>
<path fill="none" stroke="black" d="M848,-122.28C848,-143.32 848,-175 848,-175 848,-175 461.95,-175 461.95,-175"/>
<polygon fill="black" stroke="black" points="461.95,-171.5 451.95,-175 461.95,-178.5 461.95,-171.5"/>
</g>
<!-- FeedCommentsService -->
<g id="node5" class="node">
<title>FeedCommentsService</title>
<ellipse fill="#fdb462" stroke="black" cx="584" cy="-104" rx="100.72" ry="18"/>
<text text-anchor="middle" x="584" y="-99.8" font-family="Times,serif" font-size="14.00">FeedCommentsService</text>
</g>
<!-- FeedCommentsService&#45;&gt;FeedCommentsModule -->
<g id="edge4" class="edge">
<title>FeedCommentsService&#45;&gt;FeedCommentsModule</title>
<path fill="none" stroke="black" d="M584,-122.02C584,-139.37 584,-163 584,-163 584,-163 461.79,-163 461.79,-163"/>
<polygon fill="black" stroke="black" points="461.79,-159.5 451.79,-163 461.79,-166.5 461.79,-159.5"/>
</g>
<!-- FeedRepliesService -->
<g id="node6" class="node">
<title>FeedRepliesService</title>
<ellipse fill="#fdb462" stroke="black" cx="378" cy="-104" rx="87.95" ry="18"/>
<text text-anchor="middle" x="378" y="-99.8" font-family="Times,serif" font-size="14.00">FeedRepliesService</text>
</g>
<!-- FeedRepliesService&#45;&gt;FeedCommentsModule -->
<g id="edge5" class="edge">
<title>FeedRepliesService&#45;&gt;FeedCommentsModule</title>
<path fill="none" stroke="black" d="M378,-122.11C378,-122.11 378,-140.99 378,-140.99"/>
<polygon fill="black" stroke="black" points="374.5,-140.99 378,-150.99 381.5,-140.99 374.5,-140.99"/>
</g>
</g>
</svg>
