<?xml version="1.0" encoding="UTF-8" standalone="no"?>
<!DOCTYPE svg PUBLIC "-//W3C//DTD SVG 1.1//EN"
 "http://www.w3.org/Graphics/SVG/1.1/DTD/svg11.dtd">
<!-- Generated by graphviz version 2.47.0 (20210316.0004)
 -->
<!-- Title: dependencies Pages: 1 -->
<svg width="504pt" height="211pt"
 viewBox="0.00 0.00 504.00 211.00" xmlns="http://www.w3.org/2000/svg" xmlns:xlink="http://www.w3.org/1999/xlink">
<g id="graph0" class="graph" transform="scale(1 1) rotate(0) translate(4 207)">
<title>dependencies</title>
<polygon fill="white" stroke="transparent" points="-4,4 -4,-207 500,-207 500,4 -4,4"/>
<text text-anchor="start" x="227.01" y="-42.4" font-family="Times-12" font-weight="bold" font-size="14.00">Legend</text>
<polygon fill="#ffffb3" stroke="transparent" points="14,-10 14,-30 34,-30 34,-10 14,-10"/>
<text text-anchor="start" x="37.63" y="-15.4" font-family="Times-12" font-size="14.00"> &#160;Declarations</text>
<polygon fill="#8dd3c7" stroke="transparent" points="127,-10 127,-30 147,-30 147,-10 127,-10"/>
<text text-anchor="start" x="150.73" y="-15.4" font-family="Times-12" font-size="14.00"> &#160;Module</text>
<polygon fill="#80b1d3" stroke="transparent" points="213,-10 213,-30 233,-30 233,-10 213,-10"/>
<text text-anchor="start" x="236.78" y="-15.4" font-family="Times-12" font-size="14.00"> &#160;Bootstrap</text>
<polygon fill="#fdb462" stroke="transparent" points="310,-10 310,-30 330,-30 330,-10 310,-10"/>
<text text-anchor="start" x="333.67" y="-15.4" font-family="Times-12" font-size="14.00"> &#160;Providers</text>
<polygon fill="#fb8072" stroke="transparent" points="406,-10 406,-30 426,-30 426,-10 406,-10"/>
<text text-anchor="start" x="429.73" y="-15.4" font-family="Times-12" font-size="14.00"> &#160;Exports</text>
<g id="clust1" class="cluster">
<title>cluster_RoleModule</title>
<polygon fill="none" stroke="black" stroke-dasharray="1,5" points="93,-70 93,-195 403,-195 403,-70 93,-70"/>
</g>
<g id="clust6" class="cluster">
<title>cluster_RoleModule_providers</title>
<polygon fill="none" stroke="black" points="101,-78 101,-130 395,-130 395,-78 101,-78"/>
</g>
<!-- RoleRepository -->
<g id="node1" class="node">
<title>RoleRepository</title>
<ellipse fill="#fdb462" stroke="black" cx="315" cy="-104" rx="71.81" ry="18"/>
<text text-anchor="middle" x="315" y="-99.8" font-family="Times,serif" font-size="14.00">RoleRepository</text>
</g>
<!-- RoleModule -->
<g id="node3" class="node">
<title>RoleModule</title>
<polygon fill="#8dd3c7" stroke="black" points="283.99,-187 280.99,-191 259.99,-191 256.99,-187 198.01,-187 198.01,-151 283.99,-151 283.99,-187"/>
<text text-anchor="middle" x="241" y="-164.8" font-family="Times,serif" font-size="14.00">RoleModule</text>
</g>
<!-- RoleRepository&#45;&gt;RoleModule -->
<g id="edge1" class="edge">
<title>RoleRepository&#45;&gt;RoleModule</title>
<path fill="none" stroke="black" d="M263.67,-116.84C263.67,-116.84 263.67,-140.52 263.67,-140.52"/>
<polygon fill="black" stroke="black" points="260.17,-140.52 263.67,-150.52 267.17,-140.52 260.17,-140.52"/>
</g>
<!-- RoleService -->
<g id="node2" class="node">
<title>RoleService</title>
<ellipse fill="#fdb462" stroke="black" cx="167" cy="-104" rx="58.46" ry="18"/>
<text text-anchor="middle" x="167" y="-99.8" font-family="Times,serif" font-size="14.00">RoleService</text>
</g>
<!-- RoleService&#45;&gt;RoleModule -->
<g id="edge2" class="edge">
<title>RoleService&#45;&gt;RoleModule</title>
<path fill="none" stroke="black" d="M211.62,-115.62C211.62,-115.62 211.62,-140.85 211.62,-140.85"/>
<polygon fill="black" stroke="black" points="208.12,-140.85 211.62,-150.85 215.12,-140.85 208.12,-140.85"/>
</g>
</g>
</svg>
