<?xml version="1.0" encoding="UTF-8" standalone="no"?>
<!DOCTYPE svg PUBLIC "-//W3C//DTD SVG 1.1//EN"
 "http://www.w3.org/Graphics/SVG/1.1/DTD/svg11.dtd">
<!-- Generated by graphviz version 2.47.0 (20210316.0004)
 -->
<!-- Title: dependencies Pages: 1 -->
<svg width="3224pt" height="211pt"
 viewBox="0.00 0.00 3224.00 211.00" xmlns="http://www.w3.org/2000/svg" xmlns:xlink="http://www.w3.org/1999/xlink">
<g id="graph0" class="graph" transform="scale(1 1) rotate(0) translate(4 207)">
<title>dependencies</title>
<polygon fill="white" stroke="transparent" points="-4,4 -4,-207 3220,-207 3220,4 -4,4"/>
<text text-anchor="start" x="1587.01" y="-42.4" font-family="Times-12" font-weight="bold" font-size="14.00">Legend</text>
<polygon fill="#ffffb3" stroke="transparent" points="1374,-10 1374,-30 1394,-30 1394,-10 1374,-10"/>
<text text-anchor="start" x="1397.63" y="-15.4" font-family="Times-12" font-size="14.00"> &#160;Declarations</text>
<polygon fill="#8dd3c7" stroke="transparent" points="1487,-10 1487,-30 1507,-30 1507,-10 1487,-10"/>
<text text-anchor="start" x="1510.73" y="-15.4" font-family="Times-12" font-size="14.00"> &#160;Module</text>
<polygon fill="#80b1d3" stroke="transparent" points="1573,-10 1573,-30 1593,-30 1593,-10 1573,-10"/>
<text text-anchor="start" x="1596.78" y="-15.4" font-family="Times-12" font-size="14.00"> &#160;Bootstrap</text>
<polygon fill="#fdb462" stroke="transparent" points="1670,-10 1670,-30 1690,-30 1690,-10 1670,-10"/>
<text text-anchor="start" x="1693.67" y="-15.4" font-family="Times-12" font-size="14.00"> &#160;Providers</text>
<polygon fill="#fb8072" stroke="transparent" points="1766,-10 1766,-30 1786,-30 1786,-10 1766,-10"/>
<text text-anchor="start" x="1789.73" y="-15.4" font-family="Times-12" font-size="14.00"> &#160;Exports</text>
<g id="clust1" class="cluster">
<title>cluster_AppModule</title>
<polygon fill="none" stroke="black" stroke-dasharray="1,5" points="8,-70 8,-195 3208,-195 3208,-70 8,-70"/>
</g>
<g id="clust3" class="cluster">
<title>cluster_AppModule_imports</title>
<polygon fill="none" stroke="black" points="16,-78 16,-130 3200,-130 3200,-78 16,-78"/>
</g>
<!-- AgoraModule -->
<g id="node1" class="node">
<title>AgoraModule</title>
<polygon fill="#8dd3c7" stroke="black" points="3192.03,-122 3189.03,-126 3168.03,-126 3165.03,-122 3097.97,-122 3097.97,-86 3192.03,-86 3192.03,-122"/>
<text text-anchor="middle" x="3145" y="-99.8" font-family="Times,serif" font-size="14.00">AgoraModule</text>
</g>
<!-- AppModule -->
<g id="node25" class="node">
<title>AppModule</title>
<polygon fill="#8dd3c7" stroke="black" points="1742.66,-187 1739.66,-191 1718.66,-191 1715.66,-187 1659.34,-187 1659.34,-151 1742.66,-151 1742.66,-187"/>
<text text-anchor="middle" x="1701" y="-164.8" font-family="Times,serif" font-size="14.00">AppModule</text>
</g>
<!-- AgoraModule&#45;&gt;AppModule -->
<g id="edge1" class="edge">
<title>AgoraModule&#45;&gt;AppModule</title>
<path fill="none" stroke="black" d="M3145,-122.15C3145,-145.76 3145,-184 3145,-184 3145,-184 1752.66,-184 1752.66,-184"/>
<polygon fill="black" stroke="black" points="1752.66,-180.5 1742.66,-184 1752.66,-187.5 1752.66,-180.5"/>
</g>
<!-- AuthModule -->
<g id="node2" class="node">
<title>AuthModule</title>
<polygon fill="#8dd3c7" stroke="black" points="3079.55,-122 3076.55,-126 3055.55,-126 3052.55,-122 2992.45,-122 2992.45,-86 3079.55,-86 3079.55,-122"/>
<text text-anchor="middle" x="3036" y="-99.8" font-family="Times,serif" font-size="14.00">AuthModule</text>
</g>
<!-- AuthModule&#45;&gt;AppModule -->
<g id="edge2" class="edge">
<title>AuthModule&#45;&gt;AppModule</title>
<path fill="none" stroke="black" d="M3036,-122.09C3036,-145.13 3036,-182 3036,-182 3036,-182 1752.79,-182 1752.79,-182"/>
<polygon fill="black" stroke="black" points="1752.79,-178.5 1742.79,-182 1752.79,-185.5 1752.79,-178.5"/>
</g>
<!-- ChimeModule -->
<g id="node3" class="node">
<title>ChimeModule</title>
<polygon fill="#8dd3c7" stroke="black" points="2974.38,-122 2971.38,-126 2950.38,-126 2947.38,-122 2877.62,-122 2877.62,-86 2974.38,-86 2974.38,-122"/>
<text text-anchor="middle" x="2926" y="-99.8" font-family="Times,serif" font-size="14.00">ChimeModule</text>
</g>
<!-- ChimeModule&#45;&gt;AppModule -->
<g id="edge3" class="edge">
<title>ChimeModule&#45;&gt;AppModule</title>
<path fill="none" stroke="black" d="M2926,-122.29C2926,-144.21 2926,-178 2926,-178 2926,-178 1752.81,-178 1752.81,-178"/>
<polygon fill="black" stroke="black" points="1752.81,-174.5 1742.81,-178 1752.81,-181.5 1752.81,-174.5"/>
</g>
<!-- CoinManagementModule -->
<g id="node4" class="node">
<title>CoinManagementModule</title>
<polygon fill="#8dd3c7" stroke="black" points="2859.86,-122 2856.86,-126 2835.86,-126 2832.86,-122 2700.14,-122 2700.14,-86 2859.86,-86 2859.86,-122"/>
<text text-anchor="middle" x="2780" y="-99.8" font-family="Times,serif" font-size="14.00">CoinManagementModule</text>
</g>
<!-- CoinManagementModule&#45;&gt;AppModule -->
<g id="edge4" class="edge">
<title>CoinManagementModule&#45;&gt;AppModule</title>
<path fill="none" stroke="black" d="M2780,-122.28C2780,-143.32 2780,-175 2780,-175 2780,-175 1752.97,-175 1752.97,-175"/>
<polygon fill="black" stroke="black" points="1752.97,-171.5 1742.97,-175 1752.97,-178.5 1752.97,-171.5"/>
</g>
<!-- CometChatModule -->
<g id="node5" class="node">
<title>CometChatModule</title>
<polygon fill="#8dd3c7" stroke="black" points="2681.82,-122 2678.82,-126 2657.82,-126 2654.82,-122 2558.18,-122 2558.18,-86 2681.82,-86 2681.82,-122"/>
<text text-anchor="middle" x="2620" y="-99.8" font-family="Times,serif" font-size="14.00">CometChatModule</text>
</g>
<!-- CometChatModule&#45;&gt;AppModule -->
<g id="edge5" class="edge">
<title>CometChatModule&#45;&gt;AppModule</title>
<path fill="none" stroke="black" d="M2620,-122.22C2620,-142.37 2620,-172 2620,-172 2620,-172 1752.88,-172 1752.88,-172"/>
<polygon fill="black" stroke="black" points="1752.88,-168.5 1742.88,-172 1752.88,-175.5 1752.88,-168.5"/>
</g>
<!-- ConfigProvider -->
<g id="node6" class="node">
<title>ConfigProvider</title>
<polygon fill="#8dd3c7" stroke="black" points="2540.6,-122 2537.6,-126 2516.6,-126 2513.6,-122 2437.4,-122 2437.4,-86 2540.6,-86 2540.6,-122"/>
<text text-anchor="middle" x="2489" y="-99.8" font-family="Times,serif" font-size="14.00">ConfigProvider</text>
</g>
<!-- ConfigProvider&#45;&gt;AppModule -->
<g id="edge6" class="edge">
<title>ConfigProvider&#45;&gt;AppModule</title>
<path fill="none" stroke="black" d="M2489,-122.11C2489,-141.34 2489,-169 2489,-169 2489,-169 1752.81,-169 1752.81,-169"/>
<polygon fill="black" stroke="black" points="1752.81,-165.5 1742.81,-169 1752.81,-172.5 1752.81,-165.5"/>
</g>
<!-- ContactsModule -->
<g id="node7" class="node">
<title>ContactsModule</title>
<polygon fill="#8dd3c7" stroke="black" points="2419.04,-122 2416.04,-126 2395.04,-126 2392.04,-122 2310.96,-122 2310.96,-86 2419.04,-86 2419.04,-122"/>
<text text-anchor="middle" x="2365" y="-99.8" font-family="Times,serif" font-size="14.00">ContactsModule</text>
</g>
<!-- ContactsModule&#45;&gt;AppModule -->
<g id="edge7" class="edge">
<title>ContactsModule&#45;&gt;AppModule</title>
<path fill="none" stroke="black" d="M2365,-122.22C2365,-140.83 2365,-167 2365,-167 2365,-167 1752.79,-167 1752.79,-167"/>
<polygon fill="black" stroke="black" points="1752.79,-163.5 1742.79,-167 1752.79,-170.5 1752.79,-163.5"/>
</g>
<!-- CronModule -->
<g id="node8" class="node">
<title>CronModule</title>
<polygon fill="#8dd3c7" stroke="black" points="2292.55,-122 2289.55,-126 2268.55,-126 2265.55,-122 2205.45,-122 2205.45,-86 2292.55,-86 2292.55,-122"/>
<text text-anchor="middle" x="2249" y="-99.8" font-family="Times,serif" font-size="14.00">CronModule</text>
</g>
<!-- CronModule&#45;&gt;AppModule -->
<g id="edge8" class="edge">
<title>CronModule&#45;&gt;AppModule</title>
<path fill="none" stroke="black" d="M2249,-122.02C2249,-139.37 2249,-163 2249,-163 2249,-163 1753.09,-163 1753.09,-163"/>
<polygon fill="black" stroke="black" points="1753.09,-159.5 1743.09,-163 1753.09,-166.5 1753.09,-159.5"/>
</g>
<!-- CronProvider -->
<g id="node9" class="node">
<title>CronProvider</title>
<polygon fill="#8dd3c7" stroke="black" points="2187.21,-122 2184.21,-126 2163.21,-126 2160.21,-122 2094.79,-122 2094.79,-86 2187.21,-86 2187.21,-122"/>
<text text-anchor="middle" x="2141" y="-99.8" font-family="Times,serif" font-size="14.00">CronProvider</text>
</g>
<!-- CronProvider&#45;&gt;AppModule -->
<g id="edge9" class="edge">
<title>CronProvider&#45;&gt;AppModule</title>
<path fill="none" stroke="black" d="M2141,-122.03C2141,-138.4 2141,-160 2141,-160 2141,-160 1752.79,-160 1752.79,-160"/>
<polygon fill="black" stroke="black" points="1752.79,-156.5 1742.79,-160 1752.79,-163.5 1752.79,-156.5"/>
</g>
<!-- FakeApiModule -->
<g id="node10" class="node">
<title>FakeApiModule</title>
<polygon fill="#8dd3c7" stroke="black" points="2076.76,-122 2073.76,-126 2052.76,-126 2049.76,-122 1969.24,-122 1969.24,-86 2076.76,-86 2076.76,-122"/>
<text text-anchor="middle" x="2023" y="-99.8" font-family="Times,serif" font-size="14.00">FakeApiModule</text>
</g>
<!-- FakeApiModule&#45;&gt;AppModule -->
<g id="edge10" class="edge">
<title>FakeApiModule&#45;&gt;AppModule</title>
<path fill="none" stroke="black" d="M2023,-122.24C2023,-137.57 2023,-157 2023,-157 2023,-157 1752.77,-157 1752.77,-157"/>
<polygon fill="black" stroke="black" points="1752.77,-153.5 1742.77,-157 1752.77,-160.5 1752.77,-153.5"/>
</g>
<!-- FaqModule -->
<g id="node11" class="node">
<title>FaqModule</title>
<polygon fill="#8dd3c7" stroke="black" points="1951.05,-122 1948.05,-126 1927.05,-126 1924.05,-122 1870.95,-122 1870.95,-86 1951.05,-86 1951.05,-122"/>
<text text-anchor="middle" x="1911" y="-99.8" font-family="Times,serif" font-size="14.00">FaqModule</text>
</g>
<!-- FaqModule&#45;&gt;AppModule -->
<g id="edge11" class="edge">
<title>FaqModule&#45;&gt;AppModule</title>
<path fill="none" stroke="black" d="M1911,-122.05C1911,-136.37 1911,-154 1911,-154 1911,-154 1752.74,-154 1752.74,-154"/>
<polygon fill="black" stroke="black" points="1752.74,-150.5 1742.74,-154 1752.74,-157.5 1752.74,-150.5"/>
</g>
<!-- FeedCommentsModule -->
<g id="node12" class="node">
<title>FeedCommentsModule</title>
<polygon fill="#8dd3c7" stroke="black" points="1852.93,-122 1849.93,-126 1828.93,-126 1825.93,-122 1705.07,-122 1705.07,-86 1852.93,-86 1852.93,-122"/>
<text text-anchor="middle" x="1779" y="-99.8" font-family="Times,serif" font-size="14.00">FeedCommentsModule</text>
</g>
<!-- FeedCommentsModule&#45;&gt;AppModule -->
<g id="edge12" class="edge">
<title>FeedCommentsModule&#45;&gt;AppModule</title>
<path fill="none" stroke="black" d="M1724.06,-122.11C1724.06,-122.11 1724.06,-140.99 1724.06,-140.99"/>
<polygon fill="black" stroke="black" points="1720.56,-140.99 1724.06,-150.99 1727.56,-140.99 1720.56,-140.99"/>
</g>
<!-- FeedRepliesModule -->
<g id="node13" class="node">
<title>FeedRepliesModule</title>
<polygon fill="#8dd3c7" stroke="black" points="1687.25,-122 1684.25,-126 1663.25,-126 1660.25,-122 1558.75,-122 1558.75,-86 1687.25,-86 1687.25,-122"/>
<text text-anchor="middle" x="1623" y="-99.8" font-family="Times,serif" font-size="14.00">FeedRepliesModule</text>
</g>
<!-- FeedRepliesModule&#45;&gt;AppModule -->
<g id="edge13" class="edge">
<title>FeedRepliesModule&#45;&gt;AppModule</title>
<path fill="none" stroke="black" d="M1673.27,-122.11C1673.27,-122.11 1673.27,-140.99 1673.27,-140.99"/>
<polygon fill="black" stroke="black" points="1669.77,-140.99 1673.27,-150.99 1676.77,-140.99 1669.77,-140.99"/>
</g>
<!-- FeedsModule -->
<g id="node14" class="node">
<title>FeedsModule</title>
<polygon fill="#8dd3c7" stroke="black" points="1541.21,-122 1538.21,-126 1517.21,-126 1514.21,-122 1448.79,-122 1448.79,-86 1541.21,-86 1541.21,-122"/>
<text text-anchor="middle" x="1495" y="-99.8" font-family="Times,serif" font-size="14.00">FeedsModule</text>
</g>
<!-- FeedsModule&#45;&gt;AppModule -->
<g id="edge14" class="edge">
<title>FeedsModule&#45;&gt;AppModule</title>
<path fill="none" stroke="black" d="M1495,-122.05C1495,-136.37 1495,-154 1495,-154 1495,-154 1649.31,-154 1649.31,-154"/>
<polygon fill="black" stroke="black" points="1649.31,-157.5 1659.31,-154 1649.31,-150.5 1649.31,-157.5"/>
</g>
<!-- NotificationsModule -->
<g id="node15" class="node">
<title>NotificationsModule</title>
<polygon fill="#8dd3c7" stroke="black" points="1431.14,-122 1428.14,-126 1407.14,-126 1404.14,-122 1298.86,-122 1298.86,-86 1431.14,-86 1431.14,-122"/>
<text text-anchor="middle" x="1365" y="-99.8" font-family="Times,serif" font-size="14.00">NotificationsModule</text>
</g>
<!-- NotificationsModule&#45;&gt;AppModule -->
<g id="edge15" class="edge">
<title>NotificationsModule&#45;&gt;AppModule</title>
<path fill="none" stroke="black" d="M1365,-122.24C1365,-137.57 1365,-157 1365,-157 1365,-157 1649.12,-157 1649.12,-157"/>
<polygon fill="black" stroke="black" points="1649.12,-160.5 1659.12,-157 1649.12,-153.5 1649.12,-160.5"/>
</g>
<!-- PagesModule -->
<g id="node16" class="node">
<title>PagesModule</title>
<polygon fill="#8dd3c7" stroke="black" points="1281.21,-122 1278.21,-126 1257.21,-126 1254.21,-122 1188.79,-122 1188.79,-86 1281.21,-86 1281.21,-122"/>
<text text-anchor="middle" x="1235" y="-99.8" font-family="Times,serif" font-size="14.00">PagesModule</text>
</g>
<!-- PagesModule&#45;&gt;AppModule -->
<g id="edge16" class="edge">
<title>PagesModule&#45;&gt;AppModule</title>
<path fill="none" stroke="black" d="M1235,-122.03C1235,-138.4 1235,-160 1235,-160 1235,-160 1649.24,-160 1649.24,-160"/>
<polygon fill="black" stroke="black" points="1649.24,-163.5 1659.24,-160 1649.24,-156.5 1649.24,-163.5"/>
</g>
<!-- PermissionModule -->
<g id="node17" class="node">
<title>PermissionModule</title>
<polygon fill="#8dd3c7" stroke="black" points="1170.77,-122 1167.77,-126 1146.77,-126 1143.77,-122 1049.23,-122 1049.23,-86 1170.77,-86 1170.77,-122"/>
<text text-anchor="middle" x="1110" y="-99.8" font-family="Times,serif" font-size="14.00">PermissionModule</text>
</g>
<!-- PermissionModule&#45;&gt;AppModule -->
<g id="edge17" class="edge">
<title>PermissionModule&#45;&gt;AppModule</title>
<path fill="none" stroke="black" d="M1110,-122.02C1110,-139.37 1110,-163 1110,-163 1110,-163 1648.97,-163 1648.97,-163"/>
<polygon fill="black" stroke="black" points="1648.97,-166.5 1658.97,-163 1648.97,-159.5 1648.97,-166.5"/>
</g>
<!-- RapidIdModule -->
<g id="node18" class="node">
<title>RapidIdModule</title>
<polygon fill="#8dd3c7" stroke="black" points="1031.15,-122 1028.15,-126 1007.15,-126 1004.15,-122 926.85,-122 926.85,-86 1031.15,-86 1031.15,-122"/>
<text text-anchor="middle" x="979" y="-99.8" font-family="Times,serif" font-size="14.00">RapidIdModule</text>
</g>
<!-- RapidIdModule&#45;&gt;AppModule -->
<g id="edge18" class="edge">
<title>RapidIdModule&#45;&gt;AppModule</title>
<path fill="none" stroke="black" d="M979,-122.22C979,-140.83 979,-167 979,-167 979,-167 1649.33,-167 1649.33,-167"/>
<polygon fill="black" stroke="black" points="1649.33,-170.5 1659.33,-167 1649.33,-163.5 1649.33,-170.5"/>
</g>
<!-- SiteSettingsModule -->
<g id="node19" class="node">
<title>SiteSettingsModule</title>
<polygon fill="#8dd3c7" stroke="black" points="908.44,-122 905.44,-126 884.44,-126 881.44,-122 781.56,-122 781.56,-86 908.44,-86 908.44,-122"/>
<text text-anchor="middle" x="845" y="-99.8" font-family="Times,serif" font-size="14.00">SiteSettingsModule</text>
</g>
<!-- SiteSettingsModule&#45;&gt;AppModule -->
<g id="edge19" class="edge">
<title>SiteSettingsModule&#45;&gt;AppModule</title>
<path fill="none" stroke="black" d="M845,-122.11C845,-141.34 845,-169 845,-169 845,-169 1649.13,-169 1649.13,-169"/>
<polygon fill="black" stroke="black" points="1649.13,-172.5 1659.13,-169 1649.13,-165.5 1649.13,-172.5"/>
</g>
<!-- StripeConnectModule -->
<g id="node20" class="node">
<title>StripeConnectModule</title>
<polygon fill="#8dd3c7" stroke="black" points="763.65,-122 760.65,-126 739.65,-126 736.65,-122 624.35,-122 624.35,-86 763.65,-86 763.65,-122"/>
<text text-anchor="middle" x="694" y="-99.8" font-family="Times,serif" font-size="14.00">StripeConnectModule</text>
</g>
<!-- StripeConnectModule&#45;&gt;AppModule -->
<g id="edge20" class="edge">
<title>StripeConnectModule&#45;&gt;AppModule</title>
<path fill="none" stroke="black" d="M694,-122.22C694,-142.37 694,-172 694,-172 694,-172 1649.33,-172 1649.33,-172"/>
<polygon fill="black" stroke="black" points="1649.33,-175.5 1659.33,-172 1649.33,-168.5 1649.33,-175.5"/>
</g>
<!-- StripePaymentModule -->
<g id="node21" class="node">
<title>StripePaymentModule</title>
<polygon fill="#8dd3c7" stroke="black" points="605.98,-122 602.98,-126 581.98,-126 578.98,-122 464.02,-122 464.02,-86 605.98,-86 605.98,-122"/>
<text text-anchor="middle" x="535" y="-99.8" font-family="Times,serif" font-size="14.00">StripePaymentModule</text>
</g>
<!-- StripePaymentModule&#45;&gt;AppModule -->
<g id="edge21" class="edge">
<title>StripePaymentModule&#45;&gt;AppModule</title>
<path fill="none" stroke="black" d="M535,-122.28C535,-143.32 535,-175 535,-175 535,-175 1649.16,-175 1649.16,-175"/>
<polygon fill="black" stroke="black" points="1649.16,-178.5 1659.16,-175 1649.16,-171.5 1649.16,-178.5"/>
</g>
<!-- StripeSubscriptionModule -->
<g id="node22" class="node">
<title>StripeSubscriptionModule</title>
<polygon fill="#8dd3c7" stroke="black" points="445.76,-122 442.76,-126 421.76,-126 418.76,-122 282.24,-122 282.24,-86 445.76,-86 445.76,-122"/>
<text text-anchor="middle" x="364" y="-99.8" font-family="Times,serif" font-size="14.00">StripeSubscriptionModule</text>
</g>
<!-- StripeSubscriptionModule&#45;&gt;AppModule -->
<g id="edge22" class="edge">
<title>StripeSubscriptionModule&#45;&gt;AppModule</title>
<path fill="none" stroke="black" d="M364,-122.29C364,-144.21 364,-178 364,-178 364,-178 1649.15,-178 1649.15,-178"/>
<polygon fill="black" stroke="black" points="1649.15,-181.5 1659.15,-178 1649.15,-174.5 1649.15,-181.5"/>
</g>
<!-- SubscriptionModule -->
<g id="node23" class="node">
<title>SubscriptionModule</title>
<polygon fill="#8dd3c7" stroke="black" points="264.32,-122 261.32,-126 240.32,-126 237.32,-122 133.68,-122 133.68,-86 264.32,-86 264.32,-122"/>
<text text-anchor="middle" x="199" y="-99.8" font-family="Times,serif" font-size="14.00">SubscriptionModule</text>
</g>
<!-- SubscriptionModule&#45;&gt;AppModule -->
<g id="edge23" class="edge">
<title>SubscriptionModule&#45;&gt;AppModule</title>
<path fill="none" stroke="black" d="M199,-122.09C199,-145.13 199,-182 199,-182 199,-182 1649.26,-182 1649.26,-182"/>
<polygon fill="black" stroke="black" points="1649.26,-185.5 1659.26,-182 1649.26,-178.5 1649.26,-185.5"/>
</g>
<!-- UsersModule -->
<g id="node24" class="node">
<title>UsersModule</title>
<polygon fill="#8dd3c7" stroke="black" points="115.92,-122 112.92,-126 91.92,-126 88.92,-122 24.08,-122 24.08,-86 115.92,-86 115.92,-122"/>
<text text-anchor="middle" x="70" y="-99.8" font-family="Times,serif" font-size="14.00">UsersModule</text>
</g>
<!-- UsersModule&#45;&gt;AppModule -->
<g id="edge24" class="edge">
<title>UsersModule&#45;&gt;AppModule</title>
<path fill="none" stroke="black" d="M70,-122.15C70,-145.76 70,-184 70,-184 70,-184 1649.04,-184 1649.04,-184"/>
<polygon fill="black" stroke="black" points="1649.04,-187.5 1659.04,-184 1649.04,-180.5 1649.04,-187.5"/>
</g>
</g>
</svg>
