<?xml version="1.0" encoding="UTF-8" standalone="no"?>
<!DOCTYPE svg PUBLIC "-//W3C//DTD SVG 1.1//EN"
 "http://www.w3.org/Graphics/SVG/1.1/DTD/svg11.dtd">
<!-- Generated by graphviz version 2.47.0 (20210316.0004)
 -->
<!-- Title: dependencies Pages: 1 -->
<svg width="817pt" height="284pt"
 viewBox="0.00 0.00 817.00 284.00" xmlns="http://www.w3.org/2000/svg" xmlns:xlink="http://www.w3.org/1999/xlink">
<g id="graph0" class="graph" transform="scale(1 1) rotate(0) translate(4 280)">
<title>dependencies</title>
<polygon fill="white" stroke="transparent" points="-4,4 -4,-280 813,-280 813,4 -4,4"/>
<text text-anchor="start" x="383.51" y="-42.4" font-family="Times-12" font-weight="bold" font-size="14.00">Legend</text>
<polygon fill="#ffffb3" stroke="transparent" points="170.5,-10 170.5,-30 190.5,-30 190.5,-10 170.5,-10"/>
<text text-anchor="start" x="194.13" y="-15.4" font-family="Times-12" font-size="14.00"> &#160;Declarations</text>
<polygon fill="#8dd3c7" stroke="transparent" points="283.5,-10 283.5,-30 303.5,-30 303.5,-10 283.5,-10"/>
<text text-anchor="start" x="307.23" y="-15.4" font-family="Times-12" font-size="14.00"> &#160;Module</text>
<polygon fill="#80b1d3" stroke="transparent" points="369.5,-10 369.5,-30 389.5,-30 389.5,-10 369.5,-10"/>
<text text-anchor="start" x="393.28" y="-15.4" font-family="Times-12" font-size="14.00"> &#160;Bootstrap</text>
<polygon fill="#fdb462" stroke="transparent" points="466.5,-10 466.5,-30 486.5,-30 486.5,-10 466.5,-10"/>
<text text-anchor="start" x="490.17" y="-15.4" font-family="Times-12" font-size="14.00"> &#160;Providers</text>
<polygon fill="#fb8072" stroke="transparent" points="562.5,-10 562.5,-30 582.5,-30 582.5,-10 562.5,-10"/>
<text text-anchor="start" x="586.23" y="-15.4" font-family="Times-12" font-size="14.00"> &#160;Exports</text>
<g id="clust1" class="cluster">
<title>cluster_StripeSubscriptionModule</title>
<polygon fill="none" stroke="black" stroke-dasharray="1,5" points="8,-70 8,-268 801,-268 801,-70 8,-70"/>
</g>
<g id="clust6" class="cluster">
<title>cluster_StripeSubscriptionModule_providers</title>
<polygon fill="none" stroke="black" points="237,-78 237,-130 793,-130 793,-78 237,-78"/>
</g>
<g id="clust3" class="cluster">
<title>cluster_StripeSubscriptionModule_imports</title>
<polygon fill="none" stroke="black" points="16,-78 16,-130 229,-130 229,-78 16,-78"/>
</g>
<g id="clust4" class="cluster">
<title>cluster_StripeSubscriptionModule_exports</title>
<polygon fill="none" stroke="black" points="105,-208 105,-260 490,-260 490,-208 105,-208"/>
</g>
<!-- AuthModule -->
<g id="node1" class="node">
<title>AuthModule</title>
<polygon fill="#8dd3c7" stroke="black" points="220.55,-122 217.55,-126 196.55,-126 193.55,-122 133.45,-122 133.45,-86 220.55,-86 220.55,-122"/>
<text text-anchor="middle" x="177" y="-99.8" font-family="Times,serif" font-size="14.00">AuthModule</text>
</g>
<!-- StripeSubscriptionModule -->
<g id="node3" class="node">
<title>StripeSubscriptionModule</title>
<polygon fill="#8dd3c7" stroke="black" points="366.76,-187 363.76,-191 342.76,-191 339.76,-187 203.24,-187 203.24,-151 366.76,-151 366.76,-187"/>
<text text-anchor="middle" x="285" y="-164.8" font-family="Times,serif" font-size="14.00">StripeSubscriptionModule</text>
</g>
<!-- AuthModule&#45;&gt;StripeSubscriptionModule -->
<g id="edge1" class="edge">
<title>AuthModule&#45;&gt;StripeSubscriptionModule</title>
<path fill="none" stroke="black" d="M211.95,-122.11C211.95,-122.11 211.95,-140.99 211.95,-140.99"/>
<polygon fill="black" stroke="black" points="208.45,-140.99 211.95,-150.99 215.45,-140.99 208.45,-140.99"/>
</g>
<!-- UsersModule -->
<g id="node2" class="node">
<title>UsersModule</title>
<polygon fill="#8dd3c7" stroke="black" points="115.92,-122 112.92,-126 91.92,-126 88.92,-122 24.08,-122 24.08,-86 115.92,-86 115.92,-122"/>
<text text-anchor="middle" x="70" y="-99.8" font-family="Times,serif" font-size="14.00">UsersModule</text>
</g>
<!-- UsersModule&#45;&gt;StripeSubscriptionModule -->
<g id="edge2" class="edge">
<title>UsersModule&#45;&gt;StripeSubscriptionModule</title>
<path fill="none" stroke="black" d="M68.72,-122.11C68.72,-141.34 68.72,-169 68.72,-169 68.72,-169 193.23,-169 193.23,-169"/>
<polygon fill="black" stroke="black" points="193.23,-172.5 203.23,-169 193.23,-165.5 193.23,-172.5"/>
</g>
<!-- StripeSubscriptionRepository  -->
<g id="node4" class="node">
<title>StripeSubscriptionRepository </title>
<polygon fill="#fb8072" stroke="black" points="481.65,-252 296.35,-252 296.35,-216 481.65,-216 481.65,-252"/>
<text text-anchor="middle" x="389" y="-229.8" font-family="Times,serif" font-size="14.00">StripeSubscriptionRepository </text>
</g>
<!-- StripeSubscriptionModule&#45;&gt;StripeSubscriptionRepository  -->
<g id="edge3" class="edge">
<title>StripeSubscriptionModule&#45;&gt;StripeSubscriptionRepository </title>
<path fill="none" stroke="black" stroke-dasharray="5,2" d="M331.65,-187.11C331.65,-187.11 331.65,-205.99 331.65,-205.99"/>
<polygon fill="black" stroke="black" points="328.15,-205.99 331.65,-215.99 335.15,-205.99 328.15,-205.99"/>
</g>
<!-- StripeSubscriptionService  -->
<g id="node5" class="node">
<title>StripeSubscriptionService </title>
<polygon fill="#fb8072" stroke="black" points="278.69,-252 113.31,-252 113.31,-216 278.69,-216 278.69,-252"/>
<text text-anchor="middle" x="196" y="-229.8" font-family="Times,serif" font-size="14.00">StripeSubscriptionService </text>
</g>
<!-- StripeSubscriptionModule&#45;&gt;StripeSubscriptionService  -->
<g id="edge4" class="edge">
<title>StripeSubscriptionModule&#45;&gt;StripeSubscriptionService </title>
<path fill="none" stroke="black" stroke-dasharray="5,2" d="M240.98,-187.11C240.98,-187.11 240.98,-205.99 240.98,-205.99"/>
<polygon fill="black" stroke="black" points="237.48,-205.99 240.98,-215.99 244.48,-205.99 237.48,-205.99"/>
</g>
<!-- StripeSubscriptionService -->
<g id="node6" class="node">
<title>StripeSubscriptionService</title>
<ellipse fill="#fdb462" stroke="black" cx="673" cy="-104" rx="111.75" ry="18"/>
<text text-anchor="middle" x="673" y="-99.8" font-family="Times,serif" font-size="14.00">StripeSubscriptionService</text>
</g>
<!-- StripeSubscriptionService&#45;&gt;StripeSubscriptionModule -->
<g id="edge5" class="edge">
<title>StripeSubscriptionService&#45;&gt;StripeSubscriptionModule</title>
<path fill="none" stroke="black" d="M673,-122.11C673,-141.34 673,-169 673,-169 673,-169 376.81,-169 376.81,-169"/>
<polygon fill="black" stroke="black" points="376.81,-165.5 366.81,-169 376.81,-172.5 376.81,-165.5"/>
</g>
<!-- StripeSubscriptionWebhookService -->
<g id="node7" class="node">
<title>StripeSubscriptionWebhookService</title>
<ellipse fill="#fdb462" stroke="black" cx="394" cy="-104" rx="149.34" ry="18"/>
<text text-anchor="middle" x="394" y="-99.8" font-family="Times,serif" font-size="14.00">StripeSubscriptionWebhookService</text>
</g>
<!-- StripeSubscriptionWebhookService&#45;&gt;StripeSubscriptionModule -->
<g id="edge6" class="edge">
<title>StripeSubscriptionWebhookService&#45;&gt;StripeSubscriptionModule</title>
<path fill="none" stroke="black" d="M305.73,-118.75C305.73,-118.75 305.73,-140.59 305.73,-140.59"/>
<polygon fill="black" stroke="black" points="302.23,-140.59 305.73,-150.59 309.23,-140.59 302.23,-140.59"/>
</g>
</g>
</svg>
