<?xml version="1.0" encoding="UTF-8" standalone="no"?>
<!DOCTYPE svg PUBLIC "-//W3C//DTD SVG 1.1//EN"
 "http://www.w3.org/Graphics/SVG/1.1/DTD/svg11.dtd">
<!-- Generated by graphviz version 2.47.0 (20210316.0004)
 -->
<!-- Title: dependencies Pages: 1 -->
<svg width="3453pt" height="211pt"
 viewBox="0.00 0.00 3453.00 211.00" xmlns="http://www.w3.org/2000/svg" xmlns:xlink="http://www.w3.org/1999/xlink">
<g id="graph0" class="graph" transform="scale(1 1) rotate(0) translate(4 207)">
<title>dependencies</title>
<polygon fill="white" stroke="transparent" points="-4,4 -4,-207 3449,-207 3449,4 -4,4"/>
<text text-anchor="start" x="1701.51" y="-42.4" font-family="Times-12" font-weight="bold" font-size="14.00">Legend</text>
<polygon fill="#ffffb3" stroke="transparent" points="1488.5,-10 1488.5,-30 1508.5,-30 1508.5,-10 1488.5,-10"/>
<text text-anchor="start" x="1512.13" y="-15.4" font-family="Times-12" font-size="14.00"> &#160;Declarations</text>
<polygon fill="#8dd3c7" stroke="transparent" points="1601.5,-10 1601.5,-30 1621.5,-30 1621.5,-10 1601.5,-10"/>
<text text-anchor="start" x="1625.23" y="-15.4" font-family="Times-12" font-size="14.00"> &#160;Module</text>
<polygon fill="#80b1d3" stroke="transparent" points="1687.5,-10 1687.5,-30 1707.5,-30 1707.5,-10 1687.5,-10"/>
<text text-anchor="start" x="1711.28" y="-15.4" font-family="Times-12" font-size="14.00"> &#160;Bootstrap</text>
<polygon fill="#fdb462" stroke="transparent" points="1784.5,-10 1784.5,-30 1804.5,-30 1804.5,-10 1784.5,-10"/>
<text text-anchor="start" x="1808.17" y="-15.4" font-family="Times-12" font-size="14.00"> &#160;Providers</text>
<polygon fill="#fb8072" stroke="transparent" points="1880.5,-10 1880.5,-30 1900.5,-30 1900.5,-10 1880.5,-10"/>
<text text-anchor="start" x="1904.23" y="-15.4" font-family="Times-12" font-size="14.00"> &#160;Exports</text>
<g id="clust1" class="cluster">
<title>cluster_AppModule</title>
<polygon fill="none" stroke="black" stroke-dasharray="1,5" points="8,-70 8,-195 3437,-195 3437,-70 8,-70"/>
</g>
<g id="clust3" class="cluster">
<title>cluster_AppModule_imports</title>
<polygon fill="none" stroke="black" points="16,-78 16,-130 3429,-130 3429,-78 16,-78"/>
</g>
<!-- AgoraModule -->
<g id="node1" class="node">
<title>AgoraModule</title>
<polygon fill="#8dd3c7" stroke="black" points="3421.03,-122 3418.03,-126 3397.03,-126 3394.03,-122 3326.97,-122 3326.97,-86 3421.03,-86 3421.03,-122"/>
<text text-anchor="middle" x="3374" y="-99.8" font-family="Times,serif" font-size="14.00">AgoraModule</text>
</g>
<!-- AppModule -->
<g id="node27" class="node">
<title>AppModule</title>
<polygon fill="#8dd3c7" stroke="black" points="1860.66,-187 1857.66,-191 1836.66,-191 1833.66,-187 1777.34,-187 1777.34,-151 1860.66,-151 1860.66,-187"/>
<text text-anchor="middle" x="1819" y="-164.8" font-family="Times,serif" font-size="14.00">AppModule</text>
</g>
<!-- AgoraModule&#45;&gt;AppModule -->
<g id="edge1" class="edge">
<title>AgoraModule&#45;&gt;AppModule</title>
<path fill="none" stroke="black" d="M3374,-122.38C3374,-146.28 3374,-185 3374,-185 3374,-185 1870.99,-185 1870.99,-185"/>
<polygon fill="black" stroke="black" points="1870.99,-181.5 1860.99,-185 1870.99,-188.5 1870.99,-181.5"/>
</g>
<!-- AuthModule -->
<g id="node2" class="node">
<title>AuthModule</title>
<polygon fill="#8dd3c7" stroke="black" points="3308.55,-122 3305.55,-126 3284.55,-126 3281.55,-122 3221.45,-122 3221.45,-86 3308.55,-86 3308.55,-122"/>
<text text-anchor="middle" x="3265" y="-99.8" font-family="Times,serif" font-size="14.00">AuthModule</text>
</g>
<!-- AuthModule&#45;&gt;AppModule -->
<g id="edge2" class="edge">
<title>AuthModule&#45;&gt;AppModule</title>
<path fill="none" stroke="black" d="M3265,-122.09C3265,-145.13 3265,-182 3265,-182 3265,-182 1870.72,-182 1870.72,-182"/>
<polygon fill="black" stroke="black" points="1870.72,-178.5 1860.72,-182 1870.72,-185.5 1870.72,-178.5"/>
</g>
<!-- ChimeModule -->
<g id="node3" class="node">
<title>ChimeModule</title>
<polygon fill="#8dd3c7" stroke="black" points="3203.38,-122 3200.38,-126 3179.38,-126 3176.38,-122 3106.62,-122 3106.62,-86 3203.38,-86 3203.38,-122"/>
<text text-anchor="middle" x="3155" y="-99.8" font-family="Times,serif" font-size="14.00">ChimeModule</text>
</g>
<!-- ChimeModule&#45;&gt;AppModule -->
<g id="edge3" class="edge">
<title>ChimeModule&#45;&gt;AppModule</title>
<path fill="none" stroke="black" d="M3155,-122.16C3155,-144.35 3155,-179 3155,-179 3155,-179 1870.82,-179 1870.82,-179"/>
<polygon fill="black" stroke="black" points="1870.82,-175.5 1860.82,-179 1870.82,-182.5 1870.82,-175.5"/>
</g>
<!-- CoinManagementModule -->
<g id="node4" class="node">
<title>CoinManagementModule</title>
<polygon fill="#8dd3c7" stroke="black" points="3088.86,-122 3085.86,-126 3064.86,-126 3061.86,-122 2929.14,-122 2929.14,-86 3088.86,-86 3088.86,-122"/>
<text text-anchor="middle" x="3009" y="-99.8" font-family="Times,serif" font-size="14.00">CoinManagementModule</text>
</g>
<!-- CoinManagementModule&#45;&gt;AppModule -->
<g id="edge4" class="edge">
<title>CoinManagementModule&#45;&gt;AppModule</title>
<path fill="none" stroke="black" d="M3009,-122.17C3009,-143.5 3009,-176 3009,-176 3009,-176 1871,-176 1871,-176"/>
<polygon fill="black" stroke="black" points="1871,-172.5 1861,-176 1871,-179.5 1871,-172.5"/>
</g>
<!-- CometChatModule -->
<g id="node5" class="node">
<title>CometChatModule</title>
<polygon fill="#8dd3c7" stroke="black" points="2910.82,-122 2907.82,-126 2886.82,-126 2883.82,-122 2787.18,-122 2787.18,-86 2910.82,-86 2910.82,-122"/>
<text text-anchor="middle" x="2849" y="-99.8" font-family="Times,serif" font-size="14.00">CometChatModule</text>
</g>
<!-- CometChatModule&#45;&gt;AppModule -->
<g id="edge5" class="edge">
<title>CometChatModule&#45;&gt;AppModule</title>
<path fill="none" stroke="black" d="M2849,-122.03C2849,-142.77 2849,-174 2849,-174 2849,-174 1870.97,-174 1870.97,-174"/>
<polygon fill="black" stroke="black" points="1870.97,-170.5 1860.97,-174 1870.97,-177.5 1870.97,-170.5"/>
</g>
<!-- ConfigProvider -->
<g id="node6" class="node">
<title>ConfigProvider</title>
<polygon fill="#8dd3c7" stroke="black" points="2769.6,-122 2766.6,-126 2745.6,-126 2742.6,-122 2666.4,-122 2666.4,-86 2769.6,-86 2769.6,-122"/>
<text text-anchor="middle" x="2718" y="-99.8" font-family="Times,serif" font-size="14.00">ConfigProvider</text>
</g>
<!-- ConfigProvider&#45;&gt;AppModule -->
<g id="edge6" class="edge">
<title>ConfigProvider&#45;&gt;AppModule</title>
<path fill="none" stroke="black" d="M2718,-122.31C2718,-142.15 2718,-171 2718,-171 2718,-171 1870.86,-171 1870.86,-171"/>
<polygon fill="black" stroke="black" points="1870.86,-167.5 1860.86,-171 1870.86,-174.5 1870.86,-167.5"/>
</g>
<!-- ContactsModule -->
<g id="node7" class="node">
<title>ContactsModule</title>
<polygon fill="#8dd3c7" stroke="black" points="2648.04,-122 2645.04,-126 2624.04,-126 2621.04,-122 2539.96,-122 2539.96,-86 2648.04,-86 2648.04,-122"/>
<text text-anchor="middle" x="2594" y="-99.8" font-family="Times,serif" font-size="14.00">ContactsModule</text>
</g>
<!-- ContactsModule&#45;&gt;AppModule -->
<g id="edge7" class="edge">
<title>ContactsModule&#45;&gt;AppModule</title>
<path fill="none" stroke="black" d="M2594,-122.17C2594,-141.09 2594,-168 2594,-168 2594,-168 1870.67,-168 1870.67,-168"/>
<polygon fill="black" stroke="black" points="1870.67,-164.5 1860.67,-168 1870.67,-171.5 1870.67,-164.5"/>
</g>
<!-- CronModule -->
<g id="node8" class="node">
<title>CronModule</title>
<polygon fill="#8dd3c7" stroke="black" points="2521.55,-122 2518.55,-126 2497.55,-126 2494.55,-122 2434.45,-122 2434.45,-86 2521.55,-86 2521.55,-122"/>
<text text-anchor="middle" x="2478" y="-99.8" font-family="Times,serif" font-size="14.00">CronModule</text>
</g>
<!-- CronModule&#45;&gt;AppModule -->
<g id="edge8" class="edge">
<title>CronModule&#45;&gt;AppModule</title>
<path fill="none" stroke="black" d="M2478,-122.3C2478,-140.27 2478,-165 2478,-165 2478,-165 1870.72,-165 1870.72,-165"/>
<polygon fill="black" stroke="black" points="1870.72,-161.5 1860.72,-165 1870.72,-168.5 1870.72,-161.5"/>
</g>
<!-- CronProvider -->
<g id="node9" class="node">
<title>CronProvider</title>
<polygon fill="#8dd3c7" stroke="black" points="2416.21,-122 2413.21,-126 2392.21,-126 2389.21,-122 2323.79,-122 2323.79,-86 2416.21,-86 2416.21,-122"/>
<text text-anchor="middle" x="2370" y="-99.8" font-family="Times,serif" font-size="14.00">CronProvider</text>
</g>
<!-- CronProvider&#45;&gt;AppModule -->
<g id="edge9" class="edge">
<title>CronProvider&#45;&gt;AppModule</title>
<path fill="none" stroke="black" d="M2370,-122.02C2370,-139.37 2370,-163 2370,-163 2370,-163 1870.87,-163 1870.87,-163"/>
<polygon fill="black" stroke="black" points="1870.87,-159.5 1860.87,-163 1870.87,-166.5 1870.87,-159.5"/>
</g>
<!-- EmailModule -->
<g id="node10" class="node">
<title>EmailModule</title>
<polygon fill="#8dd3c7" stroke="black" points="2305.49,-122 2302.49,-126 2281.49,-126 2278.49,-122 2212.51,-122 2212.51,-86 2305.49,-86 2305.49,-122"/>
<text text-anchor="middle" x="2259" y="-99.8" font-family="Times,serif" font-size="14.00">EmailModule</text>
</g>
<!-- EmailModule&#45;&gt;AppModule -->
<g id="edge10" class="edge">
<title>EmailModule&#45;&gt;AppModule</title>
<path fill="none" stroke="black" d="M2259,-122.03C2259,-138.4 2259,-160 2259,-160 2259,-160 1870.79,-160 1870.79,-160"/>
<polygon fill="black" stroke="black" points="1870.79,-156.5 1860.79,-160 1870.79,-163.5 1870.79,-156.5"/>
</g>
<!-- FakeApiModule -->
<g id="node11" class="node">
<title>FakeApiModule</title>
<polygon fill="#8dd3c7" stroke="black" points="2194.76,-122 2191.76,-126 2170.76,-126 2167.76,-122 2087.24,-122 2087.24,-86 2194.76,-86 2194.76,-122"/>
<text text-anchor="middle" x="2141" y="-99.8" font-family="Times,serif" font-size="14.00">FakeApiModule</text>
</g>
<!-- FakeApiModule&#45;&gt;AppModule -->
<g id="edge11" class="edge">
<title>FakeApiModule&#45;&gt;AppModule</title>
<path fill="none" stroke="black" d="M2141,-122.24C2141,-137.57 2141,-157 2141,-157 2141,-157 1870.77,-157 1870.77,-157"/>
<polygon fill="black" stroke="black" points="1870.77,-153.5 1860.77,-157 1870.77,-160.5 1870.77,-153.5"/>
</g>
<!-- FaqModule -->
<g id="node12" class="node">
<title>FaqModule</title>
<polygon fill="#8dd3c7" stroke="black" points="2069.05,-122 2066.05,-126 2045.05,-126 2042.05,-122 1988.95,-122 1988.95,-86 2069.05,-86 2069.05,-122"/>
<text text-anchor="middle" x="2029" y="-99.8" font-family="Times,serif" font-size="14.00">FaqModule</text>
</g>
<!-- FaqModule&#45;&gt;AppModule -->
<g id="edge12" class="edge">
<title>FaqModule&#45;&gt;AppModule</title>
<path fill="none" stroke="black" d="M2029,-122.05C2029,-136.37 2029,-154 2029,-154 2029,-154 1870.74,-154 1870.74,-154"/>
<polygon fill="black" stroke="black" points="1870.74,-150.5 1860.74,-154 1870.74,-157.5 1870.74,-150.5"/>
</g>
<!-- FeedCommentsModule -->
<g id="node13" class="node">
<title>FeedCommentsModule</title>
<polygon fill="#8dd3c7" stroke="black" points="1970.93,-122 1967.93,-126 1946.93,-126 1943.93,-122 1823.07,-122 1823.07,-86 1970.93,-86 1970.93,-122"/>
<text text-anchor="middle" x="1897" y="-99.8" font-family="Times,serif" font-size="14.00">FeedCommentsModule</text>
</g>
<!-- FeedCommentsModule&#45;&gt;AppModule -->
<g id="edge13" class="edge">
<title>FeedCommentsModule&#45;&gt;AppModule</title>
<path fill="none" stroke="black" d="M1842.06,-122.11C1842.06,-122.11 1842.06,-140.99 1842.06,-140.99"/>
<polygon fill="black" stroke="black" points="1838.56,-140.99 1842.06,-150.99 1845.56,-140.99 1838.56,-140.99"/>
</g>
<!-- FeedRepliesModule -->
<g id="node14" class="node">
<title>FeedRepliesModule</title>
<polygon fill="#8dd3c7" stroke="black" points="1805.25,-122 1802.25,-126 1781.25,-126 1778.25,-122 1676.75,-122 1676.75,-86 1805.25,-86 1805.25,-122"/>
<text text-anchor="middle" x="1741" y="-99.8" font-family="Times,serif" font-size="14.00">FeedRepliesModule</text>
</g>
<!-- FeedRepliesModule&#45;&gt;AppModule -->
<g id="edge14" class="edge">
<title>FeedRepliesModule&#45;&gt;AppModule</title>
<path fill="none" stroke="black" d="M1791.27,-122.11C1791.27,-122.11 1791.27,-140.99 1791.27,-140.99"/>
<polygon fill="black" stroke="black" points="1787.77,-140.99 1791.27,-150.99 1794.77,-140.99 1787.77,-140.99"/>
</g>
<!-- FeedsModule -->
<g id="node15" class="node">
<title>FeedsModule</title>
<polygon fill="#8dd3c7" stroke="black" points="1659.21,-122 1656.21,-126 1635.21,-126 1632.21,-122 1566.79,-122 1566.79,-86 1659.21,-86 1659.21,-122"/>
<text text-anchor="middle" x="1613" y="-99.8" font-family="Times,serif" font-size="14.00">FeedsModule</text>
</g>
<!-- FeedsModule&#45;&gt;AppModule -->
<g id="edge15" class="edge">
<title>FeedsModule&#45;&gt;AppModule</title>
<path fill="none" stroke="black" d="M1613,-122.05C1613,-136.37 1613,-154 1613,-154 1613,-154 1767.31,-154 1767.31,-154"/>
<polygon fill="black" stroke="black" points="1767.31,-157.5 1777.31,-154 1767.31,-150.5 1767.31,-157.5"/>
</g>
<!-- LoggerModule -->
<g id="node16" class="node">
<title>LoggerModule</title>
<polygon fill="#8dd3c7" stroke="black" points="1548.98,-122 1545.98,-126 1524.98,-126 1521.98,-122 1449.02,-122 1449.02,-86 1548.98,-86 1548.98,-122"/>
<text text-anchor="middle" x="1499" y="-99.8" font-family="Times,serif" font-size="14.00">LoggerModule</text>
</g>
<!-- LoggerModule&#45;&gt;AppModule -->
<g id="edge16" class="edge">
<title>LoggerModule&#45;&gt;AppModule</title>
<path fill="none" stroke="black" d="M1499,-122.24C1499,-137.57 1499,-157 1499,-157 1499,-157 1767.17,-157 1767.17,-157"/>
<polygon fill="black" stroke="black" points="1767.17,-160.5 1777.17,-157 1767.17,-153.5 1767.17,-160.5"/>
</g>
<!-- NotificationsModule -->
<g id="node17" class="node">
<title>NotificationsModule</title>
<polygon fill="#8dd3c7" stroke="black" points="1431.14,-122 1428.14,-126 1407.14,-126 1404.14,-122 1298.86,-122 1298.86,-86 1431.14,-86 1431.14,-122"/>
<text text-anchor="middle" x="1365" y="-99.8" font-family="Times,serif" font-size="14.00">NotificationsModule</text>
</g>
<!-- NotificationsModule&#45;&gt;AppModule -->
<g id="edge17" class="edge">
<title>NotificationsModule&#45;&gt;AppModule</title>
<path fill="none" stroke="black" d="M1365,-122.03C1365,-138.4 1365,-160 1365,-160 1365,-160 1767.1,-160 1767.1,-160"/>
<polygon fill="black" stroke="black" points="1767.1,-163.5 1777.1,-160 1767.1,-156.5 1767.1,-163.5"/>
</g>
<!-- PagesModule -->
<g id="node18" class="node">
<title>PagesModule</title>
<polygon fill="#8dd3c7" stroke="black" points="1281.21,-122 1278.21,-126 1257.21,-126 1254.21,-122 1188.79,-122 1188.79,-86 1281.21,-86 1281.21,-122"/>
<text text-anchor="middle" x="1235" y="-99.8" font-family="Times,serif" font-size="14.00">PagesModule</text>
</g>
<!-- PagesModule&#45;&gt;AppModule -->
<g id="edge18" class="edge">
<title>PagesModule&#45;&gt;AppModule</title>
<path fill="none" stroke="black" d="M1235,-122.02C1235,-139.37 1235,-163 1235,-163 1235,-163 1767,-163 1767,-163"/>
<polygon fill="black" stroke="black" points="1767,-166.5 1777,-163 1767,-159.5 1767,-166.5"/>
</g>
<!-- PermissionModule -->
<g id="node19" class="node">
<title>PermissionModule</title>
<polygon fill="#8dd3c7" stroke="black" points="1170.77,-122 1167.77,-126 1146.77,-126 1143.77,-122 1049.23,-122 1049.23,-86 1170.77,-86 1170.77,-122"/>
<text text-anchor="middle" x="1110" y="-99.8" font-family="Times,serif" font-size="14.00">PermissionModule</text>
</g>
<!-- PermissionModule&#45;&gt;AppModule -->
<g id="edge19" class="edge">
<title>PermissionModule&#45;&gt;AppModule</title>
<path fill="none" stroke="black" d="M1110,-122.3C1110,-140.27 1110,-165 1110,-165 1110,-165 1767.3,-165 1767.3,-165"/>
<polygon fill="black" stroke="black" points="1767.3,-168.5 1777.3,-165 1767.3,-161.5 1767.3,-168.5"/>
</g>
<!-- RapidIdModule -->
<g id="node20" class="node">
<title>RapidIdModule</title>
<polygon fill="#8dd3c7" stroke="black" points="1031.15,-122 1028.15,-126 1007.15,-126 1004.15,-122 926.85,-122 926.85,-86 1031.15,-86 1031.15,-122"/>
<text text-anchor="middle" x="979" y="-99.8" font-family="Times,serif" font-size="14.00">RapidIdModule</text>
</g>
<!-- RapidIdModule&#45;&gt;AppModule -->
<g id="edge20" class="edge">
<title>RapidIdModule&#45;&gt;AppModule</title>
<path fill="none" stroke="black" d="M979,-122.17C979,-141.09 979,-168 979,-168 979,-168 1767.06,-168 1767.06,-168"/>
<polygon fill="black" stroke="black" points="1767.06,-171.5 1777.06,-168 1767.06,-164.5 1767.06,-171.5"/>
</g>
<!-- SiteSettingsModule -->
<g id="node21" class="node">
<title>SiteSettingsModule</title>
<polygon fill="#8dd3c7" stroke="black" points="908.44,-122 905.44,-126 884.44,-126 881.44,-122 781.56,-122 781.56,-86 908.44,-86 908.44,-122"/>
<text text-anchor="middle" x="845" y="-99.8" font-family="Times,serif" font-size="14.00">SiteSettingsModule</text>
</g>
<!-- SiteSettingsModule&#45;&gt;AppModule -->
<g id="edge21" class="edge">
<title>SiteSettingsModule&#45;&gt;AppModule</title>
<path fill="none" stroke="black" d="M845,-122.31C845,-142.15 845,-171 845,-171 845,-171 1767.15,-171 1767.15,-171"/>
<polygon fill="black" stroke="black" points="1767.15,-174.5 1777.15,-171 1767.15,-167.5 1767.15,-174.5"/>
</g>
<!-- StripeConnectModule -->
<g id="node22" class="node">
<title>StripeConnectModule</title>
<polygon fill="#8dd3c7" stroke="black" points="763.65,-122 760.65,-126 739.65,-126 736.65,-122 624.35,-122 624.35,-86 763.65,-86 763.65,-122"/>
<text text-anchor="middle" x="694" y="-99.8" font-family="Times,serif" font-size="14.00">StripeConnectModule</text>
</g>
<!-- StripeConnectModule&#45;&gt;AppModule -->
<g id="edge22" class="edge">
<title>StripeConnectModule&#45;&gt;AppModule</title>
<path fill="none" stroke="black" d="M694,-122.03C694,-142.77 694,-174 694,-174 694,-174 1767.29,-174 1767.29,-174"/>
<polygon fill="black" stroke="black" points="1767.29,-177.5 1777.29,-174 1767.29,-170.5 1767.29,-177.5"/>
</g>
<!-- StripePaymentModule -->
<g id="node23" class="node">
<title>StripePaymentModule</title>
<polygon fill="#8dd3c7" stroke="black" points="605.98,-122 602.98,-126 581.98,-126 578.98,-122 464.02,-122 464.02,-86 605.98,-86 605.98,-122"/>
<text text-anchor="middle" x="535" y="-99.8" font-family="Times,serif" font-size="14.00">StripePaymentModule</text>
</g>
<!-- StripePaymentModule&#45;&gt;AppModule -->
<g id="edge23" class="edge">
<title>StripePaymentModule&#45;&gt;AppModule</title>
<path fill="none" stroke="black" d="M535,-122.17C535,-143.5 535,-176 535,-176 535,-176 1767.01,-176 1767.01,-176"/>
<polygon fill="black" stroke="black" points="1767.01,-179.5 1777.01,-176 1767.01,-172.5 1767.01,-179.5"/>
</g>
<!-- StripeSubscriptionModule -->
<g id="node24" class="node">
<title>StripeSubscriptionModule</title>
<polygon fill="#8dd3c7" stroke="black" points="445.76,-122 442.76,-126 421.76,-126 418.76,-122 282.24,-122 282.24,-86 445.76,-86 445.76,-122"/>
<text text-anchor="middle" x="364" y="-99.8" font-family="Times,serif" font-size="14.00">StripeSubscriptionModule</text>
</g>
<!-- StripeSubscriptionModule&#45;&gt;AppModule -->
<g id="edge24" class="edge">
<title>StripeSubscriptionModule&#45;&gt;AppModule</title>
<path fill="none" stroke="black" d="M364,-122.16C364,-144.35 364,-179 364,-179 364,-179 1767.02,-179 1767.02,-179"/>
<polygon fill="black" stroke="black" points="1767.02,-182.5 1777.02,-179 1767.02,-175.5 1767.02,-182.5"/>
</g>
<!-- SubscriptionModule -->
<g id="node25" class="node">
<title>SubscriptionModule</title>
<polygon fill="#8dd3c7" stroke="black" points="264.32,-122 261.32,-126 240.32,-126 237.32,-122 133.68,-122 133.68,-86 264.32,-86 264.32,-122"/>
<text text-anchor="middle" x="199" y="-99.8" font-family="Times,serif" font-size="14.00">SubscriptionModule</text>
</g>
<!-- SubscriptionModule&#45;&gt;AppModule -->
<g id="edge25" class="edge">
<title>SubscriptionModule&#45;&gt;AppModule</title>
<path fill="none" stroke="black" d="M199,-122.09C199,-145.13 199,-182 199,-182 199,-182 1767.33,-182 1767.33,-182"/>
<polygon fill="black" stroke="black" points="1767.33,-185.5 1777.33,-182 1767.33,-178.5 1767.33,-185.5"/>
</g>
<!-- UsersModule -->
<g id="node26" class="node">
<title>UsersModule</title>
<polygon fill="#8dd3c7" stroke="black" points="115.92,-122 112.92,-126 91.92,-126 88.92,-122 24.08,-122 24.08,-86 115.92,-86 115.92,-122"/>
<text text-anchor="middle" x="70" y="-99.8" font-family="Times,serif" font-size="14.00">UsersModule</text>
</g>
<!-- UsersModule&#45;&gt;AppModule -->
<g id="edge26" class="edge">
<title>UsersModule&#45;&gt;AppModule</title>
<path fill="none" stroke="black" d="M70,-122.38C70,-146.28 70,-185 70,-185 70,-185 1767.06,-185 1767.06,-185"/>
<polygon fill="black" stroke="black" points="1767.06,-188.5 1777.06,-185 1767.06,-181.5 1767.06,-188.5"/>
</g>
</g>
</svg>
