<?xml version="1.0" encoding="UTF-8" standalone="no"?>
<!DOCTYPE svg PUBLIC "-//W3C//DTD SVG 1.1//EN"
 "http://www.w3.org/Graphics/SVG/1.1/DTD/svg11.dtd">
<!-- Generated by graphviz version 2.47.0 (20210316.0004)
 -->
<!-- Title: dependencies Pages: 1 -->
<svg width="2334pt" height="211pt"
 viewBox="0.00 0.00 2334.00 211.00" xmlns="http://www.w3.org/2000/svg" xmlns:xlink="http://www.w3.org/1999/xlink">
<g id="graph0" class="graph" transform="scale(1 1) rotate(0) translate(4 207)">
<title>dependencies</title>
<polygon fill="white" stroke="transparent" points="-4,4 -4,-207 2330,-207 2330,4 -4,4"/>
<text text-anchor="start" x="1142.01" y="-42.4" font-family="Times-12" font-weight="bold" font-size="14.00">Legend</text>
<polygon fill="#ffffb3" stroke="transparent" points="929,-10 929,-30 949,-30 949,-10 929,-10"/>
<text text-anchor="start" x="952.63" y="-15.4" font-family="Times-12" font-size="14.00"> &#160;Declarations</text>
<polygon fill="#8dd3c7" stroke="transparent" points="1042,-10 1042,-30 1062,-30 1062,-10 1042,-10"/>
<text text-anchor="start" x="1065.73" y="-15.4" font-family="Times-12" font-size="14.00"> &#160;Module</text>
<polygon fill="#80b1d3" stroke="transparent" points="1128,-10 1128,-30 1148,-30 1148,-10 1128,-10"/>
<text text-anchor="start" x="1151.78" y="-15.4" font-family="Times-12" font-size="14.00"> &#160;Bootstrap</text>
<polygon fill="#fdb462" stroke="transparent" points="1225,-10 1225,-30 1245,-30 1245,-10 1225,-10"/>
<text text-anchor="start" x="1248.67" y="-15.4" font-family="Times-12" font-size="14.00"> &#160;Providers</text>
<polygon fill="#fb8072" stroke="transparent" points="1321,-10 1321,-30 1341,-30 1341,-10 1321,-10"/>
<text text-anchor="start" x="1344.73" y="-15.4" font-family="Times-12" font-size="14.00"> &#160;Exports</text>
<g id="clust1" class="cluster">
<title>cluster_FeedsModule</title>
<polygon fill="none" stroke="black" stroke-dasharray="1,5" points="8,-70 8,-195 2318,-195 2318,-70 8,-70"/>
</g>
<g id="clust6" class="cluster">
<title>cluster_FeedsModule_providers</title>
<polygon fill="none" stroke="black" points="282,-78 282,-130 2310,-130 2310,-78 282,-78"/>
</g>
<g id="clust3" class="cluster">
<title>cluster_FeedsModule_imports</title>
<polygon fill="none" stroke="black" points="16,-78 16,-130 274,-130 274,-78 16,-78"/>
</g>
<!-- NotificationsModule -->
<g id="node1" class="node">
<title>NotificationsModule</title>
<polygon fill="#8dd3c7" stroke="black" points="266.14,-122 263.14,-126 242.14,-126 239.14,-122 133.86,-122 133.86,-86 266.14,-86 266.14,-122"/>
<text text-anchor="middle" x="200" y="-99.8" font-family="Times,serif" font-size="14.00">NotificationsModule</text>
</g>
<!-- FeedsModule -->
<g id="node3" class="node">
<title>FeedsModule</title>
<polygon fill="#8dd3c7" stroke="black" points="1091.21,-187 1088.21,-191 1067.21,-191 1064.21,-187 998.79,-187 998.79,-151 1091.21,-151 1091.21,-187"/>
<text text-anchor="middle" x="1045" y="-164.8" font-family="Times,serif" font-size="14.00">FeedsModule</text>
</g>
<!-- NotificationsModule&#45;&gt;FeedsModule -->
<g id="edge1" class="edge">
<title>NotificationsModule&#45;&gt;FeedsModule</title>
<path fill="none" stroke="black" d="M200,-122.28C200,-143.32 200,-175 200,-175 200,-175 988.67,-175 988.67,-175"/>
<polygon fill="black" stroke="black" points="988.67,-178.5 998.67,-175 988.67,-171.5 988.67,-178.5"/>
</g>
<!-- UsersModule -->
<g id="node2" class="node">
<title>UsersModule</title>
<polygon fill="#8dd3c7" stroke="black" points="115.92,-122 112.92,-126 91.92,-126 88.92,-122 24.08,-122 24.08,-86 115.92,-86 115.92,-122"/>
<text text-anchor="middle" x="70" y="-99.8" font-family="Times,serif" font-size="14.00">UsersModule</text>
</g>
<!-- UsersModule&#45;&gt;FeedsModule -->
<g id="edge2" class="edge">
<title>UsersModule&#45;&gt;FeedsModule</title>
<path fill="none" stroke="black" d="M70,-122.09C70,-145.13 70,-182 70,-182 70,-182 988.63,-182 988.63,-182"/>
<polygon fill="black" stroke="black" points="988.63,-185.5 998.63,-182 988.63,-178.5 988.63,-185.5"/>
</g>
<!-- FcmService -->
<g id="node4" class="node">
<title>FcmService</title>
<ellipse fill="#fdb462" stroke="black" cx="2245" cy="-104" rx="57.32" ry="18"/>
<text text-anchor="middle" x="2245" y="-99.8" font-family="Times,serif" font-size="14.00">FcmService</text>
</g>
<!-- FcmService&#45;&gt;FeedsModule -->
<g id="edge3" class="edge">
<title>FcmService&#45;&gt;FeedsModule</title>
<path fill="none" stroke="black" d="M2245,-122.09C2245,-145.13 2245,-182 2245,-182 2245,-182 1101.31,-182 1101.31,-182"/>
<polygon fill="black" stroke="black" points="1101.31,-178.5 1091.31,-182 1101.31,-185.5 1101.31,-178.5"/>
</g>
<!-- FeedCommentNotificationHandler -->
<g id="node5" class="node">
<title>FeedCommentNotificationHandler</title>
<ellipse fill="#fdb462" stroke="black" cx="2024" cy="-104" rx="145.82" ry="18"/>
<text text-anchor="middle" x="2024" y="-99.8" font-family="Times,serif" font-size="14.00">FeedCommentNotificationHandler</text>
</g>
<!-- FeedCommentNotificationHandler&#45;&gt;FeedsModule -->
<g id="edge4" class="edge">
<title>FeedCommentNotificationHandler&#45;&gt;FeedsModule</title>
<path fill="none" stroke="black" d="M2024,-122.28C2024,-143.32 2024,-175 2024,-175 2024,-175 1101.23,-175 1101.23,-175"/>
<polygon fill="black" stroke="black" points="1101.23,-171.5 1091.23,-175 1101.23,-178.5 1101.23,-171.5"/>
</g>
<!-- FeedCommentRepository -->
<g id="node6" class="node">
<title>FeedCommentRepository</title>
<ellipse fill="#fdb462" stroke="black" cx="1750" cy="-104" rx="110.05" ry="18"/>
<text text-anchor="middle" x="1750" y="-99.8" font-family="Times,serif" font-size="14.00">FeedCommentRepository</text>
</g>
<!-- FeedCommentRepository&#45;&gt;FeedsModule -->
<g id="edge5" class="edge">
<title>FeedCommentRepository&#45;&gt;FeedsModule</title>
<path fill="none" stroke="black" d="M1750,-122.11C1750,-141.34 1750,-169 1750,-169 1750,-169 1101.26,-169 1101.26,-169"/>
<polygon fill="black" stroke="black" points="1101.26,-165.5 1091.26,-169 1101.26,-172.5 1101.26,-165.5"/>
</g>
<!-- FeedCommentsService -->
<g id="node7" class="node">
<title>FeedCommentsService</title>
<ellipse fill="#fdb462" stroke="black" cx="1521" cy="-104" rx="100.72" ry="18"/>
<text text-anchor="middle" x="1521" y="-99.8" font-family="Times,serif" font-size="14.00">FeedCommentsService</text>
</g>
<!-- FeedCommentsService&#45;&gt;FeedsModule -->
<g id="edge6" class="edge">
<title>FeedCommentsService&#45;&gt;FeedsModule</title>
<path fill="none" stroke="black" d="M1521,-122.02C1521,-139.37 1521,-163 1521,-163 1521,-163 1101.51,-163 1101.51,-163"/>
<polygon fill="black" stroke="black" points="1101.51,-159.5 1091.51,-163 1101.51,-166.5 1101.51,-159.5"/>
</g>
<!-- FeedReplyRepository -->
<g id="node8" class="node">
<title>FeedReplyRepository</title>
<ellipse fill="#fdb462" stroke="black" cx="1307" cy="-104" rx="95.01" ry="18"/>
<text text-anchor="middle" x="1307" y="-99.8" font-family="Times,serif" font-size="14.00">FeedReplyRepository</text>
</g>
<!-- FeedReplyRepository&#45;&gt;FeedsModule -->
<g id="edge7" class="edge">
<title>FeedReplyRepository&#45;&gt;FeedsModule</title>
<path fill="none" stroke="black" d="M1307,-122.24C1307,-137.57 1307,-157 1307,-157 1307,-157 1101.24,-157 1101.24,-157"/>
<polygon fill="black" stroke="black" points="1101.24,-153.5 1091.24,-157 1101.24,-160.5 1101.24,-153.5"/>
</g>
<!-- FeedRepository -->
<g id="node9" class="node">
<title>FeedRepository</title>
<ellipse fill="#fdb462" stroke="black" cx="1122" cy="-104" rx="72.37" ry="18"/>
<text text-anchor="middle" x="1122" y="-99.8" font-family="Times,serif" font-size="14.00">FeedRepository</text>
</g>
<!-- FeedRepository&#45;&gt;FeedsModule -->
<g id="edge8" class="edge">
<title>FeedRepository&#45;&gt;FeedsModule</title>
<path fill="none" stroke="black" d="M1070.46,-116.84C1070.46,-116.84 1070.46,-140.52 1070.46,-140.52"/>
<polygon fill="black" stroke="black" points="1066.96,-140.52 1070.46,-150.52 1073.96,-140.52 1066.96,-140.52"/>
</g>
<!-- FeedsService -->
<g id="node10" class="node">
<title>FeedsService</title>
<ellipse fill="#fdb462" stroke="black" cx="969" cy="-104" rx="62.54" ry="18"/>
<text text-anchor="middle" x="969" y="-99.8" font-family="Times,serif" font-size="14.00">FeedsService</text>
</g>
<!-- FeedsService&#45;&gt;FeedsModule -->
<g id="edge9" class="edge">
<title>FeedsService&#45;&gt;FeedsModule</title>
<path fill="none" stroke="black" d="M1015.21,-116.23C1015.21,-116.23 1015.21,-140.68 1015.21,-140.68"/>
<polygon fill="black" stroke="black" points="1011.71,-140.68 1015.21,-150.68 1018.71,-140.68 1011.71,-140.68"/>
</g>
<!-- PostLikeRepository -->
<g id="node11" class="node">
<title>PostLikeRepository</title>
<ellipse fill="#fdb462" stroke="black" cx="801" cy="-104" rx="88" ry="18"/>
<text text-anchor="middle" x="801" y="-99.8" font-family="Times,serif" font-size="14.00">PostLikeRepository</text>
</g>
<!-- PostLikeRepository&#45;&gt;FeedsModule -->
<g id="edge10" class="edge">
<title>PostLikeRepository&#45;&gt;FeedsModule</title>
<path fill="none" stroke="black" d="M801,-122.24C801,-137.57 801,-157 801,-157 801,-157 988.82,-157 988.82,-157"/>
<polygon fill="black" stroke="black" points="988.82,-160.5 998.82,-157 988.82,-153.5 988.82,-160.5"/>
</g>
<!-- PushNotificationTokenRepository -->
<g id="node12" class="node">
<title>PushNotificationTokenRepository</title>
<ellipse fill="#fdb462" stroke="black" cx="552" cy="-104" rx="143.56" ry="18"/>
<text text-anchor="middle" x="552" y="-99.8" font-family="Times,serif" font-size="14.00">PushNotificationTokenRepository</text>
</g>
<!-- PushNotificationTokenRepository&#45;&gt;FeedsModule -->
<g id="edge11" class="edge">
<title>PushNotificationTokenRepository&#45;&gt;FeedsModule</title>
<path fill="none" stroke="black" d="M552,-122.02C552,-139.37 552,-163 552,-163 552,-163 988.62,-163 988.62,-163"/>
<polygon fill="black" stroke="black" points="988.62,-166.5 998.62,-163 988.62,-159.5 988.62,-166.5"/>
</g>
<!-- S3Service -->
<g id="node13" class="node">
<title>S3Service</title>
<ellipse fill="#fdb462" stroke="black" cx="340" cy="-104" rx="50.38" ry="18"/>
<text text-anchor="middle" x="340" y="-99.8" font-family="Times,serif" font-size="14.00">S3Service</text>
</g>
<!-- S3Service&#45;&gt;FeedsModule -->
<g id="edge12" class="edge">
<title>S3Service&#45;&gt;FeedsModule</title>
<path fill="none" stroke="black" d="M340,-122.11C340,-141.34 340,-169 340,-169 340,-169 988.74,-169 988.74,-169"/>
<polygon fill="black" stroke="black" points="988.74,-172.5 998.74,-169 988.74,-165.5 988.74,-172.5"/>
</g>
</g>
</svg>
