<?xml version="1.0" encoding="UTF-8" standalone="no"?>
<!DOCTYPE svg PUBLIC "-//W3C//DTD SVG 1.1//EN"
 "http://www.w3.org/Graphics/SVG/1.1/DTD/svg11.dtd">
<!-- Generated by graphviz version 2.47.0 (20210316.0004)
 -->
<!-- Title: dependencies Pages: 1 -->
<svg width="1055pt" height="211pt"
 viewBox="0.00 0.00 1055.00 211.00" xmlns="http://www.w3.org/2000/svg" xmlns:xlink="http://www.w3.org/1999/xlink">
<g id="graph0" class="graph" transform="scale(1 1) rotate(0) translate(4 207)">
<title>dependencies</title>
<polygon fill="white" stroke="transparent" points="-4,4 -4,-207 1051,-207 1051,4 -4,4"/>
<text text-anchor="start" x="502.51" y="-42.4" font-family="Times-12" font-weight="bold" font-size="14.00">Legend</text>
<polygon fill="#ffffb3" stroke="transparent" points="289.5,-10 289.5,-30 309.5,-30 309.5,-10 289.5,-10"/>
<text text-anchor="start" x="313.13" y="-15.4" font-family="Times-12" font-size="14.00"> &#160;Declarations</text>
<polygon fill="#8dd3c7" stroke="transparent" points="402.5,-10 402.5,-30 422.5,-30 422.5,-10 402.5,-10"/>
<text text-anchor="start" x="426.23" y="-15.4" font-family="Times-12" font-size="14.00"> &#160;Module</text>
<polygon fill="#80b1d3" stroke="transparent" points="488.5,-10 488.5,-30 508.5,-30 508.5,-10 488.5,-10"/>
<text text-anchor="start" x="512.28" y="-15.4" font-family="Times-12" font-size="14.00"> &#160;Bootstrap</text>
<polygon fill="#fdb462" stroke="transparent" points="585.5,-10 585.5,-30 605.5,-30 605.5,-10 585.5,-10"/>
<text text-anchor="start" x="609.17" y="-15.4" font-family="Times-12" font-size="14.00"> &#160;Providers</text>
<polygon fill="#fb8072" stroke="transparent" points="681.5,-10 681.5,-30 701.5,-30 701.5,-10 681.5,-10"/>
<text text-anchor="start" x="705.23" y="-15.4" font-family="Times-12" font-size="14.00"> &#160;Exports</text>
<g id="clust1" class="cluster">
<title>cluster_AgoraModule</title>
<polygon fill="none" stroke="black" stroke-dasharray="1,5" points="8,-70 8,-195 1039,-195 1039,-70 8,-70"/>
</g>
<g id="clust3" class="cluster">
<title>cluster_AgoraModule_imports</title>
<polygon fill="none" stroke="black" points="689,-78 689,-130 1031,-130 1031,-78 689,-78"/>
</g>
<g id="clust6" class="cluster">
<title>cluster_AgoraModule_providers</title>
<polygon fill="none" stroke="black" points="16,-78 16,-130 681,-130 681,-78 16,-78"/>
</g>
<!-- PushNotificationTokenDataModule -->
<g id="node1" class="node">
<title>PushNotificationTokenDataModule</title>
<polygon fill="#8dd3c7" stroke="black" points="1023.12,-122 1020.12,-126 999.12,-126 996.12,-122 806.88,-122 806.88,-86 1023.12,-86 1023.12,-122"/>
<text text-anchor="middle" x="915" y="-99.8" font-family="Times,serif" font-size="14.00">PushNotificationTokenDataModule</text>
</g>
<!-- AgoraModule -->
<g id="node3" class="node">
<title>AgoraModule</title>
<polygon fill="#8dd3c7" stroke="black" points="543.03,-187 540.03,-191 519.03,-191 516.03,-187 448.97,-187 448.97,-151 543.03,-151 543.03,-187"/>
<text text-anchor="middle" x="496" y="-164.8" font-family="Times,serif" font-size="14.00">AgoraModule</text>
</g>
<!-- PushNotificationTokenDataModule&#45;&gt;AgoraModule -->
<g id="edge1" class="edge">
<title>PushNotificationTokenDataModule&#45;&gt;AgoraModule</title>
<path fill="none" stroke="black" d="M915,-122.28C915,-143.32 915,-175 915,-175 915,-175 553.25,-175 553.25,-175"/>
<polygon fill="black" stroke="black" points="553.25,-171.5 543.25,-175 553.25,-178.5 553.25,-171.5"/>
</g>
<!-- UsersModule -->
<g id="node2" class="node">
<title>UsersModule</title>
<polygon fill="#8dd3c7" stroke="black" points="788.92,-122 785.92,-126 764.92,-126 761.92,-122 697.08,-122 697.08,-86 788.92,-86 788.92,-122"/>
<text text-anchor="middle" x="743" y="-99.8" font-family="Times,serif" font-size="14.00">UsersModule</text>
</g>
<!-- UsersModule&#45;&gt;AgoraModule -->
<g id="edge2" class="edge">
<title>UsersModule&#45;&gt;AgoraModule</title>
<path fill="none" stroke="black" d="M743,-122.02C743,-139.37 743,-163 743,-163 743,-163 553.04,-163 553.04,-163"/>
<polygon fill="black" stroke="black" points="553.04,-159.5 543.04,-163 553.04,-166.5 553.04,-159.5"/>
</g>
<!-- AgoraHelperService -->
<g id="node4" class="node">
<title>AgoraHelperService</title>
<ellipse fill="#fdb462" stroke="black" cx="583" cy="-104" rx="90.29" ry="18"/>
<text text-anchor="middle" x="583" y="-99.8" font-family="Times,serif" font-size="14.00">AgoraHelperService</text>
</g>
<!-- AgoraHelperService&#45;&gt;AgoraModule -->
<g id="edge3" class="edge">
<title>AgoraHelperService&#45;&gt;AgoraModule</title>
<path fill="none" stroke="black" d="M517.94,-116.53C517.94,-116.53 517.94,-140.85 517.94,-140.85"/>
<polygon fill="black" stroke="black" points="514.44,-140.85 517.94,-150.85 521.44,-140.85 514.44,-140.85"/>
</g>
<!-- AgoraService -->
<g id="node5" class="node">
<title>AgoraService</title>
<ellipse fill="#fdb462" stroke="black" cx="410" cy="-104" rx="64.24" ry="18"/>
<text text-anchor="middle" x="410" y="-99.8" font-family="Times,serif" font-size="14.00">AgoraService</text>
</g>
<!-- AgoraService&#45;&gt;AgoraModule -->
<g id="edge4" class="edge">
<title>AgoraService&#45;&gt;AgoraModule</title>
<path fill="none" stroke="black" d="M461.43,-115.03C461.43,-115.03 461.43,-140.78 461.43,-140.78"/>
<polygon fill="black" stroke="black" points="457.93,-140.78 461.43,-150.78 464.93,-140.78 457.93,-140.78"/>
</g>
<!-- FcmService -->
<g id="node6" class="node">
<title>FcmService</title>
<ellipse fill="#fdb462" stroke="black" cx="271" cy="-104" rx="57.32" ry="18"/>
<text text-anchor="middle" x="271" y="-99.8" font-family="Times,serif" font-size="14.00">FcmService</text>
</g>
<!-- FcmService&#45;&gt;AgoraModule -->
<g id="edge5" class="edge">
<title>FcmService&#45;&gt;AgoraModule</title>
<path fill="none" stroke="black" d="M271,-122.02C271,-139.37 271,-163 271,-163 271,-163 438.83,-163 438.83,-163"/>
<polygon fill="black" stroke="black" points="438.83,-166.5 448.83,-163 438.83,-159.5 438.83,-166.5"/>
</g>
<!-- VoipHelperService -->
<g id="node7" class="node">
<title>VoipHelperService</title>
<ellipse fill="#fdb462" stroke="black" cx="110" cy="-104" rx="85.65" ry="18"/>
<text text-anchor="middle" x="110" y="-99.8" font-family="Times,serif" font-size="14.00">VoipHelperService</text>
</g>
<!-- VoipHelperService&#45;&gt;AgoraModule -->
<g id="edge6" class="edge">
<title>VoipHelperService&#45;&gt;AgoraModule</title>
<path fill="none" stroke="black" d="M110,-122.28C110,-143.32 110,-175 110,-175 110,-175 438.67,-175 438.67,-175"/>
<polygon fill="black" stroke="black" points="438.67,-178.5 448.67,-175 438.67,-171.5 438.67,-178.5"/>
</g>
</g>
</svg>
