<?xml version="1.0" encoding="UTF-8" standalone="no"?>
<!DOCTYPE svg PUBLIC "-//W3C//DTD SVG 1.1//EN"
 "http://www.w3.org/Graphics/SVG/1.1/DTD/svg11.dtd">
<!-- Generated by graphviz version 2.47.0 (20210316.0004)
 -->
<!-- Title: dependencies Pages: 1 -->
<svg width="504pt" height="211pt"
 viewBox="0.00 0.00 504.00 211.00" xmlns="http://www.w3.org/2000/svg" xmlns:xlink="http://www.w3.org/1999/xlink">
<g id="graph0" class="graph" transform="scale(1 1) rotate(0) translate(4 207)">
<title>dependencies</title>
<polygon fill="white" stroke="transparent" points="-4,4 -4,-207 500,-207 500,4 -4,4"/>
<text text-anchor="start" x="227.01" y="-42.4" font-family="Times-12" font-weight="bold" font-size="14.00">Legend</text>
<polygon fill="#ffffb3" stroke="transparent" points="14,-10 14,-30 34,-30 34,-10 14,-10"/>
<text text-anchor="start" x="37.63" y="-15.4" font-family="Times-12" font-size="14.00"> &#160;Declarations</text>
<polygon fill="#8dd3c7" stroke="transparent" points="127,-10 127,-30 147,-30 147,-10 127,-10"/>
<text text-anchor="start" x="150.73" y="-15.4" font-family="Times-12" font-size="14.00"> &#160;Module</text>
<polygon fill="#80b1d3" stroke="transparent" points="213,-10 213,-30 233,-30 233,-10 213,-10"/>
<text text-anchor="start" x="236.78" y="-15.4" font-family="Times-12" font-size="14.00"> &#160;Bootstrap</text>
<polygon fill="#fdb462" stroke="transparent" points="310,-10 310,-30 330,-30 330,-10 310,-10"/>
<text text-anchor="start" x="333.67" y="-15.4" font-family="Times-12" font-size="14.00"> &#160;Providers</text>
<polygon fill="#fb8072" stroke="transparent" points="406,-10 406,-30 426,-30 426,-10 406,-10"/>
<text text-anchor="start" x="429.73" y="-15.4" font-family="Times-12" font-size="14.00"> &#160;Exports</text>
<g id="clust1" class="cluster">
<title>cluster_FaqModule</title>
<polygon fill="none" stroke="black" stroke-dasharray="1,5" points="91,-70 91,-195 405,-195 405,-70 91,-70"/>
</g>
<g id="clust6" class="cluster">
<title>cluster_FaqModule_providers</title>
<polygon fill="none" stroke="black" points="99,-78 99,-130 397,-130 397,-78 99,-78"/>
</g>
<!-- FAQRepository -->
<g id="node1" class="node">
<title>FAQRepository</title>
<ellipse fill="#fdb462" stroke="black" cx="316" cy="-104" rx="72.95" ry="18"/>
<text text-anchor="middle" x="316" y="-99.8" font-family="Times,serif" font-size="14.00">FAQRepository</text>
</g>
<!-- FaqModule -->
<g id="node3" class="node">
<title>FaqModule</title>
<polygon fill="#8dd3c7" stroke="black" points="281.05,-187 278.05,-191 257.05,-191 254.05,-187 200.95,-187 200.95,-151 281.05,-151 281.05,-187"/>
<text text-anchor="middle" x="241" y="-164.8" font-family="Times,serif" font-size="14.00">FaqModule</text>
</g>
<!-- FAQRepository&#45;&gt;FaqModule -->
<g id="edge1" class="edge">
<title>FAQRepository&#45;&gt;FaqModule</title>
<path fill="none" stroke="black" d="M262.27,-116.23C262.27,-116.23 262.27,-140.68 262.27,-140.68"/>
<polygon fill="black" stroke="black" points="258.77,-140.68 262.27,-150.68 265.77,-140.68 258.77,-140.68"/>
</g>
<!-- FAQService -->
<g id="node2" class="node">
<title>FAQService</title>
<ellipse fill="#fdb462" stroke="black" cx="166" cy="-104" rx="59.11" ry="18"/>
<text text-anchor="middle" x="166" y="-99.8" font-family="Times,serif" font-size="14.00">FAQService</text>
</g>
<!-- FAQService&#45;&gt;FaqModule -->
<g id="edge2" class="edge">
<title>FAQService&#45;&gt;FaqModule</title>
<path fill="none" stroke="black" d="M213.01,-115.03C213.01,-115.03 213.01,-140.78 213.01,-140.78"/>
<polygon fill="black" stroke="black" points="209.51,-140.78 213.01,-150.78 216.51,-140.78 209.51,-140.78"/>
</g>
</g>
</svg>
