<?xml version="1.0" encoding="UTF-8" standalone="no"?>
<!DOCTYPE svg PUBLIC "-//W3C//DTD SVG 1.1//EN"
 "http://www.w3.org/Graphics/SVG/1.1/DTD/svg11.dtd">
<!-- Generated by graphviz version 2.47.0 (20210316.0004)
 -->
<!-- Title: dependencies Pages: 1 -->
<svg width="504pt" height="211pt"
 viewBox="0.00 0.00 504.00 211.00" xmlns="http://www.w3.org/2000/svg" xmlns:xlink="http://www.w3.org/1999/xlink">
<g id="graph0" class="graph" transform="scale(1 1) rotate(0) translate(4 207)">
<title>dependencies</title>
<polygon fill="white" stroke="transparent" points="-4,4 -4,-207 500,-207 500,4 -4,4"/>
<text text-anchor="start" x="227.01" y="-42.4" font-family="Times-12" font-weight="bold" font-size="14.00">Legend</text>
<polygon fill="#ffffb3" stroke="transparent" points="14,-10 14,-30 34,-30 34,-10 14,-10"/>
<text text-anchor="start" x="37.63" y="-15.4" font-family="Times-12" font-size="14.00"> &#160;Declarations</text>
<polygon fill="#8dd3c7" stroke="transparent" points="127,-10 127,-30 147,-30 147,-10 127,-10"/>
<text text-anchor="start" x="150.73" y="-15.4" font-family="Times-12" font-size="14.00"> &#160;Module</text>
<polygon fill="#80b1d3" stroke="transparent" points="213,-10 213,-30 233,-30 233,-10 213,-10"/>
<text text-anchor="start" x="236.78" y="-15.4" font-family="Times-12" font-size="14.00"> &#160;Bootstrap</text>
<polygon fill="#fdb462" stroke="transparent" points="310,-10 310,-30 330,-30 330,-10 310,-10"/>
<text text-anchor="start" x="333.67" y="-15.4" font-family="Times-12" font-size="14.00"> &#160;Providers</text>
<polygon fill="#fb8072" stroke="transparent" points="406,-10 406,-30 426,-30 426,-10 406,-10"/>
<text text-anchor="start" x="429.73" y="-15.4" font-family="Times-12" font-size="14.00"> &#160;Exports</text>
<g id="clust1" class="cluster">
<title>cluster_EmailTemplateModule</title>
<polygon fill="none" stroke="black" stroke-dasharray="1,5" points="54,-70 54,-195 442,-195 442,-70 54,-70"/>
</g>
<g id="clust6" class="cluster">
<title>cluster_EmailTemplateModule_providers</title>
<polygon fill="none" stroke="black" points="62,-78 62,-130 434,-130 434,-78 62,-78"/>
</g>
<!-- EmailTemplateService -->
<g id="node1" class="node">
<title>EmailTemplateService</title>
<ellipse fill="#fdb462" stroke="black" cx="326" cy="-104" rx="99.55" ry="18"/>
<text text-anchor="middle" x="326" y="-99.8" font-family="Times,serif" font-size="14.00">EmailTemplateService</text>
</g>
<!-- EmailTemplateModule -->
<g id="node3" class="node">
<title>EmailTemplateModule</title>
<polygon fill="#8dd3c7" stroke="black" points="304.86,-187 301.86,-191 280.86,-191 277.86,-187 159.14,-187 159.14,-151 304.86,-151 304.86,-187"/>
<text text-anchor="middle" x="232" y="-164.8" font-family="Times,serif" font-size="14.00">EmailTemplateModule</text>
</g>
<!-- EmailTemplateService&#45;&gt;EmailTemplateModule -->
<g id="edge1" class="edge">
<title>EmailTemplateService&#45;&gt;EmailTemplateModule</title>
<path fill="none" stroke="black" d="M265.7,-118.43C265.7,-118.43 265.7,-140.89 265.7,-140.89"/>
<polygon fill="black" stroke="black" points="262.2,-140.89 265.7,-150.89 269.2,-140.89 262.2,-140.89"/>
</g>
<!-- StorageService -->
<g id="node2" class="node">
<title>StorageService</title>
<ellipse fill="#fdb462" stroke="black" cx="139" cy="-104" rx="69.48" ry="18"/>
<text text-anchor="middle" x="139" y="-99.8" font-family="Times,serif" font-size="14.00">StorageService</text>
</g>
<!-- StorageService&#45;&gt;EmailTemplateModule -->
<g id="edge2" class="edge">
<title>StorageService&#45;&gt;EmailTemplateModule</title>
<path fill="none" stroke="black" d="M183.78,-117.78C183.78,-117.78 183.78,-140.55 183.78,-140.55"/>
<polygon fill="black" stroke="black" points="180.28,-140.55 183.78,-150.55 187.28,-140.55 180.28,-140.55"/>
</g>
</g>
</svg>
