<?xml version="1.0" encoding="UTF-8" standalone="no"?>
<!DOCTYPE svg PUBLIC "-//W3C//DTD SVG 1.1//EN"
 "http://www.w3.org/Graphics/SVG/1.1/DTD/svg11.dtd">
<!-- Generated by graphviz version 2.47.0 (20210316.0004)
 -->
<!-- Title: dependencies Pages: 1 -->
<svg width="1162pt" height="211pt"
 viewBox="0.00 0.00 1162.00 211.00" xmlns="http://www.w3.org/2000/svg" xmlns:xlink="http://www.w3.org/1999/xlink">
<g id="graph0" class="graph" transform="scale(1 1) rotate(0) translate(4 207)">
<title>dependencies</title>
<polygon fill="white" stroke="transparent" points="-4,4 -4,-207 1158,-207 1158,4 -4,4"/>
<text text-anchor="start" x="556.01" y="-42.4" font-family="Times-12" font-weight="bold" font-size="14.00">Legend</text>
<polygon fill="#ffffb3" stroke="transparent" points="343,-10 343,-30 363,-30 363,-10 343,-10"/>
<text text-anchor="start" x="366.63" y="-15.4" font-family="Times-12" font-size="14.00"> &#160;Declarations</text>
<polygon fill="#8dd3c7" stroke="transparent" points="456,-10 456,-30 476,-30 476,-10 456,-10"/>
<text text-anchor="start" x="479.73" y="-15.4" font-family="Times-12" font-size="14.00"> &#160;Module</text>
<polygon fill="#80b1d3" stroke="transparent" points="542,-10 542,-30 562,-30 562,-10 542,-10"/>
<text text-anchor="start" x="565.78" y="-15.4" font-family="Times-12" font-size="14.00"> &#160;Bootstrap</text>
<polygon fill="#fdb462" stroke="transparent" points="639,-10 639,-30 659,-30 659,-10 639,-10"/>
<text text-anchor="start" x="662.67" y="-15.4" font-family="Times-12" font-size="14.00"> &#160;Providers</text>
<polygon fill="#fb8072" stroke="transparent" points="735,-10 735,-30 755,-30 755,-10 735,-10"/>
<text text-anchor="start" x="758.73" y="-15.4" font-family="Times-12" font-size="14.00"> &#160;Exports</text>
<g id="clust1" class="cluster">
<title>cluster_StripeConnectModule</title>
<polygon fill="none" stroke="black" stroke-dasharray="1,5" points="8,-70 8,-195 1146,-195 1146,-70 8,-70"/>
</g>
<g id="clust6" class="cluster">
<title>cluster_StripeConnectModule_providers</title>
<polygon fill="none" stroke="black" points="16,-78 16,-130 1138,-130 1138,-78 16,-78"/>
</g>
<!-- BusinessRepository -->
<g id="node1" class="node">
<title>BusinessRepository</title>
<ellipse fill="#fdb462" stroke="black" cx="1042" cy="-104" rx="88" ry="18"/>
<text text-anchor="middle" x="1042" y="-99.8" font-family="Times,serif" font-size="14.00">BusinessRepository</text>
</g>
<!-- StripeConnectModule -->
<g id="node7" class="node">
<title>StripeConnectModule</title>
<polygon fill="#8dd3c7" stroke="black" points="704.65,-187 701.65,-191 680.65,-191 677.65,-187 565.35,-187 565.35,-151 704.65,-151 704.65,-187"/>
<text text-anchor="middle" x="635" y="-164.8" font-family="Times,serif" font-size="14.00">StripeConnectModule</text>
</g>
<!-- BusinessRepository&#45;&gt;StripeConnectModule -->
<g id="edge1" class="edge">
<title>BusinessRepository&#45;&gt;StripeConnectModule</title>
<path fill="none" stroke="black" d="M1042,-122.28C1042,-143.32 1042,-175 1042,-175 1042,-175 714.97,-175 714.97,-175"/>
<polygon fill="black" stroke="black" points="714.97,-171.5 704.97,-175 714.97,-178.5 714.97,-171.5"/>
</g>
<!-- S3Service -->
<g id="node2" class="node">
<title>S3Service</title>
<ellipse fill="#fdb462" stroke="black" cx="886" cy="-104" rx="50.38" ry="18"/>
<text text-anchor="middle" x="886" y="-99.8" font-family="Times,serif" font-size="14.00">S3Service</text>
</g>
<!-- S3Service&#45;&gt;StripeConnectModule -->
<g id="edge2" class="edge">
<title>S3Service&#45;&gt;StripeConnectModule</title>
<path fill="none" stroke="black" d="M886,-122.02C886,-139.37 886,-163 886,-163 886,-163 714.92,-163 714.92,-163"/>
<polygon fill="black" stroke="black" points="714.92,-159.5 704.92,-163 714.92,-166.5 714.92,-159.5"/>
</g>
<!-- StripeConnectService -->
<g id="node3" class="node">
<title>StripeConnectService</title>
<ellipse fill="#fdb462" stroke="black" cx="723" cy="-104" rx="95.48" ry="18"/>
<text text-anchor="middle" x="723" y="-99.8" font-family="Times,serif" font-size="14.00">StripeConnectService</text>
</g>
<!-- StripeConnectService&#45;&gt;StripeConnectModule -->
<g id="edge3" class="edge">
<title>StripeConnectService&#45;&gt;StripeConnectModule</title>
<path fill="none" stroke="black" d="M666.29,-118.75C666.29,-118.75 666.29,-140.59 666.29,-140.59"/>
<polygon fill="black" stroke="black" points="662.79,-140.59 666.29,-150.59 669.79,-140.59 662.79,-140.59"/>
</g>
<!-- StripeService -->
<g id="node4" class="node">
<title>StripeService</title>
<ellipse fill="#fdb462" stroke="black" cx="547" cy="-104" rx="63.12" ry="18"/>
<text text-anchor="middle" x="547" y="-99.8" font-family="Times,serif" font-size="14.00">StripeService</text>
</g>
<!-- StripeService&#45;&gt;StripeConnectModule -->
<g id="edge4" class="edge">
<title>StripeService&#45;&gt;StripeConnectModule</title>
<path fill="none" stroke="black" d="M587.62,-117.78C587.62,-117.78 587.62,-140.55 587.62,-140.55"/>
<polygon fill="black" stroke="black" points="584.12,-140.55 587.62,-150.55 591.12,-140.55 584.12,-140.55"/>
</g>
<!-- UpdatePhoneNumberRepository -->
<g id="node5" class="node">
<title>UpdatePhoneNumberRepository</title>
<ellipse fill="#fdb462" stroke="black" cx="329" cy="-104" rx="137.17" ry="18"/>
<text text-anchor="middle" x="329" y="-99.8" font-family="Times,serif" font-size="14.00">UpdatePhoneNumberRepository</text>
</g>
<!-- UpdatePhoneNumberRepository&#45;&gt;StripeConnectModule -->
<g id="edge5" class="edge">
<title>UpdatePhoneNumberRepository&#45;&gt;StripeConnectModule</title>
<path fill="none" stroke="black" d="M329,-122.02C329,-139.37 329,-163 329,-163 329,-163 555.18,-163 555.18,-163"/>
<polygon fill="black" stroke="black" points="555.18,-166.5 565.18,-163 555.18,-159.5 555.18,-166.5"/>
</g>
<!-- UsersRepository -->
<g id="node6" class="node">
<title>UsersRepository</title>
<ellipse fill="#fdb462" stroke="black" cx="99" cy="-104" rx="75.3" ry="18"/>
<text text-anchor="middle" x="99" y="-99.8" font-family="Times,serif" font-size="14.00">UsersRepository</text>
</g>
<!-- UsersRepository&#45;&gt;StripeConnectModule -->
<g id="edge6" class="edge">
<title>UsersRepository&#45;&gt;StripeConnectModule</title>
<path fill="none" stroke="black" d="M99,-122.28C99,-143.32 99,-175 99,-175 99,-175 555.2,-175 555.2,-175"/>
<polygon fill="black" stroke="black" points="555.2,-178.5 565.2,-175 555.2,-171.5 555.2,-178.5"/>
</g>
</g>
</svg>
