<?xml version="1.0" encoding="UTF-8" standalone="no"?>
<!DOCTYPE svg PUBLIC "-//W3C//DTD SVG 1.1//EN"
 "http://www.w3.org/Graphics/SVG/1.1/DTD/svg11.dtd">
<!-- Generated by graphviz version 2.47.0 (20210316.0004)
 -->
<!-- Title: dependencies Pages: 1 -->
<svg width="504pt" height="211pt"
 viewBox="0.00 0.00 504.00 211.00" xmlns="http://www.w3.org/2000/svg" xmlns:xlink="http://www.w3.org/1999/xlink">
<g id="graph0" class="graph" transform="scale(1 1) rotate(0) translate(4 207)">
<title>dependencies</title>
<polygon fill="white" stroke="transparent" points="-4,4 -4,-207 500,-207 500,4 -4,4"/>
<text text-anchor="start" x="227.01" y="-42.4" font-family="Times-12" font-weight="bold" font-size="14.00">Legend</text>
<polygon fill="#ffffb3" stroke="transparent" points="14,-10 14,-30 34,-30 34,-10 14,-10"/>
<text text-anchor="start" x="37.63" y="-15.4" font-family="Times-12" font-size="14.00"> &#160;Declarations</text>
<polygon fill="#8dd3c7" stroke="transparent" points="127,-10 127,-30 147,-30 147,-10 127,-10"/>
<text text-anchor="start" x="150.73" y="-15.4" font-family="Times-12" font-size="14.00"> &#160;Module</text>
<polygon fill="#80b1d3" stroke="transparent" points="213,-10 213,-30 233,-30 233,-10 213,-10"/>
<text text-anchor="start" x="236.78" y="-15.4" font-family="Times-12" font-size="14.00"> &#160;Bootstrap</text>
<polygon fill="#fdb462" stroke="transparent" points="310,-10 310,-30 330,-30 330,-10 310,-10"/>
<text text-anchor="start" x="333.67" y="-15.4" font-family="Times-12" font-size="14.00"> &#160;Providers</text>
<polygon fill="#fb8072" stroke="transparent" points="406,-10 406,-30 426,-30 426,-10 406,-10"/>
<text text-anchor="start" x="429.73" y="-15.4" font-family="Times-12" font-size="14.00"> &#160;Exports</text>
<g id="clust1" class="cluster">
<title>cluster_AppUserModule</title>
<polygon fill="none" stroke="black" stroke-dasharray="1,5" points="27,-70 27,-195 469,-195 469,-70 27,-70"/>
</g>
<g id="clust3" class="cluster">
<title>cluster_AppUserModule_imports</title>
<polygon fill="none" stroke="black" points="193,-78 193,-130 461,-130 461,-78 193,-78"/>
</g>
<g id="clust6" class="cluster">
<title>cluster_AppUserModule_providers</title>
<polygon fill="none" stroke="black" points="35,-78 35,-130 185,-130 185,-78 35,-78"/>
</g>
<!-- AuthModule -->
<g id="node1" class="node">
<title>AuthModule</title>
<polygon fill="#8dd3c7" stroke="black" points="452.55,-122 449.55,-126 428.55,-126 425.55,-122 365.45,-122 365.45,-86 452.55,-86 452.55,-122"/>
<text text-anchor="middle" x="409" y="-99.8" font-family="Times,serif" font-size="14.00">AuthModule</text>
</g>
<!-- AppUserModule -->
<g id="node3" class="node">
<title>AppUserModule</title>
<polygon fill="#8dd3c7" stroke="black" points="329.08,-187 326.08,-191 305.08,-191 302.08,-187 218.92,-187 218.92,-151 329.08,-151 329.08,-187"/>
<text text-anchor="middle" x="274" y="-164.8" font-family="Times,serif" font-size="14.00">AppUserModule</text>
</g>
<!-- AuthModule&#45;&gt;AppUserModule -->
<g id="edge1" class="edge">
<title>AuthModule&#45;&gt;AppUserModule</title>
<path fill="none" stroke="black" d="M409,-122.11C409,-141.34 409,-169 409,-169 409,-169 339.3,-169 339.3,-169"/>
<polygon fill="black" stroke="black" points="339.3,-165.5 329.3,-169 339.3,-172.5 339.3,-165.5"/>
</g>
<!-- EmailTemplateModule -->
<g id="node2" class="node">
<title>EmailTemplateModule</title>
<polygon fill="#8dd3c7" stroke="black" points="346.86,-122 343.86,-126 322.86,-126 319.86,-122 201.14,-122 201.14,-86 346.86,-86 346.86,-122"/>
<text text-anchor="middle" x="274" y="-99.8" font-family="Times,serif" font-size="14.00">EmailTemplateModule</text>
</g>
<!-- EmailTemplateModule&#45;&gt;AppUserModule -->
<g id="edge2" class="edge">
<title>EmailTemplateModule&#45;&gt;AppUserModule</title>
<path fill="none" stroke="black" d="M274,-122.11C274,-122.11 274,-140.99 274,-140.99"/>
<polygon fill="black" stroke="black" points="270.5,-140.99 274,-150.99 277.5,-140.99 270.5,-140.99"/>
</g>
<!-- AdminService -->
<g id="node4" class="node">
<title>AdminService</title>
<ellipse fill="#fdb462" stroke="black" cx="110" cy="-104" rx="66.63" ry="18"/>
<text text-anchor="middle" x="110" y="-99.8" font-family="Times,serif" font-size="14.00">AdminService</text>
</g>
<!-- AdminService&#45;&gt;AppUserModule -->
<g id="edge3" class="edge">
<title>AdminService&#45;&gt;AppUserModule</title>
<path fill="none" stroke="black" d="M110,-122.11C110,-141.34 110,-169 110,-169 110,-169 208.93,-169 208.93,-169"/>
<polygon fill="black" stroke="black" points="208.93,-172.5 218.93,-169 208.93,-165.5 208.93,-172.5"/>
</g>
</g>
</svg>
