<?xml version="1.0" encoding="UTF-8" standalone="no"?>
<!DOCTYPE svg PUBLIC "-//W3C//DTD SVG 1.1//EN"
 "http://www.w3.org/Graphics/SVG/1.1/DTD/svg11.dtd">
<!-- Generated by graphviz version 2.47.0 (20210316.0004)
 -->
<!-- Title: dependencies Pages: 1 -->
<svg width="504pt" height="284pt"
 viewBox="0.00 0.00 504.00 284.00" xmlns="http://www.w3.org/2000/svg" xmlns:xlink="http://www.w3.org/1999/xlink">
<g id="graph0" class="graph" transform="scale(1 1) rotate(0) translate(4 280)">
<title>dependencies</title>
<polygon fill="white" stroke="transparent" points="-4,4 -4,-280 500,-280 500,4 -4,4"/>
<text text-anchor="start" x="227.01" y="-42.4" font-family="Times-12" font-weight="bold" font-size="14.00">Legend</text>
<polygon fill="#ffffb3" stroke="transparent" points="14,-10 14,-30 34,-30 34,-10 14,-10"/>
<text text-anchor="start" x="37.63" y="-15.4" font-family="Times-12" font-size="14.00"> &#160;Declarations</text>
<polygon fill="#8dd3c7" stroke="transparent" points="127,-10 127,-30 147,-30 147,-10 127,-10"/>
<text text-anchor="start" x="150.73" y="-15.4" font-family="Times-12" font-size="14.00"> &#160;Module</text>
<polygon fill="#80b1d3" stroke="transparent" points="213,-10 213,-30 233,-30 233,-10 213,-10"/>
<text text-anchor="start" x="236.78" y="-15.4" font-family="Times-12" font-size="14.00"> &#160;Bootstrap</text>
<polygon fill="#fdb462" stroke="transparent" points="310,-10 310,-30 330,-30 330,-10 310,-10"/>
<text text-anchor="start" x="333.67" y="-15.4" font-family="Times-12" font-size="14.00"> &#160;Providers</text>
<polygon fill="#fb8072" stroke="transparent" points="406,-10 406,-30 426,-30 426,-10 406,-10"/>
<text text-anchor="start" x="429.73" y="-15.4" font-family="Times-12" font-size="14.00"> &#160;Exports</text>
<g id="clust1" class="cluster">
<title>cluster_AwsModule</title>
<polygon fill="none" stroke="black" stroke-dasharray="1,5" points="88,-70 88,-268 408,-268 408,-70 88,-70"/>
</g>
<g id="clust4" class="cluster">
<title>cluster_AwsModule_exports</title>
<polygon fill="none" stroke="black" points="116,-208 116,-260 352,-260 352,-208 116,-208"/>
</g>
<g id="clust6" class="cluster">
<title>cluster_AwsModule_providers</title>
<polygon fill="none" stroke="black" points="96,-78 96,-130 400,-130 400,-78 96,-78"/>
</g>
<!-- CloudFrontService  -->
<g id="node1" class="node">
<title>CloudFrontService </title>
<polygon fill="#fb8072" stroke="black" points="344.04,-252 217.96,-252 217.96,-216 344.04,-216 344.04,-252"/>
<text text-anchor="middle" x="281" y="-229.8" font-family="Times,serif" font-size="14.00">CloudFrontService </text>
</g>
<!-- S3Service  -->
<g id="node2" class="node">
<title>S3Service </title>
<polygon fill="#fb8072" stroke="black" points="200.26,-252 123.74,-252 123.74,-216 200.26,-216 200.26,-252"/>
<text text-anchor="middle" x="162" y="-229.8" font-family="Times,serif" font-size="14.00">S3Service </text>
</g>
<!-- AwsModule -->
<g id="node3" class="node">
<title>AwsModule</title>
<polygon fill="#8dd3c7" stroke="black" points="224.71,-187 221.71,-191 200.71,-191 197.71,-187 139.29,-187 139.29,-151 224.71,-151 224.71,-187"/>
<text text-anchor="middle" x="182" y="-164.8" font-family="Times,serif" font-size="14.00">AwsModule</text>
</g>
<!-- AwsModule&#45;&gt;CloudFrontService  -->
<g id="edge1" class="edge">
<title>AwsModule&#45;&gt;CloudFrontService </title>
<path fill="none" stroke="black" stroke-dasharray="5,2" d="M209.06,-187.11C209.06,-206.34 209.06,-234 209.06,-234 209.06,-234 209.94,-234 209.94,-234"/>
<polygon fill="black" stroke="black" points="207.88,-237.5 217.88,-234 207.88,-230.5 207.88,-237.5"/>
</g>
<!-- AwsModule&#45;&gt;S3Service  -->
<g id="edge2" class="edge">
<title>AwsModule&#45;&gt;S3Service </title>
<path fill="none" stroke="black" stroke-dasharray="5,2" d="M169.76,-187.11C169.76,-187.11 169.76,-205.99 169.76,-205.99"/>
<polygon fill="black" stroke="black" points="166.26,-205.99 169.76,-215.99 173.26,-205.99 166.26,-205.99"/>
</g>
<!-- CloudFrontService -->
<g id="node4" class="node">
<title>CloudFrontService</title>
<ellipse fill="#fdb462" stroke="black" cx="307" cy="-104" rx="84.55" ry="18"/>
<text text-anchor="middle" x="307" y="-99.8" font-family="Times,serif" font-size="14.00">CloudFrontService</text>
</g>
<!-- CloudFrontService&#45;&gt;AwsModule -->
<g id="edge3" class="edge">
<title>CloudFrontService&#45;&gt;AwsModule</title>
<path fill="none" stroke="black" d="M222.31,-104C216.76,-104 213.33,-104 213.33,-104 213.33,-104 213.33,-140.89 213.33,-140.89"/>
<polygon fill="black" stroke="black" points="209.83,-140.89 213.33,-150.89 216.83,-140.89 209.83,-140.89"/>
</g>
<!-- S3Service -->
<g id="node5" class="node">
<title>S3Service</title>
<ellipse fill="#fdb462" stroke="black" cx="154" cy="-104" rx="50.38" ry="18"/>
<text text-anchor="middle" x="154" y="-99.8" font-family="Times,serif" font-size="14.00">S3Service</text>
</g>
<!-- S3Service&#45;&gt;AwsModule -->
<g id="edge4" class="edge">
<title>S3Service&#45;&gt;AwsModule</title>
<path fill="none" stroke="black" d="M171.79,-121.08C171.79,-121.08 171.79,-140.9 171.79,-140.9"/>
<polygon fill="black" stroke="black" points="168.29,-140.9 171.79,-150.9 175.29,-140.9 168.29,-140.9"/>
</g>
</g>
</svg>
