<?xml version="1.0" encoding="UTF-8" standalone="no"?>
<!DOCTYPE svg PUBLIC "-//W3C//DTD SVG 1.1//EN"
 "http://www.w3.org/Graphics/SVG/1.1/DTD/svg11.dtd">
<!-- Generated by graphviz version 2.47.0 (20210316.0004)
 -->
<!-- Title: dependencies Pages: 1 -->
<svg width="636pt" height="284pt"
 viewBox="0.00 0.00 636.00 284.00" xmlns="http://www.w3.org/2000/svg" xmlns:xlink="http://www.w3.org/1999/xlink">
<g id="graph0" class="graph" transform="scale(1 1) rotate(0) translate(4 280)">
<title>dependencies</title>
<polygon fill="white" stroke="transparent" points="-4,4 -4,-280 632,-280 632,4 -4,4"/>
<text text-anchor="start" x="293.01" y="-42.4" font-family="Times-12" font-weight="bold" font-size="14.00">Legend</text>
<polygon fill="#ffffb3" stroke="transparent" points="80,-10 80,-30 100,-30 100,-10 80,-10"/>
<text text-anchor="start" x="103.63" y="-15.4" font-family="Times-12" font-size="14.00"> &#160;Declarations</text>
<polygon fill="#8dd3c7" stroke="transparent" points="193,-10 193,-30 213,-30 213,-10 193,-10"/>
<text text-anchor="start" x="216.73" y="-15.4" font-family="Times-12" font-size="14.00"> &#160;Module</text>
<polygon fill="#80b1d3" stroke="transparent" points="279,-10 279,-30 299,-30 299,-10 279,-10"/>
<text text-anchor="start" x="302.78" y="-15.4" font-family="Times-12" font-size="14.00"> &#160;Bootstrap</text>
<polygon fill="#fdb462" stroke="transparent" points="376,-10 376,-30 396,-30 396,-10 376,-10"/>
<text text-anchor="start" x="399.67" y="-15.4" font-family="Times-12" font-size="14.00"> &#160;Providers</text>
<polygon fill="#fb8072" stroke="transparent" points="472,-10 472,-30 492,-30 492,-10 472,-10"/>
<text text-anchor="start" x="495.73" y="-15.4" font-family="Times-12" font-size="14.00"> &#160;Exports</text>
<g id="clust1" class="cluster">
<title>cluster_StripePaymentModule</title>
<polygon fill="none" stroke="black" stroke-dasharray="1,5" points="8,-70 8,-268 620,-268 620,-70 8,-70"/>
</g>
<g id="clust6" class="cluster">
<title>cluster_StripePaymentModule_providers</title>
<polygon fill="none" stroke="black" points="132,-78 132,-130 612,-130 612,-78 132,-78"/>
</g>
<g id="clust4" class="cluster">
<title>cluster_StripePaymentModule_exports</title>
<polygon fill="none" stroke="black" points="244,-208 244,-260 404,-260 404,-208 244,-208"/>
</g>
<g id="clust3" class="cluster">
<title>cluster_StripePaymentModule_imports</title>
<polygon fill="none" stroke="black" points="16,-78 16,-130 124,-130 124,-78 16,-78"/>
</g>
<!-- UsersModule -->
<g id="node1" class="node">
<title>UsersModule</title>
<polygon fill="#8dd3c7" stroke="black" points="115.92,-122 112.92,-126 91.92,-126 88.92,-122 24.08,-122 24.08,-86 115.92,-86 115.92,-122"/>
<text text-anchor="middle" x="70" y="-99.8" font-family="Times,serif" font-size="14.00">UsersModule</text>
</g>
<!-- StripePaymentModule -->
<g id="node2" class="node">
<title>StripePaymentModule</title>
<polygon fill="#8dd3c7" stroke="black" points="394.98,-187 391.98,-191 370.98,-191 367.98,-187 253.02,-187 253.02,-151 394.98,-151 394.98,-187"/>
<text text-anchor="middle" x="324" y="-164.8" font-family="Times,serif" font-size="14.00">StripePaymentModule</text>
</g>
<!-- UsersModule&#45;&gt;StripePaymentModule -->
<g id="edge1" class="edge">
<title>UsersModule&#45;&gt;StripePaymentModule</title>
<path fill="none" stroke="black" d="M70,-122.11C70,-141.34 70,-169 70,-169 70,-169 242.91,-169 242.91,-169"/>
<polygon fill="black" stroke="black" points="242.91,-172.5 252.91,-169 242.91,-165.5 242.91,-172.5"/>
</g>
<!-- StripePaymentService  -->
<g id="node3" class="node">
<title>StripePaymentService </title>
<polygon fill="#fb8072" stroke="black" points="395.91,-252 252.09,-252 252.09,-216 395.91,-216 395.91,-252"/>
<text text-anchor="middle" x="324" y="-229.8" font-family="Times,serif" font-size="14.00">StripePaymentService </text>
</g>
<!-- StripePaymentModule&#45;&gt;StripePaymentService  -->
<g id="edge2" class="edge">
<title>StripePaymentModule&#45;&gt;StripePaymentService </title>
<path fill="none" stroke="black" stroke-dasharray="5,2" d="M324,-187.11C324,-187.11 324,-205.99 324,-205.99"/>
<polygon fill="black" stroke="black" points="320.5,-205.99 324,-215.99 327.5,-205.99 320.5,-205.99"/>
</g>
<!-- AuthService -->
<g id="node4" class="node">
<title>AuthService</title>
<ellipse fill="#fdb462" stroke="black" cx="545" cy="-104" rx="59.11" ry="18"/>
<text text-anchor="middle" x="545" y="-99.8" font-family="Times,serif" font-size="14.00">AuthService</text>
</g>
<!-- AuthService&#45;&gt;StripePaymentModule -->
<g id="edge3" class="edge">
<title>AuthService&#45;&gt;StripePaymentModule</title>
<path fill="none" stroke="black" d="M545,-122.11C545,-141.34 545,-169 545,-169 545,-169 405.14,-169 405.14,-169"/>
<polygon fill="black" stroke="black" points="405.14,-165.5 395.14,-169 405.14,-172.5 405.14,-165.5"/>
</g>
<!-- JwtStrategy -->
<g id="node5" class="node">
<title>JwtStrategy</title>
<ellipse fill="#fdb462" stroke="black" cx="411" cy="-104" rx="56.76" ry="18"/>
<text text-anchor="middle" x="411" y="-99.8" font-family="Times,serif" font-size="14.00">JwtStrategy</text>
</g>
<!-- JwtStrategy&#45;&gt;StripePaymentModule -->
<g id="edge4" class="edge">
<title>JwtStrategy&#45;&gt;StripePaymentModule</title>
<path fill="none" stroke="black" d="M374.68,-118.1C374.68,-118.1 374.68,-140.72 374.68,-140.72"/>
<polygon fill="black" stroke="black" points="371.18,-140.72 374.68,-150.72 378.18,-140.72 371.18,-140.72"/>
</g>
<!-- PhoneOtpAuthService -->
<g id="node6" class="node">
<title>PhoneOtpAuthService</title>
<ellipse fill="#fdb462" stroke="black" cx="238" cy="-104" rx="97.86" ry="18"/>
<text text-anchor="middle" x="238" y="-99.8" font-family="Times,serif" font-size="14.00">PhoneOtpAuthService</text>
</g>
<!-- PhoneOtpAuthService&#45;&gt;StripePaymentModule -->
<g id="edge5" class="edge">
<title>PhoneOtpAuthService&#45;&gt;StripePaymentModule</title>
<path fill="none" stroke="black" d="M294.47,-118.75C294.47,-118.75 294.47,-140.59 294.47,-140.59"/>
<polygon fill="black" stroke="black" points="290.97,-140.59 294.47,-150.59 297.97,-140.59 290.97,-140.59"/>
</g>
</g>
</svg>
