<?xml version="1.0" encoding="UTF-8" standalone="no"?>
<!DOCTYPE svg PUBLIC "-//W3C//DTD SVG 1.1//EN"
 "http://www.w3.org/Graphics/SVG/1.1/DTD/svg11.dtd">
<!-- Generated by graphviz version 2.47.0 (20210316.0004)
 -->
<!-- Title: dependencies Pages: 1 -->
<svg width="504pt" height="211pt"
 viewBox="0.00 0.00 504.00 211.00" xmlns="http://www.w3.org/2000/svg" xmlns:xlink="http://www.w3.org/1999/xlink">
<g id="graph0" class="graph" transform="scale(1 1) rotate(0) translate(4 207)">
<title>dependencies</title>
<polygon fill="white" stroke="transparent" points="-4,4 -4,-207 500,-207 500,4 -4,4"/>
<text text-anchor="start" x="227.01" y="-42.4" font-family="Times-12" font-weight="bold" font-size="14.00">Legend</text>
<polygon fill="#ffffb3" stroke="transparent" points="14,-10 14,-30 34,-30 34,-10 14,-10"/>
<text text-anchor="start" x="37.63" y="-15.4" font-family="Times-12" font-size="14.00"> &#160;Declarations</text>
<polygon fill="#8dd3c7" stroke="transparent" points="127,-10 127,-30 147,-30 147,-10 127,-10"/>
<text text-anchor="start" x="150.73" y="-15.4" font-family="Times-12" font-size="14.00"> &#160;Module</text>
<polygon fill="#80b1d3" stroke="transparent" points="213,-10 213,-30 233,-30 233,-10 213,-10"/>
<text text-anchor="start" x="236.78" y="-15.4" font-family="Times-12" font-size="14.00"> &#160;Bootstrap</text>
<polygon fill="#fdb462" stroke="transparent" points="310,-10 310,-30 330,-30 330,-10 310,-10"/>
<text text-anchor="start" x="333.67" y="-15.4" font-family="Times-12" font-size="14.00"> &#160;Providers</text>
<polygon fill="#fb8072" stroke="transparent" points="406,-10 406,-30 426,-30 426,-10 406,-10"/>
<text text-anchor="start" x="429.73" y="-15.4" font-family="Times-12" font-size="14.00"> &#160;Exports</text>
<g id="clust1" class="cluster">
<title>cluster_ChimeModule</title>
<polygon fill="none" stroke="black" stroke-dasharray="1,5" points="108,-70 108,-195 388,-195 388,-70 108,-70"/>
</g>
<g id="clust3" class="cluster">
<title>cluster_ChimeModule_imports</title>
<polygon fill="none" stroke="black" points="272,-78 272,-130 380,-130 380,-78 272,-78"/>
</g>
<g id="clust6" class="cluster">
<title>cluster_ChimeModule_providers</title>
<polygon fill="none" stroke="black" points="116,-78 116,-130 264,-130 264,-78 116,-78"/>
</g>
<!-- UsersModule -->
<g id="node1" class="node">
<title>UsersModule</title>
<polygon fill="#8dd3c7" stroke="black" points="371.92,-122 368.92,-126 347.92,-126 344.92,-122 280.08,-122 280.08,-86 371.92,-86 371.92,-122"/>
<text text-anchor="middle" x="326" y="-99.8" font-family="Times,serif" font-size="14.00">UsersModule</text>
</g>
<!-- ChimeModule -->
<g id="node2" class="node">
<title>ChimeModule</title>
<polygon fill="#8dd3c7" stroke="black" points="306.38,-187 303.38,-191 282.38,-191 279.38,-187 209.62,-187 209.62,-151 306.38,-151 306.38,-187"/>
<text text-anchor="middle" x="258" y="-164.8" font-family="Times,serif" font-size="14.00">ChimeModule</text>
</g>
<!-- UsersModule&#45;&gt;ChimeModule -->
<g id="edge1" class="edge">
<title>UsersModule&#45;&gt;ChimeModule</title>
<path fill="none" stroke="black" d="M293.37,-122.11C293.37,-122.11 293.37,-140.99 293.37,-140.99"/>
<polygon fill="black" stroke="black" points="289.87,-140.99 293.37,-150.99 296.87,-140.99 289.87,-140.99"/>
</g>
<!-- ChimeService -->
<g id="node3" class="node">
<title>ChimeService</title>
<ellipse fill="#fdb462" stroke="black" cx="190" cy="-104" rx="65.99" ry="18"/>
<text text-anchor="middle" x="190" y="-99.8" font-family="Times,serif" font-size="14.00">ChimeService</text>
</g>
<!-- ChimeService&#45;&gt;ChimeModule -->
<g id="edge2" class="edge">
<title>ChimeService&#45;&gt;ChimeModule</title>
<path fill="none" stroke="black" d="M232.65,-117.78C232.65,-117.78 232.65,-140.55 232.65,-140.55"/>
<polygon fill="black" stroke="black" points="229.15,-140.55 232.65,-150.55 236.15,-140.55 229.15,-140.55"/>
</g>
</g>
</svg>
