<?xml version="1.0" encoding="UTF-8" standalone="no"?>
<!DOCTYPE svg PUBLIC "-//W3C//DTD SVG 1.1//EN"
 "http://www.w3.org/Graphics/SVG/1.1/DTD/svg11.dtd">
<!-- Generated by graphviz version 2.47.0 (20210316.0004)
 -->
<!-- Title: dependencies Pages: 1 -->
<svg width="1366pt" height="284pt"
 viewBox="0.00 0.00 1366.00 284.00" xmlns="http://www.w3.org/2000/svg" xmlns:xlink="http://www.w3.org/1999/xlink">
<g id="graph0" class="graph" transform="scale(1 1) rotate(0) translate(4 280)">
<title>dependencies</title>
<polygon fill="white" stroke="transparent" points="-4,4 -4,-280 1362,-280 1362,4 -4,4"/>
<text text-anchor="start" x="658.01" y="-42.4" font-family="Times-12" font-weight="bold" font-size="14.00">Legend</text>
<polygon fill="#ffffb3" stroke="transparent" points="445,-10 445,-30 465,-30 465,-10 445,-10"/>
<text text-anchor="start" x="468.63" y="-15.4" font-family="Times-12" font-size="14.00"> &#160;Declarations</text>
<polygon fill="#8dd3c7" stroke="transparent" points="558,-10 558,-30 578,-30 578,-10 558,-10"/>
<text text-anchor="start" x="581.73" y="-15.4" font-family="Times-12" font-size="14.00"> &#160;Module</text>
<polygon fill="#80b1d3" stroke="transparent" points="644,-10 644,-30 664,-30 664,-10 644,-10"/>
<text text-anchor="start" x="667.78" y="-15.4" font-family="Times-12" font-size="14.00"> &#160;Bootstrap</text>
<polygon fill="#fdb462" stroke="transparent" points="741,-10 741,-30 761,-30 761,-10 741,-10"/>
<text text-anchor="start" x="764.67" y="-15.4" font-family="Times-12" font-size="14.00"> &#160;Providers</text>
<polygon fill="#fb8072" stroke="transparent" points="837,-10 837,-30 857,-30 857,-10 837,-10"/>
<text text-anchor="start" x="860.73" y="-15.4" font-family="Times-12" font-size="14.00"> &#160;Exports</text>
<g id="clust1" class="cluster">
<title>cluster_CoinManagementModule</title>
<polygon fill="none" stroke="black" stroke-dasharray="1,5" points="8,-70 8,-268 1350,-268 1350,-70 8,-70"/>
</g>
<g id="clust4" class="cluster">
<title>cluster_CoinManagementModule_exports</title>
<polygon fill="none" stroke="black" points="500,-208 500,-260 678,-260 678,-208 500,-208"/>
</g>
<g id="clust6" class="cluster">
<title>cluster_CoinManagementModule_providers</title>
<polygon fill="none" stroke="black" points="362,-78 362,-130 1342,-130 1342,-78 362,-78"/>
</g>
<g id="clust3" class="cluster">
<title>cluster_CoinManagementModule_imports</title>
<polygon fill="none" stroke="black" points="16,-78 16,-130 354,-130 354,-78 16,-78"/>
</g>
<!-- AuthenticationModule -->
<g id="node1" class="node">
<title>AuthenticationModule</title>
<polygon fill="#8dd3c7" stroke="black" points="346.25,-122 343.25,-126 322.25,-126 319.25,-122 203.75,-122 203.75,-86 346.25,-86 346.25,-122"/>
<text text-anchor="middle" x="275" y="-99.8" font-family="Times,serif" font-size="14.00">AuthenticationModule</text>
</g>
<!-- CoinManagementModule -->
<g id="node3" class="node">
<title>CoinManagementModule</title>
<polygon fill="#8dd3c7" stroke="black" points="668.86,-187 665.86,-191 644.86,-191 641.86,-187 509.14,-187 509.14,-151 668.86,-151 668.86,-187"/>
<text text-anchor="middle" x="589" y="-164.8" font-family="Times,serif" font-size="14.00">CoinManagementModule</text>
</g>
<!-- AuthenticationModule&#45;&gt;CoinManagementModule -->
<g id="edge1" class="edge">
<title>AuthenticationModule&#45;&gt;CoinManagementModule</title>
<path fill="none" stroke="black" d="M275,-122.02C275,-139.37 275,-163 275,-163 275,-163 498.95,-163 498.95,-163"/>
<polygon fill="black" stroke="black" points="498.95,-166.5 508.95,-163 498.95,-159.5 498.95,-166.5"/>
</g>
<!-- InappSubscriptionModule -->
<g id="node2" class="node">
<title>InappSubscriptionModule</title>
<polygon fill="#8dd3c7" stroke="black" points="186.2,-122 183.2,-126 162.2,-126 159.2,-122 23.8,-122 23.8,-86 186.2,-86 186.2,-122"/>
<text text-anchor="middle" x="105" y="-99.8" font-family="Times,serif" font-size="14.00">InappSubscriptionModule</text>
</g>
<!-- InappSubscriptionModule&#45;&gt;CoinManagementModule -->
<g id="edge2" class="edge">
<title>InappSubscriptionModule&#45;&gt;CoinManagementModule</title>
<path fill="none" stroke="black" d="M105,-122.28C105,-143.32 105,-175 105,-175 105,-175 499.08,-175 499.08,-175"/>
<polygon fill="black" stroke="black" points="499.08,-178.5 509.08,-175 499.08,-171.5 499.08,-178.5"/>
</g>
<!-- CoinManagementService  -->
<g id="node4" class="node">
<title>CoinManagementService </title>
<polygon fill="#fb8072" stroke="black" points="669.79,-252 508.21,-252 508.21,-216 669.79,-216 669.79,-252"/>
<text text-anchor="middle" x="589" y="-229.8" font-family="Times,serif" font-size="14.00">CoinManagementService </text>
</g>
<!-- CoinManagementModule&#45;&gt;CoinManagementService  -->
<g id="edge3" class="edge">
<title>CoinManagementModule&#45;&gt;CoinManagementService </title>
<path fill="none" stroke="black" stroke-dasharray="5,2" d="M589,-187.11C589,-187.11 589,-205.99 589,-205.99"/>
<polygon fill="black" stroke="black" points="585.5,-205.99 589,-215.99 592.5,-205.99 585.5,-205.99"/>
</g>
<!-- CoinManagementService -->
<g id="node5" class="node">
<title>CoinManagementService</title>
<ellipse fill="#fdb462" stroke="black" cx="1225" cy="-104" rx="109.37" ry="18"/>
<text text-anchor="middle" x="1225" y="-99.8" font-family="Times,serif" font-size="14.00">CoinManagementService</text>
</g>
<!-- CoinManagementService&#45;&gt;CoinManagementModule -->
<g id="edge4" class="edge">
<title>CoinManagementService&#45;&gt;CoinManagementModule</title>
<path fill="none" stroke="black" d="M1225,-122.28C1225,-143.32 1225,-175 1225,-175 1225,-175 678.91,-175 678.91,-175"/>
<polygon fill="black" stroke="black" points="678.91,-171.5 668.91,-175 678.91,-178.5 678.91,-171.5"/>
</g>
<!-- CoinPackageRepository -->
<g id="node6" class="node">
<title>CoinPackageRepository</title>
<ellipse fill="#fdb462" stroke="black" cx="993" cy="-104" rx="104.24" ry="18"/>
<text text-anchor="middle" x="993" y="-99.8" font-family="Times,serif" font-size="14.00">CoinPackageRepository</text>
</g>
<!-- CoinPackageRepository&#45;&gt;CoinManagementModule -->
<g id="edge5" class="edge">
<title>CoinPackageRepository&#45;&gt;CoinManagementModule</title>
<path fill="none" stroke="black" d="M993,-122.02C993,-139.37 993,-163 993,-163 993,-163 679.3,-163 679.3,-163"/>
<polygon fill="black" stroke="black" points="679.3,-159.5 669.3,-163 679.3,-166.5 679.3,-159.5"/>
</g>
<!-- CoinPurchaseRepository -->
<g id="node7" class="node">
<title>CoinPurchaseRepository</title>
<ellipse fill="#fdb462" stroke="black" cx="764" cy="-104" rx="107.1" ry="18"/>
<text text-anchor="middle" x="764" y="-99.8" font-family="Times,serif" font-size="14.00">CoinPurchaseRepository</text>
</g>
<!-- CoinPurchaseRepository&#45;&gt;CoinManagementModule -->
<g id="edge6" class="edge">
<title>CoinPurchaseRepository&#45;&gt;CoinManagementModule</title>
<path fill="none" stroke="black" d="M662.94,-110C662.94,-110 662.94,-140.76 662.94,-140.76"/>
<polygon fill="black" stroke="black" points="659.44,-140.76 662.94,-150.76 666.44,-140.76 659.44,-140.76"/>
</g>
<!-- S3Service -->
<g id="node8" class="node">
<title>S3Service</title>
<ellipse fill="#fdb462" stroke="black" cx="589" cy="-104" rx="50.38" ry="18"/>
<text text-anchor="middle" x="589" y="-99.8" font-family="Times,serif" font-size="14.00">S3Service</text>
</g>
<!-- S3Service&#45;&gt;CoinManagementModule -->
<g id="edge7" class="edge">
<title>S3Service&#45;&gt;CoinManagementModule</title>
<path fill="none" stroke="black" d="M589,-122.11C589,-122.11 589,-140.99 589,-140.99"/>
<polygon fill="black" stroke="black" points="585.5,-140.99 589,-150.99 592.5,-140.99 585.5,-140.99"/>
</g>
<!-- UsersRepository -->
<g id="node9" class="node">
<title>UsersRepository</title>
<ellipse fill="#fdb462" stroke="black" cx="445" cy="-104" rx="75.3" ry="18"/>
<text text-anchor="middle" x="445" y="-99.8" font-family="Times,serif" font-size="14.00">UsersRepository</text>
</g>
<!-- UsersRepository&#45;&gt;CoinManagementModule -->
<g id="edge8" class="edge">
<title>UsersRepository&#45;&gt;CoinManagementModule</title>
<path fill="none" stroke="black" d="M514.73,-110.96C514.73,-110.96 514.73,-140.81 514.73,-140.81"/>
<polygon fill="black" stroke="black" points="511.23,-140.81 514.73,-150.81 518.23,-140.81 511.23,-140.81"/>
</g>
</g>
</svg>
