<?xml version="1.0" encoding="UTF-8" standalone="no"?>
<!DOCTYPE svg PUBLIC "-//W3C//DTD SVG 1.1//EN"
 "http://www.w3.org/Graphics/SVG/1.1/DTD/svg11.dtd">
<!-- Generated by graphviz version 2.47.0 (20210316.0004)
 -->
<!-- Title: dependencies Pages: 1 -->
<svg width="3231pt" height="284pt"
 viewBox="0.00 0.00 3231.00 284.00" xmlns="http://www.w3.org/2000/svg" xmlns:xlink="http://www.w3.org/1999/xlink">
<g id="graph0" class="graph" transform="scale(1 1) rotate(0) translate(4 280)">
<title>dependencies</title>
<polygon fill="white" stroke="transparent" points="-4,4 -4,-280 3227,-280 3227,4 -4,4"/>
<text text-anchor="start" x="1590.51" y="-42.4" font-family="Times-12" font-weight="bold" font-size="14.00">Legend</text>
<polygon fill="#ffffb3" stroke="transparent" points="1377.5,-10 1377.5,-30 1397.5,-30 1397.5,-10 1377.5,-10"/>
<text text-anchor="start" x="1401.13" y="-15.4" font-family="Times-12" font-size="14.00"> &#160;Declarations</text>
<polygon fill="#8dd3c7" stroke="transparent" points="1490.5,-10 1490.5,-30 1510.5,-30 1510.5,-10 1490.5,-10"/>
<text text-anchor="start" x="1514.23" y="-15.4" font-family="Times-12" font-size="14.00"> &#160;Module</text>
<polygon fill="#80b1d3" stroke="transparent" points="1576.5,-10 1576.5,-30 1596.5,-30 1596.5,-10 1576.5,-10"/>
<text text-anchor="start" x="1600.28" y="-15.4" font-family="Times-12" font-size="14.00"> &#160;Bootstrap</text>
<polygon fill="#fdb462" stroke="transparent" points="1673.5,-10 1673.5,-30 1693.5,-30 1693.5,-10 1673.5,-10"/>
<text text-anchor="start" x="1697.17" y="-15.4" font-family="Times-12" font-size="14.00"> &#160;Providers</text>
<polygon fill="#fb8072" stroke="transparent" points="1769.5,-10 1769.5,-30 1789.5,-30 1789.5,-10 1769.5,-10"/>
<text text-anchor="start" x="1793.23" y="-15.4" font-family="Times-12" font-size="14.00"> &#160;Exports</text>
<g id="clust1" class="cluster">
<title>cluster_RapidIdModule</title>
<polygon fill="none" stroke="black" stroke-dasharray="1,5" points="8,-70 8,-268 3215,-268 3215,-70 8,-70"/>
</g>
<g id="clust3" class="cluster">
<title>cluster_RapidIdModule_imports</title>
<polygon fill="none" stroke="black" points="1805,-78 1805,-130 1913,-130 1913,-78 1805,-78"/>
</g>
<g id="clust6" class="cluster">
<title>cluster_RapidIdModule_providers</title>
<polygon fill="none" stroke="black" points="1317,-78 1317,-130 1797,-130 1797,-78 1317,-78"/>
</g>
<g id="clust4" class="cluster">
<title>cluster_RapidIdModule_exports</title>
<polygon fill="none" stroke="black" points="16,-208 16,-260 3207,-260 3207,-208 16,-208"/>
</g>
<!-- UsersModule -->
<g id="node1" class="node">
<title>UsersModule</title>
<polygon fill="#8dd3c7" stroke="black" points="1904.92,-122 1901.92,-126 1880.92,-126 1877.92,-122 1813.08,-122 1813.08,-86 1904.92,-86 1904.92,-122"/>
<text text-anchor="middle" x="1859" y="-99.8" font-family="Times,serif" font-size="14.00">UsersModule</text>
</g>
<!-- RapidIdModule -->
<g id="node2" class="node">
<title>RapidIdModule</title>
<polygon fill="#8dd3c7" stroke="black" points="1715.15,-187 1712.15,-191 1691.15,-191 1688.15,-187 1610.85,-187 1610.85,-151 1715.15,-151 1715.15,-187"/>
<text text-anchor="middle" x="1663" y="-164.8" font-family="Times,serif" font-size="14.00">RapidIdModule</text>
</g>
<!-- UsersModule&#45;&gt;RapidIdModule -->
<g id="edge1" class="edge">
<title>UsersModule&#45;&gt;RapidIdModule</title>
<path fill="none" stroke="black" d="M1859,-122.05C1859,-136.37 1859,-154 1859,-154 1859,-154 1725.27,-154 1725.27,-154"/>
<polygon fill="black" stroke="black" points="1725.27,-150.5 1715.27,-154 1725.27,-157.5 1725.27,-150.5"/>
</g>
<!-- AgoraHelperService  -->
<g id="node3" class="node">
<title>AgoraHelperService </title>
<polygon fill="#fb8072" stroke="black" points="3199.05,-252 3064.95,-252 3064.95,-216 3199.05,-216 3199.05,-252"/>
<text text-anchor="middle" x="3132" y="-229.8" font-family="Times,serif" font-size="14.00">AgoraHelperService </text>
</g>
<!-- RapidIdModule&#45;&gt;AgoraHelperService  -->
<g id="edge2" class="edge">
<title>RapidIdModule&#45;&gt;AgoraHelperService </title>
<path fill="none" stroke="black" stroke-dasharray="5,2" d="M1715.28,-157C1976.97,-157 3132,-157 3132,-157 3132,-157 3132,-205.75 3132,-205.75"/>
<polygon fill="black" stroke="black" points="3128.5,-205.75 3132,-215.75 3135.5,-205.75 3128.5,-205.75"/>
</g>
<!-- AuthResolver  -->
<g id="node4" class="node">
<title>AuthResolver </title>
<polygon fill="#fb8072" stroke="black" points="3046.76,-252 2949.24,-252 2949.24,-216 3046.76,-216 3046.76,-252"/>
<text text-anchor="middle" x="2998" y="-229.8" font-family="Times,serif" font-size="14.00">AuthResolver </text>
</g>
<!-- RapidIdModule&#45;&gt;AuthResolver  -->
<g id="edge3" class="edge">
<title>RapidIdModule&#45;&gt;AuthResolver </title>
<path fill="none" stroke="black" stroke-dasharray="5,2" d="M1715.33,-160C1962.16,-160 2998,-160 2998,-160 2998,-160 2998,-205.71 2998,-205.71"/>
<polygon fill="black" stroke="black" points="2994.5,-205.71 2998,-215.71 3001.5,-205.71 2994.5,-205.71"/>
</g>
<!-- AuthService  -->
<g id="node5" class="node">
<title>AuthService </title>
<polygon fill="#fb8072" stroke="black" points="2931.98,-252 2842.02,-252 2842.02,-216 2931.98,-216 2931.98,-252"/>
<text text-anchor="middle" x="2887" y="-229.8" font-family="Times,serif" font-size="14.00">AuthService </text>
</g>
<!-- RapidIdModule&#45;&gt;AuthService  -->
<g id="edge4" class="edge">
<title>RapidIdModule&#45;&gt;AuthService </title>
<path fill="none" stroke="black" stroke-dasharray="5,2" d="M1715.2,-163C1948.83,-163 2887,-163 2887,-163 2887,-163 2887,-205.72 2887,-205.72"/>
<polygon fill="black" stroke="black" points="2883.5,-205.72 2887,-215.72 2890.5,-205.72 2883.5,-205.72"/>
</g>
<!-- AwsSNSService  -->
<g id="node6" class="node">
<title>AwsSNSService </title>
<polygon fill="#fb8072" stroke="black" points="2824.31,-252 2711.69,-252 2711.69,-216 2824.31,-216 2824.31,-252"/>
<text text-anchor="middle" x="2768" y="-229.8" font-family="Times,serif" font-size="14.00">AwsSNSService </text>
</g>
<!-- RapidIdModule&#45;&gt;AwsSNSService  -->
<g id="edge5" class="edge">
<title>RapidIdModule&#45;&gt;AwsSNSService </title>
<path fill="none" stroke="black" stroke-dasharray="5,2" d="M1715.18,-166C1934.21,-166 2768,-166 2768,-166 2768,-166 2768,-205.78 2768,-205.78"/>
<polygon fill="black" stroke="black" points="2764.5,-205.78 2768,-215.78 2771.5,-205.78 2764.5,-205.78"/>
</g>
<!-- CometChatHelperService  -->
<g id="node7" class="node">
<title>CometChatHelperService </title>
<polygon fill="#fb8072" stroke="black" points="2693.84,-252 2530.16,-252 2530.16,-216 2693.84,-216 2693.84,-252"/>
<text text-anchor="middle" x="2612" y="-229.8" font-family="Times,serif" font-size="14.00">CometChatHelperService </text>
</g>
<!-- RapidIdModule&#45;&gt;CometChatHelperService  -->
<g id="edge6" class="edge">
<title>RapidIdModule&#45;&gt;CometChatHelperService </title>
<path fill="none" stroke="black" stroke-dasharray="5,2" d="M1715.37,-169C1914.32,-169 2612,-169 2612,-169 2612,-169 2612,-205.89 2612,-205.89"/>
<polygon fill="black" stroke="black" points="2608.5,-205.89 2612,-215.89 2615.5,-205.89 2608.5,-205.89"/>
</g>
<!-- ConfigService  -->
<g id="node8" class="node">
<title>ConfigService </title>
<polygon fill="#fb8072" stroke="black" points="2512.37,-252 2411.63,-252 2411.63,-216 2512.37,-216 2512.37,-252"/>
<text text-anchor="middle" x="2462" y="-229.8" font-family="Times,serif" font-size="14.00">ConfigService </text>
</g>
<!-- RapidIdModule&#45;&gt;ConfigService  -->
<g id="edge7" class="edge">
<title>RapidIdModule&#45;&gt;ConfigService </title>
<path fill="none" stroke="black" stroke-dasharray="5,2" d="M1715.42,-172C1893.18,-172 2462,-172 2462,-172 2462,-172 2462,-205.73 2462,-205.73"/>
<polygon fill="black" stroke="black" points="2458.5,-205.73 2462,-215.73 2465.5,-205.73 2458.5,-205.73"/>
</g>
<!-- DeviceInfoRepository  -->
<g id="node9" class="node">
<title>DeviceInfoRepository </title>
<polygon fill="#fb8072" stroke="black" points="2393.9,-252 2250.1,-252 2250.1,-216 2393.9,-216 2393.9,-252"/>
<text text-anchor="middle" x="2322" y="-229.8" font-family="Times,serif" font-size="14.00">DeviceInfoRepository </text>
</g>
<!-- RapidIdModule&#45;&gt;DeviceInfoRepository  -->
<g id="edge8" class="edge">
<title>RapidIdModule&#45;&gt;DeviceInfoRepository </title>
<path fill="none" stroke="black" stroke-dasharray="5,2" d="M1715.26,-175C1871.13,-175 2322,-175 2322,-175 2322,-175 2322,-205.98 2322,-205.98"/>
<polygon fill="black" stroke="black" points="2318.5,-205.98 2322,-215.98 2325.5,-205.98 2318.5,-205.98"/>
</g>
<!-- DisposableEmailRepository  -->
<g id="node10" class="node">
<title>DisposableEmailRepository </title>
<polygon fill="#fb8072" stroke="black" points="2232.08,-252 2055.92,-252 2055.92,-216 2232.08,-216 2232.08,-252"/>
<text text-anchor="middle" x="2144" y="-229.8" font-family="Times,serif" font-size="14.00">DisposableEmailRepository </text>
</g>
<!-- RapidIdModule&#45;&gt;DisposableEmailRepository  -->
<g id="edge9" class="edge">
<title>RapidIdModule&#45;&gt;DisposableEmailRepository </title>
<path fill="none" stroke="black" stroke-dasharray="5,2" d="M1715.39,-178C1840.06,-178 2144,-178 2144,-178 2144,-178 2144,-205.97 2144,-205.97"/>
<polygon fill="black" stroke="black" points="2140.5,-205.97 2144,-215.97 2147.5,-205.97 2140.5,-205.97"/>
</g>
<!-- EmailService  -->
<g id="node11" class="node">
<title>EmailService </title>
<polygon fill="#fb8072" stroke="black" points="2037.42,-252 1942.58,-252 1942.58,-216 2037.42,-216 2037.42,-252"/>
<text text-anchor="middle" x="1990" y="-229.8" font-family="Times,serif" font-size="14.00">EmailService </text>
</g>
<!-- RapidIdModule&#45;&gt;EmailService  -->
<g id="edge10" class="edge">
<title>RapidIdModule&#45;&gt;EmailService </title>
<path fill="none" stroke="black" stroke-dasharray="5,2" d="M1715.18,-181C1807.5,-181 1990,-181 1990,-181 1990,-181 1990,-205.76 1990,-205.76"/>
<polygon fill="black" stroke="black" points="1986.5,-205.76 1990,-215.76 1993.5,-205.76 1986.5,-205.76"/>
</g>
<!-- EmailTemplateRepository  -->
<g id="node12" class="node">
<title>EmailTemplateRepository </title>
<polygon fill="#fb8072" stroke="black" points="1924.74,-252 1757.26,-252 1757.26,-216 1924.74,-216 1924.74,-252"/>
<text text-anchor="middle" x="1841" y="-229.8" font-family="Times,serif" font-size="14.00">EmailTemplateRepository </text>
</g>
<!-- RapidIdModule&#45;&gt;EmailTemplateRepository  -->
<g id="edge11" class="edge">
<title>RapidIdModule&#45;&gt;EmailTemplateRepository </title>
<path fill="none" stroke="black" stroke-dasharray="5,2" d="M1715.26,-184C1743.78,-184 1773.34,-184 1773.34,-184 1773.34,-184 1773.34,-205.95 1773.34,-205.95"/>
<polygon fill="black" stroke="black" points="1769.84,-205.95 1773.34,-215.95 1776.84,-205.95 1769.84,-205.95"/>
</g>
<!-- IsValidEmailConstraint  -->
<g id="node13" class="node">
<title>IsValidEmailConstraint </title>
<polygon fill="#fb8072" stroke="black" points="1739.48,-252 1586.52,-252 1586.52,-216 1739.48,-216 1739.48,-252"/>
<text text-anchor="middle" x="1663" y="-229.8" font-family="Times,serif" font-size="14.00">IsValidEmailConstraint </text>
</g>
<!-- RapidIdModule&#45;&gt;IsValidEmailConstraint  -->
<g id="edge12" class="edge">
<title>RapidIdModule&#45;&gt;IsValidEmailConstraint </title>
<path fill="none" stroke="black" stroke-dasharray="5,2" d="M1663,-187.11C1663,-187.11 1663,-205.99 1663,-205.99"/>
<polygon fill="black" stroke="black" points="1659.5,-205.99 1663,-215.99 1666.5,-205.99 1659.5,-205.99"/>
</g>
<!-- JwtStrategy  -->
<g id="node14" class="node">
<title>JwtStrategy </title>
<polygon fill="#fb8072" stroke="black" points="1568.6,-252 1483.4,-252 1483.4,-216 1568.6,-216 1568.6,-252"/>
<text text-anchor="middle" x="1526" y="-229.8" font-family="Times,serif" font-size="14.00">JwtStrategy </text>
</g>
<!-- RapidIdModule&#45;&gt;JwtStrategy  -->
<g id="edge13" class="edge">
<title>RapidIdModule&#45;&gt;JwtStrategy </title>
<path fill="none" stroke="black" stroke-dasharray="5,2" d="M1610.78,-184C1582.82,-184 1554.08,-184 1554.08,-184 1554.08,-184 1554.08,-205.95 1554.08,-205.95"/>
<polygon fill="black" stroke="black" points="1550.58,-205.95 1554.08,-215.95 1557.58,-205.95 1550.58,-205.95"/>
</g>
<!-- JwtTokenService  -->
<g id="node15" class="node">
<title>JwtTokenService </title>
<polygon fill="#fb8072" stroke="black" points="1465.19,-252 1348.81,-252 1348.81,-216 1465.19,-216 1465.19,-252"/>
<text text-anchor="middle" x="1407" y="-229.8" font-family="Times,serif" font-size="14.00">JwtTokenService </text>
</g>
<!-- RapidIdModule&#45;&gt;JwtTokenService  -->
<g id="edge14" class="edge">
<title>RapidIdModule&#45;&gt;JwtTokenService </title>
<path fill="none" stroke="black" stroke-dasharray="5,2" d="M1610.58,-181C1535.68,-181 1407,-181 1407,-181 1407,-181 1407,-205.76 1407,-205.76"/>
<polygon fill="black" stroke="black" points="1403.5,-205.76 1407,-215.76 1410.5,-205.76 1403.5,-205.76"/>
</g>
<!-- OTPRequestRepository  -->
<g id="node16" class="node">
<title>OTPRequestRepository </title>
<polygon fill="#fb8072" stroke="black" points="1330.48,-252 1177.52,-252 1177.52,-216 1330.48,-216 1330.48,-252"/>
<text text-anchor="middle" x="1254" y="-229.8" font-family="Times,serif" font-size="14.00">OTPRequestRepository </text>
</g>
<!-- RapidIdModule&#45;&gt;OTPRequestRepository  -->
<g id="edge15" class="edge">
<title>RapidIdModule&#45;&gt;OTPRequestRepository </title>
<path fill="none" stroke="black" stroke-dasharray="5,2" d="M1610.45,-178C1499.5,-178 1251.42,-178 1251.42,-178 1251.42,-178 1251.42,-205.97 1251.42,-205.97"/>
<polygon fill="black" stroke="black" points="1247.92,-205.97 1251.42,-215.97 1254.92,-205.97 1247.92,-205.97"/>
</g>
<!-- PhoneOtpAuthService  -->
<g id="node17" class="node">
<title>PhoneOtpAuthService </title>
<polygon fill="#fb8072" stroke="black" points="1159.97,-252 1014.03,-252 1014.03,-216 1159.97,-216 1159.97,-252"/>
<text text-anchor="middle" x="1087" y="-229.8" font-family="Times,serif" font-size="14.00">PhoneOtpAuthService </text>
</g>
<!-- RapidIdModule&#45;&gt;PhoneOtpAuthService  -->
<g id="edge16" class="edge">
<title>RapidIdModule&#45;&gt;PhoneOtpAuthService </title>
<path fill="none" stroke="black" stroke-dasharray="5,2" d="M1610.61,-175C1468.62,-175 1087,-175 1087,-175 1087,-175 1087,-205.98 1087,-205.98"/>
<polygon fill="black" stroke="black" points="1083.5,-205.98 1087,-215.98 1090.5,-205.98 1083.5,-205.98"/>
</g>
<!-- PushNotificationTokenRepository  -->
<g id="node18" class="node">
<title>PushNotificationTokenRepository </title>
<polygon fill="#fb8072" stroke="black" points="995.58,-252 784.42,-252 784.42,-216 995.58,-216 995.58,-252"/>
<text text-anchor="middle" x="890" y="-229.8" font-family="Times,serif" font-size="14.00">PushNotificationTokenRepository </text>
</g>
<!-- RapidIdModule&#45;&gt;PushNotificationTokenRepository  -->
<g id="edge17" class="edge">
<title>RapidIdModule&#45;&gt;PushNotificationTokenRepository </title>
<path fill="none" stroke="black" stroke-dasharray="5,2" d="M1610.78,-172C1437.13,-172 890,-172 890,-172 890,-172 890,-205.73 890,-205.73"/>
<polygon fill="black" stroke="black" points="886.5,-205.73 890,-215.73 893.5,-205.73 886.5,-205.73"/>
</g>
<!-- RapidIdModule  -->
<g id="node19" class="node">
<title>RapidIdModule </title>
<polygon fill="#fb8072" stroke="black" points="766.15,-252 657.85,-252 657.85,-216 766.15,-216 766.15,-252"/>
<text text-anchor="middle" x="712" y="-229.8" font-family="Times,serif" font-size="14.00">RapidIdModule </text>
</g>
<!-- RapidIdModule&#45;&gt;RapidIdModule  -->
<g id="edge18" class="edge">
<title>RapidIdModule&#45;&gt;RapidIdModule </title>
<path fill="none" stroke="black" stroke-dasharray="5,2" d="M1610.52,-169C1411.15,-169 712,-169 712,-169 712,-169 712,-205.89 712,-205.89"/>
<polygon fill="black" stroke="black" points="708.5,-205.89 712,-215.89 715.5,-205.89 708.5,-205.89"/>
</g>
<!-- S3Service  -->
<g id="node20" class="node">
<title>S3Service </title>
<polygon fill="#fb8072" stroke="black" points="640.26,-252 563.74,-252 563.74,-216 640.26,-216 640.26,-252"/>
<text text-anchor="middle" x="602" y="-229.8" font-family="Times,serif" font-size="14.00">S3Service </text>
</g>
<!-- RapidIdModule&#45;&gt;S3Service  -->
<g id="edge19" class="edge">
<title>RapidIdModule&#45;&gt;S3Service </title>
<path fill="none" stroke="black" stroke-dasharray="5,2" d="M1610.75,-166C1397.19,-166 602,-166 602,-166 602,-166 602,-205.78 602,-205.78"/>
<polygon fill="black" stroke="black" points="598.5,-205.78 602,-215.78 605.5,-205.78 598.5,-205.78"/>
</g>
<!-- UpdatePhoneNumberRepository  -->
<g id="node21" class="node">
<title>UpdatePhoneNumberRepository </title>
<polygon fill="#fb8072" stroke="black" points="546.23,-252 343.77,-252 343.77,-216 546.23,-216 546.23,-252"/>
<text text-anchor="middle" x="445" y="-229.8" font-family="Times,serif" font-size="14.00">UpdatePhoneNumberRepository </text>
</g>
<!-- RapidIdModule&#45;&gt;UpdatePhoneNumberRepository  -->
<g id="edge20" class="edge">
<title>RapidIdModule&#45;&gt;UpdatePhoneNumberRepository </title>
<path fill="none" stroke="black" stroke-dasharray="5,2" d="M1610.66,-163C1377.53,-163 445,-163 445,-163 445,-163 445,-205.72 445,-205.72"/>
<polygon fill="black" stroke="black" points="441.5,-205.72 445,-215.72 448.5,-205.72 441.5,-205.72"/>
</g>
<!-- UserTokenMetaRepository  -->
<g id="node22" class="node">
<title>UserTokenMetaRepository </title>
<polygon fill="#fb8072" stroke="black" points="325.9,-252 154.1,-252 154.1,-216 325.9,-216 325.9,-252"/>
<text text-anchor="middle" x="240" y="-229.8" font-family="Times,serif" font-size="14.00">UserTokenMetaRepository </text>
</g>
<!-- RapidIdModule&#45;&gt;UserTokenMetaRepository  -->
<g id="edge21" class="edge">
<title>RapidIdModule&#45;&gt;UserTokenMetaRepository </title>
<path fill="none" stroke="black" stroke-dasharray="5,2" d="M1610.67,-160C1353.94,-160 240,-160 240,-160 240,-160 240,-205.71 240,-205.71"/>
<polygon fill="black" stroke="black" points="236.5,-205.71 240,-215.71 243.5,-205.71 236.5,-205.71"/>
</g>
<!-- UsersRepository  -->
<g id="node23" class="node">
<title>UsersRepository </title>
<polygon fill="#fb8072" stroke="black" points="136.31,-252 23.69,-252 23.69,-216 136.31,-216 136.31,-252"/>
<text text-anchor="middle" x="80" y="-229.8" font-family="Times,serif" font-size="14.00">UsersRepository </text>
</g>
<!-- RapidIdModule&#45;&gt;UsersRepository  -->
<g id="edge22" class="edge">
<title>RapidIdModule&#45;&gt;UsersRepository </title>
<path fill="none" stroke="black" stroke-dasharray="5,2" d="M1610.78,-157C1337.03,-157 80,-157 80,-157 80,-157 80,-205.75 80,-205.75"/>
<polygon fill="black" stroke="black" points="76.5,-205.75 80,-215.75 83.5,-205.75 76.5,-205.75"/>
</g>
<!-- AuthService -->
<g id="node24" class="node">
<title>AuthService</title>
<ellipse fill="#fdb462" stroke="black" cx="1730" cy="-104" rx="59.11" ry="18"/>
<text text-anchor="middle" x="1730" y="-99.8" font-family="Times,serif" font-size="14.00">AuthService</text>
</g>
<!-- AuthService&#45;&gt;RapidIdModule -->
<g id="edge23" class="edge">
<title>AuthService&#45;&gt;RapidIdModule</title>
<path fill="none" stroke="black" d="M1693.01,-118.1C1693.01,-118.1 1693.01,-140.72 1693.01,-140.72"/>
<polygon fill="black" stroke="black" points="1689.51,-140.72 1693.01,-150.72 1696.51,-140.72 1689.51,-140.72"/>
</g>
<!-- JwtStrategy -->
<g id="node25" class="node">
<title>JwtStrategy</title>
<ellipse fill="#fdb462" stroke="black" cx="1596" cy="-104" rx="56.76" ry="18"/>
<text text-anchor="middle" x="1596" y="-99.8" font-family="Times,serif" font-size="14.00">JwtStrategy</text>
</g>
<!-- JwtStrategy&#45;&gt;RapidIdModule -->
<g id="edge24" class="edge">
<title>JwtStrategy&#45;&gt;RapidIdModule</title>
<path fill="none" stroke="black" d="M1631.65,-118.1C1631.65,-118.1 1631.65,-140.72 1631.65,-140.72"/>
<polygon fill="black" stroke="black" points="1628.15,-140.72 1631.65,-150.72 1635.15,-140.72 1628.15,-140.72"/>
</g>
<!-- PhoneOtpAuthService -->
<g id="node26" class="node">
<title>PhoneOtpAuthService</title>
<ellipse fill="#fdb462" stroke="black" cx="1423" cy="-104" rx="97.86" ry="18"/>
<text text-anchor="middle" x="1423" y="-99.8" font-family="Times,serif" font-size="14.00">PhoneOtpAuthService</text>
</g>
<!-- PhoneOtpAuthService&#45;&gt;RapidIdModule -->
<g id="edge25" class="edge">
<title>PhoneOtpAuthService&#45;&gt;RapidIdModule</title>
<path fill="none" stroke="black" d="M1502.07,-115.1C1502.07,-129.83 1502.07,-154 1502.07,-154 1502.07,-154 1600.75,-154 1600.75,-154"/>
<polygon fill="black" stroke="black" points="1600.75,-157.5 1610.75,-154 1600.75,-150.5 1600.75,-157.5"/>
</g>
</g>
</svg>
