<?xml version="1.0" encoding="UTF-8" standalone="no"?>
<!DOCTYPE svg PUBLIC "-//W3C//DTD SVG 1.1//EN"
 "http://www.w3.org/Graphics/SVG/1.1/DTD/svg11.dtd">
<!-- Generated by graphviz version 2.47.0 (20210316.0004)
 -->
<!-- Title: dependencies Pages: 1 -->
<svg width="2506pt" height="211pt"
 viewBox="0.00 0.00 2506.00 211.00" xmlns="http://www.w3.org/2000/svg" xmlns:xlink="http://www.w3.org/1999/xlink">
<g id="graph0" class="graph" transform="scale(1 1) rotate(0) translate(4 207)">
<title>dependencies</title>
<polygon fill="white" stroke="transparent" points="-4,4 -4,-207 2502,-207 2502,4 -4,4"/>
<text text-anchor="start" x="1228.01" y="-42.4" font-family="Times-12" font-weight="bold" font-size="14.00">Legend</text>
<polygon fill="#ffffb3" stroke="transparent" points="1015,-10 1015,-30 1035,-30 1035,-10 1015,-10"/>
<text text-anchor="start" x="1038.63" y="-15.4" font-family="Times-12" font-size="14.00"> &#160;Declarations</text>
<polygon fill="#8dd3c7" stroke="transparent" points="1128,-10 1128,-30 1148,-30 1148,-10 1128,-10"/>
<text text-anchor="start" x="1151.73" y="-15.4" font-family="Times-12" font-size="14.00"> &#160;Module</text>
<polygon fill="#80b1d3" stroke="transparent" points="1214,-10 1214,-30 1234,-30 1234,-10 1214,-10"/>
<text text-anchor="start" x="1237.78" y="-15.4" font-family="Times-12" font-size="14.00"> &#160;Bootstrap</text>
<polygon fill="#fdb462" stroke="transparent" points="1311,-10 1311,-30 1331,-30 1331,-10 1311,-10"/>
<text text-anchor="start" x="1334.67" y="-15.4" font-family="Times-12" font-size="14.00"> &#160;Providers</text>
<polygon fill="#fb8072" stroke="transparent" points="1407,-10 1407,-30 1427,-30 1427,-10 1407,-10"/>
<text text-anchor="start" x="1430.73" y="-15.4" font-family="Times-12" font-size="14.00"> &#160;Exports</text>
<g id="clust1" class="cluster">
<title>cluster_AppModule</title>
<polygon fill="none" stroke="black" stroke-dasharray="1,5" points="8,-70 8,-195 2490,-195 2490,-70 8,-70"/>
</g>
<g id="clust3" class="cluster">
<title>cluster_AppModule_imports</title>
<polygon fill="none" stroke="black" points="16,-78 16,-130 2482,-130 2482,-78 16,-78"/>
</g>
<!-- AdminModule -->
<g id="node1" class="node">
<title>AdminModule</title>
<polygon fill="#8dd3c7" stroke="black" points="2474.44,-122 2471.44,-126 2450.44,-126 2447.44,-122 2375.56,-122 2375.56,-86 2474.44,-86 2474.44,-122"/>
<text text-anchor="middle" x="2425" y="-99.8" font-family="Times,serif" font-size="14.00">AdminModule</text>
</g>
<!-- AppModule -->
<g id="node19" class="node">
<title>AppModule</title>
<polygon fill="#8dd3c7" stroke="black" points="1330.66,-187 1327.66,-191 1306.66,-191 1303.66,-187 1247.34,-187 1247.34,-151 1330.66,-151 1330.66,-187"/>
<text text-anchor="middle" x="1289" y="-164.8" font-family="Times,serif" font-size="14.00">AppModule</text>
</g>
<!-- AdminModule&#45;&gt;AppModule -->
<g id="edge1" class="edge">
<title>AdminModule&#45;&gt;AppModule</title>
<path fill="none" stroke="black" d="M2425,-122.32C2425,-145.66 2425,-183 2425,-183 2425,-183 1340.78,-183 1340.78,-183"/>
<polygon fill="black" stroke="black" points="1340.78,-179.5 1330.78,-183 1340.78,-186.5 1340.78,-179.5"/>
</g>
<!-- AdvancePageModule -->
<g id="node2" class="node">
<title>AdvancePageModule</title>
<polygon fill="#8dd3c7" stroke="black" points="2358.01,-122 2355.01,-126 2334.01,-126 2331.01,-122 2221.99,-122 2221.99,-86 2358.01,-86 2358.01,-122"/>
<text text-anchor="middle" x="2290" y="-99.8" font-family="Times,serif" font-size="14.00">AdvancePageModule</text>
</g>
<!-- AdvancePageModule&#45;&gt;AppModule -->
<g id="edge2" class="edge">
<title>AdvancePageModule&#45;&gt;AppModule</title>
<path fill="none" stroke="black" d="M2290,-122.16C2290,-144.35 2290,-179 2290,-179 2290,-179 1340.74,-179 1340.74,-179"/>
<polygon fill="black" stroke="black" points="1340.74,-175.5 1330.74,-179 1340.74,-182.5 1340.74,-175.5"/>
</g>
<!-- AppUserModule -->
<g id="node3" class="node">
<title>AppUserModule</title>
<polygon fill="#8dd3c7" stroke="black" points="2204.08,-122 2201.08,-126 2180.08,-126 2177.08,-122 2093.92,-122 2093.92,-86 2204.08,-86 2204.08,-122"/>
<text text-anchor="middle" x="2149" y="-99.8" font-family="Times,serif" font-size="14.00">AppUserModule</text>
</g>
<!-- AppUserModule&#45;&gt;AppModule -->
<g id="edge3" class="edge">
<title>AppUserModule&#45;&gt;AppModule</title>
<path fill="none" stroke="black" d="M2149,-122.28C2149,-143.32 2149,-175 2149,-175 2149,-175 1340.77,-175 1340.77,-175"/>
<polygon fill="black" stroke="black" points="1340.77,-171.5 1330.77,-175 1340.77,-178.5 1340.77,-171.5"/>
</g>
<!-- AuthModule -->
<g id="node4" class="node">
<title>AuthModule</title>
<polygon fill="#8dd3c7" stroke="black" points="2075.55,-122 2072.55,-126 2051.55,-126 2048.55,-122 1988.45,-122 1988.45,-86 2075.55,-86 2075.55,-122"/>
<text text-anchor="middle" x="2032" y="-99.8" font-family="Times,serif" font-size="14.00">AuthModule</text>
</g>
<!-- AuthModule&#45;&gt;AppModule -->
<g id="edge4" class="edge">
<title>AuthModule&#45;&gt;AppModule</title>
<path fill="none" stroke="black" d="M2032,-122.31C2032,-142.15 2032,-171 2032,-171 2032,-171 1340.81,-171 1340.81,-171"/>
<polygon fill="black" stroke="black" points="1340.81,-167.5 1330.81,-171 1340.81,-174.5 1340.81,-167.5"/>
</g>
<!-- BusinessModule -->
<g id="node5" class="node">
<title>BusinessModule</title>
<polygon fill="#8dd3c7" stroke="black" points="1970.83,-122 1967.83,-126 1946.83,-126 1943.83,-122 1861.17,-122 1861.17,-86 1970.83,-86 1970.83,-122"/>
<text text-anchor="middle" x="1916" y="-99.8" font-family="Times,serif" font-size="14.00">BusinessModule</text>
</g>
<!-- BusinessModule&#45;&gt;AppModule -->
<g id="edge5" class="edge">
<title>BusinessModule&#45;&gt;AppModule</title>
<path fill="none" stroke="black" d="M1916,-122.22C1916,-140.83 1916,-167 1916,-167 1916,-167 1341.11,-167 1341.11,-167"/>
<polygon fill="black" stroke="black" points="1341.11,-163.5 1331.11,-167 1341.11,-170.5 1341.11,-163.5"/>
</g>
<!-- EmailTemplateModule -->
<g id="node6" class="node">
<title>EmailTemplateModule</title>
<polygon fill="#8dd3c7" stroke="black" points="1842.86,-122 1839.86,-126 1818.86,-126 1815.86,-122 1697.14,-122 1697.14,-86 1842.86,-86 1842.86,-122"/>
<text text-anchor="middle" x="1770" y="-99.8" font-family="Times,serif" font-size="14.00">EmailTemplateModule</text>
</g>
<!-- EmailTemplateModule&#45;&gt;AppModule -->
<g id="edge6" class="edge">
<title>EmailTemplateModule&#45;&gt;AppModule</title>
<path fill="none" stroke="black" d="M1770,-122.02C1770,-139.37 1770,-163 1770,-163 1770,-163 1340.84,-163 1340.84,-163"/>
<polygon fill="black" stroke="black" points="1340.84,-159.5 1330.84,-163 1340.84,-166.5 1340.84,-159.5"/>
</g>
<!-- FaqModule -->
<g id="node7" class="node">
<title>FaqModule</title>
<polygon fill="#8dd3c7" stroke="black" points="1679.05,-122 1676.05,-126 1655.05,-126 1652.05,-122 1598.95,-122 1598.95,-86 1679.05,-86 1679.05,-122"/>
<text text-anchor="middle" x="1639" y="-99.8" font-family="Times,serif" font-size="14.00">FaqModule</text>
</g>
<!-- FaqModule&#45;&gt;AppModule -->
<g id="edge7" class="edge">
<title>FaqModule&#45;&gt;AppModule</title>
<path fill="none" stroke="black" d="M1639,-122.01C1639,-138.05 1639,-159 1639,-159 1639,-159 1340.87,-159 1340.87,-159"/>
<polygon fill="black" stroke="black" points="1340.87,-155.5 1330.87,-159 1340.87,-162.5 1340.87,-155.5"/>
</g>
<!-- HomePageTemplateModule -->
<g id="node8" class="node">
<title>HomePageTemplateModule</title>
<polygon fill="#8dd3c7" stroke="black" points="1580.84,-122 1577.84,-126 1556.84,-126 1553.84,-122 1407.16,-122 1407.16,-86 1580.84,-86 1580.84,-122"/>
<text text-anchor="middle" x="1494" y="-99.8" font-family="Times,serif" font-size="14.00">HomePageTemplateModule</text>
</g>
<!-- HomePageTemplateModule&#45;&gt;AppModule -->
<g id="edge8" class="edge">
<title>HomePageTemplateModule&#45;&gt;AppModule</title>
<path fill="none" stroke="black" d="M1494,-122.12C1494,-136.78 1494,-155 1494,-155 1494,-155 1340.98,-155 1340.98,-155"/>
<polygon fill="black" stroke="black" points="1340.98,-151.5 1330.98,-155 1340.98,-158.5 1340.98,-151.5"/>
</g>
<!-- MenuModule -->
<g id="node9" class="node">
<title>MenuModule</title>
<polygon fill="#8dd3c7" stroke="black" points="1389.21,-122 1386.21,-126 1365.21,-126 1362.21,-122 1296.79,-122 1296.79,-86 1389.21,-86 1389.21,-122"/>
<text text-anchor="middle" x="1343" y="-99.8" font-family="Times,serif" font-size="14.00">MenuModule</text>
</g>
<!-- MenuModule&#45;&gt;AppModule -->
<g id="edge9" class="edge">
<title>MenuModule&#45;&gt;AppModule</title>
<path fill="none" stroke="black" d="M1313.86,-122.11C1313.86,-122.11 1313.86,-140.99 1313.86,-140.99"/>
<polygon fill="black" stroke="black" points="1310.36,-140.99 1313.86,-150.99 1317.36,-140.99 1310.36,-140.99"/>
</g>
<!-- PageModule -->
<g id="node10" class="node">
<title>PageModule</title>
<polygon fill="#8dd3c7" stroke="black" points="1279.26,-122 1276.26,-126 1255.26,-126 1252.26,-122 1192.74,-122 1192.74,-86 1279.26,-86 1279.26,-122"/>
<text text-anchor="middle" x="1236" y="-99.8" font-family="Times,serif" font-size="14.00">PageModule</text>
</g>
<!-- PageModule&#45;&gt;AppModule -->
<g id="edge10" class="edge">
<title>PageModule&#45;&gt;AppModule</title>
<path fill="none" stroke="black" d="M1263.28,-122.11C1263.28,-122.11 1263.28,-140.99 1263.28,-140.99"/>
<polygon fill="black" stroke="black" points="1259.78,-140.99 1263.28,-150.99 1266.78,-140.99 1259.78,-140.99"/>
</g>
<!-- PageWithVersionModule -->
<g id="node11" class="node">
<title>PageWithVersionModule</title>
<polygon fill="#8dd3c7" stroke="black" points="1174.57,-122 1171.57,-126 1150.57,-126 1147.57,-122 1015.43,-122 1015.43,-86 1174.57,-86 1174.57,-122"/>
<text text-anchor="middle" x="1095" y="-99.8" font-family="Times,serif" font-size="14.00">PageWithVersionModule</text>
</g>
<!-- PageWithVersionModule&#45;&gt;AppModule -->
<g id="edge11" class="edge">
<title>PageWithVersionModule&#45;&gt;AppModule</title>
<path fill="none" stroke="black" d="M1095,-122.12C1095,-136.78 1095,-155 1095,-155 1095,-155 1236.9,-155 1236.9,-155"/>
<polygon fill="black" stroke="black" points="1236.9,-158.5 1246.9,-155 1236.9,-151.5 1236.9,-158.5"/>
</g>
<!-- PermissionModule -->
<g id="node12" class="node">
<title>PermissionModule</title>
<polygon fill="#8dd3c7" stroke="black" points="997.77,-122 994.77,-126 973.77,-126 970.77,-122 876.23,-122 876.23,-86 997.77,-86 997.77,-122"/>
<text text-anchor="middle" x="937" y="-99.8" font-family="Times,serif" font-size="14.00">PermissionModule</text>
</g>
<!-- PermissionModule&#45;&gt;AppModule -->
<g id="edge12" class="edge">
<title>PermissionModule&#45;&gt;AppModule</title>
<path fill="none" stroke="black" d="M937,-122.01C937,-138.05 937,-159 937,-159 937,-159 1237.24,-159 1237.24,-159"/>
<polygon fill="black" stroke="black" points="1237.24,-162.5 1247.24,-159 1237.24,-155.5 1237.24,-162.5"/>
</g>
<!-- RoleModule -->
<g id="node13" class="node">
<title>RoleModule</title>
<polygon fill="#8dd3c7" stroke="black" points="857.99,-122 854.99,-126 833.99,-126 830.99,-122 772.01,-122 772.01,-86 857.99,-86 857.99,-122"/>
<text text-anchor="middle" x="815" y="-99.8" font-family="Times,serif" font-size="14.00">RoleModule</text>
</g>
<!-- RoleModule&#45;&gt;AppModule -->
<g id="edge13" class="edge">
<title>RoleModule&#45;&gt;AppModule</title>
<path fill="none" stroke="black" d="M815,-122.02C815,-139.37 815,-163 815,-163 815,-163 1236.94,-163 1236.94,-163"/>
<polygon fill="black" stroke="black" points="1236.94,-166.5 1246.94,-163 1236.94,-159.5 1236.94,-166.5"/>
</g>
<!-- SettingModule -->
<g id="node14" class="node">
<title>SettingModule</title>
<polygon fill="#8dd3c7" stroke="black" points="753.72,-122 750.72,-126 729.72,-126 726.72,-122 654.28,-122 654.28,-86 753.72,-86 753.72,-122"/>
<text text-anchor="middle" x="704" y="-99.8" font-family="Times,serif" font-size="14.00">SettingModule</text>
</g>
<!-- SettingModule&#45;&gt;AppModule -->
<g id="edge14" class="edge">
<title>SettingModule&#45;&gt;AppModule</title>
<path fill="none" stroke="black" d="M704,-122.22C704,-140.83 704,-167 704,-167 704,-167 1236.93,-167 1236.93,-167"/>
<polygon fill="black" stroke="black" points="1236.93,-170.5 1246.93,-167 1236.93,-163.5 1236.93,-170.5"/>
</g>
<!-- SiteSettingsModule -->
<g id="node15" class="node">
<title>SiteSettingsModule</title>
<polygon fill="#8dd3c7" stroke="black" points="636.44,-122 633.44,-126 612.44,-126 609.44,-122 509.56,-122 509.56,-86 636.44,-86 636.44,-122"/>
<text text-anchor="middle" x="573" y="-99.8" font-family="Times,serif" font-size="14.00">SiteSettingsModule</text>
</g>
<!-- SiteSettingsModule&#45;&gt;AppModule -->
<g id="edge15" class="edge">
<title>SiteSettingsModule&#45;&gt;AppModule</title>
<path fill="none" stroke="black" d="M573,-122.31C573,-142.15 573,-171 573,-171 573,-171 1237.15,-171 1237.15,-171"/>
<polygon fill="black" stroke="black" points="1237.15,-174.5 1247.15,-171 1237.15,-167.5 1237.15,-174.5"/>
</g>
<!-- SubscriptionProductsModule -->
<g id="node16" class="node">
<title>SubscriptionProductsModule</title>
<polygon fill="#8dd3c7" stroke="black" points="491.82,-122 488.82,-126 467.82,-126 464.82,-122 312.18,-122 312.18,-86 491.82,-86 491.82,-122"/>
<text text-anchor="middle" x="402" y="-99.8" font-family="Times,serif" font-size="14.00">SubscriptionProductsModule</text>
</g>
<!-- SubscriptionProductsModule&#45;&gt;AppModule -->
<g id="edge16" class="edge">
<title>SubscriptionProductsModule&#45;&gt;AppModule</title>
<path fill="none" stroke="black" d="M402,-122.28C402,-143.32 402,-175 402,-175 402,-175 1237.11,-175 1237.11,-175"/>
<polygon fill="black" stroke="black" points="1237.11,-178.5 1247.11,-175 1237.11,-171.5 1237.11,-178.5"/>
</g>
<!-- TaxonomyModule -->
<g id="node17" class="node">
<title>TaxonomyModule</title>
<polygon fill="#8dd3c7" stroke="black" points="294.21,-122 291.21,-126 270.21,-126 267.21,-122 173.79,-122 173.79,-86 294.21,-86 294.21,-122"/>
<text text-anchor="middle" x="234" y="-99.8" font-family="Times,serif" font-size="14.00">TaxonomyModule</text>
</g>
<!-- TaxonomyModule&#45;&gt;AppModule -->
<g id="edge17" class="edge">
<title>TaxonomyModule&#45;&gt;AppModule</title>
<path fill="none" stroke="black" d="M234,-122.16C234,-144.35 234,-179 234,-179 234,-179 1237.32,-179 1237.32,-179"/>
<polygon fill="black" stroke="black" points="1237.32,-182.5 1247.32,-179 1237.32,-175.5 1237.32,-182.5"/>
</g>
<!-- TestimonialsModule -->
<g id="node18" class="node">
<title>TestimonialsModule</title>
<polygon fill="#8dd3c7" stroke="black" points="155.87,-122 152.87,-126 131.87,-126 128.87,-122 24.13,-122 24.13,-86 155.87,-86 155.87,-122"/>
<text text-anchor="middle" x="90" y="-99.8" font-family="Times,serif" font-size="14.00">TestimonialsModule</text>
</g>
<!-- TestimonialsModule&#45;&gt;AppModule -->
<g id="edge18" class="edge">
<title>TestimonialsModule&#45;&gt;AppModule</title>
<path fill="none" stroke="black" d="M90,-122.32C90,-145.66 90,-183 90,-183 90,-183 1237.03,-183 1237.03,-183"/>
<polygon fill="black" stroke="black" points="1237.03,-186.5 1247.03,-183 1237.03,-179.5 1237.03,-186.5"/>
</g>
</g>
</svg>
