<?xml version="1.0" encoding="UTF-8" standalone="no"?>
<!DOCTYPE svg PUBLIC "-//W3C//DTD SVG 1.1//EN"
 "http://www.w3.org/Graphics/SVG/1.1/DTD/svg11.dtd">
<!-- Generated by graphviz version 2.47.0 (20210316.0004)
 -->
<!-- Title: dependencies Pages: 1 -->
<svg width="1549pt" height="211pt"
 viewBox="0.00 0.00 1549.00 211.00" xmlns="http://www.w3.org/2000/svg" xmlns:xlink="http://www.w3.org/1999/xlink">
<g id="graph0" class="graph" transform="scale(1 1) rotate(0) translate(4 207)">
<title>dependencies</title>
<polygon fill="white" stroke="transparent" points="-4,4 -4,-207 1545,-207 1545,4 -4,4"/>
<text text-anchor="start" x="749.51" y="-42.4" font-family="Times-12" font-weight="bold" font-size="14.00">Legend</text>
<polygon fill="#ffffb3" stroke="transparent" points="536.5,-10 536.5,-30 556.5,-30 556.5,-10 536.5,-10"/>
<text text-anchor="start" x="560.13" y="-15.4" font-family="Times-12" font-size="14.00"> &#160;Declarations</text>
<polygon fill="#8dd3c7" stroke="transparent" points="649.5,-10 649.5,-30 669.5,-30 669.5,-10 649.5,-10"/>
<text text-anchor="start" x="673.23" y="-15.4" font-family="Times-12" font-size="14.00"> &#160;Module</text>
<polygon fill="#80b1d3" stroke="transparent" points="735.5,-10 735.5,-30 755.5,-30 755.5,-10 735.5,-10"/>
<text text-anchor="start" x="759.28" y="-15.4" font-family="Times-12" font-size="14.00"> &#160;Bootstrap</text>
<polygon fill="#fdb462" stroke="transparent" points="832.5,-10 832.5,-30 852.5,-30 852.5,-10 832.5,-10"/>
<text text-anchor="start" x="856.17" y="-15.4" font-family="Times-12" font-size="14.00"> &#160;Providers</text>
<polygon fill="#fb8072" stroke="transparent" points="928.5,-10 928.5,-30 948.5,-30 948.5,-10 928.5,-10"/>
<text text-anchor="start" x="952.23" y="-15.4" font-family="Times-12" font-size="14.00"> &#160;Exports</text>
<g id="clust1" class="cluster">
<title>cluster_CronModule</title>
<polygon fill="none" stroke="black" stroke-dasharray="1,5" points="8,-70 8,-195 1533,-195 1533,-70 8,-70"/>
</g>
<g id="clust6" class="cluster">
<title>cluster_CronModule_providers</title>
<polygon fill="none" stroke="black" points="16,-78 16,-130 1525,-130 1525,-78 16,-78"/>
</g>
<!-- CronService -->
<g id="node1" class="node">
<title>CronService</title>
<ellipse fill="#fdb462" stroke="black" cx="1458" cy="-104" rx="59.11" ry="18"/>
<text text-anchor="middle" x="1458" y="-99.8" font-family="Times,serif" font-size="14.00">CronService</text>
</g>
<!-- CronModule -->
<g id="node9" class="node">
<title>CronModule</title>
<polygon fill="#8dd3c7" stroke="black" points="796.55,-187 793.55,-191 772.55,-191 769.55,-187 709.45,-187 709.45,-151 796.55,-151 796.55,-187"/>
<text text-anchor="middle" x="753" y="-164.8" font-family="Times,serif" font-size="14.00">CronModule</text>
</g>
<!-- CronService&#45;&gt;CronModule -->
<g id="edge1" class="edge">
<title>CronService&#45;&gt;CronModule</title>
<path fill="none" stroke="black" d="M1458,-122.29C1458,-144.21 1458,-178 1458,-178 1458,-178 806.57,-178 806.57,-178"/>
<polygon fill="black" stroke="black" points="806.57,-174.5 796.57,-178 806.57,-181.5 806.57,-174.5"/>
</g>
<!-- DisposableEmailRepository -->
<g id="node2" class="node">
<title>DisposableEmailRepository</title>
<ellipse fill="#fdb462" stroke="black" cx="1261" cy="-104" rx="119.28" ry="18"/>
<text text-anchor="middle" x="1261" y="-99.8" font-family="Times,serif" font-size="14.00">DisposableEmailRepository</text>
</g>
<!-- DisposableEmailRepository&#45;&gt;CronModule -->
<g id="edge2" class="edge">
<title>DisposableEmailRepository&#45;&gt;CronModule</title>
<path fill="none" stroke="black" d="M1261,-122.11C1261,-141.34 1261,-169 1261,-169 1261,-169 806.75,-169 806.75,-169"/>
<polygon fill="black" stroke="black" points="806.75,-165.5 796.75,-169 806.75,-172.5 806.75,-165.5"/>
</g>
<!-- DisposableEmailService -->
<g id="node3" class="node">
<title>DisposableEmailService</title>
<ellipse fill="#fdb462" stroke="black" cx="1018" cy="-104" rx="105.93" ry="18"/>
<text text-anchor="middle" x="1018" y="-99.8" font-family="Times,serif" font-size="14.00">DisposableEmailService</text>
</g>
<!-- DisposableEmailService&#45;&gt;CronModule -->
<g id="edge3" class="edge">
<title>DisposableEmailService&#45;&gt;CronModule</title>
<path fill="none" stroke="black" d="M1018,-122.03C1018,-138.4 1018,-160 1018,-160 1018,-160 806.76,-160 806.76,-160"/>
<polygon fill="black" stroke="black" points="806.76,-156.5 796.76,-160 806.76,-163.5 806.76,-156.5"/>
</g>
<!-- S3Service -->
<g id="node4" class="node">
<title>S3Service</title>
<ellipse fill="#fdb462" stroke="black" cx="844" cy="-104" rx="50.38" ry="18"/>
<text text-anchor="middle" x="844" y="-99.8" font-family="Times,serif" font-size="14.00">S3Service</text>
</g>
<!-- S3Service&#45;&gt;CronModule -->
<g id="edge4" class="edge">
<title>S3Service&#45;&gt;CronModule</title>
<path fill="none" stroke="black" d="M793.64,-104C788.39,-104 784.92,-104 784.92,-104 784.92,-104 784.92,-140.89 784.92,-140.89"/>
<polygon fill="black" stroke="black" points="781.42,-140.89 784.92,-150.89 788.42,-140.89 781.42,-140.89"/>
</g>
<!-- StripeCustomerRepository -->
<g id="node5" class="node">
<title>StripeCustomerRepository</title>
<ellipse fill="#fdb462" stroke="black" cx="662" cy="-104" rx="114.06" ry="18"/>
<text text-anchor="middle" x="662" y="-99.8" font-family="Times,serif" font-size="14.00">StripeCustomerRepository</text>
</g>
<!-- StripeCustomerRepository&#45;&gt;CronModule -->
<g id="edge5" class="edge">
<title>StripeCustomerRepository&#45;&gt;CronModule</title>
<path fill="none" stroke="black" d="M742.63,-116.84C742.63,-116.84 742.63,-140.52 742.63,-140.52"/>
<polygon fill="black" stroke="black" points="739.13,-140.52 742.63,-150.52 746.13,-140.52 739.13,-140.52"/>
</g>
<!-- StripePaymentService -->
<g id="node6" class="node">
<title>StripePaymentService</title>
<ellipse fill="#fdb462" stroke="black" cx="433" cy="-104" rx="96.7" ry="18"/>
<text text-anchor="middle" x="433" y="-99.8" font-family="Times,serif" font-size="14.00">StripePaymentService</text>
</g>
<!-- StripePaymentService&#45;&gt;CronModule -->
<g id="edge6" class="edge">
<title>StripePaymentService&#45;&gt;CronModule</title>
<path fill="none" stroke="black" d="M433,-122.03C433,-138.4 433,-160 433,-160 433,-160 699.18,-160 699.18,-160"/>
<polygon fill="black" stroke="black" points="699.18,-163.5 709.18,-160 699.18,-156.5 699.18,-163.5"/>
</g>
<!-- StripeService -->
<g id="node7" class="node">
<title>StripeService</title>
<ellipse fill="#fdb462" stroke="black" cx="255" cy="-104" rx="63.12" ry="18"/>
<text text-anchor="middle" x="255" y="-99.8" font-family="Times,serif" font-size="14.00">StripeService</text>
</g>
<!-- StripeService&#45;&gt;CronModule -->
<g id="edge7" class="edge">
<title>StripeService&#45;&gt;CronModule</title>
<path fill="none" stroke="black" d="M255,-122.11C255,-141.34 255,-169 255,-169 255,-169 699.24,-169 699.24,-169"/>
<polygon fill="black" stroke="black" points="699.24,-172.5 709.24,-169 699.24,-165.5 699.24,-172.5"/>
</g>
<!-- UsersRepository -->
<g id="node8" class="node">
<title>UsersRepository</title>
<ellipse fill="#fdb462" stroke="black" cx="99" cy="-104" rx="75.3" ry="18"/>
<text text-anchor="middle" x="99" y="-99.8" font-family="Times,serif" font-size="14.00">UsersRepository</text>
</g>
<!-- UsersRepository&#45;&gt;CronModule -->
<g id="edge8" class="edge">
<title>UsersRepository&#45;&gt;CronModule</title>
<path fill="none" stroke="black" d="M99,-122.29C99,-144.21 99,-178 99,-178 99,-178 699.33,-178 699.33,-178"/>
<polygon fill="black" stroke="black" points="699.33,-181.5 709.33,-178 699.33,-174.5 699.33,-181.5"/>
</g>
</g>
</svg>
