<?xml version="1.0" encoding="UTF-8" standalone="no"?>
<!DOCTYPE svg PUBLIC "-//W3C//DTD SVG 1.1//EN"
 "http://www.w3.org/Graphics/SVG/1.1/DTD/svg11.dtd">
<!-- Generated by graphviz version 2.47.0 (20210316.0004)
 -->
<!-- Title: dependencies Pages: 1 -->
<svg width="976pt" height="211pt"
 viewBox="0.00 0.00 976.00 211.00" xmlns="http://www.w3.org/2000/svg" xmlns:xlink="http://www.w3.org/1999/xlink">
<g id="graph0" class="graph" transform="scale(1 1) rotate(0) translate(4 207)">
<title>dependencies</title>
<polygon fill="white" stroke="transparent" points="-4,4 -4,-207 972,-207 972,4 -4,4"/>
<text text-anchor="start" x="463.01" y="-42.4" font-family="Times-12" font-weight="bold" font-size="14.00">Legend</text>
<polygon fill="#ffffb3" stroke="transparent" points="250,-10 250,-30 270,-30 270,-10 250,-10"/>
<text text-anchor="start" x="273.63" y="-15.4" font-family="Times-12" font-size="14.00"> &#160;Declarations</text>
<polygon fill="#8dd3c7" stroke="transparent" points="363,-10 363,-30 383,-30 383,-10 363,-10"/>
<text text-anchor="start" x="386.73" y="-15.4" font-family="Times-12" font-size="14.00"> &#160;Module</text>
<polygon fill="#80b1d3" stroke="transparent" points="449,-10 449,-30 469,-30 469,-10 449,-10"/>
<text text-anchor="start" x="472.78" y="-15.4" font-family="Times-12" font-size="14.00"> &#160;Bootstrap</text>
<polygon fill="#fdb462" stroke="transparent" points="546,-10 546,-30 566,-30 566,-10 546,-10"/>
<text text-anchor="start" x="569.67" y="-15.4" font-family="Times-12" font-size="14.00"> &#160;Providers</text>
<polygon fill="#fb8072" stroke="transparent" points="642,-10 642,-30 662,-30 662,-10 642,-10"/>
<text text-anchor="start" x="665.73" y="-15.4" font-family="Times-12" font-size="14.00"> &#160;Exports</text>
<g id="clust1" class="cluster">
<title>cluster_FeedsModule</title>
<polygon fill="none" stroke="black" stroke-dasharray="1,5" points="8,-70 8,-195 960,-195 960,-70 8,-70"/>
</g>
<g id="clust3" class="cluster">
<title>cluster_FeedsModule_imports</title>
<polygon fill="none" stroke="black" points="694,-78 694,-130 952,-130 952,-78 694,-78"/>
</g>
<g id="clust6" class="cluster">
<title>cluster_FeedsModule_providers</title>
<polygon fill="none" stroke="black" points="16,-78 16,-130 686,-130 686,-78 16,-78"/>
</g>
<!-- NotificationsModule -->
<g id="node1" class="node">
<title>NotificationsModule</title>
<polygon fill="#8dd3c7" stroke="black" points="944.14,-122 941.14,-126 920.14,-126 917.14,-122 811.86,-122 811.86,-86 944.14,-86 944.14,-122"/>
<text text-anchor="middle" x="878" y="-99.8" font-family="Times,serif" font-size="14.00">NotificationsModule</text>
</g>
<!-- FeedsModule -->
<g id="node3" class="node">
<title>FeedsModule</title>
<polygon fill="#8dd3c7" stroke="black" points="578.21,-187 575.21,-191 554.21,-191 551.21,-187 485.79,-187 485.79,-151 578.21,-151 578.21,-187"/>
<text text-anchor="middle" x="532" y="-164.8" font-family="Times,serif" font-size="14.00">FeedsModule</text>
</g>
<!-- NotificationsModule&#45;&gt;FeedsModule -->
<g id="edge1" class="edge">
<title>NotificationsModule&#45;&gt;FeedsModule</title>
<path fill="none" stroke="black" d="M878,-122.28C878,-143.32 878,-175 878,-175 878,-175 588.3,-175 588.3,-175"/>
<polygon fill="black" stroke="black" points="588.3,-171.5 578.3,-175 588.3,-178.5 588.3,-171.5"/>
</g>
<!-- UsersModule -->
<g id="node2" class="node">
<title>UsersModule</title>
<polygon fill="#8dd3c7" stroke="black" points="793.92,-122 790.92,-126 769.92,-126 766.92,-122 702.08,-122 702.08,-86 793.92,-86 793.92,-122"/>
<text text-anchor="middle" x="748" y="-99.8" font-family="Times,serif" font-size="14.00">UsersModule</text>
</g>
<!-- UsersModule&#45;&gt;FeedsModule -->
<g id="edge2" class="edge">
<title>UsersModule&#45;&gt;FeedsModule</title>
<path fill="none" stroke="black" d="M748,-122.02C748,-139.37 748,-163 748,-163 748,-163 588.34,-163 588.34,-163"/>
<polygon fill="black" stroke="black" points="588.34,-159.5 578.34,-163 588.34,-166.5 588.34,-159.5"/>
</g>
<!-- FeedCommentNotificationHandler -->
<g id="node4" class="node">
<title>FeedCommentNotificationHandler</title>
<ellipse fill="#fdb462" stroke="black" cx="532" cy="-104" rx="145.82" ry="18"/>
<text text-anchor="middle" x="532" y="-99.8" font-family="Times,serif" font-size="14.00">FeedCommentNotificationHandler</text>
</g>
<!-- FeedCommentNotificationHandler&#45;&gt;FeedsModule -->
<g id="edge3" class="edge">
<title>FeedCommentNotificationHandler&#45;&gt;FeedsModule</title>
<path fill="none" stroke="black" d="M532,-122.11C532,-122.11 532,-140.99 532,-140.99"/>
<polygon fill="black" stroke="black" points="528.5,-140.99 532,-150.99 535.5,-140.99 528.5,-140.99"/>
</g>
<!-- FeedCommentsService -->
<g id="node5" class="node">
<title>FeedCommentsService</title>
<ellipse fill="#fdb462" stroke="black" cx="268" cy="-104" rx="100.72" ry="18"/>
<text text-anchor="middle" x="268" y="-99.8" font-family="Times,serif" font-size="14.00">FeedCommentsService</text>
</g>
<!-- FeedCommentsService&#45;&gt;FeedsModule -->
<g id="edge4" class="edge">
<title>FeedCommentsService&#45;&gt;FeedsModule</title>
<path fill="none" stroke="black" d="M268,-122.02C268,-139.37 268,-163 268,-163 268,-163 475.71,-163 475.71,-163"/>
<polygon fill="black" stroke="black" points="475.71,-166.5 485.71,-163 475.71,-159.5 475.71,-166.5"/>
</g>
<!-- FeedsService -->
<g id="node6" class="node">
<title>FeedsService</title>
<ellipse fill="#fdb462" stroke="black" cx="87" cy="-104" rx="62.54" ry="18"/>
<text text-anchor="middle" x="87" y="-99.8" font-family="Times,serif" font-size="14.00">FeedsService</text>
</g>
<!-- FeedsService&#45;&gt;FeedsModule -->
<g id="edge5" class="edge">
<title>FeedsService&#45;&gt;FeedsModule</title>
<path fill="none" stroke="black" d="M87,-122.28C87,-143.32 87,-175 87,-175 87,-175 475.64,-175 475.64,-175"/>
<polygon fill="black" stroke="black" points="475.64,-178.5 485.64,-175 475.64,-171.5 475.64,-178.5"/>
</g>
</g>
</svg>
