<?xml version="1.0" encoding="UTF-8" standalone="no"?>
<!DOCTYPE svg PUBLIC "-//W3C//DTD SVG 1.1//EN"
 "http://www.w3.org/Graphics/SVG/1.1/DTD/svg11.dtd">
<!-- Generated by graphviz version 2.47.0 (20210316.0004)
 -->
<!-- Title: dependencies Pages: 1 -->
<svg width="1876pt" height="284pt"
 viewBox="0.00 0.00 1876.00 284.00" xmlns="http://www.w3.org/2000/svg" xmlns:xlink="http://www.w3.org/1999/xlink">
<g id="graph0" class="graph" transform="scale(1 1) rotate(0) translate(4 280)">
<title>dependencies</title>
<polygon fill="white" stroke="transparent" points="-4,4 -4,-280 1872,-280 1872,4 -4,4"/>
<text text-anchor="start" x="913.01" y="-42.4" font-family="Times-12" font-weight="bold" font-size="14.00">Legend</text>
<polygon fill="#ffffb3" stroke="transparent" points="700,-10 700,-30 720,-30 720,-10 700,-10"/>
<text text-anchor="start" x="723.63" y="-15.4" font-family="Times-12" font-size="14.00"> &#160;Declarations</text>
<polygon fill="#8dd3c7" stroke="transparent" points="813,-10 813,-30 833,-30 833,-10 813,-10"/>
<text text-anchor="start" x="836.73" y="-15.4" font-family="Times-12" font-size="14.00"> &#160;Module</text>
<polygon fill="#80b1d3" stroke="transparent" points="899,-10 899,-30 919,-30 919,-10 899,-10"/>
<text text-anchor="start" x="922.78" y="-15.4" font-family="Times-12" font-size="14.00"> &#160;Bootstrap</text>
<polygon fill="#fdb462" stroke="transparent" points="996,-10 996,-30 1016,-30 1016,-10 996,-10"/>
<text text-anchor="start" x="1019.67" y="-15.4" font-family="Times-12" font-size="14.00"> &#160;Providers</text>
<polygon fill="#fb8072" stroke="transparent" points="1092,-10 1092,-30 1112,-30 1112,-10 1092,-10"/>
<text text-anchor="start" x="1115.73" y="-15.4" font-family="Times-12" font-size="14.00"> &#160;Exports</text>
<g id="clust1" class="cluster">
<title>cluster_StripeSubscriptionModule</title>
<polygon fill="none" stroke="black" stroke-dasharray="1,5" points="8,-70 8,-268 1860,-268 1860,-70 8,-70"/>
</g>
<g id="clust3" class="cluster">
<title>cluster_StripeSubscriptionModule_imports</title>
<polygon fill="none" stroke="black" points="1639,-78 1639,-130 1852,-130 1852,-78 1639,-78"/>
</g>
<g id="clust4" class="cluster">
<title>cluster_StripeSubscriptionModule_exports</title>
<polygon fill="none" stroke="black" points="1009,-208 1009,-260 1394,-260 1394,-208 1009,-208"/>
</g>
<g id="clust6" class="cluster">
<title>cluster_StripeSubscriptionModule_providers</title>
<polygon fill="none" stroke="black" points="16,-78 16,-130 1631,-130 1631,-78 16,-78"/>
</g>
<!-- AuthModule -->
<g id="node1" class="node">
<title>AuthModule</title>
<polygon fill="#8dd3c7" stroke="black" points="1843.55,-122 1840.55,-126 1819.55,-126 1816.55,-122 1756.45,-122 1756.45,-86 1843.55,-86 1843.55,-122"/>
<text text-anchor="middle" x="1800" y="-99.8" font-family="Times,serif" font-size="14.00">AuthModule</text>
</g>
<!-- StripeSubscriptionModule -->
<g id="node3" class="node">
<title>StripeSubscriptionModule</title>
<polygon fill="#8dd3c7" stroke="black" points="1277.76,-187 1274.76,-191 1253.76,-191 1250.76,-187 1114.24,-187 1114.24,-151 1277.76,-151 1277.76,-187"/>
<text text-anchor="middle" x="1196" y="-164.8" font-family="Times,serif" font-size="14.00">StripeSubscriptionModule</text>
</g>
<!-- AuthModule&#45;&gt;StripeSubscriptionModule -->
<g id="edge1" class="edge">
<title>AuthModule&#45;&gt;StripeSubscriptionModule</title>
<path fill="none" stroke="black" d="M1800,-122.29C1800,-144.21 1800,-178 1800,-178 1800,-178 1287.77,-178 1287.77,-178"/>
<polygon fill="black" stroke="black" points="1287.77,-174.5 1277.77,-178 1287.77,-181.5 1287.77,-174.5"/>
</g>
<!-- UsersModule -->
<g id="node2" class="node">
<title>UsersModule</title>
<polygon fill="#8dd3c7" stroke="black" points="1738.92,-122 1735.92,-126 1714.92,-126 1711.92,-122 1647.08,-122 1647.08,-86 1738.92,-86 1738.92,-122"/>
<text text-anchor="middle" x="1693" y="-99.8" font-family="Times,serif" font-size="14.00">UsersModule</text>
</g>
<!-- UsersModule&#45;&gt;StripeSubscriptionModule -->
<g id="edge2" class="edge">
<title>UsersModule&#45;&gt;StripeSubscriptionModule</title>
<path fill="none" stroke="black" d="M1693,-122.11C1693,-141.34 1693,-169 1693,-169 1693,-169 1287.79,-169 1287.79,-169"/>
<polygon fill="black" stroke="black" points="1287.79,-165.5 1277.79,-169 1287.79,-172.5 1287.79,-165.5"/>
</g>
<!-- StripeSubscriptionRepository  -->
<g id="node4" class="node">
<title>StripeSubscriptionRepository </title>
<polygon fill="#fb8072" stroke="black" points="1385.65,-252 1200.35,-252 1200.35,-216 1385.65,-216 1385.65,-252"/>
<text text-anchor="middle" x="1293" y="-229.8" font-family="Times,serif" font-size="14.00">StripeSubscriptionRepository </text>
</g>
<!-- StripeSubscriptionModule&#45;&gt;StripeSubscriptionRepository  -->
<g id="edge3" class="edge">
<title>StripeSubscriptionModule&#45;&gt;StripeSubscriptionRepository </title>
<path fill="none" stroke="black" stroke-dasharray="5,2" d="M1239.15,-187.11C1239.15,-187.11 1239.15,-205.99 1239.15,-205.99"/>
<polygon fill="black" stroke="black" points="1235.65,-205.99 1239.15,-215.99 1242.65,-205.99 1235.65,-205.99"/>
</g>
<!-- StripeSubscriptionService  -->
<g id="node5" class="node">
<title>StripeSubscriptionService </title>
<polygon fill="#fb8072" stroke="black" points="1182.69,-252 1017.31,-252 1017.31,-216 1182.69,-216 1182.69,-252"/>
<text text-anchor="middle" x="1100" y="-229.8" font-family="Times,serif" font-size="14.00">StripeSubscriptionService </text>
</g>
<!-- StripeSubscriptionModule&#45;&gt;StripeSubscriptionService  -->
<g id="edge4" class="edge">
<title>StripeSubscriptionModule&#45;&gt;StripeSubscriptionService </title>
<path fill="none" stroke="black" stroke-dasharray="5,2" d="M1148.48,-187.11C1148.48,-187.11 1148.48,-205.99 1148.48,-205.99"/>
<polygon fill="black" stroke="black" points="1144.98,-205.99 1148.48,-215.99 1151.98,-205.99 1144.98,-205.99"/>
</g>
<!-- S3Service -->
<g id="node6" class="node">
<title>S3Service</title>
<ellipse fill="#fdb462" stroke="black" cx="1573" cy="-104" rx="50.38" ry="18"/>
<text text-anchor="middle" x="1573" y="-99.8" font-family="Times,serif" font-size="14.00">S3Service</text>
</g>
<!-- S3Service&#45;&gt;StripeSubscriptionModule -->
<g id="edge5" class="edge">
<title>S3Service&#45;&gt;StripeSubscriptionModule</title>
<path fill="none" stroke="black" d="M1573,-122.03C1573,-138.4 1573,-160 1573,-160 1573,-160 1287.8,-160 1287.8,-160"/>
<polygon fill="black" stroke="black" points="1287.8,-156.5 1277.8,-160 1287.8,-163.5 1287.8,-156.5"/>
</g>
<!-- StripeCustomerRepository -->
<g id="node7" class="node">
<title>StripeCustomerRepository</title>
<ellipse fill="#fdb462" stroke="black" cx="1391" cy="-104" rx="114.06" ry="18"/>
<text text-anchor="middle" x="1391" y="-99.8" font-family="Times,serif" font-size="14.00">StripeCustomerRepository</text>
</g>
<!-- StripeCustomerRepository&#45;&gt;StripeSubscriptionModule -->
<g id="edge6" class="edge">
<title>StripeCustomerRepository&#45;&gt;StripeSubscriptionModule</title>
<path fill="none" stroke="black" d="M1276.86,-104C1271.32,-104 1268.01,-104 1268.01,-104 1268.01,-104 1268.01,-140.89 1268.01,-140.89"/>
<polygon fill="black" stroke="black" points="1264.51,-140.89 1268.01,-150.89 1271.51,-140.89 1264.51,-140.89"/>
</g>
<!-- StripeService -->
<g id="node8" class="node">
<title>StripeService</title>
<ellipse fill="#fdb462" stroke="black" cx="1196" cy="-104" rx="63.12" ry="18"/>
<text text-anchor="middle" x="1196" y="-99.8" font-family="Times,serif" font-size="14.00">StripeService</text>
</g>
<!-- StripeService&#45;&gt;StripeSubscriptionModule -->
<g id="edge7" class="edge">
<title>StripeService&#45;&gt;StripeSubscriptionModule</title>
<path fill="none" stroke="black" d="M1196,-122.11C1196,-122.11 1196,-140.99 1196,-140.99"/>
<polygon fill="black" stroke="black" points="1192.5,-140.99 1196,-150.99 1199.5,-140.99 1192.5,-140.99"/>
</g>
<!-- StripeSubscriptionRepository -->
<g id="node9" class="node">
<title>StripeSubscriptionRepository</title>
<ellipse fill="#fdb462" stroke="black" cx="990" cy="-104" rx="125.1" ry="18"/>
<text text-anchor="middle" x="990" y="-99.8" font-family="Times,serif" font-size="14.00">StripeSubscriptionRepository</text>
</g>
<!-- StripeSubscriptionRepository&#45;&gt;StripeSubscriptionModule -->
<g id="edge8" class="edge">
<title>StripeSubscriptionRepository&#45;&gt;StripeSubscriptionModule</title>
<path fill="none" stroke="black" d="M1115.32,-104C1120.85,-104 1124.12,-104 1124.12,-104 1124.12,-104 1124.12,-140.89 1124.12,-140.89"/>
<polygon fill="black" stroke="black" points="1120.62,-140.89 1124.12,-150.89 1127.62,-140.89 1120.62,-140.89"/>
</g>
<!-- StripeSubscriptionService -->
<g id="node10" class="node">
<title>StripeSubscriptionService</title>
<ellipse fill="#fdb462" stroke="black" cx="735" cy="-104" rx="111.75" ry="18"/>
<text text-anchor="middle" x="735" y="-99.8" font-family="Times,serif" font-size="14.00">StripeSubscriptionService</text>
</g>
<!-- StripeSubscriptionService&#45;&gt;StripeSubscriptionModule -->
<g id="edge9" class="edge">
<title>StripeSubscriptionService&#45;&gt;StripeSubscriptionModule</title>
<path fill="none" stroke="black" d="M735,-122.03C735,-138.4 735,-160 735,-160 735,-160 1104.11,-160 1104.11,-160"/>
<polygon fill="black" stroke="black" points="1104.11,-163.5 1114.11,-160 1104.11,-156.5 1104.11,-163.5"/>
</g>
<!-- StripeSubscriptionWebhookService -->
<g id="node11" class="node">
<title>StripeSubscriptionWebhookService</title>
<ellipse fill="#fdb462" stroke="black" cx="456" cy="-104" rx="149.34" ry="18"/>
<text text-anchor="middle" x="456" y="-99.8" font-family="Times,serif" font-size="14.00">StripeSubscriptionWebhookService</text>
</g>
<!-- StripeSubscriptionWebhookService&#45;&gt;StripeSubscriptionModule -->
<g id="edge10" class="edge">
<title>StripeSubscriptionWebhookService&#45;&gt;StripeSubscriptionModule</title>
<path fill="none" stroke="black" d="M456,-122.11C456,-141.34 456,-169 456,-169 456,-169 1103.98,-169 1103.98,-169"/>
<polygon fill="black" stroke="black" points="1103.98,-172.5 1113.98,-169 1103.98,-165.5 1103.98,-172.5"/>
</g>
<!-- SubscriptionProductRepository -->
<g id="node12" class="node">
<title>SubscriptionProductRepository</title>
<ellipse fill="#fdb462" stroke="black" cx="156" cy="-104" rx="132.05" ry="18"/>
<text text-anchor="middle" x="156" y="-99.8" font-family="Times,serif" font-size="14.00">SubscriptionProductRepository</text>
</g>
<!-- SubscriptionProductRepository&#45;&gt;StripeSubscriptionModule -->
<g id="edge11" class="edge">
<title>SubscriptionProductRepository&#45;&gt;StripeSubscriptionModule</title>
<path fill="none" stroke="black" d="M156,-122.29C156,-144.21 156,-178 156,-178 156,-178 1103.96,-178 1103.96,-178"/>
<polygon fill="black" stroke="black" points="1103.96,-181.5 1113.96,-178 1103.96,-174.5 1103.96,-181.5"/>
</g>
</g>
</svg>
