<?xml version="1.0" encoding="UTF-8" standalone="no"?>
<!DOCTYPE svg PUBLIC "-//W3C//DTD SVG 1.1//EN"
 "http://www.w3.org/Graphics/SVG/1.1/DTD/svg11.dtd">
<!-- Generated by graphviz version 2.47.0 (20210316.0004)
 -->
<!-- Title: dependencies Pages: 1 -->
<svg width="1261pt" height="284pt"
 viewBox="0.00 0.00 1261.00 284.00" xmlns="http://www.w3.org/2000/svg" xmlns:xlink="http://www.w3.org/1999/xlink">
<g id="graph0" class="graph" transform="scale(1 1) rotate(0) translate(4 280)">
<title>dependencies</title>
<polygon fill="white" stroke="transparent" points="-4,4 -4,-280 1257,-280 1257,4 -4,4"/>
<text text-anchor="start" x="605.51" y="-42.4" font-family="Times-12" font-weight="bold" font-size="14.00">Legend</text>
<polygon fill="#ffffb3" stroke="transparent" points="392.5,-10 392.5,-30 412.5,-30 412.5,-10 392.5,-10"/>
<text text-anchor="start" x="416.13" y="-15.4" font-family="Times-12" font-size="14.00"> &#160;Declarations</text>
<polygon fill="#8dd3c7" stroke="transparent" points="505.5,-10 505.5,-30 525.5,-30 525.5,-10 505.5,-10"/>
<text text-anchor="start" x="529.23" y="-15.4" font-family="Times-12" font-size="14.00"> &#160;Module</text>
<polygon fill="#80b1d3" stroke="transparent" points="591.5,-10 591.5,-30 611.5,-30 611.5,-10 591.5,-10"/>
<text text-anchor="start" x="615.28" y="-15.4" font-family="Times-12" font-size="14.00"> &#160;Bootstrap</text>
<polygon fill="#fdb462" stroke="transparent" points="688.5,-10 688.5,-30 708.5,-30 708.5,-10 688.5,-10"/>
<text text-anchor="start" x="712.17" y="-15.4" font-family="Times-12" font-size="14.00"> &#160;Providers</text>
<polygon fill="#fb8072" stroke="transparent" points="784.5,-10 784.5,-30 804.5,-30 804.5,-10 784.5,-10"/>
<text text-anchor="start" x="808.23" y="-15.4" font-family="Times-12" font-size="14.00"> &#160;Exports</text>
<g id="clust1" class="cluster">
<title>cluster_SubscriptionModule</title>
<polygon fill="none" stroke="black" stroke-dasharray="1,5" points="8,-70 8,-268 1245,-268 1245,-70 8,-70"/>
</g>
<g id="clust4" class="cluster">
<title>cluster_SubscriptionModule_exports</title>
<polygon fill="none" stroke="black" points="578,-208 578,-260 726,-260 726,-208 578,-208"/>
</g>
<g id="clust3" class="cluster">
<title>cluster_SubscriptionModule_imports</title>
<polygon fill="none" stroke="black" points="899,-78 899,-130 1237,-130 1237,-78 899,-78"/>
</g>
<g id="clust6" class="cluster">
<title>cluster_SubscriptionModule_providers</title>
<polygon fill="none" stroke="black" points="16,-78 16,-130 891,-130 891,-78 16,-78"/>
</g>
<!-- AuthenticationModule -->
<g id="node1" class="node">
<title>AuthenticationModule</title>
<polygon fill="#8dd3c7" stroke="black" points="1229.25,-122 1226.25,-126 1205.25,-126 1202.25,-122 1086.75,-122 1086.75,-86 1229.25,-86 1229.25,-122"/>
<text text-anchor="middle" x="1158" y="-99.8" font-family="Times,serif" font-size="14.00">AuthenticationModule</text>
</g>
<!-- SubscriptionModule -->
<g id="node3" class="node">
<title>SubscriptionModule</title>
<polygon fill="#8dd3c7" stroke="black" points="717.32,-187 714.32,-191 693.32,-191 690.32,-187 586.68,-187 586.68,-151 717.32,-151 717.32,-187"/>
<text text-anchor="middle" x="652" y="-164.8" font-family="Times,serif" font-size="14.00">SubscriptionModule</text>
</g>
<!-- AuthenticationModule&#45;&gt;SubscriptionModule -->
<g id="edge1" class="edge">
<title>AuthenticationModule&#45;&gt;SubscriptionModule</title>
<path fill="none" stroke="black" d="M1158,-122.28C1158,-143.32 1158,-175 1158,-175 1158,-175 727.37,-175 727.37,-175"/>
<polygon fill="black" stroke="black" points="727.37,-171.5 717.37,-175 727.37,-178.5 727.37,-171.5"/>
</g>
<!-- InappSubscriptionModule -->
<g id="node2" class="node">
<title>InappSubscriptionModule</title>
<polygon fill="#8dd3c7" stroke="black" points="1069.2,-122 1066.2,-126 1045.2,-126 1042.2,-122 906.8,-122 906.8,-86 1069.2,-86 1069.2,-122"/>
<text text-anchor="middle" x="988" y="-99.8" font-family="Times,serif" font-size="14.00">InappSubscriptionModule</text>
</g>
<!-- InappSubscriptionModule&#45;&gt;SubscriptionModule -->
<g id="edge2" class="edge">
<title>InappSubscriptionModule&#45;&gt;SubscriptionModule</title>
<path fill="none" stroke="black" d="M988,-122.02C988,-139.37 988,-163 988,-163 988,-163 727.18,-163 727.18,-163"/>
<polygon fill="black" stroke="black" points="727.18,-159.5 717.18,-163 727.18,-166.5 727.18,-159.5"/>
</g>
<!-- SubscriptionService  -->
<g id="node4" class="node">
<title>SubscriptionService </title>
<polygon fill="#fb8072" stroke="black" points="718.25,-252 585.75,-252 585.75,-216 718.25,-216 718.25,-252"/>
<text text-anchor="middle" x="652" y="-229.8" font-family="Times,serif" font-size="14.00">SubscriptionService </text>
</g>
<!-- SubscriptionModule&#45;&gt;SubscriptionService  -->
<g id="edge3" class="edge">
<title>SubscriptionModule&#45;&gt;SubscriptionService </title>
<path fill="none" stroke="black" stroke-dasharray="5,2" d="M652,-187.11C652,-187.11 652,-205.99 652,-205.99"/>
<polygon fill="black" stroke="black" points="648.5,-205.99 652,-215.99 655.5,-205.99 648.5,-205.99"/>
</g>
<!-- SubscriptionLogRepository -->
<g id="node5" class="node">
<title>SubscriptionLogRepository</title>
<ellipse fill="#fdb462" stroke="black" cx="765" cy="-104" rx="117.58" ry="18"/>
<text text-anchor="middle" x="765" y="-99.8" font-family="Times,serif" font-size="14.00">SubscriptionLogRepository</text>
</g>
<!-- SubscriptionLogRepository&#45;&gt;SubscriptionModule -->
<g id="edge4" class="edge">
<title>SubscriptionLogRepository&#45;&gt;SubscriptionModule</title>
<path fill="none" stroke="black" d="M682.19,-116.84C682.19,-116.84 682.19,-140.52 682.19,-140.52"/>
<polygon fill="black" stroke="black" points="678.69,-140.52 682.19,-150.52 685.69,-140.52 678.69,-140.52"/>
</g>
<!-- SubscriptionService -->
<g id="node6" class="node">
<title>SubscriptionService</title>
<ellipse fill="#fdb462" stroke="black" cx="540" cy="-104" rx="88.62" ry="18"/>
<text text-anchor="middle" x="540" y="-99.8" font-family="Times,serif" font-size="14.00">SubscriptionService</text>
</g>
<!-- SubscriptionService&#45;&gt;SubscriptionModule -->
<g id="edge5" class="edge">
<title>SubscriptionService&#45;&gt;SubscriptionModule</title>
<path fill="none" stroke="black" d="M607.82,-115.62C607.82,-115.62 607.82,-140.85 607.82,-140.85"/>
<polygon fill="black" stroke="black" points="604.32,-140.85 607.82,-150.85 611.32,-140.85 604.32,-140.85"/>
</g>
<!-- UserSubscriptionRepository -->
<g id="node7" class="node">
<title>UserSubscriptionRepository</title>
<ellipse fill="#fdb462" stroke="black" cx="313" cy="-104" rx="120.42" ry="18"/>
<text text-anchor="middle" x="313" y="-99.8" font-family="Times,serif" font-size="14.00">UserSubscriptionRepository</text>
</g>
<!-- UserSubscriptionRepository&#45;&gt;SubscriptionModule -->
<g id="edge6" class="edge">
<title>UserSubscriptionRepository&#45;&gt;SubscriptionModule</title>
<path fill="none" stroke="black" d="M313,-122.02C313,-139.37 313,-163 313,-163 313,-163 576.64,-163 576.64,-163"/>
<polygon fill="black" stroke="black" points="576.64,-166.5 586.64,-163 576.64,-159.5 576.64,-166.5"/>
</g>
<!-- UsersRepository -->
<g id="node8" class="node">
<title>UsersRepository</title>
<ellipse fill="#fdb462" stroke="black" cx="99" cy="-104" rx="75.3" ry="18"/>
<text text-anchor="middle" x="99" y="-99.8" font-family="Times,serif" font-size="14.00">UsersRepository</text>
</g>
<!-- UsersRepository&#45;&gt;SubscriptionModule -->
<g id="edge7" class="edge">
<title>UsersRepository&#45;&gt;SubscriptionModule</title>
<path fill="none" stroke="black" d="M99,-122.28C99,-143.32 99,-175 99,-175 99,-175 576.67,-175 576.67,-175"/>
<polygon fill="black" stroke="black" points="576.67,-178.5 586.67,-175 576.67,-171.5 576.67,-178.5"/>
</g>
</g>
</svg>
