<?xml version="1.0" encoding="UTF-8" standalone="no"?>
<!DOCTYPE svg PUBLIC "-//W3C//DTD SVG 1.1//EN"
 "http://www.w3.org/Graphics/SVG/1.1/DTD/svg11.dtd">
<!-- Generated by graphviz version 2.47.0 (20210316.0004)
 -->
<!-- Title: dependencies Pages: 1 -->
<svg width="504pt" height="211pt"
 viewBox="0.00 0.00 504.00 211.00" xmlns="http://www.w3.org/2000/svg" xmlns:xlink="http://www.w3.org/1999/xlink">
<g id="graph0" class="graph" transform="scale(1 1) rotate(0) translate(4 207)">
<title>dependencies</title>
<polygon fill="white" stroke="transparent" points="-4,4 -4,-207 500,-207 500,4 -4,4"/>
<text text-anchor="start" x="227.01" y="-42.4" font-family="Times-12" font-weight="bold" font-size="14.00">Legend</text>
<polygon fill="#ffffb3" stroke="transparent" points="14,-10 14,-30 34,-30 34,-10 14,-10"/>
<text text-anchor="start" x="37.63" y="-15.4" font-family="Times-12" font-size="14.00"> &#160;Declarations</text>
<polygon fill="#8dd3c7" stroke="transparent" points="127,-10 127,-30 147,-30 147,-10 127,-10"/>
<text text-anchor="start" x="150.73" y="-15.4" font-family="Times-12" font-size="14.00"> &#160;Module</text>
<polygon fill="#80b1d3" stroke="transparent" points="213,-10 213,-30 233,-30 233,-10 213,-10"/>
<text text-anchor="start" x="236.78" y="-15.4" font-family="Times-12" font-size="14.00"> &#160;Bootstrap</text>
<polygon fill="#fdb462" stroke="transparent" points="310,-10 310,-30 330,-30 330,-10 310,-10"/>
<text text-anchor="start" x="333.67" y="-15.4" font-family="Times-12" font-size="14.00"> &#160;Providers</text>
<polygon fill="#fb8072" stroke="transparent" points="406,-10 406,-30 426,-30 426,-10 406,-10"/>
<text text-anchor="start" x="429.73" y="-15.4" font-family="Times-12" font-size="14.00"> &#160;Exports</text>
<g id="clust1" class="cluster">
<title>cluster_PagesModule</title>
<polygon fill="none" stroke="black" stroke-dasharray="1,5" points="88,-70 88,-195 408,-195 408,-70 88,-70"/>
</g>
<g id="clust6" class="cluster">
<title>cluster_PagesModule_providers</title>
<polygon fill="none" stroke="black" points="96,-78 96,-130 400,-130 400,-78 96,-78"/>
</g>
<!-- PageRepository -->
<g id="node1" class="node">
<title>PageRepository</title>
<ellipse fill="#fdb462" stroke="black" cx="320" cy="-104" rx="72.37" ry="18"/>
<text text-anchor="middle" x="320" y="-99.8" font-family="Times,serif" font-size="14.00">PageRepository</text>
</g>
<!-- PagesModule -->
<g id="node3" class="node">
<title>PagesModule</title>
<polygon fill="#8dd3c7" stroke="black" points="289.21,-187 286.21,-191 265.21,-191 262.21,-187 196.79,-187 196.79,-151 289.21,-151 289.21,-187"/>
<text text-anchor="middle" x="243" y="-164.8" font-family="Times,serif" font-size="14.00">PagesModule</text>
</g>
<!-- PageRepository&#45;&gt;PagesModule -->
<g id="edge1" class="edge">
<title>PageRepository&#45;&gt;PagesModule</title>
<path fill="none" stroke="black" d="M268.46,-116.84C268.46,-116.84 268.46,-140.52 268.46,-140.52"/>
<polygon fill="black" stroke="black" points="264.96,-140.52 268.46,-150.52 271.96,-140.52 264.96,-140.52"/>
</g>
<!-- PagesService -->
<g id="node2" class="node">
<title>PagesService</title>
<ellipse fill="#fdb462" stroke="black" cx="167" cy="-104" rx="62.54" ry="18"/>
<text text-anchor="middle" x="167" y="-99.8" font-family="Times,serif" font-size="14.00">PagesService</text>
</g>
<!-- PagesService&#45;&gt;PagesModule -->
<g id="edge2" class="edge">
<title>PagesService&#45;&gt;PagesModule</title>
<path fill="none" stroke="black" d="M213.21,-116.23C213.21,-116.23 213.21,-140.68 213.21,-140.68"/>
<polygon fill="black" stroke="black" points="209.71,-140.68 213.21,-150.68 216.71,-140.68 209.71,-140.68"/>
</g>
</g>
</svg>
