<?xml version="1.0" encoding="UTF-8" standalone="no"?>
<!DOCTYPE svg PUBLIC "-//W3C//DTD SVG 1.1//EN"
 "http://www.w3.org/Graphics/SVG/1.1/DTD/svg11.dtd">
<!-- Generated by graphviz version 2.47.0 (20210316.0004)
 -->
<!-- Title: dependencies Pages: 1 -->
<svg width="3494pt" height="211pt"
 viewBox="0.00 0.00 3494.00 211.00" xmlns="http://www.w3.org/2000/svg" xmlns:xlink="http://www.w3.org/1999/xlink">
<g id="graph0" class="graph" transform="scale(1 1) rotate(0) translate(4 207)">
<title>dependencies</title>
<polygon fill="white" stroke="transparent" points="-4,4 -4,-207 3490,-207 3490,4 -4,4"/>
<text text-anchor="start" x="1722.01" y="-42.4" font-family="Times-12" font-weight="bold" font-size="14.00">Legend</text>
<polygon fill="#ffffb3" stroke="transparent" points="1509,-10 1509,-30 1529,-30 1529,-10 1509,-10"/>
<text text-anchor="start" x="1532.63" y="-15.4" font-family="Times-12" font-size="14.00"> &#160;Declarations</text>
<polygon fill="#8dd3c7" stroke="transparent" points="1622,-10 1622,-30 1642,-30 1642,-10 1622,-10"/>
<text text-anchor="start" x="1645.73" y="-15.4" font-family="Times-12" font-size="14.00"> &#160;Module</text>
<polygon fill="#80b1d3" stroke="transparent" points="1708,-10 1708,-30 1728,-30 1728,-10 1708,-10"/>
<text text-anchor="start" x="1731.78" y="-15.4" font-family="Times-12" font-size="14.00"> &#160;Bootstrap</text>
<polygon fill="#fdb462" stroke="transparent" points="1805,-10 1805,-30 1825,-30 1825,-10 1805,-10"/>
<text text-anchor="start" x="1828.67" y="-15.4" font-family="Times-12" font-size="14.00"> &#160;Providers</text>
<polygon fill="#fb8072" stroke="transparent" points="1901,-10 1901,-30 1921,-30 1921,-10 1901,-10"/>
<text text-anchor="start" x="1924.73" y="-15.4" font-family="Times-12" font-size="14.00"> &#160;Exports</text>
<g id="clust1" class="cluster">
<title>cluster_AdvancePageModule</title>
<polygon fill="none" stroke="black" stroke-dasharray="1,5" points="8,-70 8,-195 3478,-195 3478,-70 8,-70"/>
</g>
<g id="clust6" class="cluster">
<title>cluster_AdvancePageModule_providers</title>
<polygon fill="none" stroke="black" points="16,-78 16,-130 3470,-130 3470,-78 16,-78"/>
</g>
<!-- AgoraHelperService -->
<g id="node1" class="node">
<title>AgoraHelperService</title>
<ellipse fill="#fdb462" stroke="black" cx="3372" cy="-104" rx="90.29" ry="18"/>
<text text-anchor="middle" x="3372" y="-99.8" font-family="Times,serif" font-size="14.00">AgoraHelperService</text>
</g>
<!-- AdvancePageModule -->
<g id="node18" class="node">
<title>AdvancePageModule</title>
<polygon fill="#8dd3c7" stroke="black" points="1895.01,-187 1892.01,-191 1871.01,-191 1868.01,-187 1758.99,-187 1758.99,-151 1895.01,-151 1895.01,-187"/>
<text text-anchor="middle" x="1827" y="-164.8" font-family="Times,serif" font-size="14.00">AdvancePageModule</text>
</g>
<!-- AgoraHelperService&#45;&gt;AdvancePageModule -->
<g id="edge1" class="edge">
<title>AgoraHelperService&#45;&gt;AdvancePageModule</title>
<path fill="none" stroke="black" d="M3372,-122.32C3372,-145.66 3372,-183 3372,-183 3372,-183 1905.38,-183 1905.38,-183"/>
<polygon fill="black" stroke="black" points="1905.38,-179.5 1895.38,-183 1905.38,-186.5 1905.38,-179.5"/>
</g>
<!-- AuthService -->
<g id="node2" class="node">
<title>AuthService</title>
<ellipse fill="#fdb462" stroke="black" cx="3204" cy="-104" rx="59.11" ry="18"/>
<text text-anchor="middle" x="3204" y="-99.8" font-family="Times,serif" font-size="14.00">AuthService</text>
</g>
<!-- AuthService&#45;&gt;AdvancePageModule -->
<g id="edge2" class="edge">
<title>AuthService&#45;&gt;AdvancePageModule</title>
<path fill="none" stroke="black" d="M3204,-122.29C3204,-144.21 3204,-178 3204,-178 3204,-178 1905.29,-178 1905.29,-178"/>
<polygon fill="black" stroke="black" points="1905.29,-174.5 1895.29,-178 1905.29,-181.5 1905.29,-174.5"/>
</g>
<!-- AwsSNSService -->
<g id="node3" class="node">
<title>AwsSNSService</title>
<ellipse fill="#fdb462" stroke="black" cx="3051" cy="-104" rx="75.3" ry="18"/>
<text text-anchor="middle" x="3051" y="-99.8" font-family="Times,serif" font-size="14.00">AwsSNSService</text>
</g>
<!-- AwsSNSService&#45;&gt;AdvancePageModule -->
<g id="edge3" class="edge">
<title>AwsSNSService&#45;&gt;AdvancePageModule</title>
<path fill="none" stroke="black" d="M3051,-122.03C3051,-142.77 3051,-174 3051,-174 3051,-174 1905.43,-174 1905.43,-174"/>
<polygon fill="black" stroke="black" points="1905.43,-170.5 1895.43,-174 1905.43,-177.5 1905.43,-170.5"/>
</g>
<!-- CometChatHelperService -->
<g id="node4" class="node">
<title>CometChatHelperService</title>
<ellipse fill="#fdb462" stroke="black" cx="2847" cy="-104" rx="110.01" ry="18"/>
<text text-anchor="middle" x="2847" y="-99.8" font-family="Times,serif" font-size="14.00">CometChatHelperService</text>
</g>
<!-- CometChatHelperService&#45;&gt;AdvancePageModule -->
<g id="edge4" class="edge">
<title>CometChatHelperService&#45;&gt;AdvancePageModule</title>
<path fill="none" stroke="black" d="M2847,-122.11C2847,-141.34 2847,-169 2847,-169 2847,-169 1905.11,-169 1905.11,-169"/>
<polygon fill="black" stroke="black" points="1905.11,-165.5 1895.11,-169 1905.11,-172.5 1905.11,-165.5"/>
</g>
<!-- DeviceInfoRepository -->
<g id="node5" class="node">
<title>DeviceInfoRepository</title>
<ellipse fill="#fdb462" stroke="black" cx="2622" cy="-104" rx="96.69" ry="18"/>
<text text-anchor="middle" x="2622" y="-99.8" font-family="Times,serif" font-size="14.00">DeviceInfoRepository</text>
</g>
<!-- DeviceInfoRepository&#45;&gt;AdvancePageModule -->
<g id="edge5" class="edge">
<title>DeviceInfoRepository&#45;&gt;AdvancePageModule</title>
<path fill="none" stroke="black" d="M2622,-122.3C2622,-140.27 2622,-165 2622,-165 2622,-165 1905.12,-165 1905.12,-165"/>
<polygon fill="black" stroke="black" points="1905.12,-161.5 1895.12,-165 1905.12,-168.5 1905.12,-161.5"/>
</g>
<!-- DisposableEmailRepository -->
<g id="node6" class="node">
<title>DisposableEmailRepository</title>
<ellipse fill="#fdb462" stroke="black" cx="2388" cy="-104" rx="119.28" ry="18"/>
<text text-anchor="middle" x="2388" y="-99.8" font-family="Times,serif" font-size="14.00">DisposableEmailRepository</text>
</g>
<!-- DisposableEmailRepository&#45;&gt;AdvancePageModule -->
<g id="edge6" class="edge">
<title>DisposableEmailRepository&#45;&gt;AdvancePageModule</title>
<path fill="none" stroke="black" d="M2388,-122.03C2388,-138.4 2388,-160 2388,-160 2388,-160 1905.23,-160 1905.23,-160"/>
<polygon fill="black" stroke="black" points="1905.23,-156.5 1895.23,-160 1905.23,-163.5 1905.23,-156.5"/>
</g>
<!-- EmailService -->
<g id="node7" class="node">
<title>EmailService</title>
<ellipse fill="#fdb462" stroke="black" cx="2188" cy="-104" rx="63.12" ry="18"/>
<text text-anchor="middle" x="2188" y="-99.8" font-family="Times,serif" font-size="14.00">EmailService</text>
</g>
<!-- EmailService&#45;&gt;AdvancePageModule -->
<g id="edge7" class="edge">
<title>EmailService&#45;&gt;AdvancePageModule</title>
<path fill="none" stroke="black" d="M2188,-122.19C2188,-137.18 2188,-156 2188,-156 2188,-156 1905.33,-156 1905.33,-156"/>
<polygon fill="black" stroke="black" points="1905.33,-152.5 1895.33,-156 1905.33,-159.5 1905.33,-152.5"/>
</g>
<!-- IsValidEmailConstraint -->
<g id="node8" class="node">
<title>IsValidEmailConstraint</title>
<ellipse fill="#fdb462" stroke="black" cx="2004" cy="-104" rx="102.52" ry="18"/>
<text text-anchor="middle" x="2004" y="-99.8" font-family="Times,serif" font-size="14.00">IsValidEmailConstraint</text>
</g>
<!-- IsValidEmailConstraint&#45;&gt;AdvancePageModule -->
<g id="edge8" class="edge">
<title>IsValidEmailConstraint&#45;&gt;AdvancePageModule</title>
<path fill="none" stroke="black" d="M1900.85,-104C1893.81,-104 1889.44,-104 1889.44,-104 1889.44,-104 1889.44,-140.89 1889.44,-140.89"/>
<polygon fill="black" stroke="black" points="1885.94,-140.89 1889.44,-150.89 1892.94,-140.89 1885.94,-140.89"/>
</g>
<!-- JwtStrategy -->
<g id="node9" class="node">
<title>JwtStrategy</title>
<ellipse fill="#fdb462" stroke="black" cx="1827" cy="-104" rx="56.76" ry="18"/>
<text text-anchor="middle" x="1827" y="-99.8" font-family="Times,serif" font-size="14.00">JwtStrategy</text>
</g>
<!-- JwtStrategy&#45;&gt;AdvancePageModule -->
<g id="edge9" class="edge">
<title>JwtStrategy&#45;&gt;AdvancePageModule</title>
<path fill="none" stroke="black" d="M1827,-122.11C1827,-122.11 1827,-140.99 1827,-140.99"/>
<polygon fill="black" stroke="black" points="1823.5,-140.99 1827,-150.99 1830.5,-140.99 1823.5,-140.99"/>
</g>
<!-- JwtTokenService -->
<g id="node10" class="node">
<title>JwtTokenService</title>
<ellipse fill="#fdb462" stroke="black" cx="1674" cy="-104" rx="78.15" ry="18"/>
<text text-anchor="middle" x="1674" y="-99.8" font-family="Times,serif" font-size="14.00">JwtTokenService</text>
</g>
<!-- JwtTokenService&#45;&gt;AdvancePageModule -->
<g id="edge10" class="edge">
<title>JwtTokenService&#45;&gt;AdvancePageModule</title>
<path fill="none" stroke="black" d="M1752.34,-104C1759.75,-104 1764.56,-104 1764.56,-104 1764.56,-104 1764.56,-140.89 1764.56,-140.89"/>
<polygon fill="black" stroke="black" points="1761.06,-140.89 1764.56,-150.89 1768.06,-140.89 1761.06,-140.89"/>
</g>
<!-- OTPRequestRepository -->
<g id="node11" class="node">
<title>OTPRequestRepository</title>
<ellipse fill="#fdb462" stroke="black" cx="1475" cy="-104" rx="102.53" ry="18"/>
<text text-anchor="middle" x="1475" y="-99.8" font-family="Times,serif" font-size="14.00">OTPRequestRepository</text>
</g>
<!-- OTPRequestRepository&#45;&gt;AdvancePageModule -->
<g id="edge11" class="edge">
<title>OTPRequestRepository&#45;&gt;AdvancePageModule</title>
<path fill="none" stroke="black" d="M1475,-122.19C1475,-137.18 1475,-156 1475,-156 1475,-156 1748.71,-156 1748.71,-156"/>
<polygon fill="black" stroke="black" points="1748.71,-159.5 1758.71,-156 1748.71,-152.5 1748.71,-159.5"/>
</g>
<!-- PhoneOtpAuthService -->
<g id="node12" class="node">
<title>PhoneOtpAuthService</title>
<ellipse fill="#fdb462" stroke="black" cx="1256" cy="-104" rx="97.86" ry="18"/>
<text text-anchor="middle" x="1256" y="-99.8" font-family="Times,serif" font-size="14.00">PhoneOtpAuthService</text>
</g>
<!-- PhoneOtpAuthService&#45;&gt;AdvancePageModule -->
<g id="edge12" class="edge">
<title>PhoneOtpAuthService&#45;&gt;AdvancePageModule</title>
<path fill="none" stroke="black" d="M1256,-122.03C1256,-138.4 1256,-160 1256,-160 1256,-160 1748.97,-160 1748.97,-160"/>
<polygon fill="black" stroke="black" points="1748.97,-163.5 1758.97,-160 1748.97,-156.5 1748.97,-163.5"/>
</g>
<!-- PushNotificationTokenRepository -->
<g id="node13" class="node">
<title>PushNotificationTokenRepository</title>
<ellipse fill="#fdb462" stroke="black" cx="997" cy="-104" rx="143.56" ry="18"/>
<text text-anchor="middle" x="997" y="-99.8" font-family="Times,serif" font-size="14.00">PushNotificationTokenRepository</text>
</g>
<!-- PushNotificationTokenRepository&#45;&gt;AdvancePageModule -->
<g id="edge13" class="edge">
<title>PushNotificationTokenRepository&#45;&gt;AdvancePageModule</title>
<path fill="none" stroke="black" d="M997,-122.3C997,-140.27 997,-165 997,-165 997,-165 1748.72,-165 1748.72,-165"/>
<polygon fill="black" stroke="black" points="1748.72,-168.5 1758.72,-165 1748.72,-161.5 1748.72,-168.5"/>
</g>
<!-- S3Service -->
<g id="node14" class="node">
<title>S3Service</title>
<ellipse fill="#fdb462" stroke="black" cx="785" cy="-104" rx="50.38" ry="18"/>
<text text-anchor="middle" x="785" y="-99.8" font-family="Times,serif" font-size="14.00">S3Service</text>
</g>
<!-- S3Service&#45;&gt;AdvancePageModule -->
<g id="edge14" class="edge">
<title>S3Service&#45;&gt;AdvancePageModule</title>
<path fill="none" stroke="black" d="M785,-122.11C785,-141.34 785,-169 785,-169 785,-169 1748.63,-169 1748.63,-169"/>
<polygon fill="black" stroke="black" points="1748.63,-172.5 1758.63,-169 1748.63,-165.5 1748.63,-172.5"/>
</g>
<!-- UpdatePhoneNumberRepository -->
<g id="node15" class="node">
<title>UpdatePhoneNumberRepository</title>
<ellipse fill="#fdb462" stroke="black" cx="580" cy="-104" rx="137.17" ry="18"/>
<text text-anchor="middle" x="580" y="-99.8" font-family="Times,serif" font-size="14.00">UpdatePhoneNumberRepository</text>
</g>
<!-- UpdatePhoneNumberRepository&#45;&gt;AdvancePageModule -->
<g id="edge15" class="edge">
<title>UpdatePhoneNumberRepository&#45;&gt;AdvancePageModule</title>
<path fill="none" stroke="black" d="M580,-122.03C580,-142.77 580,-174 580,-174 580,-174 1748.63,-174 1748.63,-174"/>
<polygon fill="black" stroke="black" points="1748.63,-177.5 1758.63,-174 1748.63,-170.5 1748.63,-177.5"/>
</g>
<!-- UserTokenMetaRepository -->
<g id="node16" class="node">
<title>UserTokenMetaRepository</title>
<ellipse fill="#fdb462" stroke="black" cx="309" cy="-104" rx="116.31" ry="18"/>
<text text-anchor="middle" x="309" y="-99.8" font-family="Times,serif" font-size="14.00">UserTokenMetaRepository</text>
</g>
<!-- UserTokenMetaRepository&#45;&gt;AdvancePageModule -->
<g id="edge16" class="edge">
<title>UserTokenMetaRepository&#45;&gt;AdvancePageModule</title>
<path fill="none" stroke="black" d="M309,-122.29C309,-144.21 309,-178 309,-178 309,-178 1748.83,-178 1748.83,-178"/>
<polygon fill="black" stroke="black" points="1748.83,-181.5 1758.83,-178 1748.83,-174.5 1748.83,-181.5"/>
</g>
<!-- UsersRepository -->
<g id="node17" class="node">
<title>UsersRepository</title>
<ellipse fill="#fdb462" stroke="black" cx="99" cy="-104" rx="75.3" ry="18"/>
<text text-anchor="middle" x="99" y="-99.8" font-family="Times,serif" font-size="14.00">UsersRepository</text>
</g>
<!-- UsersRepository&#45;&gt;AdvancePageModule -->
<g id="edge17" class="edge">
<title>UsersRepository&#45;&gt;AdvancePageModule</title>
<path fill="none" stroke="black" d="M99,-122.32C99,-145.66 99,-183 99,-183 99,-183 1748.73,-183 1748.73,-183"/>
<polygon fill="black" stroke="black" points="1748.73,-186.5 1758.73,-183 1748.73,-179.5 1748.73,-186.5"/>
</g>
</g>
</svg>
