<?xml version="1.0" encoding="UTF-8" standalone="no"?>
<!DOCTYPE svg PUBLIC "-//W3C//DTD SVG 1.1//EN"
 "http://www.w3.org/Graphics/SVG/1.1/DTD/svg11.dtd">
<!-- Generated by graphviz version 2.47.0 (20210316.0004)
 -->
<!-- Title: dependencies Pages: 1 -->
<svg width="4003pt" height="284pt"
 viewBox="0.00 0.00 4003.00 284.00" xmlns="http://www.w3.org/2000/svg" xmlns:xlink="http://www.w3.org/1999/xlink">
<g id="graph0" class="graph" transform="scale(1 1) rotate(0) translate(4 280)">
<title>dependencies</title>
<polygon fill="white" stroke="transparent" points="-4,4 -4,-280 3999,-280 3999,4 -4,4"/>
<text text-anchor="start" x="1976.51" y="-42.4" font-family="Times-12" font-weight="bold" font-size="14.00">Legend</text>
<polygon fill="#ffffb3" stroke="transparent" points="1763.5,-10 1763.5,-30 1783.5,-30 1783.5,-10 1763.5,-10"/>
<text text-anchor="start" x="1787.13" y="-15.4" font-family="Times-12" font-size="14.00"> &#160;Declarations</text>
<polygon fill="#8dd3c7" stroke="transparent" points="1876.5,-10 1876.5,-30 1896.5,-30 1896.5,-10 1876.5,-10"/>
<text text-anchor="start" x="1900.23" y="-15.4" font-family="Times-12" font-size="14.00"> &#160;Module</text>
<polygon fill="#80b1d3" stroke="transparent" points="1962.5,-10 1962.5,-30 1982.5,-30 1982.5,-10 1962.5,-10"/>
<text text-anchor="start" x="1986.28" y="-15.4" font-family="Times-12" font-size="14.00"> &#160;Bootstrap</text>
<polygon fill="#fdb462" stroke="transparent" points="2059.5,-10 2059.5,-30 2079.5,-30 2079.5,-10 2059.5,-10"/>
<text text-anchor="start" x="2083.17" y="-15.4" font-family="Times-12" font-size="14.00"> &#160;Providers</text>
<polygon fill="#fb8072" stroke="transparent" points="2155.5,-10 2155.5,-30 2175.5,-30 2175.5,-10 2155.5,-10"/>
<text text-anchor="start" x="2179.23" y="-15.4" font-family="Times-12" font-size="14.00"> &#160;Exports</text>
<g id="clust1" class="cluster">
<title>cluster_AuthModule</title>
<polygon fill="none" stroke="black" stroke-dasharray="1,5" points="8,-70 8,-268 3987,-268 3987,-70 8,-70"/>
</g>
<g id="clust4" class="cluster">
<title>cluster_AuthModule_exports</title>
<polygon fill="none" stroke="black" points="2135,-208 2135,-260 2241,-260 2241,-208 2135,-208"/>
</g>
<g id="clust3" class="cluster">
<title>cluster_AuthModule_imports</title>
<polygon fill="none" stroke="black" points="3478,-78 3478,-130 3979,-130 3979,-78 3478,-78"/>
</g>
<g id="clust6" class="cluster">
<title>cluster_AuthModule_providers</title>
<polygon fill="none" stroke="black" points="16,-78 16,-130 3470,-130 3470,-78 16,-78"/>
</g>
<!-- AuthenticationModule -->
<g id="node1" class="node">
<title>AuthenticationModule</title>
<polygon fill="#8dd3c7" stroke="black" points="3971.25,-122 3968.25,-126 3947.25,-126 3944.25,-122 3828.75,-122 3828.75,-86 3971.25,-86 3971.25,-122"/>
<text text-anchor="middle" x="3900" y="-99.8" font-family="Times,serif" font-size="14.00">AuthenticationModule</text>
</g>
<!-- AuthModule -->
<g id="node5" class="node">
<title>AuthModule</title>
<polygon fill="#8dd3c7" stroke="black" points="2231.55,-187 2228.55,-191 2207.55,-191 2204.55,-187 2144.45,-187 2144.45,-151 2231.55,-151 2231.55,-187"/>
<text text-anchor="middle" x="2188" y="-164.8" font-family="Times,serif" font-size="14.00">AuthModule</text>
</g>
<!-- AuthenticationModule&#45;&gt;AuthModule -->
<g id="edge1" class="edge">
<title>AuthenticationModule&#45;&gt;AuthModule</title>
<path fill="none" stroke="black" d="M3900,-122.15C3900,-145.76 3900,-184 3900,-184 3900,-184 2241.61,-184 2241.61,-184"/>
<polygon fill="black" stroke="black" points="2241.61,-180.5 2231.61,-184 2241.61,-187.5 2241.61,-180.5"/>
</g>
<!-- AwsModule -->
<g id="node2" class="node">
<title>AwsModule</title>
<polygon fill="#8dd3c7" stroke="black" points="3810.71,-122 3807.71,-126 3786.71,-126 3783.71,-122 3725.29,-122 3725.29,-86 3810.71,-86 3810.71,-122"/>
<text text-anchor="middle" x="3768" y="-99.8" font-family="Times,serif" font-size="14.00">AwsModule</text>
</g>
<!-- AwsModule&#45;&gt;AuthModule -->
<g id="edge2" class="edge">
<title>AwsModule&#45;&gt;AuthModule</title>
<path fill="none" stroke="black" d="M3768,-122.25C3768,-145.02 3768,-181 3768,-181 3768,-181 2241.91,-181 2241.91,-181"/>
<polygon fill="black" stroke="black" points="2241.91,-177.5 2231.91,-181 2241.91,-184.5 2241.91,-177.5"/>
</g>
<!-- OtpModule -->
<g id="node3" class="node">
<title>OtpModule</title>
<polygon fill="#8dd3c7" stroke="black" points="3707.05,-122 3704.05,-126 3683.05,-126 3680.05,-122 3626.95,-122 3626.95,-86 3707.05,-86 3707.05,-122"/>
<text text-anchor="middle" x="3667" y="-99.8" font-family="Times,serif" font-size="14.00">OtpModule</text>
</g>
<!-- OtpModule&#45;&gt;AuthModule -->
<g id="edge3" class="edge">
<title>OtpModule&#45;&gt;AuthModule</title>
<path fill="none" stroke="black" d="M3667,-122.29C3667,-144.21 3667,-178 3667,-178 3667,-178 2241.86,-178 2241.86,-178"/>
<polygon fill="black" stroke="black" points="2241.86,-174.5 2231.86,-178 2241.86,-181.5 2241.86,-174.5"/>
</g>
<!-- SocialAuthModule -->
<g id="node4" class="node">
<title>SocialAuthModule</title>
<polygon fill="#8dd3c7" stroke="black" points="3608.04,-122 3605.04,-126 3584.04,-126 3581.04,-122 3485.96,-122 3485.96,-86 3608.04,-86 3608.04,-122"/>
<text text-anchor="middle" x="3547" y="-99.8" font-family="Times,serif" font-size="14.00">SocialAuthModule</text>
</g>
<!-- SocialAuthModule&#45;&gt;AuthModule -->
<g id="edge4" class="edge">
<title>SocialAuthModule&#45;&gt;AuthModule</title>
<path fill="none" stroke="black" d="M3547,-122.03C3547,-142.77 3547,-174 3547,-174 3547,-174 2241.68,-174 2241.68,-174"/>
<polygon fill="black" stroke="black" points="2241.68,-170.5 2231.68,-174 2241.68,-177.5 2241.68,-170.5"/>
</g>
<!-- AuthService  -->
<g id="node6" class="node">
<title>AuthService </title>
<polygon fill="#fb8072" stroke="black" points="2232.98,-252 2143.02,-252 2143.02,-216 2232.98,-216 2232.98,-252"/>
<text text-anchor="middle" x="2188" y="-229.8" font-family="Times,serif" font-size="14.00">AuthService </text>
</g>
<!-- AuthModule&#45;&gt;AuthService  -->
<g id="edge5" class="edge">
<title>AuthModule&#45;&gt;AuthService </title>
<path fill="none" stroke="black" stroke-dasharray="5,2" d="M2188,-187.11C2188,-187.11 2188,-205.99 2188,-205.99"/>
<polygon fill="black" stroke="black" points="2184.5,-205.99 2188,-215.99 2191.5,-205.99 2184.5,-205.99"/>
</g>
<!-- AgoraHelperService -->
<g id="node7" class="node">
<title>AgoraHelperService</title>
<ellipse fill="#fdb462" stroke="black" cx="3372" cy="-104" rx="90.29" ry="18"/>
<text text-anchor="middle" x="3372" y="-99.8" font-family="Times,serif" font-size="14.00">AgoraHelperService</text>
</g>
<!-- AgoraHelperService&#45;&gt;AuthModule -->
<g id="edge6" class="edge">
<title>AgoraHelperService&#45;&gt;AuthModule</title>
<path fill="none" stroke="black" d="M3372,-122.31C3372,-142.15 3372,-171 3372,-171 3372,-171 2241.9,-171 2241.9,-171"/>
<polygon fill="black" stroke="black" points="2241.9,-167.5 2231.9,-171 2241.9,-174.5 2241.9,-167.5"/>
</g>
<!-- AuthService -->
<g id="node8" class="node">
<title>AuthService</title>
<ellipse fill="#fdb462" stroke="black" cx="3204" cy="-104" rx="59.11" ry="18"/>
<text text-anchor="middle" x="3204" y="-99.8" font-family="Times,serif" font-size="14.00">AuthService</text>
</g>
<!-- AuthService&#45;&gt;AuthModule -->
<g id="edge7" class="edge">
<title>AuthService&#45;&gt;AuthModule</title>
<path fill="none" stroke="black" d="M3204,-122.17C3204,-141.09 3204,-168 3204,-168 3204,-168 2241.66,-168 2241.66,-168"/>
<polygon fill="black" stroke="black" points="2241.66,-164.5 2231.66,-168 2241.66,-171.5 2241.66,-164.5"/>
</g>
<!-- AwsSNSService -->
<g id="node9" class="node">
<title>AwsSNSService</title>
<ellipse fill="#fdb462" stroke="black" cx="3051" cy="-104" rx="75.3" ry="18"/>
<text text-anchor="middle" x="3051" y="-99.8" font-family="Times,serif" font-size="14.00">AwsSNSService</text>
</g>
<!-- AwsSNSService&#45;&gt;AuthModule -->
<g id="edge8" class="edge">
<title>AwsSNSService&#45;&gt;AuthModule</title>
<path fill="none" stroke="black" d="M3051,-122.3C3051,-140.27 3051,-165 3051,-165 3051,-165 2241.68,-165 2241.68,-165"/>
<polygon fill="black" stroke="black" points="2241.68,-161.5 2231.68,-165 2241.68,-168.5 2241.68,-161.5"/>
</g>
<!-- CometChatHelperService -->
<g id="node10" class="node">
<title>CometChatHelperService</title>
<ellipse fill="#fdb462" stroke="black" cx="2847" cy="-104" rx="110.01" ry="18"/>
<text text-anchor="middle" x="2847" y="-99.8" font-family="Times,serif" font-size="14.00">CometChatHelperService</text>
</g>
<!-- CometChatHelperService&#45;&gt;AuthModule -->
<g id="edge9" class="edge">
<title>CometChatHelperService&#45;&gt;AuthModule</title>
<path fill="none" stroke="black" d="M2847,-122.04C2847,-138.73 2847,-161 2847,-161 2847,-161 2241.75,-161 2241.75,-161"/>
<polygon fill="black" stroke="black" points="2241.75,-157.5 2231.75,-161 2241.75,-164.5 2241.75,-157.5"/>
</g>
<!-- DeviceInfoRepository -->
<g id="node11" class="node">
<title>DeviceInfoRepository</title>
<ellipse fill="#fdb462" stroke="black" cx="2622" cy="-104" rx="96.69" ry="18"/>
<text text-anchor="middle" x="2622" y="-99.8" font-family="Times,serif" font-size="14.00">DeviceInfoRepository</text>
</g>
<!-- DeviceInfoRepository&#45;&gt;AuthModule -->
<g id="edge10" class="edge">
<title>DeviceInfoRepository&#45;&gt;AuthModule</title>
<path fill="none" stroke="black" d="M2622,-122.28C2622,-137.95 2622,-158 2622,-158 2622,-158 2241.6,-158 2241.6,-158"/>
<polygon fill="black" stroke="black" points="2241.6,-154.5 2231.6,-158 2241.6,-161.5 2241.6,-154.5"/>
</g>
<!-- DisposableEmailRepository -->
<g id="node12" class="node">
<title>DisposableEmailRepository</title>
<ellipse fill="#fdb462" stroke="black" cx="2388" cy="-104" rx="119.28" ry="18"/>
<text text-anchor="middle" x="2388" y="-99.8" font-family="Times,serif" font-size="14.00">DisposableEmailRepository</text>
</g>
<!-- DisposableEmailRepository&#45;&gt;AuthModule -->
<g id="edge11" class="edge">
<title>DisposableEmailRepository&#45;&gt;AuthModule</title>
<path fill="none" stroke="black" d="M2388,-122.12C2388,-136.78 2388,-155 2388,-155 2388,-155 2241.89,-155 2241.89,-155"/>
<polygon fill="black" stroke="black" points="2241.89,-151.5 2231.89,-155 2241.89,-158.5 2241.89,-151.5"/>
</g>
<!-- EmailService -->
<g id="node13" class="node">
<title>EmailService</title>
<ellipse fill="#fdb462" stroke="black" cx="2188" cy="-104" rx="63.12" ry="18"/>
<text text-anchor="middle" x="2188" y="-99.8" font-family="Times,serif" font-size="14.00">EmailService</text>
</g>
<!-- EmailService&#45;&gt;AuthModule -->
<g id="edge12" class="edge">
<title>EmailService&#45;&gt;AuthModule</title>
<path fill="none" stroke="black" d="M2188,-122.11C2188,-122.11 2188,-140.99 2188,-140.99"/>
<polygon fill="black" stroke="black" points="2184.5,-140.99 2188,-150.99 2191.5,-140.99 2184.5,-140.99"/>
</g>
<!-- IsValidEmailConstraint -->
<g id="node14" class="node">
<title>IsValidEmailConstraint</title>
<ellipse fill="#fdb462" stroke="black" cx="2004" cy="-104" rx="102.52" ry="18"/>
<text text-anchor="middle" x="2004" y="-99.8" font-family="Times,serif" font-size="14.00">IsValidEmailConstraint</text>
</g>
<!-- IsValidEmailConstraint&#45;&gt;AuthModule -->
<g id="edge13" class="edge">
<title>IsValidEmailConstraint&#45;&gt;AuthModule</title>
<path fill="none" stroke="black" d="M2004,-122.12C2004,-136.78 2004,-155 2004,-155 2004,-155 2134.39,-155 2134.39,-155"/>
<polygon fill="black" stroke="black" points="2134.39,-158.5 2144.39,-155 2134.39,-151.5 2134.39,-158.5"/>
</g>
<!-- JwtStrategy -->
<g id="node15" class="node">
<title>JwtStrategy</title>
<ellipse fill="#fdb462" stroke="black" cx="1827" cy="-104" rx="56.76" ry="18"/>
<text text-anchor="middle" x="1827" y="-99.8" font-family="Times,serif" font-size="14.00">JwtStrategy</text>
</g>
<!-- JwtStrategy&#45;&gt;AuthModule -->
<g id="edge14" class="edge">
<title>JwtStrategy&#45;&gt;AuthModule</title>
<path fill="none" stroke="black" d="M1827,-122.28C1827,-137.95 1827,-158 1827,-158 1827,-158 2134.1,-158 2134.1,-158"/>
<polygon fill="black" stroke="black" points="2134.1,-161.5 2144.1,-158 2134.1,-154.5 2134.1,-161.5"/>
</g>
<!-- JwtTokenService -->
<g id="node16" class="node">
<title>JwtTokenService</title>
<ellipse fill="#fdb462" stroke="black" cx="1674" cy="-104" rx="78.15" ry="18"/>
<text text-anchor="middle" x="1674" y="-99.8" font-family="Times,serif" font-size="14.00">JwtTokenService</text>
</g>
<!-- JwtTokenService&#45;&gt;AuthModule -->
<g id="edge15" class="edge">
<title>JwtTokenService&#45;&gt;AuthModule</title>
<path fill="none" stroke="black" d="M1674,-122.04C1674,-138.73 1674,-161 1674,-161 1674,-161 2134.18,-161 2134.18,-161"/>
<polygon fill="black" stroke="black" points="2134.18,-164.5 2144.18,-161 2134.18,-157.5 2134.18,-164.5"/>
</g>
<!-- OTPRequestRepository -->
<g id="node17" class="node">
<title>OTPRequestRepository</title>
<ellipse fill="#fdb462" stroke="black" cx="1475" cy="-104" rx="102.53" ry="18"/>
<text text-anchor="middle" x="1475" y="-99.8" font-family="Times,serif" font-size="14.00">OTPRequestRepository</text>
</g>
<!-- OTPRequestRepository&#45;&gt;AuthModule -->
<g id="edge16" class="edge">
<title>OTPRequestRepository&#45;&gt;AuthModule</title>
<path fill="none" stroke="black" d="M1475,-122.3C1475,-140.27 1475,-165 1475,-165 1475,-165 2134.2,-165 2134.2,-165"/>
<polygon fill="black" stroke="black" points="2134.2,-168.5 2144.2,-165 2134.2,-161.5 2134.2,-168.5"/>
</g>
<!-- PhoneOtpAuthService -->
<g id="node18" class="node">
<title>PhoneOtpAuthService</title>
<ellipse fill="#fdb462" stroke="black" cx="1256" cy="-104" rx="97.86" ry="18"/>
<text text-anchor="middle" x="1256" y="-99.8" font-family="Times,serif" font-size="14.00">PhoneOtpAuthService</text>
</g>
<!-- PhoneOtpAuthService&#45;&gt;AuthModule -->
<g id="edge17" class="edge">
<title>PhoneOtpAuthService&#45;&gt;AuthModule</title>
<path fill="none" stroke="black" d="M1256,-122.17C1256,-141.09 1256,-168 1256,-168 1256,-168 2134.3,-168 2134.3,-168"/>
<polygon fill="black" stroke="black" points="2134.3,-171.5 2144.3,-168 2134.3,-164.5 2134.3,-171.5"/>
</g>
<!-- PushNotificationTokenRepository -->
<g id="node19" class="node">
<title>PushNotificationTokenRepository</title>
<ellipse fill="#fdb462" stroke="black" cx="997" cy="-104" rx="143.56" ry="18"/>
<text text-anchor="middle" x="997" y="-99.8" font-family="Times,serif" font-size="14.00">PushNotificationTokenRepository</text>
</g>
<!-- PushNotificationTokenRepository&#45;&gt;AuthModule -->
<g id="edge18" class="edge">
<title>PushNotificationTokenRepository&#45;&gt;AuthModule</title>
<path fill="none" stroke="black" d="M997,-122.31C997,-142.15 997,-171 997,-171 997,-171 2134.2,-171 2134.2,-171"/>
<polygon fill="black" stroke="black" points="2134.2,-174.5 2144.2,-171 2134.2,-167.5 2134.2,-174.5"/>
</g>
<!-- S3Service -->
<g id="node20" class="node">
<title>S3Service</title>
<ellipse fill="#fdb462" stroke="black" cx="785" cy="-104" rx="50.38" ry="18"/>
<text text-anchor="middle" x="785" y="-99.8" font-family="Times,serif" font-size="14.00">S3Service</text>
</g>
<!-- S3Service&#45;&gt;AuthModule -->
<g id="edge19" class="edge">
<title>S3Service&#45;&gt;AuthModule</title>
<path fill="none" stroke="black" d="M785,-122.03C785,-142.77 785,-174 785,-174 785,-174 2134.08,-174 2134.08,-174"/>
<polygon fill="black" stroke="black" points="2134.08,-177.5 2144.08,-174 2134.08,-170.5 2134.08,-177.5"/>
</g>
<!-- UpdatePhoneNumberRepository -->
<g id="node21" class="node">
<title>UpdatePhoneNumberRepository</title>
<ellipse fill="#fdb462" stroke="black" cx="580" cy="-104" rx="137.17" ry="18"/>
<text text-anchor="middle" x="580" y="-99.8" font-family="Times,serif" font-size="14.00">UpdatePhoneNumberRepository</text>
</g>
<!-- UpdatePhoneNumberRepository&#45;&gt;AuthModule -->
<g id="edge20" class="edge">
<title>UpdatePhoneNumberRepository&#45;&gt;AuthModule</title>
<path fill="none" stroke="black" d="M580,-122.29C580,-144.21 580,-178 580,-178 580,-178 2134.16,-178 2134.16,-178"/>
<polygon fill="black" stroke="black" points="2134.16,-181.5 2144.16,-178 2134.16,-174.5 2134.16,-181.5"/>
</g>
<!-- UserTokenMetaRepository -->
<g id="node22" class="node">
<title>UserTokenMetaRepository</title>
<ellipse fill="#fdb462" stroke="black" cx="309" cy="-104" rx="116.31" ry="18"/>
<text text-anchor="middle" x="309" y="-99.8" font-family="Times,serif" font-size="14.00">UserTokenMetaRepository</text>
</g>
<!-- UserTokenMetaRepository&#45;&gt;AuthModule -->
<g id="edge21" class="edge">
<title>UserTokenMetaRepository&#45;&gt;AuthModule</title>
<path fill="none" stroke="black" d="M309,-122.25C309,-145.02 309,-181 309,-181 309,-181 2134.32,-181 2134.32,-181"/>
<polygon fill="black" stroke="black" points="2134.32,-184.5 2144.32,-181 2134.32,-177.5 2134.32,-184.5"/>
</g>
<!-- UsersRepository -->
<g id="node23" class="node">
<title>UsersRepository</title>
<ellipse fill="#fdb462" stroke="black" cx="99" cy="-104" rx="75.3" ry="18"/>
<text text-anchor="middle" x="99" y="-99.8" font-family="Times,serif" font-size="14.00">UsersRepository</text>
</g>
<!-- UsersRepository&#45;&gt;AuthModule -->
<g id="edge22" class="edge">
<title>UsersRepository&#45;&gt;AuthModule</title>
<path fill="none" stroke="black" d="M99,-122.15C99,-145.76 99,-184 99,-184 99,-184 2134.37,-184 2134.37,-184"/>
<polygon fill="black" stroke="black" points="2134.37,-187.5 2144.37,-184 2134.37,-180.5 2134.37,-187.5"/>
</g>
</g>
</svg>
