<?xml version="1.0" encoding="UTF-8" standalone="no"?>
<!DOCTYPE svg PUBLIC "-//W3C//DTD SVG 1.1//EN"
 "http://www.w3.org/Graphics/SVG/1.1/DTD/svg11.dtd">
<!-- Generated by graphviz version 2.47.0 (20210316.0004)
 -->
<!-- Title: dependencies Pages: 1 -->
<svg width="504pt" height="284pt"
 viewBox="0.00 0.00 504.00 284.00" xmlns="http://www.w3.org/2000/svg" xmlns:xlink="http://www.w3.org/1999/xlink">
<g id="graph0" class="graph" transform="scale(1 1) rotate(0) translate(4 280)">
<title>dependencies</title>
<polygon fill="white" stroke="transparent" points="-4,4 -4,-280 500,-280 500,4 -4,4"/>
<text text-anchor="start" x="227.01" y="-42.4" font-family="Times-12" font-weight="bold" font-size="14.00">Legend</text>
<polygon fill="#ffffb3" stroke="transparent" points="14,-10 14,-30 34,-30 34,-10 14,-10"/>
<text text-anchor="start" x="37.63" y="-15.4" font-family="Times-12" font-size="14.00"> &#160;Declarations</text>
<polygon fill="#8dd3c7" stroke="transparent" points="127,-10 127,-30 147,-30 147,-10 127,-10"/>
<text text-anchor="start" x="150.73" y="-15.4" font-family="Times-12" font-size="14.00"> &#160;Module</text>
<polygon fill="#80b1d3" stroke="transparent" points="213,-10 213,-30 233,-30 233,-10 213,-10"/>
<text text-anchor="start" x="236.78" y="-15.4" font-family="Times-12" font-size="14.00"> &#160;Bootstrap</text>
<polygon fill="#fdb462" stroke="transparent" points="310,-10 310,-30 330,-30 330,-10 310,-10"/>
<text text-anchor="start" x="333.67" y="-15.4" font-family="Times-12" font-size="14.00"> &#160;Providers</text>
<polygon fill="#fb8072" stroke="transparent" points="406,-10 406,-30 426,-30 426,-10 406,-10"/>
<text text-anchor="start" x="429.73" y="-15.4" font-family="Times-12" font-size="14.00"> &#160;Exports</text>
<g id="clust1" class="cluster">
<title>cluster_ContactsDataModule</title>
<polygon fill="none" stroke="black" stroke-dasharray="1,5" points="60.5,-70 60.5,-268 435.5,-268 435.5,-70 60.5,-70"/>
</g>
<g id="clust4" class="cluster">
<title>cluster_ContactsDataModule_exports</title>
<polygon fill="none" stroke="black" points="77.5,-208 77.5,-260 353.5,-260 353.5,-208 77.5,-208"/>
</g>
<g id="clust6" class="cluster">
<title>cluster_ContactsDataModule_providers</title>
<polygon fill="none" stroke="black" points="68.5,-78 68.5,-130 427.5,-130 427.5,-78 68.5,-78"/>
</g>
<!-- ContactsRepository  -->
<g id="node1" class="node">
<title>ContactsRepository </title>
<polygon fill="#fb8072" stroke="black" points="345.43,-252 215.57,-252 215.57,-216 345.43,-216 345.43,-252"/>
<text text-anchor="middle" x="280.5" y="-229.8" font-family="Times,serif" font-size="14.00">ContactsRepository </text>
</g>
<!-- UsersRepository  -->
<g id="node2" class="node">
<title>UsersRepository </title>
<polygon fill="#fb8072" stroke="black" points="197.81,-252 85.19,-252 85.19,-216 197.81,-216 197.81,-252"/>
<text text-anchor="middle" x="141.5" y="-229.8" font-family="Times,serif" font-size="14.00">UsersRepository </text>
</g>
<!-- ContactsDataModule -->
<g id="node3" class="node">
<title>ContactsDataModule</title>
<polygon fill="#8dd3c7" stroke="black" points="282.97,-187 279.97,-191 258.97,-191 255.97,-187 148.03,-187 148.03,-151 282.97,-151 282.97,-187"/>
<text text-anchor="middle" x="215.5" y="-164.8" font-family="Times,serif" font-size="14.00">ContactsDataModule</text>
</g>
<!-- ContactsDataModule&#45;&gt;ContactsRepository  -->
<g id="edge1" class="edge">
<title>ContactsDataModule&#45;&gt;ContactsRepository </title>
<path fill="none" stroke="black" stroke-dasharray="5,2" d="M249.26,-187.11C249.26,-187.11 249.26,-205.99 249.26,-205.99"/>
<polygon fill="black" stroke="black" points="245.76,-205.99 249.26,-215.99 252.76,-205.99 245.76,-205.99"/>
</g>
<!-- ContactsDataModule&#45;&gt;UsersRepository  -->
<g id="edge2" class="edge">
<title>ContactsDataModule&#45;&gt;UsersRepository </title>
<path fill="none" stroke="black" stroke-dasharray="5,2" d="M172.96,-187.11C172.96,-187.11 172.96,-205.99 172.96,-205.99"/>
<polygon fill="black" stroke="black" points="169.46,-205.99 172.96,-215.99 176.46,-205.99 169.46,-205.99"/>
</g>
<!-- ContactsRepository -->
<g id="node4" class="node">
<title>ContactsRepository</title>
<ellipse fill="#fdb462" stroke="black" cx="332.5" cy="-104" rx="87.42" ry="18"/>
<text text-anchor="middle" x="332.5" y="-99.8" font-family="Times,serif" font-size="14.00">ContactsRepository</text>
</g>
<!-- ContactsRepository&#45;&gt;ContactsDataModule -->
<g id="edge3" class="edge">
<title>ContactsRepository&#45;&gt;ContactsDataModule</title>
<path fill="none" stroke="black" d="M264.14,-115.32C264.14,-115.32 264.14,-140.94 264.14,-140.94"/>
<polygon fill="black" stroke="black" points="260.64,-140.94 264.14,-150.94 267.64,-140.94 260.64,-140.94"/>
</g>
<!-- UsersRepository -->
<g id="node5" class="node">
<title>UsersRepository</title>
<ellipse fill="#fdb462" stroke="black" cx="151.5" cy="-104" rx="75.3" ry="18"/>
<text text-anchor="middle" x="151.5" y="-99.8" font-family="Times,serif" font-size="14.00">UsersRepository</text>
</g>
<!-- UsersRepository&#45;&gt;ContactsDataModule -->
<g id="edge4" class="edge">
<title>UsersRepository&#45;&gt;ContactsDataModule</title>
<path fill="none" stroke="black" d="M187.46,-120.07C187.46,-120.07 187.46,-140.82 187.46,-140.82"/>
<polygon fill="black" stroke="black" points="183.96,-140.82 187.46,-150.82 190.96,-140.82 183.96,-140.82"/>
</g>
</g>
</svg>
