<?xml version="1.0" encoding="UTF-8" standalone="no"?>
<!DOCTYPE svg PUBLIC "-//W3C//DTD SVG 1.1//EN"
 "http://www.w3.org/Graphics/SVG/1.1/DTD/svg11.dtd">
<!-- Generated by graphviz version 2.47.0 (20210316.0004)
 -->
<!-- Title: dependencies Pages: 1 -->
<svg width="1150pt" height="211pt"
 viewBox="0.00 0.00 1150.00 211.00" xmlns="http://www.w3.org/2000/svg" xmlns:xlink="http://www.w3.org/1999/xlink">
<g id="graph0" class="graph" transform="scale(1 1) rotate(0) translate(4 207)">
<title>dependencies</title>
<polygon fill="white" stroke="transparent" points="-4,4 -4,-207 1146,-207 1146,4 -4,4"/>
<text text-anchor="start" x="550.01" y="-42.4" font-family="Times-12" font-weight="bold" font-size="14.00">Legend</text>
<polygon fill="#ffffb3" stroke="transparent" points="337,-10 337,-30 357,-30 357,-10 337,-10"/>
<text text-anchor="start" x="360.63" y="-15.4" font-family="Times-12" font-size="14.00"> &#160;Declarations</text>
<polygon fill="#8dd3c7" stroke="transparent" points="450,-10 450,-30 470,-30 470,-10 450,-10"/>
<text text-anchor="start" x="473.73" y="-15.4" font-family="Times-12" font-size="14.00"> &#160;Module</text>
<polygon fill="#80b1d3" stroke="transparent" points="536,-10 536,-30 556,-30 556,-10 536,-10"/>
<text text-anchor="start" x="559.78" y="-15.4" font-family="Times-12" font-size="14.00"> &#160;Bootstrap</text>
<polygon fill="#fdb462" stroke="transparent" points="633,-10 633,-30 653,-30 653,-10 633,-10"/>
<text text-anchor="start" x="656.67" y="-15.4" font-family="Times-12" font-size="14.00"> &#160;Providers</text>
<polygon fill="#fb8072" stroke="transparent" points="729,-10 729,-30 749,-30 749,-10 729,-10"/>
<text text-anchor="start" x="752.73" y="-15.4" font-family="Times-12" font-size="14.00"> &#160;Exports</text>
<g id="clust1" class="cluster">
<title>cluster_FeedRepliesModule</title>
<polygon fill="none" stroke="black" stroke-dasharray="1,5" points="8,-70 8,-195 1134,-195 1134,-70 8,-70"/>
</g>
<g id="clust6" class="cluster">
<title>cluster_FeedRepliesModule_providers</title>
<polygon fill="none" stroke="black" points="132,-78 132,-130 1126,-130 1126,-78 132,-78"/>
</g>
<g id="clust3" class="cluster">
<title>cluster_FeedRepliesModule_imports</title>
<polygon fill="none" stroke="black" points="16,-78 16,-130 124,-130 124,-78 16,-78"/>
</g>
<!-- UsersModule -->
<g id="node1" class="node">
<title>UsersModule</title>
<polygon fill="#8dd3c7" stroke="black" points="115.92,-122 112.92,-126 91.92,-126 88.92,-122 24.08,-122 24.08,-86 115.92,-86 115.92,-122"/>
<text text-anchor="middle" x="70" y="-99.8" font-family="Times,serif" font-size="14.00">UsersModule</text>
</g>
<!-- FeedRepliesModule -->
<g id="node2" class="node">
<title>FeedRepliesModule</title>
<polygon fill="#8dd3c7" stroke="black" points="562.25,-187 559.25,-191 538.25,-191 535.25,-187 433.75,-187 433.75,-151 562.25,-151 562.25,-187"/>
<text text-anchor="middle" x="498" y="-164.8" font-family="Times,serif" font-size="14.00">FeedRepliesModule</text>
</g>
<!-- UsersModule&#45;&gt;FeedRepliesModule -->
<g id="edge1" class="edge">
<title>UsersModule&#45;&gt;FeedRepliesModule</title>
<path fill="none" stroke="black" d="M70,-122.28C70,-143.32 70,-175 70,-175 70,-175 423.46,-175 423.46,-175"/>
<polygon fill="black" stroke="black" points="423.46,-178.5 433.46,-175 423.46,-171.5 423.46,-178.5"/>
</g>
<!-- FeedCommentRepository -->
<g id="node3" class="node">
<title>FeedCommentRepository</title>
<ellipse fill="#fdb462" stroke="black" cx="1008" cy="-104" rx="110.05" ry="18"/>
<text text-anchor="middle" x="1008" y="-99.8" font-family="Times,serif" font-size="14.00">FeedCommentRepository</text>
</g>
<!-- FeedCommentRepository&#45;&gt;FeedRepliesModule -->
<g id="edge2" class="edge">
<title>FeedCommentRepository&#45;&gt;FeedRepliesModule</title>
<path fill="none" stroke="black" d="M1008,-122.28C1008,-143.32 1008,-175 1008,-175 1008,-175 572.33,-175 572.33,-175"/>
<polygon fill="black" stroke="black" points="572.33,-171.5 562.33,-175 572.33,-178.5 572.33,-171.5"/>
</g>
<!-- FeedRepliesService -->
<g id="node4" class="node">
<title>FeedRepliesService</title>
<ellipse fill="#fdb462" stroke="black" cx="792" cy="-104" rx="87.95" ry="18"/>
<text text-anchor="middle" x="792" y="-99.8" font-family="Times,serif" font-size="14.00">FeedRepliesService</text>
</g>
<!-- FeedRepliesService&#45;&gt;FeedRepliesModule -->
<g id="edge3" class="edge">
<title>FeedRepliesService&#45;&gt;FeedRepliesModule</title>
<path fill="none" stroke="black" d="M792,-122.02C792,-139.37 792,-163 792,-163 792,-163 572.52,-163 572.52,-163"/>
<polygon fill="black" stroke="black" points="572.52,-159.5 562.52,-163 572.52,-166.5 572.52,-159.5"/>
</g>
<!-- FeedReplyRepository -->
<g id="node5" class="node">
<title>FeedReplyRepository</title>
<ellipse fill="#fdb462" stroke="black" cx="591" cy="-104" rx="95.01" ry="18"/>
<text text-anchor="middle" x="591" y="-99.8" font-family="Times,serif" font-size="14.00">FeedReplyRepository</text>
</g>
<!-- FeedReplyRepository&#45;&gt;FeedRepliesModule -->
<g id="edge4" class="edge">
<title>FeedReplyRepository&#45;&gt;FeedRepliesModule</title>
<path fill="none" stroke="black" d="M529.06,-117.78C529.06,-117.78 529.06,-140.55 529.06,-140.55"/>
<polygon fill="black" stroke="black" points="525.56,-140.55 529.06,-150.55 532.56,-140.55 525.56,-140.55"/>
</g>
<!-- FeedRepository -->
<g id="node6" class="node">
<title>FeedRepository</title>
<ellipse fill="#fdb462" stroke="black" cx="406" cy="-104" rx="72.37" ry="18"/>
<text text-anchor="middle" x="406" y="-99.8" font-family="Times,serif" font-size="14.00">FeedRepository</text>
</g>
<!-- FeedRepository&#45;&gt;FeedRepliesModule -->
<g id="edge5" class="edge">
<title>FeedRepository&#45;&gt;FeedRepliesModule</title>
<path fill="none" stroke="black" d="M455.9,-117.15C455.9,-117.15 455.9,-140.69 455.9,-140.69"/>
<polygon fill="black" stroke="black" points="452.4,-140.69 455.9,-150.69 459.4,-140.69 452.4,-140.69"/>
</g>
<!-- PostLikeRepository -->
<g id="node7" class="node">
<title>PostLikeRepository</title>
<ellipse fill="#fdb462" stroke="black" cx="228" cy="-104" rx="88" ry="18"/>
<text text-anchor="middle" x="228" y="-99.8" font-family="Times,serif" font-size="14.00">PostLikeRepository</text>
</g>
<!-- PostLikeRepository&#45;&gt;FeedRepliesModule -->
<g id="edge6" class="edge">
<title>PostLikeRepository&#45;&gt;FeedRepliesModule</title>
<path fill="none" stroke="black" d="M228,-122.02C228,-139.37 228,-163 228,-163 228,-163 423.67,-163 423.67,-163"/>
<polygon fill="black" stroke="black" points="423.67,-166.5 433.67,-163 423.67,-159.5 423.67,-166.5"/>
</g>
</g>
</svg>
