<?xml version="1.0" encoding="UTF-8" standalone="no"?>
<!DOCTYPE svg PUBLIC "-//W3C//DTD SVG 1.1//EN"
 "http://www.w3.org/Graphics/SVG/1.1/DTD/svg11.dtd">
<!-- Generated by graphviz version 2.47.0 (20210316.0004)
 -->
<!-- Title: dependencies Pages: 1 -->
<svg width="956pt" height="211pt"
 viewBox="0.00 0.00 956.00 211.00" xmlns="http://www.w3.org/2000/svg" xmlns:xlink="http://www.w3.org/1999/xlink">
<g id="graph0" class="graph" transform="scale(1 1) rotate(0) translate(4 207)">
<title>dependencies</title>
<polygon fill="white" stroke="transparent" points="-4,4 -4,-207 952,-207 952,4 -4,4"/>
<text text-anchor="start" x="453.01" y="-42.4" font-family="Times-12" font-weight="bold" font-size="14.00">Legend</text>
<polygon fill="#ffffb3" stroke="transparent" points="240,-10 240,-30 260,-30 260,-10 240,-10"/>
<text text-anchor="start" x="263.63" y="-15.4" font-family="Times-12" font-size="14.00"> &#160;Declarations</text>
<polygon fill="#8dd3c7" stroke="transparent" points="353,-10 353,-30 373,-30 373,-10 353,-10"/>
<text text-anchor="start" x="376.73" y="-15.4" font-family="Times-12" font-size="14.00"> &#160;Module</text>
<polygon fill="#80b1d3" stroke="transparent" points="439,-10 439,-30 459,-30 459,-10 439,-10"/>
<text text-anchor="start" x="462.78" y="-15.4" font-family="Times-12" font-size="14.00"> &#160;Bootstrap</text>
<polygon fill="#fdb462" stroke="transparent" points="536,-10 536,-30 556,-30 556,-10 536,-10"/>
<text text-anchor="start" x="559.67" y="-15.4" font-family="Times-12" font-size="14.00"> &#160;Providers</text>
<polygon fill="#fb8072" stroke="transparent" points="632,-10 632,-30 652,-30 652,-10 632,-10"/>
<text text-anchor="start" x="655.73" y="-15.4" font-family="Times-12" font-size="14.00"> &#160;Exports</text>
<g id="clust1" class="cluster">
<title>cluster_ContactsModule</title>
<polygon fill="none" stroke="black" stroke-dasharray="1,5" points="8,-70 8,-195 940,-195 940,-70 8,-70"/>
</g>
<g id="clust3" class="cluster">
<title>cluster_ContactsModule_imports</title>
<polygon fill="none" stroke="black" points="782,-78 782,-130 932,-130 932,-78 782,-78"/>
</g>
<g id="clust6" class="cluster">
<title>cluster_ContactsModule_providers</title>
<polygon fill="none" stroke="black" points="16,-78 16,-130 774,-130 774,-78 16,-78"/>
</g>
<!-- ContactsDataModule -->
<g id="node1" class="node">
<title>ContactsDataModule</title>
<polygon fill="#8dd3c7" stroke="black" points="924.47,-122 921.47,-126 900.47,-126 897.47,-122 789.53,-122 789.53,-86 924.47,-86 924.47,-122"/>
<text text-anchor="middle" x="857" y="-99.8" font-family="Times,serif" font-size="14.00">ContactsDataModule</text>
</g>
<!-- ContactsModule -->
<g id="node2" class="node">
<title>ContactsModule</title>
<polygon fill="#8dd3c7" stroke="black" points="499.04,-187 496.04,-191 475.04,-191 472.04,-187 390.96,-187 390.96,-151 499.04,-151 499.04,-187"/>
<text text-anchor="middle" x="445" y="-164.8" font-family="Times,serif" font-size="14.00">ContactsModule</text>
</g>
<!-- ContactsDataModule&#45;&gt;ContactsModule -->
<g id="edge1" class="edge">
<title>ContactsDataModule&#45;&gt;ContactsModule</title>
<path fill="none" stroke="black" d="M857,-122.28C857,-143.32 857,-175 857,-175 857,-175 509.29,-175 509.29,-175"/>
<polygon fill="black" stroke="black" points="509.29,-171.5 499.29,-175 509.29,-178.5 509.29,-171.5"/>
</g>
<!-- ContactsQueueProcessor -->
<g id="node3" class="node">
<title>ContactsQueueProcessor</title>
<ellipse fill="#fdb462" stroke="black" cx="658" cy="-104" rx="107.64" ry="18"/>
<text text-anchor="middle" x="658" y="-99.8" font-family="Times,serif" font-size="14.00">ContactsQueueProcessor</text>
</g>
<!-- ContactsQueueProcessor&#45;&gt;ContactsModule -->
<g id="edge2" class="edge">
<title>ContactsQueueProcessor&#45;&gt;ContactsModule</title>
<path fill="none" stroke="black" d="M658,-122.02C658,-139.37 658,-163 658,-163 658,-163 509.3,-163 509.3,-163"/>
<polygon fill="black" stroke="black" points="509.3,-159.5 499.3,-163 509.3,-166.5 509.3,-159.5"/>
</g>
<!-- ContactsRepository -->
<g id="node4" class="node">
<title>ContactsRepository</title>
<ellipse fill="#fdb462" stroke="black" cx="445" cy="-104" rx="87.42" ry="18"/>
<text text-anchor="middle" x="445" y="-99.8" font-family="Times,serif" font-size="14.00">ContactsRepository</text>
</g>
<!-- ContactsRepository&#45;&gt;ContactsModule -->
<g id="edge3" class="edge">
<title>ContactsRepository&#45;&gt;ContactsModule</title>
<path fill="none" stroke="black" d="M445,-122.11C445,-122.11 445,-140.99 445,-140.99"/>
<polygon fill="black" stroke="black" points="441.5,-140.99 445,-150.99 448.5,-140.99 441.5,-140.99"/>
</g>
<!-- ContactsService -->
<g id="node5" class="node">
<title>ContactsService</title>
<ellipse fill="#fdb462" stroke="black" cx="266" cy="-104" rx="73.57" ry="18"/>
<text text-anchor="middle" x="266" y="-99.8" font-family="Times,serif" font-size="14.00">ContactsService</text>
</g>
<!-- ContactsService&#45;&gt;ContactsModule -->
<g id="edge4" class="edge">
<title>ContactsService&#45;&gt;ContactsModule</title>
<path fill="none" stroke="black" d="M266,-122.02C266,-139.37 266,-163 266,-163 266,-163 380.81,-163 380.81,-163"/>
<polygon fill="black" stroke="black" points="380.81,-166.5 390.81,-163 380.81,-159.5 380.81,-166.5"/>
</g>
<!-- UsersRepository -->
<g id="node6" class="node">
<title>UsersRepository</title>
<ellipse fill="#fdb462" stroke="black" cx="99" cy="-104" rx="75.3" ry="18"/>
<text text-anchor="middle" x="99" y="-99.8" font-family="Times,serif" font-size="14.00">UsersRepository</text>
</g>
<!-- UsersRepository&#45;&gt;ContactsModule -->
<g id="edge5" class="edge">
<title>UsersRepository&#45;&gt;ContactsModule</title>
<path fill="none" stroke="black" d="M99,-122.28C99,-143.32 99,-175 99,-175 99,-175 380.94,-175 380.94,-175"/>
<polygon fill="black" stroke="black" points="380.94,-178.5 390.94,-175 380.94,-171.5 380.94,-178.5"/>
</g>
</g>
</svg>
