<?xml version="1.0" encoding="UTF-8" standalone="no"?>
<!DOCTYPE svg PUBLIC "-//W3C//DTD SVG 1.1//EN"
 "http://www.w3.org/Graphics/SVG/1.1/DTD/svg11.dtd">
<!-- Generated by graphviz version 2.47.0 (20210316.0004)
 -->
<!-- Title: dependencies Pages: 1 -->
<svg width="3494pt" height="284pt"
 viewBox="0.00 0.00 3494.00 284.00" xmlns="http://www.w3.org/2000/svg" xmlns:xlink="http://www.w3.org/1999/xlink">
<g id="graph0" class="graph" transform="scale(1 1) rotate(0) translate(4 280)">
<title>dependencies</title>
<polygon fill="white" stroke="transparent" points="-4,4 -4,-280 3490,-280 3490,4 -4,4"/>
<text text-anchor="start" x="1722.01" y="-42.4" font-family="Times-12" font-weight="bold" font-size="14.00">Legend</text>
<polygon fill="#ffffb3" stroke="transparent" points="1509,-10 1509,-30 1529,-30 1529,-10 1509,-10"/>
<text text-anchor="start" x="1532.63" y="-15.4" font-family="Times-12" font-size="14.00"> &#160;Declarations</text>
<polygon fill="#8dd3c7" stroke="transparent" points="1622,-10 1622,-30 1642,-30 1642,-10 1622,-10"/>
<text text-anchor="start" x="1645.73" y="-15.4" font-family="Times-12" font-size="14.00"> &#160;Module</text>
<polygon fill="#80b1d3" stroke="transparent" points="1708,-10 1708,-30 1728,-30 1728,-10 1708,-10"/>
<text text-anchor="start" x="1731.78" y="-15.4" font-family="Times-12" font-size="14.00"> &#160;Bootstrap</text>
<polygon fill="#fdb462" stroke="transparent" points="1805,-10 1805,-30 1825,-30 1825,-10 1805,-10"/>
<text text-anchor="start" x="1828.67" y="-15.4" font-family="Times-12" font-size="14.00"> &#160;Providers</text>
<polygon fill="#fb8072" stroke="transparent" points="1901,-10 1901,-30 1921,-30 1921,-10 1901,-10"/>
<text text-anchor="start" x="1924.73" y="-15.4" font-family="Times-12" font-size="14.00"> &#160;Exports</text>
<g id="clust1" class="cluster">
<title>cluster_AdminModule</title>
<polygon fill="none" stroke="black" stroke-dasharray="1,5" points="8,-70 8,-268 3478,-268 3478,-70 8,-70"/>
</g>
<g id="clust4" class="cluster">
<title>cluster_AdminModule_exports</title>
<polygon fill="none" stroke="black" points="1768,-208 1768,-260 1886,-260 1886,-208 1768,-208"/>
</g>
<g id="clust6" class="cluster">
<title>cluster_AdminModule_providers</title>
<polygon fill="none" stroke="black" points="16,-78 16,-130 3470,-130 3470,-78 16,-78"/>
</g>
<!-- AdminModule  -->
<g id="node1" class="node">
<title>AdminModule </title>
<polygon fill="#fb8072" stroke="black" points="1877.94,-252 1776.06,-252 1776.06,-216 1877.94,-216 1877.94,-252"/>
<text text-anchor="middle" x="1827" y="-229.8" font-family="Times,serif" font-size="14.00">AdminModule </text>
</g>
<!-- AdminModule -->
<g id="node2" class="node">
<title>AdminModule</title>
<polygon fill="#8dd3c7" stroke="black" points="1876.44,-187 1873.44,-191 1852.44,-191 1849.44,-187 1777.56,-187 1777.56,-151 1876.44,-151 1876.44,-187"/>
<text text-anchor="middle" x="1827" y="-164.8" font-family="Times,serif" font-size="14.00">AdminModule</text>
</g>
<!-- AdminModule&#45;&gt;AdminModule  -->
<g id="edge1" class="edge">
<title>AdminModule&#45;&gt;AdminModule </title>
<path fill="none" stroke="black" stroke-dasharray="5,2" d="M1827,-187.11C1827,-187.11 1827,-205.99 1827,-205.99"/>
<polygon fill="black" stroke="black" points="1823.5,-205.99 1827,-215.99 1830.5,-205.99 1823.5,-205.99"/>
</g>
<!-- AgoraHelperService -->
<g id="node3" class="node">
<title>AgoraHelperService</title>
<ellipse fill="#fdb462" stroke="black" cx="3372" cy="-104" rx="90.29" ry="18"/>
<text text-anchor="middle" x="3372" y="-99.8" font-family="Times,serif" font-size="14.00">AgoraHelperService</text>
</g>
<!-- AgoraHelperService&#45;&gt;AdminModule -->
<g id="edge2" class="edge">
<title>AgoraHelperService&#45;&gt;AdminModule</title>
<path fill="none" stroke="black" d="M3372,-122.32C3372,-145.66 3372,-183 3372,-183 3372,-183 1886.22,-183 1886.22,-183"/>
<polygon fill="black" stroke="black" points="1886.22,-179.5 1876.22,-183 1886.22,-186.5 1886.22,-179.5"/>
</g>
<!-- AuthService -->
<g id="node4" class="node">
<title>AuthService</title>
<ellipse fill="#fdb462" stroke="black" cx="3204" cy="-104" rx="59.11" ry="18"/>
<text text-anchor="middle" x="3204" y="-99.8" font-family="Times,serif" font-size="14.00">AuthService</text>
</g>
<!-- AuthService&#45;&gt;AdminModule -->
<g id="edge3" class="edge">
<title>AuthService&#45;&gt;AdminModule</title>
<path fill="none" stroke="black" d="M3204,-122.16C3204,-144.35 3204,-179 3204,-179 3204,-179 1886.41,-179 1886.41,-179"/>
<polygon fill="black" stroke="black" points="1886.41,-175.5 1876.41,-179 1886.41,-182.5 1886.41,-175.5"/>
</g>
<!-- AwsSNSService -->
<g id="node5" class="node">
<title>AwsSNSService</title>
<ellipse fill="#fdb462" stroke="black" cx="3051" cy="-104" rx="75.3" ry="18"/>
<text text-anchor="middle" x="3051" y="-99.8" font-family="Times,serif" font-size="14.00">AwsSNSService</text>
</g>
<!-- AwsSNSService&#45;&gt;AdminModule -->
<g id="edge4" class="edge">
<title>AwsSNSService&#45;&gt;AdminModule</title>
<path fill="none" stroke="black" d="M3051,-122.28C3051,-143.32 3051,-175 3051,-175 3051,-175 1886.5,-175 1886.5,-175"/>
<polygon fill="black" stroke="black" points="1886.5,-171.5 1876.5,-175 1886.5,-178.5 1886.5,-171.5"/>
</g>
<!-- CometChatHelperService -->
<g id="node6" class="node">
<title>CometChatHelperService</title>
<ellipse fill="#fdb462" stroke="black" cx="2847" cy="-104" rx="110.01" ry="18"/>
<text text-anchor="middle" x="2847" y="-99.8" font-family="Times,serif" font-size="14.00">CometChatHelperService</text>
</g>
<!-- CometChatHelperService&#45;&gt;AdminModule -->
<g id="edge5" class="edge">
<title>CometChatHelperService&#45;&gt;AdminModule</title>
<path fill="none" stroke="black" d="M2847,-122.31C2847,-142.15 2847,-171 2847,-171 2847,-171 1886.54,-171 1886.54,-171"/>
<polygon fill="black" stroke="black" points="1886.54,-167.5 1876.54,-171 1886.54,-174.5 1886.54,-167.5"/>
</g>
<!-- DeviceInfoRepository -->
<g id="node7" class="node">
<title>DeviceInfoRepository</title>
<ellipse fill="#fdb462" stroke="black" cx="2622" cy="-104" rx="96.69" ry="18"/>
<text text-anchor="middle" x="2622" y="-99.8" font-family="Times,serif" font-size="14.00">DeviceInfoRepository</text>
</g>
<!-- DeviceInfoRepository&#45;&gt;AdminModule -->
<g id="edge6" class="edge">
<title>DeviceInfoRepository&#45;&gt;AdminModule</title>
<path fill="none" stroke="black" d="M2622,-122.22C2622,-140.83 2622,-167 2622,-167 2622,-167 1886.43,-167 1886.43,-167"/>
<polygon fill="black" stroke="black" points="1886.43,-163.5 1876.43,-167 1886.43,-170.5 1886.43,-163.5"/>
</g>
<!-- DisposableEmailRepository -->
<g id="node8" class="node">
<title>DisposableEmailRepository</title>
<ellipse fill="#fdb462" stroke="black" cx="2388" cy="-104" rx="119.28" ry="18"/>
<text text-anchor="middle" x="2388" y="-99.8" font-family="Times,serif" font-size="14.00">DisposableEmailRepository</text>
</g>
<!-- DisposableEmailRepository&#45;&gt;AdminModule -->
<g id="edge7" class="edge">
<title>DisposableEmailRepository&#45;&gt;AdminModule</title>
<path fill="none" stroke="black" d="M2388,-122.02C2388,-139.37 2388,-163 2388,-163 2388,-163 1886.29,-163 1886.29,-163"/>
<polygon fill="black" stroke="black" points="1886.29,-159.5 1876.29,-163 1886.29,-166.5 1886.29,-159.5"/>
</g>
<!-- EmailService -->
<g id="node9" class="node">
<title>EmailService</title>
<ellipse fill="#fdb462" stroke="black" cx="2188" cy="-104" rx="63.12" ry="18"/>
<text text-anchor="middle" x="2188" y="-99.8" font-family="Times,serif" font-size="14.00">EmailService</text>
</g>
<!-- EmailService&#45;&gt;AdminModule -->
<g id="edge8" class="edge">
<title>EmailService&#45;&gt;AdminModule</title>
<path fill="none" stroke="black" d="M2188,-122.01C2188,-138.05 2188,-159 2188,-159 2188,-159 1886.44,-159 1886.44,-159"/>
<polygon fill="black" stroke="black" points="1886.44,-155.5 1876.44,-159 1886.44,-162.5 1886.44,-155.5"/>
</g>
<!-- IsValidEmailConstraint -->
<g id="node10" class="node">
<title>IsValidEmailConstraint</title>
<ellipse fill="#fdb462" stroke="black" cx="2004" cy="-104" rx="102.52" ry="18"/>
<text text-anchor="middle" x="2004" y="-99.8" font-family="Times,serif" font-size="14.00">IsValidEmailConstraint</text>
</g>
<!-- IsValidEmailConstraint&#45;&gt;AdminModule -->
<g id="edge9" class="edge">
<title>IsValidEmailConstraint&#45;&gt;AdminModule</title>
<path fill="none" stroke="black" d="M2004,-122.12C2004,-136.78 2004,-155 2004,-155 2004,-155 1886.3,-155 1886.3,-155"/>
<polygon fill="black" stroke="black" points="1886.3,-151.5 1876.3,-155 1886.3,-158.5 1886.3,-151.5"/>
</g>
<!-- JwtStrategy -->
<g id="node11" class="node">
<title>JwtStrategy</title>
<ellipse fill="#fdb462" stroke="black" cx="1827" cy="-104" rx="56.76" ry="18"/>
<text text-anchor="middle" x="1827" y="-99.8" font-family="Times,serif" font-size="14.00">JwtStrategy</text>
</g>
<!-- JwtStrategy&#45;&gt;AdminModule -->
<g id="edge10" class="edge">
<title>JwtStrategy&#45;&gt;AdminModule</title>
<path fill="none" stroke="black" d="M1827,-122.11C1827,-122.11 1827,-140.99 1827,-140.99"/>
<polygon fill="black" stroke="black" points="1823.5,-140.99 1827,-150.99 1830.5,-140.99 1823.5,-140.99"/>
</g>
<!-- JwtTokenService -->
<g id="node12" class="node">
<title>JwtTokenService</title>
<ellipse fill="#fdb462" stroke="black" cx="1674" cy="-104" rx="78.15" ry="18"/>
<text text-anchor="middle" x="1674" y="-99.8" font-family="Times,serif" font-size="14.00">JwtTokenService</text>
</g>
<!-- JwtTokenService&#45;&gt;AdminModule -->
<g id="edge11" class="edge">
<title>JwtTokenService&#45;&gt;AdminModule</title>
<path fill="none" stroke="black" d="M1674,-122.12C1674,-136.78 1674,-155 1674,-155 1674,-155 1767.75,-155 1767.75,-155"/>
<polygon fill="black" stroke="black" points="1767.75,-158.5 1777.75,-155 1767.75,-151.5 1767.75,-158.5"/>
</g>
<!-- OTPRequestRepository -->
<g id="node13" class="node">
<title>OTPRequestRepository</title>
<ellipse fill="#fdb462" stroke="black" cx="1475" cy="-104" rx="102.53" ry="18"/>
<text text-anchor="middle" x="1475" y="-99.8" font-family="Times,serif" font-size="14.00">OTPRequestRepository</text>
</g>
<!-- OTPRequestRepository&#45;&gt;AdminModule -->
<g id="edge12" class="edge">
<title>OTPRequestRepository&#45;&gt;AdminModule</title>
<path fill="none" stroke="black" d="M1475,-122.01C1475,-138.05 1475,-159 1475,-159 1475,-159 1767.69,-159 1767.69,-159"/>
<polygon fill="black" stroke="black" points="1767.69,-162.5 1777.69,-159 1767.69,-155.5 1767.69,-162.5"/>
</g>
<!-- PhoneOtpAuthService -->
<g id="node14" class="node">
<title>PhoneOtpAuthService</title>
<ellipse fill="#fdb462" stroke="black" cx="1256" cy="-104" rx="97.86" ry="18"/>
<text text-anchor="middle" x="1256" y="-99.8" font-family="Times,serif" font-size="14.00">PhoneOtpAuthService</text>
</g>
<!-- PhoneOtpAuthService&#45;&gt;AdminModule -->
<g id="edge13" class="edge">
<title>PhoneOtpAuthService&#45;&gt;AdminModule</title>
<path fill="none" stroke="black" d="M1256,-122.02C1256,-139.37 1256,-163 1256,-163 1256,-163 1767.33,-163 1767.33,-163"/>
<polygon fill="black" stroke="black" points="1767.33,-166.5 1777.33,-163 1767.33,-159.5 1767.33,-166.5"/>
</g>
<!-- PushNotificationTokenRepository -->
<g id="node15" class="node">
<title>PushNotificationTokenRepository</title>
<ellipse fill="#fdb462" stroke="black" cx="997" cy="-104" rx="143.56" ry="18"/>
<text text-anchor="middle" x="997" y="-99.8" font-family="Times,serif" font-size="14.00">PushNotificationTokenRepository</text>
</g>
<!-- PushNotificationTokenRepository&#45;&gt;AdminModule -->
<g id="edge14" class="edge">
<title>PushNotificationTokenRepository&#45;&gt;AdminModule</title>
<path fill="none" stroke="black" d="M997,-122.22C997,-140.83 997,-167 997,-167 997,-167 1767.57,-167 1767.57,-167"/>
<polygon fill="black" stroke="black" points="1767.57,-170.5 1777.57,-167 1767.57,-163.5 1767.57,-170.5"/>
</g>
<!-- S3Service -->
<g id="node16" class="node">
<title>S3Service</title>
<ellipse fill="#fdb462" stroke="black" cx="785" cy="-104" rx="50.38" ry="18"/>
<text text-anchor="middle" x="785" y="-99.8" font-family="Times,serif" font-size="14.00">S3Service</text>
</g>
<!-- S3Service&#45;&gt;AdminModule -->
<g id="edge15" class="edge">
<title>S3Service&#45;&gt;AdminModule</title>
<path fill="none" stroke="black" d="M785,-122.31C785,-142.15 785,-171 785,-171 785,-171 1767.44,-171 1767.44,-171"/>
<polygon fill="black" stroke="black" points="1767.44,-174.5 1777.44,-171 1767.44,-167.5 1767.44,-174.5"/>
</g>
<!-- UpdatePhoneNumberRepository -->
<g id="node17" class="node">
<title>UpdatePhoneNumberRepository</title>
<ellipse fill="#fdb462" stroke="black" cx="580" cy="-104" rx="137.17" ry="18"/>
<text text-anchor="middle" x="580" y="-99.8" font-family="Times,serif" font-size="14.00">UpdatePhoneNumberRepository</text>
</g>
<!-- UpdatePhoneNumberRepository&#45;&gt;AdminModule -->
<g id="edge16" class="edge">
<title>UpdatePhoneNumberRepository&#45;&gt;AdminModule</title>
<path fill="none" stroke="black" d="M580,-122.28C580,-143.32 580,-175 580,-175 580,-175 1767.73,-175 1767.73,-175"/>
<polygon fill="black" stroke="black" points="1767.73,-178.5 1777.73,-175 1767.73,-171.5 1767.73,-178.5"/>
</g>
<!-- UserTokenMetaRepository -->
<g id="node18" class="node">
<title>UserTokenMetaRepository</title>
<ellipse fill="#fdb462" stroke="black" cx="309" cy="-104" rx="116.31" ry="18"/>
<text text-anchor="middle" x="309" y="-99.8" font-family="Times,serif" font-size="14.00">UserTokenMetaRepository</text>
</g>
<!-- UserTokenMetaRepository&#45;&gt;AdminModule -->
<g id="edge17" class="edge">
<title>UserTokenMetaRepository&#45;&gt;AdminModule</title>
<path fill="none" stroke="black" d="M309,-122.16C309,-144.35 309,-179 309,-179 309,-179 1767.36,-179 1767.36,-179"/>
<polygon fill="black" stroke="black" points="1767.36,-182.5 1777.36,-179 1767.36,-175.5 1767.36,-182.5"/>
</g>
<!-- UsersRepository -->
<g id="node19" class="node">
<title>UsersRepository</title>
<ellipse fill="#fdb462" stroke="black" cx="99" cy="-104" rx="75.3" ry="18"/>
<text text-anchor="middle" x="99" y="-99.8" font-family="Times,serif" font-size="14.00">UsersRepository</text>
</g>
<!-- UsersRepository&#45;&gt;AdminModule -->
<g id="edge18" class="edge">
<title>UsersRepository&#45;&gt;AdminModule</title>
<path fill="none" stroke="black" d="M99,-122.32C99,-145.66 99,-183 99,-183 99,-183 1767.61,-183 1767.61,-183"/>
<polygon fill="black" stroke="black" points="1767.61,-186.5 1777.61,-183 1767.61,-179.5 1767.61,-186.5"/>
</g>
</g>
</svg>
