<?xml version="1.0" encoding="UTF-8" standalone="no"?>
<!DOCTYPE svg PUBLIC "-//W3C//DTD SVG 1.1//EN"
 "http://www.w3.org/Graphics/SVG/1.1/DTD/svg11.dtd">
<!-- Generated by graphviz version 2.47.0 (20210316.0004)
 -->
<!-- Title: dependencies Pages: 1 -->
<svg width="1162pt" height="211pt"
 viewBox="0.00 0.00 1162.00 211.00" xmlns="http://www.w3.org/2000/svg" xmlns:xlink="http://www.w3.org/1999/xlink">
<g id="graph0" class="graph" transform="scale(1 1) rotate(0) translate(4 207)">
<title>dependencies</title>
<polygon fill="white" stroke="transparent" points="-4,4 -4,-207 1158,-207 1158,4 -4,4"/>
<text text-anchor="start" x="556.01" y="-42.4" font-family="Times-12" font-weight="bold" font-size="14.00">Legend</text>
<polygon fill="#ffffb3" stroke="transparent" points="343,-10 343,-30 363,-30 363,-10 343,-10"/>
<text text-anchor="start" x="366.63" y="-15.4" font-family="Times-12" font-size="14.00"> &#160;Declarations</text>
<polygon fill="#8dd3c7" stroke="transparent" points="456,-10 456,-30 476,-30 476,-10 456,-10"/>
<text text-anchor="start" x="479.73" y="-15.4" font-family="Times-12" font-size="14.00"> &#160;Module</text>
<polygon fill="#80b1d3" stroke="transparent" points="542,-10 542,-30 562,-30 562,-10 542,-10"/>
<text text-anchor="start" x="565.78" y="-15.4" font-family="Times-12" font-size="14.00"> &#160;Bootstrap</text>
<polygon fill="#fdb462" stroke="transparent" points="639,-10 639,-30 659,-30 659,-10 639,-10"/>
<text text-anchor="start" x="662.67" y="-15.4" font-family="Times-12" font-size="14.00"> &#160;Providers</text>
<polygon fill="#fb8072" stroke="transparent" points="735,-10 735,-30 755,-30 755,-10 735,-10"/>
<text text-anchor="start" x="758.73" y="-15.4" font-family="Times-12" font-size="14.00"> &#160;Exports</text>
<g id="clust1" class="cluster">
<title>cluster_CometChatModule</title>
<polygon fill="none" stroke="black" stroke-dasharray="1,5" points="8,-70 8,-195 1146,-195 1146,-70 8,-70"/>
</g>
<g id="clust6" class="cluster">
<title>cluster_CometChatModule_providers</title>
<polygon fill="none" stroke="black" points="16,-78 16,-130 1138,-130 1138,-78 16,-78"/>
</g>
<!-- CometChatHelperService -->
<g id="node1" class="node">
<title>CometChatHelperService</title>
<ellipse fill="#fdb462" stroke="black" cx="1020" cy="-104" rx="110.01" ry="18"/>
<text text-anchor="middle" x="1020" y="-99.8" font-family="Times,serif" font-size="14.00">CometChatHelperService</text>
</g>
<!-- CometChatModule -->
<g id="node6" class="node">
<title>CometChatModule</title>
<polygon fill="#8dd3c7" stroke="black" points="645.82,-187 642.82,-191 621.82,-191 618.82,-187 522.18,-187 522.18,-151 645.82,-151 645.82,-187"/>
<text text-anchor="middle" x="584" y="-164.8" font-family="Times,serif" font-size="14.00">CometChatModule</text>
</g>
<!-- CometChatHelperService&#45;&gt;CometChatModule -->
<g id="edge1" class="edge">
<title>CometChatHelperService&#45;&gt;CometChatModule</title>
<path fill="none" stroke="black" d="M1020,-122.28C1020,-143.32 1020,-175 1020,-175 1020,-175 656.01,-175 656.01,-175"/>
<polygon fill="black" stroke="black" points="656.01,-171.5 646.01,-175 656.01,-178.5 656.01,-171.5"/>
</g>
<!-- CometChatService -->
<g id="node2" class="node">
<title>CometChatService</title>
<ellipse fill="#fdb462" stroke="black" cx="808" cy="-104" rx="83.96" ry="18"/>
<text text-anchor="middle" x="808" y="-99.8" font-family="Times,serif" font-size="14.00">CometChatService</text>
</g>
<!-- CometChatService&#45;&gt;CometChatModule -->
<g id="edge2" class="edge">
<title>CometChatService&#45;&gt;CometChatModule</title>
<path fill="none" stroke="black" d="M808,-122.02C808,-139.37 808,-163 808,-163 808,-163 655.8,-163 655.8,-163"/>
<polygon fill="black" stroke="black" points="655.8,-159.5 645.8,-163 655.8,-166.5 655.8,-159.5"/>
</g>
<!-- CometUserGroupRepository -->
<g id="node3" class="node">
<title>CometUserGroupRepository</title>
<ellipse fill="#fdb462" stroke="black" cx="584" cy="-104" rx="122.13" ry="18"/>
<text text-anchor="middle" x="584" y="-99.8" font-family="Times,serif" font-size="14.00">CometUserGroupRepository</text>
</g>
<!-- CometUserGroupRepository&#45;&gt;CometChatModule -->
<g id="edge3" class="edge">
<title>CometUserGroupRepository&#45;&gt;CometChatModule</title>
<path fill="none" stroke="black" d="M584,-122.11C584,-122.11 584,-140.99 584,-140.99"/>
<polygon fill="black" stroke="black" points="580.5,-140.99 584,-150.99 587.5,-140.99 580.5,-140.99"/>
</g>
<!-- FcmService -->
<g id="node4" class="node">
<title>FcmService</title>
<ellipse fill="#fdb462" stroke="black" cx="387" cy="-104" rx="57.32" ry="18"/>
<text text-anchor="middle" x="387" y="-99.8" font-family="Times,serif" font-size="14.00">FcmService</text>
</g>
<!-- FcmService&#45;&gt;CometChatModule -->
<g id="edge4" class="edge">
<title>FcmService&#45;&gt;CometChatModule</title>
<path fill="none" stroke="black" d="M387,-122.02C387,-139.37 387,-163 387,-163 387,-163 512.21,-163 512.21,-163"/>
<polygon fill="black" stroke="black" points="512.21,-166.5 522.21,-163 512.21,-159.5 512.21,-166.5"/>
</g>
<!-- PushNotificationTokenRepository -->
<g id="node5" class="node">
<title>PushNotificationTokenRepository</title>
<ellipse fill="#fdb462" stroke="black" cx="168" cy="-104" rx="143.56" ry="18"/>
<text text-anchor="middle" x="168" y="-99.8" font-family="Times,serif" font-size="14.00">PushNotificationTokenRepository</text>
</g>
<!-- PushNotificationTokenRepository&#45;&gt;CometChatModule -->
<g id="edge5" class="edge">
<title>PushNotificationTokenRepository&#45;&gt;CometChatModule</title>
<path fill="none" stroke="black" d="M168,-122.28C168,-143.32 168,-175 168,-175 168,-175 512.17,-175 512.17,-175"/>
<polygon fill="black" stroke="black" points="512.17,-178.5 522.17,-175 512.17,-171.5 512.17,-178.5"/>
</g>
</g>
</svg>
