<?xml version="1.0" encoding="UTF-8" standalone="no"?>
<!DOCTYPE svg PUBLIC "-//W3C//DTD SVG 1.1//EN"
 "http://www.w3.org/Graphics/SVG/1.1/DTD/svg11.dtd">
<!-- Generated by graphviz version 2.47.0 (20210316.0004)
 -->
<!-- Title: dependencies Pages: 1 -->
<svg width="710pt" height="211pt"
 viewBox="0.00 0.00 710.00 211.00" xmlns="http://www.w3.org/2000/svg" xmlns:xlink="http://www.w3.org/1999/xlink">
<g id="graph0" class="graph" transform="scale(1 1) rotate(0) translate(4 207)">
<title>dependencies</title>
<polygon fill="white" stroke="transparent" points="-4,4 -4,-207 706,-207 706,4 -4,4"/>
<text text-anchor="start" x="330.01" y="-42.4" font-family="Times-12" font-weight="bold" font-size="14.00">Legend</text>
<polygon fill="#ffffb3" stroke="transparent" points="117,-10 117,-30 137,-30 137,-10 117,-10"/>
<text text-anchor="start" x="140.63" y="-15.4" font-family="Times-12" font-size="14.00"> &#160;Declarations</text>
<polygon fill="#8dd3c7" stroke="transparent" points="230,-10 230,-30 250,-30 250,-10 230,-10"/>
<text text-anchor="start" x="253.73" y="-15.4" font-family="Times-12" font-size="14.00"> &#160;Module</text>
<polygon fill="#80b1d3" stroke="transparent" points="316,-10 316,-30 336,-30 336,-10 316,-10"/>
<text text-anchor="start" x="339.78" y="-15.4" font-family="Times-12" font-size="14.00"> &#160;Bootstrap</text>
<polygon fill="#fdb462" stroke="transparent" points="413,-10 413,-30 433,-30 433,-10 413,-10"/>
<text text-anchor="start" x="436.67" y="-15.4" font-family="Times-12" font-size="14.00"> &#160;Providers</text>
<polygon fill="#fb8072" stroke="transparent" points="509,-10 509,-30 529,-30 529,-10 509,-10"/>
<text text-anchor="start" x="532.73" y="-15.4" font-family="Times-12" font-size="14.00"> &#160;Exports</text>
<g id="clust1" class="cluster">
<title>cluster_BusinessModule</title>
<polygon fill="none" stroke="black" stroke-dasharray="1,5" points="8,-70 8,-195 694,-195 694,-70 8,-70"/>
</g>
<g id="clust6" class="cluster">
<title>cluster_BusinessModule_providers</title>
<polygon fill="none" stroke="black" points="16,-78 16,-130 686,-130 686,-78 16,-78"/>
</g>
<!-- BusinessRepository -->
<g id="node1" class="node">
<title>BusinessRepository</title>
<ellipse fill="#fdb462" stroke="black" cx="590" cy="-104" rx="88" ry="18"/>
<text text-anchor="middle" x="590" y="-99.8" font-family="Times,serif" font-size="14.00">BusinessRepository</text>
</g>
<!-- BusinessModule -->
<g id="node5" class="node">
<title>BusinessModule</title>
<polygon fill="#8dd3c7" stroke="black" points="386.83,-187 383.83,-191 362.83,-191 359.83,-187 277.17,-187 277.17,-151 386.83,-151 386.83,-187"/>
<text text-anchor="middle" x="332" y="-164.8" font-family="Times,serif" font-size="14.00">BusinessModule</text>
</g>
<!-- BusinessRepository&#45;&gt;BusinessModule -->
<g id="edge1" class="edge">
<title>BusinessRepository&#45;&gt;BusinessModule</title>
<path fill="none" stroke="black" d="M590,-122.11C590,-141.34 590,-169 590,-169 590,-169 396.72,-169 396.72,-169"/>
<polygon fill="black" stroke="black" points="396.72,-165.5 386.72,-169 396.72,-172.5 396.72,-165.5"/>
</g>
<!-- BusinessService -->
<g id="node2" class="node">
<title>BusinessService</title>
<ellipse fill="#fdb462" stroke="black" cx="410" cy="-104" rx="74.15" ry="18"/>
<text text-anchor="middle" x="410" y="-99.8" font-family="Times,serif" font-size="14.00">BusinessService</text>
</g>
<!-- BusinessService&#45;&gt;BusinessModule -->
<g id="edge2" class="edge">
<title>BusinessService&#45;&gt;BusinessModule</title>
<path fill="none" stroke="black" d="M361.17,-117.78C361.17,-117.78 361.17,-140.55 361.17,-140.55"/>
<polygon fill="black" stroke="black" points="357.67,-140.55 361.17,-150.55 364.67,-140.55 357.67,-140.55"/>
</g>
<!-- StripeService -->
<g id="node3" class="node">
<title>StripeService</title>
<ellipse fill="#fdb462" stroke="black" cx="255" cy="-104" rx="63.12" ry="18"/>
<text text-anchor="middle" x="255" y="-99.8" font-family="Times,serif" font-size="14.00">StripeService</text>
</g>
<!-- StripeService&#45;&gt;BusinessModule -->
<g id="edge3" class="edge">
<title>StripeService&#45;&gt;BusinessModule</title>
<path fill="none" stroke="black" d="M297.7,-117.47C297.7,-117.47 297.7,-140.86 297.7,-140.86"/>
<polygon fill="black" stroke="black" points="294.2,-140.86 297.7,-150.86 301.2,-140.86 294.2,-140.86"/>
</g>
<!-- UsersRepository -->
<g id="node4" class="node">
<title>UsersRepository</title>
<ellipse fill="#fdb462" stroke="black" cx="99" cy="-104" rx="75.3" ry="18"/>
<text text-anchor="middle" x="99" y="-99.8" font-family="Times,serif" font-size="14.00">UsersRepository</text>
</g>
<!-- UsersRepository&#45;&gt;BusinessModule -->
<g id="edge4" class="edge">
<title>UsersRepository&#45;&gt;BusinessModule</title>
<path fill="none" stroke="black" d="M99,-122.11C99,-141.34 99,-169 99,-169 99,-169 267.08,-169 267.08,-169"/>
<polygon fill="black" stroke="black" points="267.08,-172.5 277.08,-169 267.08,-165.5 267.08,-172.5"/>
</g>
</g>
</svg>
