<?xml version="1.0" encoding="UTF-8" standalone="no"?>
<!DOCTYPE svg PUBLIC "-//W3C//DTD SVG 1.1//EN"
 "http://www.w3.org/Graphics/SVG/1.1/DTD/svg11.dtd">
<!-- Generated by graphviz version 2.47.0 (20210316.0004)
 -->
<!-- Title: dependencies Pages: 1 -->
<svg width="728pt" height="284pt"
 viewBox="0.00 0.00 728.00 284.00" xmlns="http://www.w3.org/2000/svg" xmlns:xlink="http://www.w3.org/1999/xlink">
<g id="graph0" class="graph" transform="scale(1 1) rotate(0) translate(4 280)">
<title>dependencies</title>
<polygon fill="white" stroke="transparent" points="-4,4 -4,-280 724,-280 724,4 -4,4"/>
<text text-anchor="start" x="339.01" y="-42.4" font-family="Times-12" font-weight="bold" font-size="14.00">Legend</text>
<polygon fill="#ffffb3" stroke="transparent" points="126,-10 126,-30 146,-30 146,-10 126,-10"/>
<text text-anchor="start" x="149.63" y="-15.4" font-family="Times-12" font-size="14.00"> &#160;Declarations</text>
<polygon fill="#8dd3c7" stroke="transparent" points="239,-10 239,-30 259,-30 259,-10 239,-10"/>
<text text-anchor="start" x="262.73" y="-15.4" font-family="Times-12" font-size="14.00"> &#160;Module</text>
<polygon fill="#80b1d3" stroke="transparent" points="325,-10 325,-30 345,-30 345,-10 325,-10"/>
<text text-anchor="start" x="348.78" y="-15.4" font-family="Times-12" font-size="14.00"> &#160;Bootstrap</text>
<polygon fill="#fdb462" stroke="transparent" points="422,-10 422,-30 442,-30 442,-10 422,-10"/>
<text text-anchor="start" x="445.67" y="-15.4" font-family="Times-12" font-size="14.00"> &#160;Providers</text>
<polygon fill="#fb8072" stroke="transparent" points="518,-10 518,-30 538,-30 538,-10 518,-10"/>
<text text-anchor="start" x="541.73" y="-15.4" font-family="Times-12" font-size="14.00"> &#160;Exports</text>
<g id="clust1" class="cluster">
<title>cluster_SubscriptionProductsModule</title>
<polygon fill="none" stroke="black" stroke-dasharray="1,5" points="8,-70 8,-268 712,-268 712,-70 8,-70"/>
</g>
<g id="clust4" class="cluster">
<title>cluster_SubscriptionProductsModule_exports</title>
<polygon fill="none" stroke="black" points="321,-208 321,-260 519,-260 519,-208 321,-208"/>
</g>
<g id="clust6" class="cluster">
<title>cluster_SubscriptionProductsModule_providers</title>
<polygon fill="none" stroke="black" points="16,-78 16,-130 704,-130 704,-78 16,-78"/>
</g>
<!-- SubscriptionProductsModule  -->
<g id="node1" class="node">
<title>SubscriptionProductsModule </title>
<polygon fill="#fb8072" stroke="black" points="511.32,-252 328.68,-252 328.68,-216 511.32,-216 511.32,-252"/>
<text text-anchor="middle" x="420" y="-229.8" font-family="Times,serif" font-size="14.00">SubscriptionProductsModule </text>
</g>
<!-- SubscriptionProductsModule -->
<g id="node2" class="node">
<title>SubscriptionProductsModule</title>
<polygon fill="#8dd3c7" stroke="black" points="509.82,-187 506.82,-191 485.82,-191 482.82,-187 330.18,-187 330.18,-151 509.82,-151 509.82,-187"/>
<text text-anchor="middle" x="420" y="-164.8" font-family="Times,serif" font-size="14.00">SubscriptionProductsModule</text>
</g>
<!-- SubscriptionProductsModule&#45;&gt;SubscriptionProductsModule  -->
<g id="edge1" class="edge">
<title>SubscriptionProductsModule&#45;&gt;SubscriptionProductsModule </title>
<path fill="none" stroke="black" stroke-dasharray="5,2" d="M420,-187.11C420,-187.11 420,-205.99 420,-205.99"/>
<polygon fill="black" stroke="black" points="416.5,-205.99 420,-215.99 423.5,-205.99 416.5,-205.99"/>
</g>
<!-- StripeService -->
<g id="node3" class="node">
<title>StripeService</title>
<ellipse fill="#fdb462" stroke="black" cx="633" cy="-104" rx="63.12" ry="18"/>
<text text-anchor="middle" x="633" y="-99.8" font-family="Times,serif" font-size="14.00">StripeService</text>
</g>
<!-- StripeService&#45;&gt;SubscriptionProductsModule -->
<g id="edge2" class="edge">
<title>StripeService&#45;&gt;SubscriptionProductsModule</title>
<path fill="none" stroke="black" d="M633,-122.11C633,-141.34 633,-169 633,-169 633,-169 519.71,-169 519.71,-169"/>
<polygon fill="black" stroke="black" points="519.71,-165.5 509.71,-169 519.71,-172.5 519.71,-165.5"/>
</g>
<!-- SubscriptionProductRepository -->
<g id="node4" class="node">
<title>SubscriptionProductRepository</title>
<ellipse fill="#fdb462" stroke="black" cx="420" cy="-104" rx="132.05" ry="18"/>
<text text-anchor="middle" x="420" y="-99.8" font-family="Times,serif" font-size="14.00">SubscriptionProductRepository</text>
</g>
<!-- SubscriptionProductRepository&#45;&gt;SubscriptionProductsModule -->
<g id="edge3" class="edge">
<title>SubscriptionProductRepository&#45;&gt;SubscriptionProductsModule</title>
<path fill="none" stroke="black" d="M420,-122.11C420,-122.11 420,-140.99 420,-140.99"/>
<polygon fill="black" stroke="black" points="416.5,-140.99 420,-150.99 423.5,-140.99 416.5,-140.99"/>
</g>
<!-- SubscriptionProductsService -->
<g id="node5" class="node">
<title>SubscriptionProductsService</title>
<ellipse fill="#fdb462" stroke="black" cx="147" cy="-104" rx="122.71" ry="18"/>
<text text-anchor="middle" x="147" y="-99.8" font-family="Times,serif" font-size="14.00">SubscriptionProductsService</text>
</g>
<!-- SubscriptionProductsService&#45;&gt;SubscriptionProductsModule -->
<g id="edge4" class="edge">
<title>SubscriptionProductsService&#45;&gt;SubscriptionProductsModule</title>
<path fill="none" stroke="black" d="M147,-122.11C147,-141.34 147,-169 147,-169 147,-169 320.23,-169 320.23,-169"/>
<polygon fill="black" stroke="black" points="320.23,-172.5 330.23,-169 320.23,-165.5 320.23,-172.5"/>
</g>
</g>
</svg>
