<?xml version="1.0" encoding="UTF-8" standalone="no"?>
<!DOCTYPE svg PUBLIC "-//W3C//DTD SVG 1.1//EN"
 "http://www.w3.org/Graphics/SVG/1.1/DTD/svg11.dtd">
<!-- Generated by graphviz version 2.47.0 (20210316.0004)
 -->
<!-- Title: dependencies Pages: 1 -->
<svg width="704pt" height="211pt"
 viewBox="0.00 0.00 704.00 211.00" xmlns="http://www.w3.org/2000/svg" xmlns:xlink="http://www.w3.org/1999/xlink">
<g id="graph0" class="graph" transform="scale(1 1) rotate(0) translate(4 207)">
<title>dependencies</title>
<polygon fill="white" stroke="transparent" points="-4,4 -4,-207 700,-207 700,4 -4,4"/>
<text text-anchor="start" x="327.01" y="-42.4" font-family="Times-12" font-weight="bold" font-size="14.00">Legend</text>
<polygon fill="#ffffb3" stroke="transparent" points="114,-10 114,-30 134,-30 134,-10 114,-10"/>
<text text-anchor="start" x="137.63" y="-15.4" font-family="Times-12" font-size="14.00"> &#160;Declarations</text>
<polygon fill="#8dd3c7" stroke="transparent" points="227,-10 227,-30 247,-30 247,-10 227,-10"/>
<text text-anchor="start" x="250.73" y="-15.4" font-family="Times-12" font-size="14.00"> &#160;Module</text>
<polygon fill="#80b1d3" stroke="transparent" points="313,-10 313,-30 333,-30 333,-10 313,-10"/>
<text text-anchor="start" x="336.78" y="-15.4" font-family="Times-12" font-size="14.00"> &#160;Bootstrap</text>
<polygon fill="#fdb462" stroke="transparent" points="410,-10 410,-30 430,-30 430,-10 410,-10"/>
<text text-anchor="start" x="433.67" y="-15.4" font-family="Times-12" font-size="14.00"> &#160;Providers</text>
<polygon fill="#fb8072" stroke="transparent" points="506,-10 506,-30 526,-30 526,-10 506,-10"/>
<text text-anchor="start" x="529.73" y="-15.4" font-family="Times-12" font-size="14.00"> &#160;Exports</text>
<g id="clust1" class="cluster">
<title>cluster_PageWithVersionModule</title>
<polygon fill="none" stroke="black" stroke-dasharray="1,5" points="8,-70 8,-195 688,-195 688,-70 8,-70"/>
</g>
<g id="clust6" class="cluster">
<title>cluster_PageWithVersionModule_providers</title>
<polygon fill="none" stroke="black" points="16,-78 16,-130 680,-130 680,-78 16,-78"/>
</g>
<!-- PageWithVersionRepository -->
<g id="node1" class="node">
<title>PageWithVersionRepository</title>
<ellipse fill="#fdb462" stroke="black" cx="550" cy="-104" rx="122.13" ry="18"/>
<text text-anchor="middle" x="550" y="-99.8" font-family="Times,serif" font-size="14.00">PageWithVersionRepository</text>
</g>
<!-- PageWithVersionModule -->
<g id="node4" class="node">
<title>PageWithVersionModule</title>
<polygon fill="#8dd3c7" stroke="black" points="380.57,-187 377.57,-191 356.57,-191 353.57,-187 221.43,-187 221.43,-151 380.57,-151 380.57,-187"/>
<text text-anchor="middle" x="301" y="-164.8" font-family="Times,serif" font-size="14.00">PageWithVersionModule</text>
</g>
<!-- PageWithVersionRepository&#45;&gt;PageWithVersionModule -->
<g id="edge1" class="edge">
<title>PageWithVersionRepository&#45;&gt;PageWithVersionModule</title>
<path fill="none" stroke="black" d="M550,-122.11C550,-141.34 550,-169 550,-169 550,-169 390.81,-169 390.81,-169"/>
<polygon fill="black" stroke="black" points="390.81,-165.5 380.81,-169 390.81,-172.5 390.81,-165.5"/>
</g>
<!-- PageWithVersionService -->
<g id="node2" class="node">
<title>PageWithVersionService</title>
<ellipse fill="#fdb462" stroke="black" cx="301" cy="-104" rx="108.78" ry="18"/>
<text text-anchor="middle" x="301" y="-99.8" font-family="Times,serif" font-size="14.00">PageWithVersionService</text>
</g>
<!-- PageWithVersionService&#45;&gt;PageWithVersionModule -->
<g id="edge2" class="edge">
<title>PageWithVersionService&#45;&gt;PageWithVersionModule</title>
<path fill="none" stroke="black" d="M301,-122.11C301,-122.11 301,-140.99 301,-140.99"/>
<polygon fill="black" stroke="black" points="297.5,-140.99 301,-150.99 304.5,-140.99 297.5,-140.99"/>
</g>
<!-- UsersRepository -->
<g id="node3" class="node">
<title>UsersRepository</title>
<ellipse fill="#fdb462" stroke="black" cx="99" cy="-104" rx="75.3" ry="18"/>
<text text-anchor="middle" x="99" y="-99.8" font-family="Times,serif" font-size="14.00">UsersRepository</text>
</g>
<!-- UsersRepository&#45;&gt;PageWithVersionModule -->
<g id="edge3" class="edge">
<title>UsersRepository&#45;&gt;PageWithVersionModule</title>
<path fill="none" stroke="black" d="M99,-122.11C99,-141.34 99,-169 99,-169 99,-169 211.45,-169 211.45,-169"/>
<polygon fill="black" stroke="black" points="211.45,-172.5 221.45,-169 211.45,-165.5 211.45,-172.5"/>
</g>
</g>
</svg>
