<?xml version="1.0" encoding="UTF-8" standalone="no"?>
<!DOCTYPE svg PUBLIC "-//W3C//DTD SVG 1.1//EN"
 "http://www.w3.org/Graphics/SVG/1.1/DTD/svg11.dtd">
<!-- Generated by graphviz version 2.47.0 (20210316.0004)
 -->
<!-- Title: dependencies Pages: 1 -->
<svg width="570pt" height="211pt"
 viewBox="0.00 0.00 570.00 211.00" xmlns="http://www.w3.org/2000/svg" xmlns:xlink="http://www.w3.org/1999/xlink">
<g id="graph0" class="graph" transform="scale(1 1) rotate(0) translate(4 207)">
<title>dependencies</title>
<polygon fill="white" stroke="transparent" points="-4,4 -4,-207 566,-207 566,4 -4,4"/>
<text text-anchor="start" x="260.01" y="-42.4" font-family="Times-12" font-weight="bold" font-size="14.00">Legend</text>
<polygon fill="#ffffb3" stroke="transparent" points="47,-10 47,-30 67,-30 67,-10 47,-10"/>
<text text-anchor="start" x="70.63" y="-15.4" font-family="Times-12" font-size="14.00"> &#160;Declarations</text>
<polygon fill="#8dd3c7" stroke="transparent" points="160,-10 160,-30 180,-30 180,-10 160,-10"/>
<text text-anchor="start" x="183.73" y="-15.4" font-family="Times-12" font-size="14.00"> &#160;Module</text>
<polygon fill="#80b1d3" stroke="transparent" points="246,-10 246,-30 266,-30 266,-10 246,-10"/>
<text text-anchor="start" x="269.78" y="-15.4" font-family="Times-12" font-size="14.00"> &#160;Bootstrap</text>
<polygon fill="#fdb462" stroke="transparent" points="343,-10 343,-30 363,-30 363,-10 343,-10"/>
<text text-anchor="start" x="366.67" y="-15.4" font-family="Times-12" font-size="14.00"> &#160;Providers</text>
<polygon fill="#fb8072" stroke="transparent" points="439,-10 439,-30 459,-30 459,-10 439,-10"/>
<text text-anchor="start" x="462.73" y="-15.4" font-family="Times-12" font-size="14.00"> &#160;Exports</text>
<g id="clust1" class="cluster">
<title>cluster_CronModule</title>
<polygon fill="none" stroke="black" stroke-dasharray="1,5" points="8,-70 8,-195 554,-195 554,-70 8,-70"/>
</g>
<g id="clust3" class="cluster">
<title>cluster_CronModule_imports</title>
<polygon fill="none" stroke="black" points="388,-78 388,-130 546,-130 546,-78 388,-78"/>
</g>
<g id="clust6" class="cluster">
<title>cluster_CronModule_providers</title>
<polygon fill="none" stroke="black" points="16,-78 16,-130 380,-130 380,-78 16,-78"/>
</g>
<!-- StripePaymentModule -->
<g id="node1" class="node">
<title>StripePaymentModule</title>
<polygon fill="#8dd3c7" stroke="black" points="537.98,-122 534.98,-126 513.98,-126 510.98,-122 396.02,-122 396.02,-86 537.98,-86 537.98,-122"/>
<text text-anchor="middle" x="467" y="-99.8" font-family="Times,serif" font-size="14.00">StripePaymentModule</text>
</g>
<!-- CronModule -->
<g id="node2" class="node">
<title>CronModule</title>
<polygon fill="#8dd3c7" stroke="black" points="356.55,-187 353.55,-191 332.55,-191 329.55,-187 269.45,-187 269.45,-151 356.55,-151 356.55,-187"/>
<text text-anchor="middle" x="313" y="-164.8" font-family="Times,serif" font-size="14.00">CronModule</text>
</g>
<!-- StripePaymentModule&#45;&gt;CronModule -->
<g id="edge1" class="edge">
<title>StripePaymentModule&#45;&gt;CronModule</title>
<path fill="none" stroke="black" d="M467,-122.11C467,-141.34 467,-169 467,-169 467,-169 366.72,-169 366.72,-169"/>
<polygon fill="black" stroke="black" points="366.72,-165.5 356.72,-169 366.72,-172.5 366.72,-165.5"/>
</g>
<!-- CronService -->
<g id="node3" class="node">
<title>CronService</title>
<ellipse fill="#fdb462" stroke="black" cx="313" cy="-104" rx="59.11" ry="18"/>
<text text-anchor="middle" x="313" y="-99.8" font-family="Times,serif" font-size="14.00">CronService</text>
</g>
<!-- CronService&#45;&gt;CronModule -->
<g id="edge2" class="edge">
<title>CronService&#45;&gt;CronModule</title>
<path fill="none" stroke="black" d="M313,-122.11C313,-122.11 313,-140.99 313,-140.99"/>
<polygon fill="black" stroke="black" points="309.5,-140.99 313,-150.99 316.5,-140.99 309.5,-140.99"/>
</g>
<!-- DisposableEmailService -->
<g id="node4" class="node">
<title>DisposableEmailService</title>
<ellipse fill="#fdb462" stroke="black" cx="130" cy="-104" rx="105.93" ry="18"/>
<text text-anchor="middle" x="130" y="-99.8" font-family="Times,serif" font-size="14.00">DisposableEmailService</text>
</g>
<!-- DisposableEmailService&#45;&gt;CronModule -->
<g id="edge3" class="edge">
<title>DisposableEmailService&#45;&gt;CronModule</title>
<path fill="none" stroke="black" d="M130,-122.11C130,-141.34 130,-169 130,-169 130,-169 259.17,-169 259.17,-169"/>
<polygon fill="black" stroke="black" points="259.17,-172.5 269.17,-169 259.17,-165.5 259.17,-172.5"/>
</g>
</g>
</svg>
