<?xml version="1.0" encoding="UTF-8" standalone="no"?>
<!DOCTYPE svg PUBLIC "-//W3C//DTD SVG 1.1//EN"
 "http://www.w3.org/Graphics/SVG/1.1/DTD/svg11.dtd">
<!-- Generated by graphviz version 2.47.0 (20210316.0004)
 -->
<!-- Title: dependencies Pages: 1 -->
<svg width="504pt" height="284pt"
 viewBox="0.00 0.00 504.00 284.00" xmlns="http://www.w3.org/2000/svg" xmlns:xlink="http://www.w3.org/1999/xlink">
<g id="graph0" class="graph" transform="scale(1 1) rotate(0) translate(4 280)">
<title>dependencies</title>
<polygon fill="white" stroke="transparent" points="-4,4 -4,-280 500,-280 500,4 -4,4"/>
<text text-anchor="start" x="227.01" y="-42.4" font-family="Times-12" font-weight="bold" font-size="14.00">Legend</text>
<polygon fill="#ffffb3" stroke="transparent" points="14,-10 14,-30 34,-30 34,-10 14,-10"/>
<text text-anchor="start" x="37.63" y="-15.4" font-family="Times-12" font-size="14.00"> &#160;Declarations</text>
<polygon fill="#8dd3c7" stroke="transparent" points="127,-10 127,-30 147,-30 147,-10 127,-10"/>
<text text-anchor="start" x="150.73" y="-15.4" font-family="Times-12" font-size="14.00"> &#160;Module</text>
<polygon fill="#80b1d3" stroke="transparent" points="213,-10 213,-30 233,-30 233,-10 213,-10"/>
<text text-anchor="start" x="236.78" y="-15.4" font-family="Times-12" font-size="14.00"> &#160;Bootstrap</text>
<polygon fill="#fdb462" stroke="transparent" points="310,-10 310,-30 330,-30 330,-10 310,-10"/>
<text text-anchor="start" x="333.67" y="-15.4" font-family="Times-12" font-size="14.00"> &#160;Providers</text>
<polygon fill="#fb8072" stroke="transparent" points="406,-10 406,-30 426,-30 426,-10 406,-10"/>
<text text-anchor="start" x="429.73" y="-15.4" font-family="Times-12" font-size="14.00"> &#160;Exports</text>
<g id="clust1" class="cluster">
<title>cluster_PermissionModule</title>
<polygon fill="none" stroke="black" stroke-dasharray="1,5" points="55,-70 55,-268 441,-268 441,-70 55,-70"/>
</g>
<g id="clust6" class="cluster">
<title>cluster_PermissionModule_providers</title>
<polygon fill="none" stroke="black" points="63,-78 63,-130 433,-130 433,-78 63,-78"/>
</g>
<g id="clust4" class="cluster">
<title>cluster_PermissionModule_exports</title>
<polygon fill="none" stroke="black" points="89,-208 89,-260 374,-260 374,-208 89,-208"/>
</g>
<!-- PermissionRepository  -->
<g id="node1" class="node">
<title>PermissionRepository </title>
<polygon fill="#fb8072" stroke="black" points="365.66,-252 222.34,-252 222.34,-216 365.66,-216 365.66,-252"/>
<text text-anchor="middle" x="294" y="-229.8" font-family="Times,serif" font-size="14.00">PermissionRepository </text>
</g>
<!-- RoleRepository  -->
<g id="node2" class="node">
<title>RoleRepository </title>
<polygon fill="#fb8072" stroke="black" points="204.88,-252 97.12,-252 97.12,-216 204.88,-216 204.88,-252"/>
<text text-anchor="middle" x="151" y="-229.8" font-family="Times,serif" font-size="14.00">RoleRepository </text>
</g>
<!-- PermissionModule -->
<g id="node3" class="node">
<title>PermissionModule</title>
<polygon fill="#8dd3c7" stroke="black" points="236.77,-187 233.77,-191 212.77,-191 209.77,-187 115.23,-187 115.23,-151 236.77,-151 236.77,-187"/>
<text text-anchor="middle" x="176" y="-164.8" font-family="Times,serif" font-size="14.00">PermissionModule</text>
</g>
<!-- PermissionModule&#45;&gt;PermissionRepository  -->
<g id="edge1" class="edge">
<title>PermissionModule&#45;&gt;PermissionRepository </title>
<path fill="none" stroke="black" stroke-dasharray="5,2" d="M229.65,-187.11C229.65,-187.11 229.65,-205.99 229.65,-205.99"/>
<polygon fill="black" stroke="black" points="226.15,-205.99 229.65,-215.99 233.15,-205.99 226.15,-205.99"/>
</g>
<!-- PermissionModule&#45;&gt;RoleRepository  -->
<g id="edge2" class="edge">
<title>PermissionModule&#45;&gt;RoleRepository </title>
<path fill="none" stroke="black" stroke-dasharray="5,2" d="M159.9,-187.11C159.9,-187.11 159.9,-205.99 159.9,-205.99"/>
<polygon fill="black" stroke="black" points="156.4,-205.99 159.9,-215.99 163.4,-205.99 156.4,-205.99"/>
</g>
<!-- PermissionRepository -->
<g id="node4" class="node">
<title>PermissionRepository</title>
<ellipse fill="#fdb462" stroke="black" cx="329" cy="-104" rx="96.17" ry="18"/>
<text text-anchor="middle" x="329" y="-99.8" font-family="Times,serif" font-size="14.00">PermissionRepository</text>
</g>
<!-- PermissionRepository&#45;&gt;PermissionModule -->
<g id="edge3" class="edge">
<title>PermissionRepository&#45;&gt;PermissionModule</title>
<path fill="none" stroke="black" d="M232.64,-104C227.06,-104 223.66,-104 223.66,-104 223.66,-104 223.66,-140.89 223.66,-140.89"/>
<polygon fill="black" stroke="black" points="220.16,-140.89 223.66,-150.89 227.16,-140.89 220.16,-140.89"/>
</g>
<!-- RoleRepository -->
<g id="node5" class="node">
<title>RoleRepository</title>
<ellipse fill="#fdb462" stroke="black" cx="143" cy="-104" rx="71.81" ry="18"/>
<text text-anchor="middle" x="143" y="-99.8" font-family="Times,serif" font-size="14.00">RoleRepository</text>
</g>
<!-- RoleRepository&#45;&gt;PermissionModule -->
<g id="edge4" class="edge">
<title>RoleRepository&#45;&gt;PermissionModule</title>
<path fill="none" stroke="black" d="M164.88,-121.42C164.88,-121.42 164.88,-140.62 164.88,-140.62"/>
<polygon fill="black" stroke="black" points="161.39,-140.62 164.88,-150.62 168.39,-140.62 161.39,-140.62"/>
</g>
</g>
</svg>
