<svg width="82" height="45" viewBox="0 0 82 45" fill="none" xmlns="http://www.w3.org/2000/svg">
<path d="M25.8865 43.1634C24.6305 43.1634 23.3884 42.8017 22.1603 42.0781C20.96 41.3824 19.4249 40.297 17.5548 38.8221C16.1591 37.7089 14.9589 36.8044 13.9541 36.1087C12.9772 35.4408 11.9025 34.8703 10.7302 34.3972C9.58583 33.9241 8.41352 33.6876 7.2133 33.6876C6.79462 33.6876 6.47363 33.7015 6.25033 33.7293L12.4887 4.80073C10.6186 5.55213 9.16715 6.70704 8.1344 8.26548C7.12956 9.7961 6.62715 11.6746 6.62715 13.9009C6.62715 14.9306 6.72484 15.6542 6.92022 16.0716C7.11561 16.4612 7.2133 16.6839 7.2133 16.7395C5.70604 16.7395 4.5756 16.4334 3.82197 15.8211C3.09626 15.1811 2.7334 14.1375 2.7334 12.6903C2.7334 10.9093 3.45911 9.18385 4.91055 7.51409C6.38989 5.81651 8.27396 4.45287 10.5628 3.42318C12.8516 2.36567 15.1404 1.83691 17.4292 1.83691C17.8199 1.83691 18.3782 1.86474 19.1039 1.9204L12.6562 31.8926C13.4377 32.0874 14.2332 32.3657 15.0427 32.7275C15.88 33.1171 16.8849 33.6319 18.0572 34.272C19.8715 35.246 21.4206 35.9835 22.7045 36.4844C23.9885 37.0132 25.3283 37.2775 26.7239 37.2775C27.9799 37.2775 29.1523 37.0549 30.2408 36.6096C30.0175 38.6412 29.5151 40.2414 28.7336 41.4102C27.98 42.579 27.0309 43.1634 25.8865 43.1634Z" fill="white"/>
<path d="M24.4591 32.8944C22.3936 32.8944 20.7607 32.3657 19.5605 31.3082C18.3603 30.2506 17.7602 28.5809 17.7602 26.2989C17.7602 24.4065 18.1509 22.3054 18.9325 19.9955C19.714 17.6857 20.9701 15.6959 22.7006 14.0262C24.4312 12.3286 26.6083 11.4798 29.2321 11.4798C32.8048 11.4798 34.5912 13.7061 34.5912 18.1588V18.2005C34.6749 18.2284 34.8285 18.2423 35.0518 18.2423C35.9729 18.2423 37.0335 18.0057 38.2337 17.5326C39.434 17.0317 40.5225 16.4334 41.4995 15.7377L41.8763 16.8647C41.0668 17.7275 40.0062 18.4649 38.6943 19.0772C37.4103 19.6616 36.0008 20.079 34.4656 20.3295C34.2423 22.862 33.6701 25.0744 32.749 26.9668C31.8279 28.8592 30.6416 30.3202 29.1902 31.3499C27.7388 32.3796 26.1617 32.8944 24.4591 32.8944ZM26.1338 29.1375C26.8037 29.1375 27.4736 28.7618 28.1435 28.0104C28.8134 27.2312 29.3995 26.1876 29.902 24.8796C30.4044 23.5438 30.7672 22.0688 30.9905 20.4547C30.2369 20.2877 29.8601 19.7033 29.8601 18.7015C29.8601 17.5605 30.2927 16.8091 31.158 16.4473C31.1022 15.5289 30.9626 14.9028 30.7393 14.5688C30.516 14.207 30.1253 14.0262 29.567 14.0262C28.6459 14.0262 27.7527 14.6941 26.8874 16.0299C26.0222 17.3657 25.3244 18.9659 24.794 20.8304C24.2637 22.695 23.9985 24.3369 23.9985 25.7562C23.9985 27.092 24.1521 27.9965 24.4591 28.4696C24.7661 28.9148 25.3244 29.1375 26.1338 29.1375Z" fill="white"/>
<path d="M44.1561 43.1634C42.8164 43.1634 41.6999 42.8156 40.8067 42.1198C39.9135 41.4241 39.4669 40.4223 39.4669 39.1143C39.4669 37.528 40.1089 36.2479 41.3928 35.2738C42.6768 34.3276 44.3097 33.5345 46.2914 32.8944L46.7938 30.682C45.3703 32.2126 43.6956 32.9779 41.7696 32.9779C40.1787 32.9779 38.8528 32.4352 37.7922 31.3499C36.7315 30.2646 36.2012 28.567 36.2012 26.2571C36.2012 24.1978 36.6059 22.041 37.4153 19.7868C38.2527 17.5048 39.4809 15.5846 41.0998 14.0262C42.7466 12.4399 44.7004 11.6467 46.9613 11.6467C48.1057 11.6467 48.957 11.8416 49.5153 12.2312C50.0735 12.6208 50.3526 13.1356 50.3526 13.7757V14.0262L50.8132 11.8555H56.8422L52.6973 31.2247C54.037 30.7794 55.1117 30.1115 55.9211 29.221C56.7306 28.3304 57.4144 27.0085 57.9727 25.2553H59.7311C58.9775 27.7321 57.9587 29.5549 56.6747 30.7237C55.3908 31.8647 53.9394 32.644 52.3204 33.0614L51.6924 36.067C51.1342 38.7664 50.1712 40.6171 48.8035 41.6189C47.4358 42.6486 45.8867 43.1634 44.1561 43.1634ZM44.4911 28.9288C45.1331 28.9288 45.789 28.6365 46.4589 28.0521C47.1288 27.4677 47.5893 26.6746 47.8405 25.6727L49.9758 15.7794C49.9758 15.4454 49.8363 15.1115 49.5571 14.7775C49.278 14.4158 48.8454 14.2349 48.2592 14.2349C47.1427 14.2349 46.1379 14.8889 45.2447 16.1968C44.3515 17.477 43.6537 19.0354 43.1513 20.8722C42.6489 22.6811 42.3977 24.2813 42.3977 25.6727C42.3977 27.0642 42.5931 27.9547 42.9838 28.3443C43.4025 28.7339 43.9049 28.9288 44.4911 28.9288ZM43.1932 39.9074C43.6677 39.9074 44.1282 39.5874 44.5748 38.9473C45.0214 38.3072 45.3703 37.3889 45.6215 36.1922L45.8727 34.9816C43.1373 35.9835 41.7696 37.1662 41.7696 38.5299C41.7696 38.8916 41.8953 39.2117 42.1465 39.49C42.3977 39.7683 42.7466 39.9074 43.1932 39.9074Z" fill="white"/>
<path d="M64.0786 32.8944C62.0131 32.8944 60.3802 32.3657 59.18 31.3082C57.9797 30.2506 57.3796 28.5809 57.3796 26.2989C57.3796 24.3787 57.7564 22.2775 58.5101 19.9955C59.2637 17.6857 60.4918 15.6959 62.1945 14.0262C63.8971 12.3286 66.0743 11.4798 68.7259 11.4798C72.0196 11.4798 73.792 13.3583 74.0432 17.1152C74.6573 16.9761 75.2015 16.6421 75.6761 16.1134C76.1506 15.5568 76.5972 14.9306 77.0158 14.2349H78.3556C77.602 15.7377 76.9321 16.9204 76.3459 17.7831C75.7598 18.618 74.9922 19.2998 74.0432 19.8286C73.8757 22.4445 73.3314 24.7404 72.4103 26.7163C71.5171 28.6922 70.3448 30.2228 68.8934 31.3082C67.442 32.3657 65.837 32.8944 64.0786 32.8944ZM65.7533 29.1375C66.786 29.1375 67.749 28.3026 68.6422 26.6328C69.5354 24.9631 70.1494 22.9037 70.4844 20.4547C69.8145 20.2043 69.4796 19.5781 69.4796 18.5762C69.4796 17.4909 69.8703 16.7673 70.6519 16.4056C70.596 15.515 70.4425 14.9028 70.1913 14.5688C69.968 14.207 69.5912 14.0262 69.0609 14.0262C68.1398 14.0262 67.2605 14.6941 66.4232 16.0299C65.5858 17.3378 64.902 18.938 64.3716 20.8304C63.8692 22.695 63.618 24.3369 63.618 25.7562C63.618 27.092 63.7715 27.9965 64.0786 28.4696C64.3856 28.9148 64.9438 29.1375 65.7533 29.1375Z" fill="white"/>
</svg>
