<svg width="138" height="75" viewBox="0 0 138 75" fill="none" xmlns="http://www.w3.org/2000/svg">
<path d="M43.5651 71.9386C41.4513 71.9386 39.361 71.3356 37.2941 70.1297C35.2742 68.9701 32.6906 67.1612 29.5434 64.703C27.1947 62.8477 25.1748 61.3403 23.4837 60.1807C21.8396 59.0675 20.0311 58.1167 18.0582 57.3282C16.1322 56.5397 14.1593 56.1455 12.1394 56.1455C11.4348 56.1455 10.8946 56.1686 10.5188 56.215L21.0176 8.00074C17.8703 9.25306 15.4276 11.1779 13.6896 13.7753C11.9985 16.3263 11.153 19.4571 11.153 23.1677C11.153 24.8839 11.3174 26.0898 11.6462 26.7855C11.975 27.4349 12.1394 27.8059 12.1394 27.8987C9.60284 27.8987 7.70039 27.3885 6.43209 26.3681C5.21076 25.3013 4.6001 23.562 4.6001 21.1501C4.6001 18.1816 5.82142 15.3059 8.26408 12.523C10.7537 9.69369 13.9245 7.42096 17.7763 5.70482C21.6282 3.9423 25.4801 3.06104 29.332 3.06104C29.9896 3.06104 30.9291 3.10742 32.1504 3.20018L21.2994 53.1538C22.6147 53.4785 23.9534 53.9423 25.3157 54.5453C26.7249 55.1946 28.416 56.0527 30.3889 57.1195C33.4422 58.7429 36.0493 59.972 38.2101 60.8069C40.3709 61.6881 42.6257 62.1287 44.9744 62.1287C47.0882 62.1287 49.0611 61.7577 50.8931 61.0156C50.5173 64.4015 49.6718 67.0685 48.3565 69.0165C47.0882 70.9646 45.4911 71.9386 43.5651 71.9386Z" fill="#2196F3"/>
<path d="M41.1628 54.8236C37.6868 54.8236 34.9388 53.9423 32.9189 52.1798C30.899 50.4173 29.8891 47.6343 29.8891 43.831C29.8891 40.677 30.5467 37.1751 31.862 33.3254C33.1772 29.4757 35.2911 26.1594 38.2035 23.3764C41.1159 20.5471 44.7799 19.1325 49.1954 19.1325C55.2081 19.1325 58.2145 22.843 58.2145 30.2642V30.3338C58.3554 30.3801 58.6137 30.4033 58.9895 30.4033C60.5397 30.4033 62.3247 30.0091 64.3446 29.2206C66.3645 28.3857 68.1965 27.3885 69.8406 26.2289L70.4747 28.1074C69.1125 29.5453 67.3274 30.7744 65.1197 31.7948C62.9588 32.7688 60.5867 33.4646 58.0031 33.882C57.6273 38.1028 56.6643 41.7902 55.1142 44.9441C53.564 48.0981 51.5676 50.5332 49.125 52.2493C46.6823 53.9655 44.0283 54.8236 41.1628 54.8236ZM43.9813 48.562C45.1087 48.562 46.2361 47.9358 47.3634 46.6835C48.4908 45.3848 49.4773 43.6455 50.3228 41.4655C51.1683 39.2391 51.779 36.7809 52.1548 34.0907C50.8865 33.8124 50.2523 32.8384 50.2523 31.1686C50.2523 29.267 50.9804 28.0147 52.4366 27.4117C52.3427 25.8811 52.1078 24.8375 51.732 24.2809C51.3562 23.6779 50.6986 23.3764 49.7591 23.3764C48.209 23.3764 46.7058 24.4896 45.2496 26.716C43.7934 28.9423 42.619 31.6093 41.7265 34.7169C40.834 37.8245 40.3878 40.561 40.3878 42.9265C40.3878 45.1529 40.6461 46.6603 41.1628 47.4488C41.6796 48.1909 42.619 48.562 43.9813 48.562Z" fill="#2196F3"/>
<path d="M74.3115 71.9386C72.0568 71.9386 70.1778 71.3588 68.6746 70.1992C67.1715 69.0397 66.4199 67.3699 66.4199 65.19C66.4199 62.5462 67.5003 60.4126 69.6611 58.7892C71.8219 57.2122 74.5699 55.8904 77.9051 54.8236L78.7506 51.1362C76.3549 53.6872 73.5365 54.9627 70.2952 54.9627C67.6177 54.9627 65.3865 54.0583 63.6014 52.2493C61.8164 50.4404 60.9239 47.6111 60.9239 43.7614C60.9239 40.3291 61.605 36.7345 62.9673 32.9775C64.3765 29.1742 66.4434 25.9738 69.1679 23.3764C71.9393 20.7326 75.2275 19.4108 79.0324 19.4108C80.9584 19.4108 82.3911 19.7354 83.3306 20.3848C84.2701 21.0341 84.7398 21.8922 84.7398 22.959V23.3764L85.5149 19.7586H95.6613L88.6856 52.0406C90.9404 51.2985 92.7489 50.1853 94.1111 48.7011C95.4734 47.2169 96.6242 45.0137 97.5637 42.0916H100.523C99.2548 46.2197 97.5402 49.2577 95.3794 51.2057C93.2186 53.1074 90.776 54.4061 88.0515 55.1018L86.9946 60.1111C86.0551 64.6102 84.4345 67.6946 82.1327 69.3644C79.831 71.0805 77.2239 71.9386 74.3115 71.9386ZM74.8752 48.2141C75.9556 48.2141 77.0595 47.7271 78.1869 46.7531C79.3143 45.779 80.0893 44.4571 80.5121 42.7874L84.1056 26.2985C84.1056 25.7419 83.8708 25.1853 83.401 24.6288C82.9313 24.0258 82.2032 23.7243 81.2167 23.7243C79.3378 23.7243 77.6467 24.8143 76.1435 26.9942C74.6404 29.1278 73.466 31.7252 72.6205 34.7865C71.7749 37.8013 71.3522 40.4683 71.3522 42.7874C71.3522 45.1065 71.681 46.5907 72.3386 47.2401C73.0432 47.8894 73.8888 48.2141 74.8752 48.2141ZM72.6909 66.5119C73.4895 66.5119 74.2646 65.9785 75.0161 64.9117C75.7677 63.8449 76.3549 62.3143 76.7777 60.3198L77.2004 58.3022C72.597 59.972 70.2952 61.9432 70.2952 64.216C70.2952 64.8189 70.5066 65.3523 70.9294 65.8161C71.3522 66.28 71.9393 66.5119 72.6909 66.5119Z" fill="#2196F3"/>
<path d="M107.84 54.8236C104.363 54.8236 101.615 53.9423 99.5955 52.1798C97.5757 50.4173 96.5657 47.6343 96.5657 43.831C96.5657 40.6306 97.1999 37.1287 98.4682 33.3254C99.7365 29.4757 101.803 26.1594 104.669 23.3764C107.534 20.5471 111.198 19.1325 115.661 19.1325C121.204 19.1325 124.186 22.2633 124.609 28.5249C125.643 28.2929 126.559 27.7364 127.357 26.8551C128.156 25.9275 128.907 24.8839 129.612 23.7243H131.867C130.598 26.2289 129.471 28.2002 128.485 29.638C127.498 31.0295 126.206 32.1659 124.609 33.0471C124.327 37.407 123.411 41.2336 121.861 44.5267C120.358 47.8198 118.385 50.3709 115.943 52.1798C113.5 53.9423 110.799 54.8236 107.84 54.8236ZM110.658 48.562C112.396 48.562 114.017 47.1705 115.52 44.3876C117.023 41.6046 118.056 38.1724 118.62 34.0907C117.493 33.6733 116.929 32.6297 116.929 30.9599C116.929 29.151 117.587 27.9451 118.902 27.3421C118.808 25.8579 118.55 24.8375 118.127 24.2809C117.751 23.6779 117.117 23.3764 116.224 23.3764C114.674 23.3764 113.195 24.4896 111.785 26.716C110.376 28.8959 109.225 31.5629 108.333 34.7169C107.487 37.8245 107.064 40.561 107.064 42.9265C107.064 45.1529 107.323 46.6603 107.84 47.4488C108.356 48.1909 109.296 48.562 110.658 48.562Z" fill="#2196F3"/>
</svg>
