<svg version="1.2" xmlns="http://www.w3.org/2000/svg" viewBox="0 0 1400 1000" width="1400" height="1000"><style>.a{fill:#f5f5ff}.b{fill:#dfdfeb}.c{fill:#7e9e6e}.d{fill:none;stroke:#000;stroke-linecap:round;stroke-miterlimit:10;stroke-width:2}.e{fill:#005da6}.f{fill:#2196f3}.g{fill:#db9c7f}.h{fill:#9ec68a}.i{fill:none;stroke:#424242;stroke-miterlimit:10;stroke-width:2}.j{fill:none;stroke:#424242;stroke-linecap:round;stroke-miterlimit:10;stroke-width:2}.k{fill:#fff}.l{fill:none;stroke:#1a1c30;stroke-linecap:round;stroke-linejoin:round;stroke-width:1.6}.m{fill:#d3ddf7}.n{fill:none;stroke:#000;stroke-linecap:round;stroke-linejoin:round;stroke-width:2}</style><path class="a" d="m1043.5 441.6c0 183.2-208.4 331.8-465.5 331.8-257.1 0-465.5-148.6-465.5-331.8 0-183.3 208.4-331.9 465.5-331.9 257.1 0 465.5 148.6 465.5 331.9z"/><path class="b" d="m1293.1 879.4c0 16.3-95.2 29.5-212.5 29.5-117.4 0-212.5-13.2-212.5-29.5 0-16.3 95.1-29.5 212.5-29.5 117.3 0 212.5 13.2 212.5 29.5z"/><path class="b" d="m1019.1 893.6c0 18.1-171.9 32.7-383.9 32.7-212.1 0-383.9-14.6-383.9-32.7 0-18 171.8-32.6 383.9-32.6 212 0 383.9 14.6 383.9 32.6z"/><path class="c" d="m708.6 314.2c0 0-7.1 41.2-58.9 94.3 0 0-5.7-7.1 4.2-36.4 9.9-29.3 51.7-67.9 54.7-57.9z"/><path class="d" d="m708.6 314.2c0 0-46.6 33.3-58.9 94.3 0 0-2.4 20.9 4.8 39"/><path class="c" d="m583.4 347.5c0 0 13-9.9-9.5-34.6-21.3-23.5-43.9-44.6-88.1-52.3 0 0 13.3 59.9 42.1 74.1 28.8 14.3 55.5 12.8 55.5 12.8z"/><path class="c" d="m476.1 391.5c0 0 46.1 10.1 124.3-16 0 0-4.9-8.1-39.8-10.8-34.9-2.7-93.6 20.1-84.5 26.8z"/><path class="d" d="m476.1 391.5c0 0 55.3-29.3 124.3-16 0 0 7.1 1.8 14.3 11.4"/><path class="c" d="m514.3 433.3c0 0 49.3 32.5 127.5 6.4 0 0-15.2-27.5-50.1-30.3-34.9-2.7-86.5 17.2-77.4 23.9z"/><path class="d" d="m514.3 433.3c0 0 53.2-24.8 127.5 6.4 0 0 8.8 3.9 16 13.5"/><path  d="m681.3 275.2c0 0 14.6-1.8-21 31.1-33.5 31-29.2 31.3-29.2 31.3 0 0 12.7-46.5 50.2-62.4z"/><path class="c" d="m606.6 353.3c0 0 10.9 4.2 30.5-13.8 19.7-18 27-58.1 44.2-64.3 0 0-43.3 13.9-74.7 78.1z"/><path class="d" d="m678 491.1c-22.2-44.5-52.9-95.2-94.6-143.6 0 0-10.3-13.4-46-48.3-35.6-34.8-51.6-38.6-51.6-38.6"/><path class="d" d="m676.2 277.3c0 0-41.2 18-69.6 76-6.8 14 1.4 25.2 8.1 33.6"/><path class="c" d="m1051.7 758.3c0 0-34.4 25.4-113.7 6.8 0 0 0.2-12.8 28.7-25 28.4-12.2 89.5 6.4 85 18.2z"/><path class="d" d="m1049.3 756c0 0-54.4-18.2-110.9 7.7 0 0-18.4 10.3-28.8 26.8"/><path class="c" d="m937 702.4c0 0 15.6 4.8 22.5-27.9 6.5-31.1 10.2-61.8-9.5-102.1 0 0-40.6 46-35.2 77.6 5.3 31.7 22.2 52.4 22.2 52.4z"/><path  d="m1053.6 714.7c0 0 12.1 8.3-36.3 9.6-45.7 1.3-42.6 4.2-42.6 4.2 0 0 40.2-26.5 78.9-13.8z"/><path class="c" d="m946 724.3c0 0 5.4 10.3 32 9.7 26.6-0.6 58.6-26 75.6-19.3 0 0-41.8-18-107.6 9.6z"/><path class="d" d="m876.2 863.3c23.1-44 46.1-98.6 60.8-160.9 0 0 4.8-16.2 12.1-65.5 7.3-49.3 0.9-64.5 0.9-64.5"/><path class="d" d="m1048.4 712.9c0 0-42.9-13.6-102.4 11.4-14.5 6-18.6 15.6-24.7 33.3"/><path class="e" d="m503.2 464.7c-11.1 0-21.9-3.9-30.5-11.1l-23.7-19.8c-8.5-7.1-18.7-10.9-29.1-10.9h-117.7c-10.7 0-19.4 8.6-19.4 19.3v22.5 403.9c0 18.4 15 33.4 33.4 33.4h587.1c14.4 0 26-11.6 26-26v-385.4c0-14.3-11.6-25.9-26-25.9z"/><path class="f" d="m929.3 880.2c0 0-40-75-44-83.6l-109.2-222.4c-2.7-5.9-8.6-9.7-15.2-9.7h-405.7c-14.8 0-36.1-7.8-47.5-17.2l-16.3-13.7c-8.6-7.1-18.7-10.9-29.1-10.9h-112.1c-11.9 0-20 12.1-15.5 23.1l135.6 327.8c7.6 18.4 25.5 30.4 45.4 30.4h606.2c4 0 7.7-3.4 7.6-7.3z"/><path class="g" d="m1048.8 464.9c2.5-11.2-9.3-25.1-20.5-22.9-9.2 1.8-13.7 4-15.2 4.5-2.9 0.9-24.3-0.5-26.7 3.1-1.8 2.6 9.4 5.6 16.5 6.3 1.5 0.1 1.9 2.1 0.7 2.8-7.1 4.4-21 13.2-22.2 15.4-1.6 3-8.9 14.4-6.8 15.6 2 1.3 8.2-4.4 12.2-8.5 4-4 15.8-7.4 15.8-7.4 0 0-20.4 20.5-23.1 26.2-4.1 8.4 7.6 4.7 7.6 4.7-1.8 4.8 7.7 3.8 10 1.9 4.4-3.5 18.2-20.1 18.2-18.4 0.1 1.6-14.2 19.8-12.8 24 1.5 4.2 7.3-1.1 10.6-5.6 3.3-4.4 13.2-16.9 13.2-16.9 0 0 11.1-8.1 20.4-22.2 0.1-0.1 2-2.5 2.1-2.6z"/><path class="d" d="m987.6 504.3l19.5-23.3"/><path class="h" d="m902.2 399l70.1-43.8q0.7-0.4 1.3-0.9l23.1-23.8c5-4.4 12.8-3.4 16.5 2.2l11.3 17c2.4 3.6 2.5 8.2 0.3 11.9l-16.3 26.4c-1.2 2-3 3.5-5.1 4.4-13.1 5.6-63.1 26.7-92.9 35.2-7.4 2.1-14.6-4-14-11.6l0.7-8.7c0.3-3.4 2.2-6.5 5-8.3z"/><path  d="m1063.7 836.1l-3.7 25.2c0 0-69.5 26.7-63 27.1 6.4 0.4 106.3-5.4 106.3-5.4l-5.9-45.8z"/><path class="i" d="m1083.1 428.5c0 0 5.5 53.2 9.7 56 4.1 2.8 9.6 4.2 9.6 4.2l-9-60.9z"/><path  d="m1192.8 391.8c0 0 28.2 57.4 20 89.3l-156.1-21.4 3.2-59.6z"/><path class="j" d="m1197.1 403.4c0 0-22.1 40.9-64.3 44.2"/><path class="j" d="m1161.8 438.9c0 0 8.5 26.4 33.3 27"/><path  d="m1056.7 459.7c0 0-41.9 148.9-43 196.8l30.6 184.7c0 0 29.2 14.5 59.5 2.8 1.3-0.5-15.4-95.8-16.5-193.9l87.2-182.7z"/><path  d="m1213.5 474.9l-6.2 179.7 68.8 187.8c0 0-28.8 24.4-65.1 2.2l-74.7-178.9 7.7-130.1-32.6-19.7-4.8-56.4z"/><path class="k" d="m1092.6 442l33.2 25 47.5-53-115.4 16.4 28.2 37.5z"/><path  d="m1227.5 833.1l-6 21.7c0 0-43.8 47.6-37.4 47.6 6.5 0 78.5-29.5 78.5-29.5l-9.3-45.3z"/><path class="j" d="m1187.2 417.2c0 0 18.9 46.6 5.3 242.1 0 0 47.9 105.4 72.7 188.8"/><path class="j" d="m1117.5 520.5l-47.8 133.2 20.5 194.4"/><path class="g" d="m909.1 425.3c0 0 0.9 4.6-9.4 8.2-10.3 3.5-16.4 2.4-16.4 2.4 0 0-23.2-27.3-24.2-28.3-1-0.9 0.7-11.4 7.6-15.6 4.1-2.6 20.3 1.6 32.3 5.2 8.4 2.6 13.6 11 12.1 19.6-0.5 3.4-1.2 6.6-2 8.5z"/><path class="g" d="m890.1 418c0 0-19-2.7-27-9.3 0 0-11.9-2.4-14.4-0.9-2.6 1.5-4.7 3.6-10.2 4.5-5.5 1-3.8-2.7 2-7.9 1.6-1.5 6-6.8 9.9-7.5 5.1-1 16.3-4.9 16.3-4.9l22.4 26.7"/><path class="g" d="m883.3 435.9c0 0-7.7 4.8-10.4 4.7-2.7-0.1-5.2-1.7-5.9-6.2 0 0-14.3 2.6-9.8-8.2 0 0-8.6-1.4-8.8-7 0 0-7.7-3.8-6-10 1.6-6.1 25.7-5.5 25.7-5.5l25.5 12.9z"/><path class="l" d="m877.9 436.9c0 0 7.3-6.4 6.8-9-0.4-2.6-1.7-4-3.4-3.6-2.2 0.7-10.7 7.2-14.3 10.1"/><path class="l" d="m857.2 426.2c0 0 19.5-3 19.6-5.9 0.2-2.9-1.1-6.7-5.2-5.9-4.8 1-18.7 4.3-23.2 4.2"/><path class="l" d="m881.3 424.3c0 0 3.6-2.2 2.2-4.6-1.4-2.5-3.4-3.4-7.5-2.3"/><path class="l" d="m848 410.5c0 0 1-1.4 2.5-2.8"/><path class="e" d="m890.1 446.5l-0.3 0.2c-2.7 1.5-6 0.6-7.4-2.1l-50.5-89.7 9.8-5.6 50.5 89.8c1.4 2.6 0.5 6-2.1 7.4z"/><path class="e" d="m856.8 369.3l4.3 7.5c1.1 2.1 0.6 4.5-1.2 5.6l-9.2 5.1c-1.7 1-4.1 0.2-5.3-1.9l-4.4-7.8"/><path class="e" d="m837.2 295.5c-17.5-32.4-39.4-54.8-53.4-55.9l0.5-3-7.3 4.7c-12.6 8.5-5.9 46.7 14.9 85.2 20.7 38.4 47.7 62.7 60.2 54.2l6.9-4.6-2-2.6c4.8-14.9-2.7-46.3-19.8-78z"/><path class="f" d="m844.5 290.8c20.8 38.5 27.4 76.6 14.9 85.1-12.5 8.6-39.5-15.7-60.3-54.2-20.7-38.5-27.4-76.6-14.8-85.1 12.5-8.6 39.5 15.7 60.2 54.2z"/><path class="m" d="m837.6 295.5c16.9 31.3 23.5 61.5 14.8 67.5-8.7 5.9-29.4-14.7-46.3-46-16.9-31.3-23.5-61.5-14.8-67.5 8.7-5.9 29.4 14.7 46.3 46z"/><path class="g" d="m890.1 418c0 0-19-2.7-27-9.3 0 0-11.9-2.4-14.4-0.9-2.6 1.5-4.7 3.6-10.2 4.5-5.5 1-3.8-2.7 2-7.9 1.6-1.5 6-6.8 9.9-7.5 5.1-1 16.3-4.9 16.3-4.9l22.4 26.7"/><path class="l" d="m890.1 418c0 0-19-2.7-27-9.3 0 0-11.9-2.4-14.4-0.9-2.6 1.5-4.7 3.6-10.2 4.5"/><path class="e" d="m837.6 295.5c-16.9-31.3-37.6-51.9-46.3-46q-1.1 0.7-1.8 1.9c10.1 0.6 27.7 19.7 42.4 47 15.5 28.8 22.3 56.7 16.5 65.6 1.5 0.1 2.9-0.3 4-1 8.7-6 2.1-36.2-14.8-67.5z"/><path class="k" d="m825.8 283.2c9 16.7 12.6 32.8 7.9 35.9-4.6 3.2-15.6-7.8-24.6-24.4-9-16.7-12.5-32.8-7.9-35.9 4.6-3.2 15.7 7.8 24.6 24.4z"/><path class="h" d="m1161.7 336.9l-13.9-49.7c-5.1-18.3-14.1-35.2-25.9-50-21-26.2-76.1-23.8-76.1-23.8l-42.4 30.5q-0.2 0.1-0.4 0.2c-25 13.8-29.5 35.1-28.9 67.8l1.6 44.2 28.7-27.4 7.2 10q0-0.5-0.1-0.9l3.4 5.4-3.3-4.5c1 9.1 5.8 32.3 27.9 43.2l12.6 19.8-3.3 27.4c118.2 43 147.7-41.4 147.7-41.4z"/><path class="d" d="m998.3 324.2l15.5 18.9c0 0-2.1 29.2 27.3 38.6"/><path class="h" d="m1115.8 362.7l-90 78.4c0 0 17.8 25 25.9 25.9l107.8-68.6"/><path class="d" d="m1052.5 417.1c0 0 49.1-55.3 66-63.3"/><path class="d" d="m1092.5 303.1c0 0 2.4 12.4 18.1 55.8"/><path class="d" d="m1064.1 459.9c0 0 100.7-64.2 101.6-82.9 0.9-18.7-25.4-105.6-25.4-105.6"/><path class="d" d="m1075.2 369c0 0 24.2 2.2 31.7-19.8"/><path class="d" d="m977 352.6c0 0 6.7-6.7 13.4 0.9"/><path class="k" d="m897.7 396.7l14.2-6.7c0 0 17.4 18.9 11.2 35.2l-17.4 5.1c0 0 8-17.8-8-33.6z"/><path class="k" d="m1031.5 431.1c0 0 18.7 8 32.1 31.1l-14.4 11c0 0-17.7-25.4-30.1-29.4z"/><path class="k" d="m1015.8 210.5l59 4.4c0 0 2.3 32.5-33.4 61.1l-16-15.6-8.7 19c0 0-13.6-7.6-15.4-29.5l2.9-26.6z"/><path class="g" d="m1045.8 213.4c2.1 1.9 3.2 4.7 2.7 7.5-1.9 10.5-7.7 36.1-19.2 39.3-14.5 4.1-23.6-24.6-23.6-24.6l7.3-50.1z"/><path  d="m999.7 225.3l-0.1 7.3c-0.2 0.1-2.6 21.6 4.6 22.5 30.3-5.5 32.2-34.2 34.8-62.7 0 0-42.2 27.2-39.3 32.9z"/><path class="g" d="m949.4 171.6c0 0-7.4 70.3 36.2 82.3 43.7 12.1 54.2-59.1 52.7-83.7-1.5-24.6-12.5-33.8-43.1-34.9-45.3-1.6-45.8 36.3-45.8 36.3z"/><path  d="m988.6 205.5c0.1 2.6-1.1 4.7-2.7 4.7-1.6 0.1-3-1.9-3.1-4.4-0.2-2.5 1-4.6 2.7-4.7 1.6-0.1 3 1.9 3.1 4.4z"/><path class="d" d="m993.4 192.6c0 0-14.4 6.2-15.9-4.7"/><path class="d" d="m960 192.6c0 0-4.7 8.3-10.2 4.6"/><path class="d" d="m952.4 207.3c0 0 2.7-0.9 6.7 1.2"/><path class="d" d="m995.1 233.5c0 0 4-3.7 7.2-4.6"/><path class="d" d="m965.6 215.4c0 0-2.5 5.7 3.9 8.4"/><path  d="m948.8 186.7c0 0 0.8-20.6 9.9-32.2 0 0 12.5 28.5 66.6 34.3l15.7-3.3c0 0 6.5-33-16.1-46-22.6-13-57.1-5.9-68.2 5.8-18.9 19.8-7.9 41.4-7.9 41.4z"/><path  d="m1014.8 185l9.3 18.5 6.7-20.8z"/><path class="g" d="m1047.5 201.6c-2.7 9.8-10.5 16.3-17.3 14.5-6.8-1.9-10.2-11.3-7.5-21.1 2.7-9.8 10.4-16.3 17.3-14.5 6.8 1.8 10.2 11.2 7.5 21.1z"/><path class="n" d="m1040.6 193c0 0-7.7-6.6-11.9 5.5 0 0 4.5 4.8 1.7 8.5 0 0 4.4 1 6.6-2.9"/><path class="n" d="m1037.3 197.6c0 0-0.5-2.7-3.4-5.7"/><path class="k" d="m1041 215.7c0 3.7-3 6.7-6.7 6.7-3.6 0-6.6-3-6.6-6.7 0-3.7 3-6.6 6.6-6.6 3.7 0 6.7 2.9 6.7 6.6z"/><path  d="m1022.3 148.1c0 0 8.2-42.9 27.4-34.7 19.1 8.2 27.8 49.3 9.6 52.5-18.3 3.1-32.4-5.5-32.4-5.5z"/><path class="d" d="m1022.5 160.4c0 0 31.7 26.4 42 2"/><path class="j" d="m1142.3 534.6l-36.7-20.7"/><path class="f" d="m309.6 262.7c39.6 1 72.4 32.8 74.7 72.4 1.3 23.3-7.7 44.5-22.9 59.4-2.2 2.2-3.3 5.4-2.7 8.5l5.7 33.7-35.1-20.4c-2-1.2-4.4-1.6-6.6-1.2-8.6 1.8-17.7 2.1-27.1 0.7-34.6-5.3-61.7-34-64.9-68.9-4.2-46.5 32.9-85.5 78.9-84.2z"/><path class="k" d="m303.9 366.3l-0.2-18.4q4-1 7.3-2.6 3.4-1.6 5.9-3.6 2.5-2.1 4.2-4.7 1.7-2.5 2.5-5.5 0.9-2.9 0.9-6.2 0-4.6-2.3-8.8-2.3-4.1-6.5-6.7-4.3-2.5-10.2-2.5-6.3 0-11.7 3.4-5.4 3.5-8.2 11.9l-2-1.3q2.6-7.9 8.4-12.2 5.9-4.2 13.4-4.2 6.5 0 11.3 2.7 4.9 2.7 7.6 7.3 2.7 4.7 2.7 10.4 0 4.4-1.5 8.2-1.4 3.8-4.1 7-2.7 3.1-6.5 5.5-3.8 2.3-8.6 3.5l-0.2 16.8zm-1.3 13.7q0-1.4 0.7-2.3 0.8-0.9 2.1-0.9 1.5 0 2.2 0.8 0.6 0.9 0.6 2.4 0 1.3-0.7 2.3-0.7 1-2.1 1-1.4 0-2.1-0.9-0.7-0.8-0.7-2.4z"/><path class="j" d=""/></svg>