<?xml version="1.0" encoding="UTF-8" standalone="no"?>
<!DOCTYPE svg PUBLIC "-//W3C//DTD SVG 1.1//EN"
 "http://www.w3.org/Graphics/SVG/1.1/DTD/svg11.dtd">
<!-- Generated by graphviz version 2.47.0 (20210316.0004)
 -->
<!-- Title: dependencies Pages: 1 -->
<svg width="504pt" height="284pt"
 viewBox="0.00 0.00 504.00 284.00" xmlns="http://www.w3.org/2000/svg" xmlns:xlink="http://www.w3.org/1999/xlink">
<g id="graph0" class="graph" transform="scale(1 1) rotate(0) translate(4 280)">
<title>dependencies</title>
<polygon fill="white" stroke="transparent" points="-4,4 -4,-280 500,-280 500,4 -4,4"/>
<text text-anchor="start" x="227.01" y="-42.4" font-family="Times-12" font-weight="bold" font-size="14.00">Legend</text>
<polygon fill="#ffffb3" stroke="transparent" points="14,-10 14,-30 34,-30 34,-10 14,-10"/>
<text text-anchor="start" x="37.63" y="-15.4" font-family="Times-12" font-size="14.00"> &#160;Declarations</text>
<polygon fill="#8dd3c7" stroke="transparent" points="127,-10 127,-30 147,-30 147,-10 127,-10"/>
<text text-anchor="start" x="150.73" y="-15.4" font-family="Times-12" font-size="14.00"> &#160;Module</text>
<polygon fill="#80b1d3" stroke="transparent" points="213,-10 213,-30 233,-30 233,-10 213,-10"/>
<text text-anchor="start" x="236.78" y="-15.4" font-family="Times-12" font-size="14.00"> &#160;Bootstrap</text>
<polygon fill="#fdb462" stroke="transparent" points="310,-10 310,-30 330,-30 330,-10 310,-10"/>
<text text-anchor="start" x="333.67" y="-15.4" font-family="Times-12" font-size="14.00"> &#160;Providers</text>
<polygon fill="#fb8072" stroke="transparent" points="406,-10 406,-30 426,-30 426,-10 406,-10"/>
<text text-anchor="start" x="429.73" y="-15.4" font-family="Times-12" font-size="14.00"> &#160;Exports</text>
<g id="clust1" class="cluster">
<title>cluster_OtpModule</title>
<polygon fill="none" stroke="black" stroke-dasharray="1,5" points="46,-70 46,-268 450,-268 450,-70 46,-70"/>
</g>
<g id="clust6" class="cluster">
<title>cluster_OtpModule_providers</title>
<polygon fill="none" stroke="black" points="54,-78 54,-130 442,-130 442,-78 54,-78"/>
</g>
<g id="clust4" class="cluster">
<title>cluster_OtpModule_exports</title>
<polygon fill="none" stroke="black" points="84,-208 84,-260 381,-260 381,-208 84,-208"/>
</g>
<!-- AwsSNSService  -->
<g id="node1" class="node">
<title>AwsSNSService </title>
<polygon fill="#fb8072" stroke="black" points="373.31,-252 260.69,-252 260.69,-216 373.31,-216 373.31,-252"/>
<text text-anchor="middle" x="317" y="-229.8" font-family="Times,serif" font-size="14.00">AwsSNSService </text>
</g>
<!-- TwilioSendSmsService  -->
<g id="node2" class="node">
<title>TwilioSendSmsService </title>
<polygon fill="#fb8072" stroke="black" points="242.42,-252 91.58,-252 91.58,-216 242.42,-216 242.42,-252"/>
<text text-anchor="middle" x="167" y="-229.8" font-family="Times,serif" font-size="14.00">TwilioSendSmsService </text>
</g>
<!-- OtpModule -->
<g id="node3" class="node">
<title>OtpModule</title>
<polygon fill="#8dd3c7" stroke="black" points="236.05,-187 233.05,-191 212.05,-191 209.05,-187 155.95,-187 155.95,-151 236.05,-151 236.05,-187"/>
<text text-anchor="middle" x="196" y="-164.8" font-family="Times,serif" font-size="14.00">OtpModule</text>
</g>
<!-- OtpModule&#45;&gt;AwsSNSService  -->
<g id="edge1" class="edge">
<title>OtpModule&#45;&gt;AwsSNSService </title>
<path fill="none" stroke="black" stroke-dasharray="5,2" d="M236.24,-175C255.59,-175 274.65,-175 274.65,-175 274.65,-175 274.65,-205.98 274.65,-205.98"/>
<polygon fill="black" stroke="black" points="271.15,-205.98 274.65,-215.98 278.15,-205.98 271.15,-205.98"/>
</g>
<!-- OtpModule&#45;&gt;TwilioSendSmsService  -->
<g id="edge2" class="edge">
<title>OtpModule&#45;&gt;TwilioSendSmsService </title>
<path fill="none" stroke="black" stroke-dasharray="5,2" d="M196,-187.11C196,-187.11 196,-205.99 196,-205.99"/>
<polygon fill="black" stroke="black" points="192.5,-205.99 196,-215.99 199.5,-205.99 192.5,-205.99"/>
</g>
<!-- AwsSNSService -->
<g id="node4" class="node">
<title>AwsSNSService</title>
<ellipse fill="#fdb462" stroke="black" cx="359" cy="-104" rx="75.3" ry="18"/>
<text text-anchor="middle" x="359" y="-99.8" font-family="Times,serif" font-size="14.00">AwsSNSService</text>
</g>
<!-- AwsSNSService&#45;&gt;OtpModule -->
<g id="edge3" class="edge">
<title>AwsSNSService&#45;&gt;OtpModule</title>
<path fill="none" stroke="black" d="M328.5,-120.75C328.5,-138.19 328.5,-163 328.5,-163 328.5,-163 246.11,-163 246.11,-163"/>
<polygon fill="black" stroke="black" points="246.11,-159.5 236.11,-163 246.11,-166.5 246.11,-159.5"/>
</g>
<!-- TwilioSendSmsService -->
<g id="node5" class="node">
<title>TwilioSendSmsService</title>
<ellipse fill="#fdb462" stroke="black" cx="164" cy="-104" rx="101.88" ry="18"/>
<text text-anchor="middle" x="164" y="-99.8" font-family="Times,serif" font-size="14.00">TwilioSendSmsService</text>
</g>
<!-- TwilioSendSmsService&#45;&gt;OtpModule -->
<g id="edge4" class="edge">
<title>TwilioSendSmsService&#45;&gt;OtpModule</title>
<path fill="none" stroke="black" d="M196,-121.42C196,-121.42 196,-140.62 196,-140.62"/>
<polygon fill="black" stroke="black" points="192.5,-140.62 196,-150.62 199.5,-140.62 192.5,-140.62"/>
</g>
</g>
</svg>
