<?xml version="1.0" encoding="UTF-8" standalone="no"?>
<!DOCTYPE svg PUBLIC "-//W3C//DTD SVG 1.1//EN"
 "http://www.w3.org/Graphics/SVG/1.1/DTD/svg11.dtd">
<!-- Generated by graphviz version 2.47.0 (20210316.0004)
 -->
<!-- Title: dependencies Pages: 1 -->
<svg width="3873pt" height="211pt"
 viewBox="0.00 0.00 3873.00 211.00" xmlns="http://www.w3.org/2000/svg" xmlns:xlink="http://www.w3.org/1999/xlink">
<g id="graph0" class="graph" transform="scale(1 1) rotate(0) translate(4 207)">
<title>dependencies</title>
<polygon fill="white" stroke="transparent" points="-4,4 -4,-207 3869,-207 3869,4 -4,4"/>
<text text-anchor="start" x="1911.51" y="-42.4" font-family="Times-12" font-weight="bold" font-size="14.00">Legend</text>
<polygon fill="#ffffb3" stroke="transparent" points="1698.5,-10 1698.5,-30 1718.5,-30 1718.5,-10 1698.5,-10"/>
<text text-anchor="start" x="1722.13" y="-15.4" font-family="Times-12" font-size="14.00"> &#160;Declarations</text>
<polygon fill="#8dd3c7" stroke="transparent" points="1811.5,-10 1811.5,-30 1831.5,-30 1831.5,-10 1811.5,-10"/>
<text text-anchor="start" x="1835.23" y="-15.4" font-family="Times-12" font-size="14.00"> &#160;Module</text>
<polygon fill="#80b1d3" stroke="transparent" points="1897.5,-10 1897.5,-30 1917.5,-30 1917.5,-10 1897.5,-10"/>
<text text-anchor="start" x="1921.28" y="-15.4" font-family="Times-12" font-size="14.00"> &#160;Bootstrap</text>
<polygon fill="#fdb462" stroke="transparent" points="1994.5,-10 1994.5,-30 2014.5,-30 2014.5,-10 1994.5,-10"/>
<text text-anchor="start" x="2018.17" y="-15.4" font-family="Times-12" font-size="14.00"> &#160;Providers</text>
<polygon fill="#fb8072" stroke="transparent" points="2090.5,-10 2090.5,-30 2110.5,-30 2110.5,-10 2090.5,-10"/>
<text text-anchor="start" x="2114.23" y="-15.4" font-family="Times-12" font-size="14.00"> &#160;Exports</text>
<g id="clust1" class="cluster">
<title>cluster_AppUserModule</title>
<polygon fill="none" stroke="black" stroke-dasharray="1,5" points="8,-70 8,-195 3857,-195 3857,-70 8,-70"/>
</g>
<g id="clust3" class="cluster">
<title>cluster_AppUserModule_imports</title>
<polygon fill="none" stroke="black" points="3478,-78 3478,-130 3849,-130 3849,-78 3478,-78"/>
</g>
<g id="clust6" class="cluster">
<title>cluster_AppUserModule_providers</title>
<polygon fill="none" stroke="black" points="16,-78 16,-130 3470,-130 3470,-78 16,-78"/>
</g>
<!-- AuthModule -->
<g id="node1" class="node">
<title>AuthModule</title>
<polygon fill="#8dd3c7" stroke="black" points="3840.55,-122 3837.55,-126 3816.55,-126 3813.55,-122 3753.45,-122 3753.45,-86 3840.55,-86 3840.55,-122"/>
<text text-anchor="middle" x="3797" y="-99.8" font-family="Times,serif" font-size="14.00">AuthModule</text>
</g>
<!-- AppUserModule -->
<g id="node4" class="node">
<title>AppUserModule</title>
<polygon fill="#8dd3c7" stroke="black" points="2151.08,-187 2148.08,-191 2127.08,-191 2124.08,-187 2040.92,-187 2040.92,-151 2151.08,-151 2151.08,-187"/>
<text text-anchor="middle" x="2096" y="-164.8" font-family="Times,serif" font-size="14.00">AppUserModule</text>
</g>
<!-- AuthModule&#45;&gt;AppUserModule -->
<g id="edge1" class="edge">
<title>AuthModule&#45;&gt;AppUserModule</title>
<path fill="none" stroke="black" d="M3797,-122.15C3797,-145.76 3797,-184 3797,-184 3797,-184 2161.15,-184 2161.15,-184"/>
<polygon fill="black" stroke="black" points="2161.15,-180.5 2151.15,-184 2161.15,-187.5 2161.15,-180.5"/>
</g>
<!-- AwsModule -->
<g id="node2" class="node">
<title>AwsModule</title>
<polygon fill="#8dd3c7" stroke="black" points="3735.71,-122 3732.71,-126 3711.71,-126 3708.71,-122 3650.29,-122 3650.29,-86 3735.71,-86 3735.71,-122"/>
<text text-anchor="middle" x="3693" y="-99.8" font-family="Times,serif" font-size="14.00">AwsModule</text>
</g>
<!-- AwsModule&#45;&gt;AppUserModule -->
<g id="edge2" class="edge">
<title>AwsModule&#45;&gt;AppUserModule</title>
<path fill="none" stroke="black" d="M3693,-122.01C3693,-144.49 3693,-180 3693,-180 3693,-180 2161.44,-180 2161.44,-180"/>
<polygon fill="black" stroke="black" points="2161.44,-176.5 2151.44,-180 2161.44,-183.5 2161.44,-176.5"/>
</g>
<!-- EmailTemplateModule -->
<g id="node3" class="node">
<title>EmailTemplateModule</title>
<polygon fill="#8dd3c7" stroke="black" points="3631.86,-122 3628.86,-126 3607.86,-126 3604.86,-122 3486.14,-122 3486.14,-86 3631.86,-86 3631.86,-122"/>
<text text-anchor="middle" x="3559" y="-99.8" font-family="Times,serif" font-size="14.00">EmailTemplateModule</text>
</g>
<!-- EmailTemplateModule&#45;&gt;AppUserModule -->
<g id="edge3" class="edge">
<title>EmailTemplateModule&#45;&gt;AppUserModule</title>
<path fill="none" stroke="black" d="M3559,-122.04C3559,-143.66 3559,-177 3559,-177 3559,-177 2161.12,-177 2161.12,-177"/>
<polygon fill="black" stroke="black" points="2161.12,-173.5 2151.12,-177 2161.12,-180.5 2161.12,-173.5"/>
</g>
<!-- AgoraHelperService -->
<g id="node5" class="node">
<title>AgoraHelperService</title>
<ellipse fill="#fdb462" stroke="black" cx="3372" cy="-104" rx="90.29" ry="18"/>
<text text-anchor="middle" x="3372" y="-99.8" font-family="Times,serif" font-size="14.00">AgoraHelperService</text>
</g>
<!-- AgoraHelperService&#45;&gt;AppUserModule -->
<g id="edge4" class="edge">
<title>AgoraHelperService&#45;&gt;AppUserModule</title>
<path fill="none" stroke="black" d="M3372,-122.13C3372,-142.57 3372,-173 3372,-173 3372,-173 2161.24,-173 2161.24,-173"/>
<polygon fill="black" stroke="black" points="2161.24,-169.5 2151.24,-173 2161.24,-176.5 2161.24,-169.5"/>
</g>
<!-- AuthService -->
<g id="node6" class="node">
<title>AuthService</title>
<ellipse fill="#fdb462" stroke="black" cx="3204" cy="-104" rx="59.11" ry="18"/>
<text text-anchor="middle" x="3204" y="-99.8" font-family="Times,serif" font-size="14.00">AuthService</text>
</g>
<!-- AuthService&#45;&gt;AppUserModule -->
<g id="edge5" class="edge">
<title>AuthService&#45;&gt;AppUserModule</title>
<path fill="none" stroke="black" d="M3204,-122.11C3204,-141.34 3204,-169 3204,-169 3204,-169 2161.32,-169 2161.32,-169"/>
<polygon fill="black" stroke="black" points="2161.33,-165.5 2151.32,-169 2161.32,-172.5 2161.33,-165.5"/>
</g>
<!-- AwsSNSService -->
<g id="node7" class="node">
<title>AwsSNSService</title>
<ellipse fill="#fdb462" stroke="black" cx="3051" cy="-104" rx="75.3" ry="18"/>
<text text-anchor="middle" x="3051" y="-99.8" font-family="Times,serif" font-size="14.00">AwsSNSService</text>
</g>
<!-- AwsSNSService&#45;&gt;AppUserModule -->
<g id="edge6" class="edge">
<title>AwsSNSService&#45;&gt;AppUserModule</title>
<path fill="none" stroke="black" d="M3051,-122.27C3051,-140.56 3051,-166 3051,-166 3051,-166 2161.12,-166 2161.12,-166"/>
<polygon fill="black" stroke="black" points="2161.12,-162.5 2151.12,-166 2161.12,-169.5 2161.12,-162.5"/>
</g>
<!-- CometChatHelperService -->
<g id="node8" class="node">
<title>CometChatHelperService</title>
<ellipse fill="#fdb462" stroke="black" cx="2847" cy="-104" rx="110.01" ry="18"/>
<text text-anchor="middle" x="2847" y="-99.8" font-family="Times,serif" font-size="14.00">CometChatHelperService</text>
</g>
<!-- CometChatHelperService&#45;&gt;AppUserModule -->
<g id="edge7" class="edge">
<title>CometChatHelperService&#45;&gt;AppUserModule</title>
<path fill="none" stroke="black" d="M2847,-122.03C2847,-139.06 2847,-162 2847,-162 2847,-162 2161.22,-162 2161.22,-162"/>
<polygon fill="black" stroke="black" points="2161.22,-158.5 2151.22,-162 2161.22,-165.5 2161.22,-158.5"/>
</g>
<!-- DeviceInfoRepository -->
<g id="node9" class="node">
<title>DeviceInfoRepository</title>
<ellipse fill="#fdb462" stroke="black" cx="2622" cy="-104" rx="96.69" ry="18"/>
<text text-anchor="middle" x="2622" y="-99.8" font-family="Times,serif" font-size="14.00">DeviceInfoRepository</text>
</g>
<!-- DeviceInfoRepository&#45;&gt;AppUserModule -->
<g id="edge8" class="edge">
<title>DeviceInfoRepository&#45;&gt;AppUserModule</title>
<path fill="none" stroke="black" d="M2622,-122.01C2622,-138.05 2622,-159 2622,-159 2622,-159 2161.3,-159 2161.3,-159"/>
<polygon fill="black" stroke="black" points="2161.3,-155.5 2151.3,-159 2161.3,-162.5 2161.3,-155.5"/>
</g>
<!-- DisposableEmailRepository -->
<g id="node10" class="node">
<title>DisposableEmailRepository</title>
<ellipse fill="#fdb462" stroke="black" cx="2388" cy="-104" rx="119.28" ry="18"/>
<text text-anchor="middle" x="2388" y="-99.8" font-family="Times,serif" font-size="14.00">DisposableEmailRepository</text>
</g>
<!-- DisposableEmailRepository&#45;&gt;AppUserModule -->
<g id="edge9" class="edge">
<title>DisposableEmailRepository&#45;&gt;AppUserModule</title>
<path fill="none" stroke="black" d="M2388,-122.12C2388,-136.78 2388,-155 2388,-155 2388,-155 2161.27,-155 2161.27,-155"/>
<polygon fill="black" stroke="black" points="2161.27,-151.5 2151.27,-155 2161.27,-158.5 2161.27,-151.5"/>
</g>
<!-- EmailService -->
<g id="node11" class="node">
<title>EmailService</title>
<ellipse fill="#fdb462" stroke="black" cx="2188" cy="-104" rx="63.12" ry="18"/>
<text text-anchor="middle" x="2188" y="-99.8" font-family="Times,serif" font-size="14.00">EmailService</text>
</g>
<!-- EmailService&#45;&gt;AppUserModule -->
<g id="edge10" class="edge">
<title>EmailService&#45;&gt;AppUserModule</title>
<path fill="none" stroke="black" d="M2137.99,-115.03C2137.99,-115.03 2137.99,-140.78 2137.99,-140.78"/>
<polygon fill="black" stroke="black" points="2134.49,-140.78 2137.99,-150.78 2141.49,-140.78 2134.49,-140.78"/>
</g>
<!-- IsValidEmailConstraint -->
<g id="node12" class="node">
<title>IsValidEmailConstraint</title>
<ellipse fill="#fdb462" stroke="black" cx="2004" cy="-104" rx="102.52" ry="18"/>
<text text-anchor="middle" x="2004" y="-99.8" font-family="Times,serif" font-size="14.00">IsValidEmailConstraint</text>
</g>
<!-- IsValidEmailConstraint&#45;&gt;AppUserModule -->
<g id="edge11" class="edge">
<title>IsValidEmailConstraint&#45;&gt;AppUserModule</title>
<path fill="none" stroke="black" d="M2073.86,-117.47C2073.86,-117.47 2073.86,-140.86 2073.86,-140.86"/>
<polygon fill="black" stroke="black" points="2070.36,-140.86 2073.86,-150.86 2077.36,-140.86 2070.36,-140.86"/>
</g>
<!-- JwtStrategy -->
<g id="node13" class="node">
<title>JwtStrategy</title>
<ellipse fill="#fdb462" stroke="black" cx="1827" cy="-104" rx="56.76" ry="18"/>
<text text-anchor="middle" x="1827" y="-99.8" font-family="Times,serif" font-size="14.00">JwtStrategy</text>
</g>
<!-- JwtStrategy&#45;&gt;AppUserModule -->
<g id="edge12" class="edge">
<title>JwtStrategy&#45;&gt;AppUserModule</title>
<path fill="none" stroke="black" d="M1827,-122.12C1827,-136.78 1827,-155 1827,-155 1827,-155 2030.91,-155 2030.91,-155"/>
<polygon fill="black" stroke="black" points="2030.91,-158.5 2040.91,-155 2030.91,-151.5 2030.91,-158.5"/>
</g>
<!-- JwtTokenService -->
<g id="node14" class="node">
<title>JwtTokenService</title>
<ellipse fill="#fdb462" stroke="black" cx="1674" cy="-104" rx="78.15" ry="18"/>
<text text-anchor="middle" x="1674" y="-99.8" font-family="Times,serif" font-size="14.00">JwtTokenService</text>
</g>
<!-- JwtTokenService&#45;&gt;AppUserModule -->
<g id="edge13" class="edge">
<title>JwtTokenService&#45;&gt;AppUserModule</title>
<path fill="none" stroke="black" d="M1674,-122.01C1674,-138.05 1674,-159 1674,-159 1674,-159 2030.83,-159 2030.83,-159"/>
<polygon fill="black" stroke="black" points="2030.83,-162.5 2040.83,-159 2030.83,-155.5 2030.83,-162.5"/>
</g>
<!-- OTPRequestRepository -->
<g id="node15" class="node">
<title>OTPRequestRepository</title>
<ellipse fill="#fdb462" stroke="black" cx="1475" cy="-104" rx="102.53" ry="18"/>
<text text-anchor="middle" x="1475" y="-99.8" font-family="Times,serif" font-size="14.00">OTPRequestRepository</text>
</g>
<!-- OTPRequestRepository&#45;&gt;AppUserModule -->
<g id="edge14" class="edge">
<title>OTPRequestRepository&#45;&gt;AppUserModule</title>
<path fill="none" stroke="black" d="M1475,-122.03C1475,-139.06 1475,-162 1475,-162 1475,-162 2030.89,-162 2030.89,-162"/>
<polygon fill="black" stroke="black" points="2030.89,-165.5 2040.89,-162 2030.89,-158.5 2030.89,-165.5"/>
</g>
<!-- PhoneOtpAuthService -->
<g id="node16" class="node">
<title>PhoneOtpAuthService</title>
<ellipse fill="#fdb462" stroke="black" cx="1256" cy="-104" rx="97.86" ry="18"/>
<text text-anchor="middle" x="1256" y="-99.8" font-family="Times,serif" font-size="14.00">PhoneOtpAuthService</text>
</g>
<!-- PhoneOtpAuthService&#45;&gt;AppUserModule -->
<g id="edge15" class="edge">
<title>PhoneOtpAuthService&#45;&gt;AppUserModule</title>
<path fill="none" stroke="black" d="M1256,-122.27C1256,-140.56 1256,-166 1256,-166 1256,-166 2030.89,-166 2030.89,-166"/>
<polygon fill="black" stroke="black" points="2030.89,-169.5 2040.89,-166 2030.89,-162.5 2030.89,-169.5"/>
</g>
<!-- PushNotificationTokenRepository -->
<g id="node17" class="node">
<title>PushNotificationTokenRepository</title>
<ellipse fill="#fdb462" stroke="black" cx="997" cy="-104" rx="143.56" ry="18"/>
<text text-anchor="middle" x="997" y="-99.8" font-family="Times,serif" font-size="14.00">PushNotificationTokenRepository</text>
</g>
<!-- PushNotificationTokenRepository&#45;&gt;AppUserModule -->
<g id="edge16" class="edge">
<title>PushNotificationTokenRepository&#45;&gt;AppUserModule</title>
<path fill="none" stroke="black" d="M997,-122.11C997,-141.34 997,-169 997,-169 997,-169 2030.75,-169 2030.75,-169"/>
<polygon fill="black" stroke="black" points="2030.75,-172.5 2040.75,-169 2030.75,-165.5 2030.75,-172.5"/>
</g>
<!-- S3Service -->
<g id="node18" class="node">
<title>S3Service</title>
<ellipse fill="#fdb462" stroke="black" cx="785" cy="-104" rx="50.38" ry="18"/>
<text text-anchor="middle" x="785" y="-99.8" font-family="Times,serif" font-size="14.00">S3Service</text>
</g>
<!-- S3Service&#45;&gt;AppUserModule -->
<g id="edge17" class="edge">
<title>S3Service&#45;&gt;AppUserModule</title>
<path fill="none" stroke="black" d="M785,-122.13C785,-142.57 785,-173 785,-173 785,-173 2030.92,-173 2030.92,-173"/>
<polygon fill="black" stroke="black" points="2030.92,-176.5 2040.92,-173 2030.92,-169.5 2030.92,-176.5"/>
</g>
<!-- UpdatePhoneNumberRepository -->
<g id="node19" class="node">
<title>UpdatePhoneNumberRepository</title>
<ellipse fill="#fdb462" stroke="black" cx="580" cy="-104" rx="137.17" ry="18"/>
<text text-anchor="middle" x="580" y="-99.8" font-family="Times,serif" font-size="14.00">UpdatePhoneNumberRepository</text>
</g>
<!-- UpdatePhoneNumberRepository&#45;&gt;AppUserModule -->
<g id="edge18" class="edge">
<title>UpdatePhoneNumberRepository&#45;&gt;AppUserModule</title>
<path fill="none" stroke="black" d="M580,-122.04C580,-143.66 580,-177 580,-177 580,-177 2030.7,-177 2030.7,-177"/>
<polygon fill="black" stroke="black" points="2030.7,-180.5 2040.7,-177 2030.7,-173.5 2030.7,-180.5"/>
</g>
<!-- UserTokenMetaRepository -->
<g id="node20" class="node">
<title>UserTokenMetaRepository</title>
<ellipse fill="#fdb462" stroke="black" cx="309" cy="-104" rx="116.31" ry="18"/>
<text text-anchor="middle" x="309" y="-99.8" font-family="Times,serif" font-size="14.00">UserTokenMetaRepository</text>
</g>
<!-- UserTokenMetaRepository&#45;&gt;AppUserModule -->
<g id="edge19" class="edge">
<title>UserTokenMetaRepository&#45;&gt;AppUserModule</title>
<path fill="none" stroke="black" d="M309,-122.01C309,-144.49 309,-180 309,-180 309,-180 2030.56,-180 2030.56,-180"/>
<polygon fill="black" stroke="black" points="2030.56,-183.5 2040.56,-180 2030.56,-176.5 2030.56,-183.5"/>
</g>
<!-- UsersRepository -->
<g id="node21" class="node">
<title>UsersRepository</title>
<ellipse fill="#fdb462" stroke="black" cx="99" cy="-104" rx="75.3" ry="18"/>
<text text-anchor="middle" x="99" y="-99.8" font-family="Times,serif" font-size="14.00">UsersRepository</text>
</g>
<!-- UsersRepository&#45;&gt;AppUserModule -->
<g id="edge20" class="edge">
<title>UsersRepository&#45;&gt;AppUserModule</title>
<path fill="none" stroke="black" d="M99,-122.15C99,-145.76 99,-184 99,-184 99,-184 2030.77,-184 2030.77,-184"/>
<polygon fill="black" stroke="black" points="2030.77,-187.5 2040.77,-184 2030.77,-180.5 2030.77,-187.5"/>
</g>
</g>
</svg>
