<?xml version="1.0" encoding="UTF-8" standalone="no"?>
<!DOCTYPE svg PUBLIC "-//W3C//DTD SVG 1.1//EN"
 "http://www.w3.org/Graphics/SVG/1.1/DTD/svg11.dtd">
<!-- Generated by graphviz version 2.47.0 (20210316.0004)
 -->
<!-- Title: dependencies Pages: 1 -->
<svg width="588pt" height="284pt"
 viewBox="0.00 0.00 588.00 284.00" xmlns="http://www.w3.org/2000/svg" xmlns:xlink="http://www.w3.org/1999/xlink">
<g id="graph0" class="graph" transform="scale(1 1) rotate(0) translate(4 280)">
<title>dependencies</title>
<polygon fill="white" stroke="transparent" points="-4,4 -4,-280 584,-280 584,4 -4,4"/>
<text text-anchor="start" x="269.01" y="-42.4" font-family="Times-12" font-weight="bold" font-size="14.00">Legend</text>
<polygon fill="#ffffb3" stroke="transparent" points="56,-10 56,-30 76,-30 76,-10 56,-10"/>
<text text-anchor="start" x="79.63" y="-15.4" font-family="Times-12" font-size="14.00"> &#160;Declarations</text>
<polygon fill="#8dd3c7" stroke="transparent" points="169,-10 169,-30 189,-30 189,-10 169,-10"/>
<text text-anchor="start" x="192.73" y="-15.4" font-family="Times-12" font-size="14.00"> &#160;Module</text>
<polygon fill="#80b1d3" stroke="transparent" points="255,-10 255,-30 275,-30 275,-10 255,-10"/>
<text text-anchor="start" x="278.78" y="-15.4" font-family="Times-12" font-size="14.00"> &#160;Bootstrap</text>
<polygon fill="#fdb462" stroke="transparent" points="352,-10 352,-30 372,-30 372,-10 352,-10"/>
<text text-anchor="start" x="375.67" y="-15.4" font-family="Times-12" font-size="14.00"> &#160;Providers</text>
<polygon fill="#fb8072" stroke="transparent" points="448,-10 448,-30 468,-30 468,-10 448,-10"/>
<text text-anchor="start" x="471.73" y="-15.4" font-family="Times-12" font-size="14.00"> &#160;Exports</text>
<g id="clust1" class="cluster">
<title>cluster_DataAccessModule</title>
<polygon fill="none" stroke="black" stroke-dasharray="1,5" points="8,-70 8,-268 572,-268 572,-70 8,-70"/>
</g>
<g id="clust4" class="cluster">
<title>cluster_DataAccessModule_exports</title>
<polygon fill="none" stroke="black" points="76,-208 76,-260 498,-260 498,-208 76,-208"/>
</g>
<g id="clust6" class="cluster">
<title>cluster_DataAccessModule_providers</title>
<polygon fill="none" stroke="black" points="16,-78 16,-130 564,-130 564,-78 16,-78"/>
</g>
<!-- ContactsRepository  -->
<g id="node1" class="node">
<title>ContactsRepository </title>
<polygon fill="#fb8072" stroke="black" points="489.93,-252 360.07,-252 360.07,-216 489.93,-216 489.93,-252"/>
<text text-anchor="middle" x="425" y="-229.8" font-family="Times,serif" font-size="14.00">ContactsRepository </text>
</g>
<!-- DataAccessService  -->
<g id="node2" class="node">
<title>DataAccessService </title>
<polygon fill="#fb8072" stroke="black" points="341.54,-252 214.46,-252 214.46,-216 341.54,-216 341.54,-252"/>
<text text-anchor="middle" x="278" y="-229.8" font-family="Times,serif" font-size="14.00">DataAccessService </text>
</g>
<!-- UsersRepository  -->
<g id="node3" class="node">
<title>UsersRepository </title>
<polygon fill="#fb8072" stroke="black" points="196.31,-252 83.69,-252 83.69,-216 196.31,-216 196.31,-252"/>
<text text-anchor="middle" x="140" y="-229.8" font-family="Times,serif" font-size="14.00">UsersRepository </text>
</g>
<!-- DataAccessModule -->
<g id="node4" class="node">
<title>DataAccessModule</title>
<polygon fill="#8dd3c7" stroke="black" points="340.62,-187 337.62,-191 316.62,-191 313.62,-187 215.38,-187 215.38,-151 340.62,-151 340.62,-187"/>
<text text-anchor="middle" x="278" y="-164.8" font-family="Times,serif" font-size="14.00">DataAccessModule</text>
</g>
<!-- DataAccessModule&#45;&gt;ContactsRepository  -->
<g id="edge1" class="edge">
<title>DataAccessModule&#45;&gt;ContactsRepository </title>
<path fill="none" stroke="black" stroke-dasharray="5,2" d="M340.62,-175C358.23,-175 372.68,-175 372.68,-175 372.68,-175 372.68,-205.98 372.68,-205.98"/>
<polygon fill="black" stroke="black" points="369.18,-205.98 372.68,-215.98 376.18,-205.98 369.18,-205.98"/>
</g>
<!-- DataAccessModule&#45;&gt;DataAccessService  -->
<g id="edge2" class="edge">
<title>DataAccessModule&#45;&gt;DataAccessService </title>
<path fill="none" stroke="black" stroke-dasharray="5,2" d="M278,-187.11C278,-187.11 278,-205.99 278,-205.99"/>
<polygon fill="black" stroke="black" points="274.5,-205.99 278,-215.99 281.5,-205.99 274.5,-205.99"/>
</g>
<!-- DataAccessModule&#45;&gt;UsersRepository  -->
<g id="edge3" class="edge">
<title>DataAccessModule&#45;&gt;UsersRepository </title>
<path fill="none" stroke="black" stroke-dasharray="5,2" d="M215.18,-175C197.71,-175 183.42,-175 183.42,-175 183.42,-175 183.42,-205.98 183.42,-205.98"/>
<polygon fill="black" stroke="black" points="179.92,-205.98 183.42,-215.98 186.92,-205.98 179.92,-205.98"/>
</g>
<!-- ContactsRepository -->
<g id="node5" class="node">
<title>ContactsRepository</title>
<ellipse fill="#fdb462" stroke="black" cx="469" cy="-104" rx="87.42" ry="18"/>
<text text-anchor="middle" x="469" y="-99.8" font-family="Times,serif" font-size="14.00">ContactsRepository</text>
</g>
<!-- ContactsRepository&#45;&gt;DataAccessModule -->
<g id="edge4" class="edge">
<title>ContactsRepository&#45;&gt;DataAccessModule</title>
<path fill="none" stroke="black" d="M435.88,-120.75C435.88,-138.19 435.88,-163 435.88,-163 435.88,-163 350.85,-163 350.85,-163"/>
<polygon fill="black" stroke="black" points="350.85,-159.5 340.85,-163 350.85,-166.5 350.85,-159.5"/>
</g>
<!-- DataAccessService -->
<g id="node6" class="node">
<title>DataAccessService</title>
<ellipse fill="#fdb462" stroke="black" cx="278" cy="-104" rx="85.63" ry="18"/>
<text text-anchor="middle" x="278" y="-99.8" font-family="Times,serif" font-size="14.00">DataAccessService</text>
</g>
<!-- DataAccessService&#45;&gt;DataAccessModule -->
<g id="edge5" class="edge">
<title>DataAccessService&#45;&gt;DataAccessModule</title>
<path fill="none" stroke="black" d="M278,-122.11C278,-122.11 278,-140.99 278,-140.99"/>
<polygon fill="black" stroke="black" points="274.5,-140.99 278,-150.99 281.5,-140.99 274.5,-140.99"/>
</g>
<!-- UsersRepository -->
<g id="node7" class="node">
<title>UsersRepository</title>
<ellipse fill="#fdb462" stroke="black" cx="99" cy="-104" rx="75.3" ry="18"/>
<text text-anchor="middle" x="99" y="-99.8" font-family="Times,serif" font-size="14.00">UsersRepository</text>
</g>
<!-- UsersRepository&#45;&gt;DataAccessModule -->
<g id="edge6" class="edge">
<title>UsersRepository&#45;&gt;DataAccessModule</title>
<path fill="none" stroke="black" d="M129,-120.75C129,-138.19 129,-163 129,-163 129,-163 205.24,-163 205.24,-163"/>
<polygon fill="black" stroke="black" points="205.24,-166.5 215.24,-163 205.24,-159.5 205.24,-166.5"/>
</g>
</g>
</svg>
