<?xml version="1.0" encoding="UTF-8" standalone="no"?>
<!DOCTYPE svg PUBLIC "-//W3C//DTD SVG 1.1//EN"
 "http://www.w3.org/Graphics/SVG/1.1/DTD/svg11.dtd">
<!-- Generated by graphviz version 2.47.0 (20210316.0004)
 -->
<!-- Title: dependencies Pages: 1 -->
<svg width="1276pt" height="211pt"
 viewBox="0.00 0.00 1276.00 211.00" xmlns="http://www.w3.org/2000/svg" xmlns:xlink="http://www.w3.org/1999/xlink">
<g id="graph0" class="graph" transform="scale(1 1) rotate(0) translate(4 207)">
<title>dependencies</title>
<polygon fill="white" stroke="transparent" points="-4,4 -4,-207 1272,-207 1272,4 -4,4"/>
<text text-anchor="start" x="613.01" y="-42.4" font-family="Times-12" font-weight="bold" font-size="14.00">Legend</text>
<polygon fill="#ffffb3" stroke="transparent" points="400,-10 400,-30 420,-30 420,-10 400,-10"/>
<text text-anchor="start" x="423.63" y="-15.4" font-family="Times-12" font-size="14.00"> &#160;Declarations</text>
<polygon fill="#8dd3c7" stroke="transparent" points="513,-10 513,-30 533,-30 533,-10 513,-10"/>
<text text-anchor="start" x="536.73" y="-15.4" font-family="Times-12" font-size="14.00"> &#160;Module</text>
<polygon fill="#80b1d3" stroke="transparent" points="599,-10 599,-30 619,-30 619,-10 599,-10"/>
<text text-anchor="start" x="622.78" y="-15.4" font-family="Times-12" font-size="14.00"> &#160;Bootstrap</text>
<polygon fill="#fdb462" stroke="transparent" points="696,-10 696,-30 716,-30 716,-10 696,-10"/>
<text text-anchor="start" x="719.67" y="-15.4" font-family="Times-12" font-size="14.00"> &#160;Providers</text>
<polygon fill="#fb8072" stroke="transparent" points="792,-10 792,-30 812,-30 812,-10 792,-10"/>
<text text-anchor="start" x="815.73" y="-15.4" font-family="Times-12" font-size="14.00"> &#160;Exports</text>
<g id="clust1" class="cluster">
<title>cluster_ChimeModule</title>
<polygon fill="none" stroke="black" stroke-dasharray="1,5" points="8,-70 8,-195 1260,-195 1260,-70 8,-70"/>
</g>
<g id="clust6" class="cluster">
<title>cluster_ChimeModule_providers</title>
<polygon fill="none" stroke="black" points="132,-78 132,-130 1252,-130 1252,-78 132,-78"/>
</g>
<g id="clust3" class="cluster">
<title>cluster_ChimeModule_imports</title>
<polygon fill="none" stroke="black" points="16,-78 16,-130 124,-130 124,-78 16,-78"/>
</g>
<!-- UsersModule -->
<g id="node1" class="node">
<title>UsersModule</title>
<polygon fill="#8dd3c7" stroke="black" points="115.92,-122 112.92,-126 91.92,-126 88.92,-122 24.08,-122 24.08,-86 115.92,-86 115.92,-122"/>
<text text-anchor="middle" x="70" y="-99.8" font-family="Times,serif" font-size="14.00">UsersModule</text>
</g>
<!-- ChimeModule -->
<g id="node2" class="node">
<title>ChimeModule</title>
<polygon fill="#8dd3c7" stroke="black" points="690.38,-187 687.38,-191 666.38,-191 663.38,-187 593.62,-187 593.62,-151 690.38,-151 690.38,-187"/>
<text text-anchor="middle" x="642" y="-164.8" font-family="Times,serif" font-size="14.00">ChimeModule</text>
</g>
<!-- UsersModule&#45;&gt;ChimeModule -->
<g id="edge1" class="edge">
<title>UsersModule&#45;&gt;ChimeModule</title>
<path fill="none" stroke="black" d="M70,-122.29C70,-144.21 70,-178 70,-178 70,-178 583.23,-178 583.23,-178"/>
<polygon fill="black" stroke="black" points="583.23,-181.5 593.23,-178 583.23,-174.5 583.23,-181.5"/>
</g>
<!-- ChimeRepository -->
<g id="node3" class="node">
<title>ChimeRepository</title>
<ellipse fill="#fdb462" stroke="black" cx="1165" cy="-104" rx="79.33" ry="18"/>
<text text-anchor="middle" x="1165" y="-99.8" font-family="Times,serif" font-size="14.00">ChimeRepository</text>
</g>
<!-- ChimeRepository&#45;&gt;ChimeModule -->
<g id="edge2" class="edge">
<title>ChimeRepository&#45;&gt;ChimeModule</title>
<path fill="none" stroke="black" d="M1165,-122.29C1165,-144.21 1165,-178 1165,-178 1165,-178 700.73,-178 700.73,-178"/>
<polygon fill="black" stroke="black" points="700.73,-174.5 690.73,-178 700.73,-181.5 700.73,-174.5"/>
</g>
<!-- ChimeService -->
<g id="node4" class="node">
<title>ChimeService</title>
<ellipse fill="#fdb462" stroke="black" cx="1002" cy="-104" rx="65.99" ry="18"/>
<text text-anchor="middle" x="1002" y="-99.8" font-family="Times,serif" font-size="14.00">ChimeService</text>
</g>
<!-- ChimeService&#45;&gt;ChimeModule -->
<g id="edge3" class="edge">
<title>ChimeService&#45;&gt;ChimeModule</title>
<path fill="none" stroke="black" d="M1002,-122.11C1002,-141.34 1002,-169 1002,-169 1002,-169 700.55,-169 700.55,-169"/>
<polygon fill="black" stroke="black" points="700.55,-165.5 690.55,-169 700.55,-172.5 700.55,-165.5"/>
</g>
<!-- FcmService -->
<g id="node5" class="node">
<title>FcmService</title>
<ellipse fill="#fdb462" stroke="black" cx="861" cy="-104" rx="57.32" ry="18"/>
<text text-anchor="middle" x="861" y="-99.8" font-family="Times,serif" font-size="14.00">FcmService</text>
</g>
<!-- FcmService&#45;&gt;ChimeModule -->
<g id="edge4" class="edge">
<title>FcmService&#45;&gt;ChimeModule</title>
<path fill="none" stroke="black" d="M861,-122.03C861,-138.4 861,-160 861,-160 861,-160 700.6,-160 700.6,-160"/>
<polygon fill="black" stroke="black" points="700.6,-156.5 690.6,-160 700.6,-163.5 700.6,-156.5"/>
</g>
<!-- PushNotificationTokenRepository -->
<g id="node6" class="node">
<title>PushNotificationTokenRepository</title>
<ellipse fill="#fdb462" stroke="black" cx="642" cy="-104" rx="143.56" ry="18"/>
<text text-anchor="middle" x="642" y="-99.8" font-family="Times,serif" font-size="14.00">PushNotificationTokenRepository</text>
</g>
<!-- PushNotificationTokenRepository&#45;&gt;ChimeModule -->
<g id="edge5" class="edge">
<title>PushNotificationTokenRepository&#45;&gt;ChimeModule</title>
<path fill="none" stroke="black" d="M642,-122.11C642,-122.11 642,-140.99 642,-140.99"/>
<polygon fill="black" stroke="black" points="638.5,-140.99 642,-150.99 645.5,-140.99 638.5,-140.99"/>
</g>
<!-- UsersRepository -->
<g id="node7" class="node">
<title>UsersRepository</title>
<ellipse fill="#fdb462" stroke="black" cx="405" cy="-104" rx="75.3" ry="18"/>
<text text-anchor="middle" x="405" y="-99.8" font-family="Times,serif" font-size="14.00">UsersRepository</text>
</g>
<!-- UsersRepository&#45;&gt;ChimeModule -->
<g id="edge6" class="edge">
<title>UsersRepository&#45;&gt;ChimeModule</title>
<path fill="none" stroke="black" d="M405,-122.03C405,-138.4 405,-160 405,-160 405,-160 583.47,-160 583.47,-160"/>
<polygon fill="black" stroke="black" points="583.47,-163.5 593.47,-160 583.47,-156.5 583.47,-163.5"/>
</g>
<!-- VoipHelperService -->
<g id="node8" class="node">
<title>VoipHelperService</title>
<ellipse fill="#fdb462" stroke="black" cx="226" cy="-104" rx="85.65" ry="18"/>
<text text-anchor="middle" x="226" y="-99.8" font-family="Times,serif" font-size="14.00">VoipHelperService</text>
</g>
<!-- VoipHelperService&#45;&gt;ChimeModule -->
<g id="edge7" class="edge">
<title>VoipHelperService&#45;&gt;ChimeModule</title>
<path fill="none" stroke="black" d="M226,-122.11C226,-141.34 226,-169 226,-169 226,-169 583.47,-169 583.47,-169"/>
<polygon fill="black" stroke="black" points="583.47,-172.5 593.47,-169 583.47,-165.5 583.47,-172.5"/>
</g>
</g>
</svg>
