<?xml version="1.0" encoding="UTF-8" standalone="no"?>
<!DOCTYPE svg PUBLIC "-//W3C//DTD SVG 1.1//EN"
 "http://www.w3.org/Graphics/SVG/1.1/DTD/svg11.dtd">
<!-- Generated by graphviz version 2.47.0 (20210316.0004)
 -->
<!-- Title: dependencies Pages: 1 -->
<svg width="504pt" height="211pt"
 viewBox="0.00 0.00 504.00 211.00" xmlns="http://www.w3.org/2000/svg" xmlns:xlink="http://www.w3.org/1999/xlink">
<g id="graph0" class="graph" transform="scale(1 1) rotate(0) translate(4 207)">
<title>dependencies</title>
<polygon fill="white" stroke="transparent" points="-4,4 -4,-207 500,-207 500,4 -4,4"/>
<text text-anchor="start" x="227.01" y="-42.4" font-family="Times-12" font-weight="bold" font-size="14.00">Legend</text>
<polygon fill="#ffffb3" stroke="transparent" points="14,-10 14,-30 34,-30 34,-10 14,-10"/>
<text text-anchor="start" x="37.63" y="-15.4" font-family="Times-12" font-size="14.00"> &#160;Declarations</text>
<polygon fill="#8dd3c7" stroke="transparent" points="127,-10 127,-30 147,-30 147,-10 127,-10"/>
<text text-anchor="start" x="150.73" y="-15.4" font-family="Times-12" font-size="14.00"> &#160;Module</text>
<polygon fill="#80b1d3" stroke="transparent" points="213,-10 213,-30 233,-30 233,-10 213,-10"/>
<text text-anchor="start" x="236.78" y="-15.4" font-family="Times-12" font-size="14.00"> &#160;Bootstrap</text>
<polygon fill="#fdb462" stroke="transparent" points="310,-10 310,-30 330,-30 330,-10 310,-10"/>
<text text-anchor="start" x="333.67" y="-15.4" font-family="Times-12" font-size="14.00"> &#160;Providers</text>
<polygon fill="#fb8072" stroke="transparent" points="406,-10 406,-30 426,-30 426,-10 406,-10"/>
<text text-anchor="start" x="429.73" y="-15.4" font-family="Times-12" font-size="14.00"> &#160;Exports</text>
<g id="clust1" class="cluster">
<title>cluster_FakeApiModule</title>
<polygon fill="none" stroke="black" stroke-dasharray="1,5" points="108,-70 108,-195 388,-195 388,-70 108,-70"/>
</g>
<g id="clust3" class="cluster">
<title>cluster_FakeApiModule_imports</title>
<polygon fill="none" stroke="black" points="116,-78 116,-130 380,-130 380,-78 116,-78"/>
</g>
<!-- AuthModule -->
<g id="node1" class="node">
<title>AuthModule</title>
<polygon fill="#8dd3c7" stroke="black" points="371.55,-122 368.55,-126 347.55,-126 344.55,-122 284.45,-122 284.45,-86 371.55,-86 371.55,-122"/>
<text text-anchor="middle" x="328" y="-99.8" font-family="Times,serif" font-size="14.00">AuthModule</text>
</g>
<!-- FakeApiModule -->
<g id="node3" class="node">
<title>FakeApiModule</title>
<polygon fill="#8dd3c7" stroke="black" points="313.76,-187 310.76,-191 289.76,-191 286.76,-187 206.24,-187 206.24,-151 313.76,-151 313.76,-187"/>
<text text-anchor="middle" x="260" y="-164.8" font-family="Times,serif" font-size="14.00">FakeApiModule</text>
</g>
<!-- AuthModule&#45;&gt;FakeApiModule -->
<g id="edge1" class="edge">
<title>AuthModule&#45;&gt;FakeApiModule</title>
<path fill="none" stroke="black" d="M299.05,-122.11C299.05,-122.11 299.05,-140.99 299.05,-140.99"/>
<polygon fill="black" stroke="black" points="295.55,-140.99 299.05,-150.99 302.55,-140.99 295.55,-140.99"/>
</g>
<!-- AuthenticationModule -->
<g id="node2" class="node">
<title>AuthenticationModule</title>
<polygon fill="#8dd3c7" stroke="black" points="266.25,-122 263.25,-126 242.25,-126 239.25,-122 123.75,-122 123.75,-86 266.25,-86 266.25,-122"/>
<text text-anchor="middle" x="195" y="-99.8" font-family="Times,serif" font-size="14.00">AuthenticationModule</text>
</g>
<!-- AuthenticationModule&#45;&gt;FakeApiModule -->
<g id="edge2" class="edge">
<title>AuthenticationModule&#45;&gt;FakeApiModule</title>
<path fill="none" stroke="black" d="M236.25,-122.11C236.25,-122.11 236.25,-140.99 236.25,-140.99"/>
<polygon fill="black" stroke="black" points="232.75,-140.99 236.25,-150.99 239.75,-140.99 232.75,-140.99"/>
</g>
</g>
</svg>
