<?xml version="1.0" encoding="UTF-8" standalone="no"?>
<!DOCTYPE svg PUBLIC "-//W3C//DTD SVG 1.1//EN"
 "http://www.w3.org/Graphics/SVG/1.1/DTD/svg11.dtd">
<!-- Generated by graphviz version 2.47.0 (20210316.0004)
 -->
<!-- Title: dependencies Pages: 1 -->
<svg width="578pt" height="211pt"
 viewBox="0.00 0.00 578.00 211.00" xmlns="http://www.w3.org/2000/svg" xmlns:xlink="http://www.w3.org/1999/xlink">
<g id="graph0" class="graph" transform="scale(1 1) rotate(0) translate(4 207)">
<title>dependencies</title>
<polygon fill="white" stroke="transparent" points="-4,4 -4,-207 574,-207 574,4 -4,4"/>
<text text-anchor="start" x="264.01" y="-42.4" font-family="Times-12" font-weight="bold" font-size="14.00">Legend</text>
<polygon fill="#ffffb3" stroke="transparent" points="51,-10 51,-30 71,-30 71,-10 51,-10"/>
<text text-anchor="start" x="74.63" y="-15.4" font-family="Times-12" font-size="14.00"> &#160;Declarations</text>
<polygon fill="#8dd3c7" stroke="transparent" points="164,-10 164,-30 184,-30 184,-10 164,-10"/>
<text text-anchor="start" x="187.73" y="-15.4" font-family="Times-12" font-size="14.00"> &#160;Module</text>
<polygon fill="#80b1d3" stroke="transparent" points="250,-10 250,-30 270,-30 270,-10 250,-10"/>
<text text-anchor="start" x="273.78" y="-15.4" font-family="Times-12" font-size="14.00"> &#160;Bootstrap</text>
<polygon fill="#fdb462" stroke="transparent" points="347,-10 347,-30 367,-30 367,-10 347,-10"/>
<text text-anchor="start" x="370.67" y="-15.4" font-family="Times-12" font-size="14.00"> &#160;Providers</text>
<polygon fill="#fb8072" stroke="transparent" points="443,-10 443,-30 463,-30 463,-10 443,-10"/>
<text text-anchor="start" x="466.73" y="-15.4" font-family="Times-12" font-size="14.00"> &#160;Exports</text>
<g id="clust1" class="cluster">
<title>cluster_TestimonialsModule</title>
<polygon fill="none" stroke="black" stroke-dasharray="1,5" points="8,-70 8,-195 562,-195 562,-70 8,-70"/>
</g>
<g id="clust6" class="cluster">
<title>cluster_TestimonialsModule_providers</title>
<polygon fill="none" stroke="black" points="16,-78 16,-130 554,-130 554,-78 16,-78"/>
</g>
<!-- S3Service -->
<g id="node1" class="node">
<title>S3Service</title>
<ellipse fill="#fdb462" stroke="black" cx="496" cy="-104" rx="50.38" ry="18"/>
<text text-anchor="middle" x="496" y="-99.8" font-family="Times,serif" font-size="14.00">S3Service</text>
</g>
<!-- TestimonialsModule -->
<g id="node4" class="node">
<title>TestimonialsModule</title>
<polygon fill="#8dd3c7" stroke="black" points="390.87,-187 387.87,-191 366.87,-191 363.87,-187 259.13,-187 259.13,-151 390.87,-151 390.87,-187"/>
<text text-anchor="middle" x="325" y="-164.8" font-family="Times,serif" font-size="14.00">TestimonialsModule</text>
</g>
<!-- S3Service&#45;&gt;TestimonialsModule -->
<g id="edge1" class="edge">
<title>S3Service&#45;&gt;TestimonialsModule</title>
<path fill="none" stroke="black" d="M496,-122.11C496,-141.34 496,-169 496,-169 496,-169 401.11,-169 401.11,-169"/>
<polygon fill="black" stroke="black" points="401.11,-165.5 391.11,-169 401.11,-172.5 401.11,-165.5"/>
</g>
<!-- TestimonialsRepository -->
<g id="node2" class="node">
<title>TestimonialsRepository</title>
<ellipse fill="#fdb462" stroke="black" cx="325" cy="-104" rx="103.11" ry="18"/>
<text text-anchor="middle" x="325" y="-99.8" font-family="Times,serif" font-size="14.00">TestimonialsRepository</text>
</g>
<!-- TestimonialsRepository&#45;&gt;TestimonialsModule -->
<g id="edge2" class="edge">
<title>TestimonialsRepository&#45;&gt;TestimonialsModule</title>
<path fill="none" stroke="black" d="M325,-122.11C325,-122.11 325,-140.99 325,-140.99"/>
<polygon fill="black" stroke="black" points="321.5,-140.99 325,-150.99 328.5,-140.99 321.5,-140.99"/>
</g>
<!-- TestimonialsService -->
<g id="node3" class="node">
<title>TestimonialsService</title>
<ellipse fill="#fdb462" stroke="black" cx="114" cy="-104" rx="89.76" ry="18"/>
<text text-anchor="middle" x="114" y="-99.8" font-family="Times,serif" font-size="14.00">TestimonialsService</text>
</g>
<!-- TestimonialsService&#45;&gt;TestimonialsModule -->
<g id="edge3" class="edge">
<title>TestimonialsService&#45;&gt;TestimonialsModule</title>
<path fill="none" stroke="black" d="M114,-122.11C114,-141.34 114,-169 114,-169 114,-169 249.11,-169 249.11,-169"/>
<polygon fill="black" stroke="black" points="249.11,-172.5 259.11,-169 249.11,-165.5 249.11,-172.5"/>
</g>
</g>
</svg>
