<?xml version="1.0" encoding="UTF-8" standalone="no"?>
<!DOCTYPE svg PUBLIC "-//W3C//DTD SVG 1.1//EN"
 "http://www.w3.org/Graphics/SVG/1.1/DTD/svg11.dtd">
<!-- Generated by graphviz version 2.47.0 (20210316.0004)
 -->
<!-- Title: dependencies Pages: 1 -->
<svg width="3660pt" height="284pt"
 viewBox="0.00 0.00 3660.00 284.00" xmlns="http://www.w3.org/2000/svg" xmlns:xlink="http://www.w3.org/1999/xlink">
<g id="graph0" class="graph" transform="scale(1 1) rotate(0) translate(4 280)">
<title>dependencies</title>
<polygon fill="white" stroke="transparent" points="-4,4 -4,-280 3656,-280 3656,4 -4,4"/>
<text text-anchor="start" x="1805.01" y="-42.4" font-family="Times-12" font-weight="bold" font-size="14.00">Legend</text>
<polygon fill="#ffffb3" stroke="transparent" points="1592,-10 1592,-30 1612,-30 1612,-10 1592,-10"/>
<text text-anchor="start" x="1615.63" y="-15.4" font-family="Times-12" font-size="14.00"> &#160;Declarations</text>
<polygon fill="#8dd3c7" stroke="transparent" points="1705,-10 1705,-30 1725,-30 1725,-10 1705,-10"/>
<text text-anchor="start" x="1728.73" y="-15.4" font-family="Times-12" font-size="14.00"> &#160;Module</text>
<polygon fill="#80b1d3" stroke="transparent" points="1791,-10 1791,-30 1811,-30 1811,-10 1791,-10"/>
<text text-anchor="start" x="1814.78" y="-15.4" font-family="Times-12" font-size="14.00"> &#160;Bootstrap</text>
<polygon fill="#fdb462" stroke="transparent" points="1888,-10 1888,-30 1908,-30 1908,-10 1888,-10"/>
<text text-anchor="start" x="1911.67" y="-15.4" font-family="Times-12" font-size="14.00"> &#160;Providers</text>
<polygon fill="#fb8072" stroke="transparent" points="1984,-10 1984,-30 2004,-30 2004,-10 1984,-10"/>
<text text-anchor="start" x="2007.73" y="-15.4" font-family="Times-12" font-size="14.00"> &#160;Exports</text>
<g id="clust1" class="cluster">
<title>cluster_UsersModule</title>
<polygon fill="none" stroke="black" stroke-dasharray="1,5" points="8,-70 8,-268 3644,-268 3644,-70 8,-70"/>
</g>
<g id="clust6" class="cluster">
<title>cluster_UsersModule_providers</title>
<polygon fill="none" stroke="black" points="182,-78 182,-130 3636,-130 3636,-78 182,-78"/>
</g>
<g id="clust4" class="cluster">
<title>cluster_UsersModule_exports</title>
<polygon fill="none" stroke="black" points="1801,-208 1801,-260 2041,-260 2041,-208 1801,-208"/>
</g>
<g id="clust3" class="cluster">
<title>cluster_UsersModule_imports</title>
<polygon fill="none" stroke="black" points="16,-78 16,-130 174,-130 174,-78 16,-78"/>
</g>
<!-- AuthenticationModule -->
<g id="node1" class="node">
<title>AuthenticationModule</title>
<polygon fill="#8dd3c7" stroke="black" points="166.25,-122 163.25,-126 142.25,-126 139.25,-122 23.75,-122 23.75,-86 166.25,-86 166.25,-122"/>
<text text-anchor="middle" x="95" y="-99.8" font-family="Times,serif" font-size="14.00">AuthenticationModule</text>
</g>
<!-- UsersModule -->
<g id="node2" class="node">
<title>UsersModule</title>
<polygon fill="#8dd3c7" stroke="black" points="1961.92,-187 1958.92,-191 1937.92,-191 1934.92,-187 1870.08,-187 1870.08,-151 1961.92,-151 1961.92,-187"/>
<text text-anchor="middle" x="1916" y="-164.8" font-family="Times,serif" font-size="14.00">UsersModule</text>
</g>
<!-- AuthenticationModule&#45;&gt;UsersModule -->
<g id="edge1" class="edge">
<title>AuthenticationModule&#45;&gt;UsersModule</title>
<path fill="none" stroke="black" d="M95,-122.32C95,-145.66 95,-183 95,-183 95,-183 1860.08,-183 1860.08,-183"/>
<polygon fill="black" stroke="black" points="1860.08,-186.5 1870.08,-183 1860.08,-179.5 1860.08,-186.5"/>
</g>
<!-- UsersRepository  -->
<g id="node3" class="node">
<title>UsersRepository </title>
<polygon fill="#fb8072" stroke="black" points="2033.31,-252 1920.69,-252 1920.69,-216 2033.31,-216 2033.31,-252"/>
<text text-anchor="middle" x="1977" y="-229.8" font-family="Times,serif" font-size="14.00">UsersRepository </text>
</g>
<!-- UsersModule&#45;&gt;UsersRepository  -->
<g id="edge2" class="edge">
<title>UsersModule&#45;&gt;UsersRepository </title>
<path fill="none" stroke="black" stroke-dasharray="5,2" d="M1941.15,-187.11C1941.15,-187.11 1941.15,-205.99 1941.15,-205.99"/>
<polygon fill="black" stroke="black" points="1937.65,-205.99 1941.15,-215.99 1944.65,-205.99 1937.65,-205.99"/>
</g>
<!-- UsersService  -->
<g id="node4" class="node">
<title>UsersService </title>
<polygon fill="#fb8072" stroke="black" points="1902.85,-252 1809.15,-252 1809.15,-216 1902.85,-216 1902.85,-252"/>
<text text-anchor="middle" x="1856" y="-229.8" font-family="Times,serif" font-size="14.00">UsersService </text>
</g>
<!-- UsersModule&#45;&gt;UsersService  -->
<g id="edge3" class="edge">
<title>UsersModule&#45;&gt;UsersService </title>
<path fill="none" stroke="black" stroke-dasharray="5,2" d="M1886.48,-187.11C1886.48,-187.11 1886.48,-205.99 1886.48,-205.99"/>
<polygon fill="black" stroke="black" points="1882.98,-205.99 1886.48,-215.99 1889.98,-205.99 1882.98,-205.99"/>
</g>
<!-- AgoraHelperService -->
<g id="node5" class="node">
<title>AgoraHelperService</title>
<ellipse fill="#fdb462" stroke="black" cx="3538" cy="-104" rx="90.29" ry="18"/>
<text text-anchor="middle" x="3538" y="-99.8" font-family="Times,serif" font-size="14.00">AgoraHelperService</text>
</g>
<!-- AgoraHelperService&#45;&gt;UsersModule -->
<g id="edge4" class="edge">
<title>AgoraHelperService&#45;&gt;UsersModule</title>
<path fill="none" stroke="black" d="M3538,-122.32C3538,-145.66 3538,-183 3538,-183 3538,-183 1971.93,-183 1971.93,-183"/>
<polygon fill="black" stroke="black" points="1971.93,-179.5 1961.93,-183 1971.93,-186.5 1971.93,-179.5"/>
</g>
<!-- AuthService -->
<g id="node6" class="node">
<title>AuthService</title>
<ellipse fill="#fdb462" stroke="black" cx="3370" cy="-104" rx="59.11" ry="18"/>
<text text-anchor="middle" x="3370" y="-99.8" font-family="Times,serif" font-size="14.00">AuthService</text>
</g>
<!-- AuthService&#45;&gt;UsersModule -->
<g id="edge5" class="edge">
<title>AuthService&#45;&gt;UsersModule</title>
<path fill="none" stroke="black" d="M3370,-122.16C3370,-144.35 3370,-179 3370,-179 3370,-179 1971.92,-179 1971.92,-179"/>
<polygon fill="black" stroke="black" points="1971.92,-175.5 1961.92,-179 1971.92,-182.5 1971.92,-175.5"/>
</g>
<!-- AwsSNSService -->
<g id="node7" class="node">
<title>AwsSNSService</title>
<ellipse fill="#fdb462" stroke="black" cx="3217" cy="-104" rx="75.3" ry="18"/>
<text text-anchor="middle" x="3217" y="-99.8" font-family="Times,serif" font-size="14.00">AwsSNSService</text>
</g>
<!-- AwsSNSService&#45;&gt;UsersModule -->
<g id="edge6" class="edge">
<title>AwsSNSService&#45;&gt;UsersModule</title>
<path fill="none" stroke="black" d="M3217,-122.28C3217,-143.32 3217,-175 3217,-175 3217,-175 1971.92,-175 1971.92,-175"/>
<polygon fill="black" stroke="black" points="1971.92,-171.5 1961.92,-175 1971.92,-178.5 1971.92,-171.5"/>
</g>
<!-- CometChatHelperService -->
<g id="node8" class="node">
<title>CometChatHelperService</title>
<ellipse fill="#fdb462" stroke="black" cx="3013" cy="-104" rx="110.01" ry="18"/>
<text text-anchor="middle" x="3013" y="-99.8" font-family="Times,serif" font-size="14.00">CometChatHelperService</text>
</g>
<!-- CometChatHelperService&#45;&gt;UsersModule -->
<g id="edge7" class="edge">
<title>CometChatHelperService&#45;&gt;UsersModule</title>
<path fill="none" stroke="black" d="M3013,-122.31C3013,-142.15 3013,-171 3013,-171 3013,-171 1971.74,-171 1971.74,-171"/>
<polygon fill="black" stroke="black" points="1971.74,-167.5 1961.74,-171 1971.74,-174.5 1971.74,-167.5"/>
</g>
<!-- DeviceInfoRepository -->
<g id="node9" class="node">
<title>DeviceInfoRepository</title>
<ellipse fill="#fdb462" stroke="black" cx="2788" cy="-104" rx="96.69" ry="18"/>
<text text-anchor="middle" x="2788" y="-99.8" font-family="Times,serif" font-size="14.00">DeviceInfoRepository</text>
</g>
<!-- DeviceInfoRepository&#45;&gt;UsersModule -->
<g id="edge8" class="edge">
<title>DeviceInfoRepository&#45;&gt;UsersModule</title>
<path fill="none" stroke="black" d="M2788,-122.22C2788,-140.83 2788,-167 2788,-167 2788,-167 1971.96,-167 1971.96,-167"/>
<polygon fill="black" stroke="black" points="1971.96,-163.5 1961.96,-167 1971.96,-170.5 1971.96,-163.5"/>
</g>
<!-- DisposableEmailRepository -->
<g id="node10" class="node">
<title>DisposableEmailRepository</title>
<ellipse fill="#fdb462" stroke="black" cx="2554" cy="-104" rx="119.28" ry="18"/>
<text text-anchor="middle" x="2554" y="-99.8" font-family="Times,serif" font-size="14.00">DisposableEmailRepository</text>
</g>
<!-- DisposableEmailRepository&#45;&gt;UsersModule -->
<g id="edge9" class="edge">
<title>DisposableEmailRepository&#45;&gt;UsersModule</title>
<path fill="none" stroke="black" d="M2554,-122.02C2554,-139.37 2554,-163 2554,-163 2554,-163 1971.88,-163 1971.88,-163"/>
<polygon fill="black" stroke="black" points="1971.88,-159.5 1961.88,-163 1971.88,-166.5 1971.88,-159.5"/>
</g>
<!-- EmailService -->
<g id="node11" class="node">
<title>EmailService</title>
<ellipse fill="#fdb462" stroke="black" cx="2354" cy="-104" rx="63.12" ry="18"/>
<text text-anchor="middle" x="2354" y="-99.8" font-family="Times,serif" font-size="14.00">EmailService</text>
</g>
<!-- EmailService&#45;&gt;UsersModule -->
<g id="edge10" class="edge">
<title>EmailService&#45;&gt;UsersModule</title>
<path fill="none" stroke="black" d="M2354,-122.01C2354,-138.05 2354,-159 2354,-159 2354,-159 1972.05,-159 1972.05,-159"/>
<polygon fill="black" stroke="black" points="1972.05,-155.5 1962.05,-159 1972.05,-162.5 1972.05,-155.5"/>
</g>
<!-- IsValidEmailConstraint -->
<g id="node12" class="node">
<title>IsValidEmailConstraint</title>
<ellipse fill="#fdb462" stroke="black" cx="2170" cy="-104" rx="102.52" ry="18"/>
<text text-anchor="middle" x="2170" y="-99.8" font-family="Times,serif" font-size="14.00">IsValidEmailConstraint</text>
</g>
<!-- IsValidEmailConstraint&#45;&gt;UsersModule -->
<g id="edge11" class="edge">
<title>IsValidEmailConstraint&#45;&gt;UsersModule</title>
<path fill="none" stroke="black" d="M2170,-122.12C2170,-136.78 2170,-155 2170,-155 2170,-155 1972,-155 1972,-155"/>
<polygon fill="black" stroke="black" points="1972,-151.5 1962,-155 1972,-158.5 1972,-151.5"/>
</g>
<!-- JwtStrategy -->
<g id="node13" class="node">
<title>JwtStrategy</title>
<ellipse fill="#fdb462" stroke="black" cx="1993" cy="-104" rx="56.76" ry="18"/>
<text text-anchor="middle" x="1993" y="-99.8" font-family="Times,serif" font-size="14.00">JwtStrategy</text>
</g>
<!-- JwtStrategy&#45;&gt;UsersModule -->
<g id="edge12" class="edge">
<title>JwtStrategy&#45;&gt;UsersModule</title>
<path fill="none" stroke="black" d="M1949.04,-115.62C1949.04,-115.62 1949.04,-140.85 1949.04,-140.85"/>
<polygon fill="black" stroke="black" points="1945.54,-140.85 1949.04,-150.85 1952.54,-140.85 1945.54,-140.85"/>
</g>
<!-- JwtTokenService -->
<g id="node14" class="node">
<title>JwtTokenService</title>
<ellipse fill="#fdb462" stroke="black" cx="1840" cy="-104" rx="78.15" ry="18"/>
<text text-anchor="middle" x="1840" y="-99.8" font-family="Times,serif" font-size="14.00">JwtTokenService</text>
</g>
<!-- JwtTokenService&#45;&gt;UsersModule -->
<g id="edge13" class="edge">
<title>JwtTokenService&#45;&gt;UsersModule</title>
<path fill="none" stroke="black" d="M1894.18,-117.15C1894.18,-117.15 1894.18,-140.69 1894.18,-140.69"/>
<polygon fill="black" stroke="black" points="1890.68,-140.69 1894.18,-150.69 1897.68,-140.69 1890.68,-140.69"/>
</g>
<!-- OTPRequestRepository -->
<g id="node15" class="node">
<title>OTPRequestRepository</title>
<ellipse fill="#fdb462" stroke="black" cx="1641" cy="-104" rx="102.53" ry="18"/>
<text text-anchor="middle" x="1641" y="-99.8" font-family="Times,serif" font-size="14.00">OTPRequestRepository</text>
</g>
<!-- OTPRequestRepository&#45;&gt;UsersModule -->
<g id="edge14" class="edge">
<title>OTPRequestRepository&#45;&gt;UsersModule</title>
<path fill="none" stroke="black" d="M1641,-122.12C1641,-136.78 1641,-155 1641,-155 1641,-155 1860.28,-155 1860.28,-155"/>
<polygon fill="black" stroke="black" points="1860.28,-158.5 1870.28,-155 1860.28,-151.5 1860.28,-158.5"/>
</g>
<!-- PhoneOtpAuthService -->
<g id="node16" class="node">
<title>PhoneOtpAuthService</title>
<ellipse fill="#fdb462" stroke="black" cx="1422" cy="-104" rx="97.86" ry="18"/>
<text text-anchor="middle" x="1422" y="-99.8" font-family="Times,serif" font-size="14.00">PhoneOtpAuthService</text>
</g>
<!-- PhoneOtpAuthService&#45;&gt;UsersModule -->
<g id="edge15" class="edge">
<title>PhoneOtpAuthService&#45;&gt;UsersModule</title>
<path fill="none" stroke="black" d="M1422,-122.01C1422,-138.05 1422,-159 1422,-159 1422,-159 1859.97,-159 1859.97,-159"/>
<polygon fill="black" stroke="black" points="1859.97,-162.5 1869.97,-159 1859.97,-155.5 1859.97,-162.5"/>
</g>
<!-- PushNotificationTokenRepository -->
<g id="node17" class="node">
<title>PushNotificationTokenRepository</title>
<ellipse fill="#fdb462" stroke="black" cx="1163" cy="-104" rx="143.56" ry="18"/>
<text text-anchor="middle" x="1163" y="-99.8" font-family="Times,serif" font-size="14.00">PushNotificationTokenRepository</text>
</g>
<!-- PushNotificationTokenRepository&#45;&gt;UsersModule -->
<g id="edge16" class="edge">
<title>PushNotificationTokenRepository&#45;&gt;UsersModule</title>
<path fill="none" stroke="black" d="M1163,-122.02C1163,-139.37 1163,-163 1163,-163 1163,-163 1860.03,-163 1860.03,-163"/>
<polygon fill="black" stroke="black" points="1860.03,-166.5 1870.03,-163 1860.03,-159.5 1860.03,-166.5"/>
</g>
<!-- S3Service -->
<g id="node18" class="node">
<title>S3Service</title>
<ellipse fill="#fdb462" stroke="black" cx="951" cy="-104" rx="50.38" ry="18"/>
<text text-anchor="middle" x="951" y="-99.8" font-family="Times,serif" font-size="14.00">S3Service</text>
</g>
<!-- S3Service&#45;&gt;UsersModule -->
<g id="edge17" class="edge">
<title>S3Service&#45;&gt;UsersModule</title>
<path fill="none" stroke="black" d="M951,-122.22C951,-140.83 951,-167 951,-167 951,-167 1860.11,-167 1860.11,-167"/>
<polygon fill="black" stroke="black" points="1860.11,-170.5 1870.11,-167 1860.11,-163.5 1860.11,-170.5"/>
</g>
<!-- UpdatePhoneNumberRepository -->
<g id="node19" class="node">
<title>UpdatePhoneNumberRepository</title>
<ellipse fill="#fdb462" stroke="black" cx="746" cy="-104" rx="137.17" ry="18"/>
<text text-anchor="middle" x="746" y="-99.8" font-family="Times,serif" font-size="14.00">UpdatePhoneNumberRepository</text>
</g>
<!-- UpdatePhoneNumberRepository&#45;&gt;UsersModule -->
<g id="edge18" class="edge">
<title>UpdatePhoneNumberRepository&#45;&gt;UsersModule</title>
<path fill="none" stroke="black" d="M746,-122.31C746,-142.15 746,-171 746,-171 746,-171 1860.13,-171 1860.13,-171"/>
<polygon fill="black" stroke="black" points="1860.13,-174.5 1870.13,-171 1860.13,-167.5 1860.13,-174.5"/>
</g>
<!-- UserTokenMetaRepository -->
<g id="node20" class="node">
<title>UserTokenMetaRepository</title>
<ellipse fill="#fdb462" stroke="black" cx="475" cy="-104" rx="116.31" ry="18"/>
<text text-anchor="middle" x="475" y="-99.8" font-family="Times,serif" font-size="14.00">UserTokenMetaRepository</text>
</g>
<!-- UserTokenMetaRepository&#45;&gt;UsersModule -->
<g id="edge19" class="edge">
<title>UserTokenMetaRepository&#45;&gt;UsersModule</title>
<path fill="none" stroke="black" d="M475,-122.28C475,-143.32 475,-175 475,-175 475,-175 1860.09,-175 1860.09,-175"/>
<polygon fill="black" stroke="black" points="1860.09,-178.5 1870.09,-175 1860.09,-171.5 1860.09,-178.5"/>
</g>
<!-- UsersRepository -->
<g id="node21" class="node">
<title>UsersRepository</title>
<ellipse fill="#fdb462" stroke="black" cx="265" cy="-104" rx="75.3" ry="18"/>
<text text-anchor="middle" x="265" y="-99.8" font-family="Times,serif" font-size="14.00">UsersRepository</text>
</g>
<!-- UsersRepository&#45;&gt;UsersModule -->
<g id="edge20" class="edge">
<title>UsersRepository&#45;&gt;UsersModule</title>
<path fill="none" stroke="black" d="M265,-122.16C265,-144.35 265,-179 265,-179 265,-179 1860.12,-179 1860.12,-179"/>
<polygon fill="black" stroke="black" points="1860.12,-182.5 1870.12,-179 1860.12,-175.5 1860.12,-182.5"/>
</g>
</g>
</svg>
