<?xml version="1.0" encoding="UTF-8" standalone="no"?>
<!DOCTYPE svg PUBLIC "-//W3C//DTD SVG 1.1//EN"
 "http://www.w3.org/Graphics/SVG/1.1/DTD/svg11.dtd">
<!-- Generated by graphviz version 2.47.0 (20210316.0004)
 -->
<!-- Title: dependencies Pages: 1 -->
<svg width="2384pt" height="211pt"
 viewBox="0.00 0.00 2384.00 211.00" xmlns="http://www.w3.org/2000/svg" xmlns:xlink="http://www.w3.org/1999/xlink">
<g id="graph0" class="graph" transform="scale(1 1) rotate(0) translate(4 207)">
<title>dependencies</title>
<polygon fill="white" stroke="transparent" points="-4,4 -4,-207 2380,-207 2380,4 -4,4"/>
<text text-anchor="start" x="1167.01" y="-42.4" font-family="Times-12" font-weight="bold" font-size="14.00">Legend</text>
<polygon fill="#ffffb3" stroke="transparent" points="954,-10 954,-30 974,-30 974,-10 954,-10"/>
<text text-anchor="start" x="977.63" y="-15.4" font-family="Times-12" font-size="14.00"> &#160;Declarations</text>
<polygon fill="#8dd3c7" stroke="transparent" points="1067,-10 1067,-30 1087,-30 1087,-10 1067,-10"/>
<text text-anchor="start" x="1090.73" y="-15.4" font-family="Times-12" font-size="14.00"> &#160;Module</text>
<polygon fill="#80b1d3" stroke="transparent" points="1153,-10 1153,-30 1173,-30 1173,-10 1153,-10"/>
<text text-anchor="start" x="1176.78" y="-15.4" font-family="Times-12" font-size="14.00"> &#160;Bootstrap</text>
<polygon fill="#fdb462" stroke="transparent" points="1250,-10 1250,-30 1270,-30 1270,-10 1250,-10"/>
<text text-anchor="start" x="1273.67" y="-15.4" font-family="Times-12" font-size="14.00"> &#160;Providers</text>
<polygon fill="#fb8072" stroke="transparent" points="1346,-10 1346,-30 1366,-30 1366,-10 1346,-10"/>
<text text-anchor="start" x="1369.73" y="-15.4" font-family="Times-12" font-size="14.00"> &#160;Exports</text>
<g id="clust1" class="cluster">
<title>cluster_FeedCommentsModule</title>
<polygon fill="none" stroke="black" stroke-dasharray="1,5" points="8,-70 8,-195 2368,-195 2368,-70 8,-70"/>
</g>
<g id="clust3" class="cluster">
<title>cluster_FeedCommentsModule_imports</title>
<polygon fill="none" stroke="black" points="2102,-78 2102,-130 2360,-130 2360,-78 2102,-78"/>
</g>
<g id="clust6" class="cluster">
<title>cluster_FeedCommentsModule_providers</title>
<polygon fill="none" stroke="black" points="16,-78 16,-130 2094,-130 2094,-78 16,-78"/>
</g>
<!-- NotificationsModule -->
<g id="node1" class="node">
<title>NotificationsModule</title>
<polygon fill="#8dd3c7" stroke="black" points="2352.14,-122 2349.14,-126 2328.14,-126 2325.14,-122 2219.86,-122 2219.86,-86 2352.14,-86 2352.14,-122"/>
<text text-anchor="middle" x="2286" y="-99.8" font-family="Times,serif" font-size="14.00">NotificationsModule</text>
</g>
<!-- FeedCommentsModule -->
<g id="node3" class="node">
<title>FeedCommentsModule</title>
<polygon fill="#8dd3c7" stroke="black" points="1275.93,-187 1272.93,-191 1251.93,-191 1248.93,-187 1128.07,-187 1128.07,-151 1275.93,-151 1275.93,-187"/>
<text text-anchor="middle" x="1202" y="-164.8" font-family="Times,serif" font-size="14.00">FeedCommentsModule</text>
</g>
<!-- NotificationsModule&#45;&gt;FeedCommentsModule -->
<g id="edge1" class="edge">
<title>NotificationsModule&#45;&gt;FeedCommentsModule</title>
<path fill="none" stroke="black" d="M2286,-122.09C2286,-145.13 2286,-182 2286,-182 2286,-182 1286.08,-182 1286.08,-182"/>
<polygon fill="black" stroke="black" points="1286.08,-178.5 1276.08,-182 1286.08,-185.5 1286.08,-178.5"/>
</g>
<!-- UsersModule -->
<g id="node2" class="node">
<title>UsersModule</title>
<polygon fill="#8dd3c7" stroke="black" points="2201.92,-122 2198.92,-126 2177.92,-126 2174.92,-122 2110.08,-122 2110.08,-86 2201.92,-86 2201.92,-122"/>
<text text-anchor="middle" x="2156" y="-99.8" font-family="Times,serif" font-size="14.00">UsersModule</text>
</g>
<!-- UsersModule&#45;&gt;FeedCommentsModule -->
<g id="edge2" class="edge">
<title>UsersModule&#45;&gt;FeedCommentsModule</title>
<path fill="none" stroke="black" d="M2156,-122.28C2156,-143.32 2156,-175 2156,-175 2156,-175 1286.06,-175 1286.06,-175"/>
<polygon fill="black" stroke="black" points="1286.06,-171.5 1276.06,-175 1286.06,-178.5 1286.06,-171.5"/>
</g>
<!-- FcmService -->
<g id="node4" class="node">
<title>FcmService</title>
<ellipse fill="#fdb462" stroke="black" cx="2029" cy="-104" rx="57.32" ry="18"/>
<text text-anchor="middle" x="2029" y="-99.8" font-family="Times,serif" font-size="14.00">FcmService</text>
</g>
<!-- FcmService&#45;&gt;FeedCommentsModule -->
<g id="edge3" class="edge">
<title>FcmService&#45;&gt;FeedCommentsModule</title>
<path fill="none" stroke="black" d="M2029,-122.11C2029,-141.34 2029,-169 2029,-169 2029,-169 1285.75,-169 1285.75,-169"/>
<polygon fill="black" stroke="black" points="1285.75,-165.5 1275.75,-169 1285.75,-172.5 1285.75,-165.5"/>
</g>
<!-- FeedCommentNotificationHandler -->
<g id="node5" class="node">
<title>FeedCommentNotificationHandler</title>
<ellipse fill="#fdb462" stroke="black" cx="1808" cy="-104" rx="145.82" ry="18"/>
<text text-anchor="middle" x="1808" y="-99.8" font-family="Times,serif" font-size="14.00">FeedCommentNotificationHandler</text>
</g>
<!-- FeedCommentNotificationHandler&#45;&gt;FeedCommentsModule -->
<g id="edge4" class="edge">
<title>FeedCommentNotificationHandler&#45;&gt;FeedCommentsModule</title>
<path fill="none" stroke="black" d="M1808,-122.02C1808,-139.37 1808,-163 1808,-163 1808,-163 1286,-163 1286,-163"/>
<polygon fill="black" stroke="black" points="1286,-159.5 1276,-163 1286,-166.5 1286,-159.5"/>
</g>
<!-- FeedCommentRepository -->
<g id="node6" class="node">
<title>FeedCommentRepository</title>
<ellipse fill="#fdb462" stroke="black" cx="1534" cy="-104" rx="110.05" ry="18"/>
<text text-anchor="middle" x="1534" y="-99.8" font-family="Times,serif" font-size="14.00">FeedCommentRepository</text>
</g>
<!-- FeedCommentRepository&#45;&gt;FeedCommentsModule -->
<g id="edge5" class="edge">
<title>FeedCommentRepository&#45;&gt;FeedCommentsModule</title>
<path fill="none" stroke="black" d="M1534,-122.24C1534,-137.57 1534,-157 1534,-157 1534,-157 1286.09,-157 1286.09,-157"/>
<polygon fill="black" stroke="black" points="1286.09,-153.5 1276.09,-157 1286.09,-160.5 1286.09,-153.5"/>
</g>
<!-- FeedCommentsService -->
<g id="node7" class="node">
<title>FeedCommentsService</title>
<ellipse fill="#fdb462" stroke="black" cx="1305" cy="-104" rx="100.72" ry="18"/>
<text text-anchor="middle" x="1305" y="-99.8" font-family="Times,serif" font-size="14.00">FeedCommentsService</text>
</g>
<!-- FeedCommentsService&#45;&gt;FeedCommentsModule -->
<g id="edge6" class="edge">
<title>FeedCommentsService&#45;&gt;FeedCommentsModule</title>
<path fill="none" stroke="black" d="M1240.05,-117.78C1240.05,-117.78 1240.05,-140.55 1240.05,-140.55"/>
<polygon fill="black" stroke="black" points="1236.55,-140.55 1240.05,-150.55 1243.55,-140.55 1236.55,-140.55"/>
</g>
<!-- FeedRepliesService -->
<g id="node8" class="node">
<title>FeedRepliesService</title>
<ellipse fill="#fdb462" stroke="black" cx="1099" cy="-104" rx="87.95" ry="18"/>
<text text-anchor="middle" x="1099" y="-99.8" font-family="Times,serif" font-size="14.00">FeedRepliesService</text>
</g>
<!-- FeedRepliesService&#45;&gt;FeedCommentsModule -->
<g id="edge7" class="edge">
<title>FeedRepliesService&#45;&gt;FeedCommentsModule</title>
<path fill="none" stroke="black" d="M1157.51,-117.47C1157.51,-117.47 1157.51,-140.86 1157.51,-140.86"/>
<polygon fill="black" stroke="black" points="1154.01,-140.86 1157.51,-150.86 1161.01,-140.86 1154.01,-140.86"/>
</g>
<!-- FeedReplyRepository -->
<g id="node9" class="node">
<title>FeedReplyRepository</title>
<ellipse fill="#fdb462" stroke="black" cx="898" cy="-104" rx="95.01" ry="18"/>
<text text-anchor="middle" x="898" y="-99.8" font-family="Times,serif" font-size="14.00">FeedReplyRepository</text>
</g>
<!-- FeedReplyRepository&#45;&gt;FeedCommentsModule -->
<g id="edge8" class="edge">
<title>FeedReplyRepository&#45;&gt;FeedCommentsModule</title>
<path fill="none" stroke="black" d="M898,-122.24C898,-137.57 898,-157 898,-157 898,-157 1118.02,-157 1118.02,-157"/>
<polygon fill="black" stroke="black" points="1118.02,-160.5 1128.02,-157 1118.02,-153.5 1118.02,-160.5"/>
</g>
<!-- FeedRepository -->
<g id="node10" class="node">
<title>FeedRepository</title>
<ellipse fill="#fdb462" stroke="black" cx="713" cy="-104" rx="72.37" ry="18"/>
<text text-anchor="middle" x="713" y="-99.8" font-family="Times,serif" font-size="14.00">FeedRepository</text>
</g>
<!-- FeedRepository&#45;&gt;FeedCommentsModule -->
<g id="edge9" class="edge">
<title>FeedRepository&#45;&gt;FeedCommentsModule</title>
<path fill="none" stroke="black" d="M713,-122.02C713,-139.37 713,-163 713,-163 713,-163 1118.26,-163 1118.26,-163"/>
<polygon fill="black" stroke="black" points="1118.26,-166.5 1128.26,-163 1118.26,-159.5 1118.26,-166.5"/>
</g>
<!-- PostLikeRepository -->
<g id="node11" class="node">
<title>PostLikeRepository</title>
<ellipse fill="#fdb462" stroke="black" cx="535" cy="-104" rx="88" ry="18"/>
<text text-anchor="middle" x="535" y="-99.8" font-family="Times,serif" font-size="14.00">PostLikeRepository</text>
</g>
<!-- PostLikeRepository&#45;&gt;FeedCommentsModule -->
<g id="edge10" class="edge">
<title>PostLikeRepository&#45;&gt;FeedCommentsModule</title>
<path fill="none" stroke="black" d="M535,-122.11C535,-141.34 535,-169 535,-169 535,-169 1118.07,-169 1118.07,-169"/>
<polygon fill="black" stroke="black" points="1118.07,-172.5 1128.07,-169 1118.07,-165.5 1118.07,-172.5"/>
</g>
<!-- PushNotificationTokenRepository -->
<g id="node12" class="node">
<title>PushNotificationTokenRepository</title>
<ellipse fill="#fdb462" stroke="black" cx="286" cy="-104" rx="143.56" ry="18"/>
<text text-anchor="middle" x="286" y="-99.8" font-family="Times,serif" font-size="14.00">PushNotificationTokenRepository</text>
</g>
<!-- PushNotificationTokenRepository&#45;&gt;FeedCommentsModule -->
<g id="edge11" class="edge">
<title>PushNotificationTokenRepository&#45;&gt;FeedCommentsModule</title>
<path fill="none" stroke="black" d="M286,-122.28C286,-143.32 286,-175 286,-175 286,-175 1118.2,-175 1118.2,-175"/>
<polygon fill="black" stroke="black" points="1118.2,-178.5 1128.2,-175 1118.2,-171.5 1118.2,-178.5"/>
</g>
<!-- S3Service -->
<g id="node13" class="node">
<title>S3Service</title>
<ellipse fill="#fdb462" stroke="black" cx="74" cy="-104" rx="50.38" ry="18"/>
<text text-anchor="middle" x="74" y="-99.8" font-family="Times,serif" font-size="14.00">S3Service</text>
</g>
<!-- S3Service&#45;&gt;FeedCommentsModule -->
<g id="edge12" class="edge">
<title>S3Service&#45;&gt;FeedCommentsModule</title>
<path fill="none" stroke="black" d="M74,-122.09C74,-145.13 74,-182 74,-182 74,-182 1117.99,-182 1117.99,-182"/>
<polygon fill="black" stroke="black" points="1117.99,-185.5 1127.99,-182 1117.99,-178.5 1117.99,-185.5"/>
</g>
</g>
</svg>
